%TF.GenerationSoftware,KiCad,Pcbnew,9.0.0*%
%TF.CreationDate,2025-03-09T01:52:38-05:00*%
%TF.ProjectId,tta8_cu,74746138-5f63-4752-9e6b-696361645f70,0*%
%TF.SameCoordinates,Original*%
%TF.FileFunction,Copper,L3,Inr*%
%TF.FilePolarity,Positive*%
%FSLAX46Y46*%
G04 Gerber Fmt 4.6, Leading zero omitted, Abs format (unit mm)*
G04 Created by KiCad (PCBNEW 9.0.0) date 2025-03-09 01:52:38*
%MOMM*%
%LPD*%
G01*
G04 APERTURE LIST*
G04 Aperture macros list*
%AMRoundRect*
0 Rectangle with rounded corners*
0 $1 Rounding radius*
0 $2 $3 $4 $5 $6 $7 $8 $9 X,Y pos of 4 corners*
0 Add a 4 corners polygon primitive as box body*
4,1,4,$2,$3,$4,$5,$6,$7,$8,$9,$2,$3,0*
0 Add four circle primitives for the rounded corners*
1,1,$1+$1,$2,$3*
1,1,$1+$1,$4,$5*
1,1,$1+$1,$6,$7*
1,1,$1+$1,$8,$9*
0 Add four rect primitives between the rounded corners*
20,1,$1+$1,$2,$3,$4,$5,0*
20,1,$1+$1,$4,$5,$6,$7,0*
20,1,$1+$1,$6,$7,$8,$9,0*
20,1,$1+$1,$8,$9,$2,$3,0*%
G04 Aperture macros list end*
%TA.AperFunction,ComponentPad*%
%ADD10RoundRect,0.250000X-0.550000X-0.550000X0.550000X-0.550000X0.550000X0.550000X-0.550000X0.550000X0*%
%TD*%
%TA.AperFunction,ComponentPad*%
%ADD11C,1.600000*%
%TD*%
%TA.AperFunction,ComponentPad*%
%ADD12C,6.400000*%
%TD*%
%TA.AperFunction,ComponentPad*%
%ADD13R,1.700000X1.700000*%
%TD*%
%TA.AperFunction,ComponentPad*%
%ADD14O,1.700000X1.700000*%
%TD*%
%TA.AperFunction,ComponentPad*%
%ADD15RoundRect,0.250001X0.499999X0.499999X-0.499999X0.499999X-0.499999X-0.499999X0.499999X-0.499999X0*%
%TD*%
%TA.AperFunction,ComponentPad*%
%ADD16C,1.500000*%
%TD*%
%TA.AperFunction,ViaPad*%
%ADD17C,0.600000*%
%TD*%
%TA.AperFunction,Conductor*%
%ADD18C,0.200000*%
%TD*%
G04 APERTURE END LIST*
D10*
%TO.N,Net-(U5-Q6)*%
%TO.C,U6*%
X89250000Y-105600000D03*
D11*
%TO.N,Net-(U5-Q7)*%
X89250000Y-108140000D03*
%TO.N,GND*%
X89250000Y-110680000D03*
X89250000Y-113220000D03*
X89250000Y-115760000D03*
%TO.N,+5V*%
X89250000Y-118300000D03*
%TO.N,unconnected-(U6-Y7-Pad7)*%
X89250000Y-120840000D03*
%TO.N,GND*%
X89250000Y-123380000D03*
%TO.N,unconnected-(U6-Y6-Pad9)*%
X96870000Y-123380000D03*
%TO.N,unconnected-(U6-Y5-Pad10)*%
X96870000Y-120840000D03*
%TO.N,unconnected-(U6-Y4-Pad11)*%
X96870000Y-118300000D03*
%TO.N,MVI*%
X96870000Y-115760000D03*
%TO.N,mvz*%
X96870000Y-113220000D03*
%TO.N,mvc*%
X96870000Y-110680000D03*
%TO.N,mv*%
X96870000Y-108140000D03*
%TO.N,+5V*%
X96870000Y-105600000D03*
%TD*%
D10*
%TO.N,{slash}R*%
%TO.C,U12*%
X124000000Y-122460000D03*
D11*
%TO.N,pcc*%
X124000000Y-125000000D03*
%TO.N,T12*%
X124000000Y-127540000D03*
%TO.N,T13*%
X124000000Y-130080000D03*
%TO.N,T14*%
X124000000Y-132620000D03*
%TO.N,T15*%
X124000000Y-135160000D03*
%TO.N,Net-(U10-CEP)*%
X124000000Y-137700000D03*
%TO.N,GND*%
X124000000Y-140240000D03*
%TO.N,Net-(U10-~{PE})*%
X131620000Y-140240000D03*
%TO.N,Net-(U11-TC)*%
X131620000Y-137700000D03*
%TO.N,a15*%
X131620000Y-135160000D03*
%TO.N,a14*%
X131620000Y-132620000D03*
%TO.N,a13*%
X131620000Y-130080000D03*
%TO.N,a12*%
X131620000Y-127540000D03*
%TO.N,unconnected-(U12-TC-Pad15)*%
X131620000Y-125000000D03*
%TO.N,+5V*%
X131620000Y-122460000D03*
%TD*%
D10*
%TO.N,{slash}R*%
%TO.C,U11*%
X114250000Y-101560000D03*
D11*
%TO.N,pcc*%
X114250000Y-104100000D03*
%TO.N,T8*%
X114250000Y-106640000D03*
%TO.N,T9*%
X114250000Y-109180000D03*
%TO.N,T10*%
X114250000Y-111720000D03*
%TO.N,T11*%
X114250000Y-114260000D03*
%TO.N,Net-(U10-CEP)*%
X114250000Y-116800000D03*
%TO.N,GND*%
X114250000Y-119340000D03*
%TO.N,Net-(U10-~{PE})*%
X121870000Y-119340000D03*
%TO.N,Net-(U10-TC)*%
X121870000Y-116800000D03*
%TO.N,a11*%
X121870000Y-114260000D03*
%TO.N,a10*%
X121870000Y-111720000D03*
%TO.N,a9*%
X121870000Y-109180000D03*
%TO.N,a8*%
X121870000Y-106640000D03*
%TO.N,Net-(U11-TC)*%
X121870000Y-104100000D03*
%TO.N,+5V*%
X121870000Y-101560000D03*
%TD*%
D12*
%TO.N,unconnected-(H3-Pad1)*%
%TO.C,H3*%
X59000000Y-143000000D03*
%TD*%
%TO.N,unconnected-(H2-Pad1)*%
%TO.C,H2*%
X143000000Y-51000000D03*
%TD*%
D10*
%TO.N,Net-(U14-OE)*%
%TO.C,U14*%
X135380000Y-60570000D03*
D11*
%TO.N,a0*%
X135380000Y-63110000D03*
%TO.N,a1*%
X135380000Y-65650000D03*
%TO.N,a2*%
X135380000Y-68190000D03*
%TO.N,a3*%
X135380000Y-70730000D03*
%TO.N,a4*%
X135380000Y-73270000D03*
%TO.N,a5*%
X135380000Y-75810000D03*
%TO.N,a6*%
X135380000Y-78350000D03*
%TO.N,a7*%
X135380000Y-80890000D03*
%TO.N,GND*%
X135380000Y-83430000D03*
%TO.N,+5V*%
X143000000Y-83430000D03*
%TO.N,A7*%
X143000000Y-80890000D03*
%TO.N,A6*%
X143000000Y-78350000D03*
%TO.N,A5*%
X143000000Y-75810000D03*
%TO.N,A4*%
X143000000Y-73270000D03*
%TO.N,A3*%
X143000000Y-70730000D03*
%TO.N,A2*%
X143000000Y-68190000D03*
%TO.N,A1*%
X143000000Y-65650000D03*
%TO.N,A0*%
X143000000Y-63110000D03*
%TO.N,+5V*%
X143000000Y-60570000D03*
%TD*%
D13*
%TO.N,A0*%
%TO.C,J1*%
X57570000Y-57645000D03*
D14*
%TO.N,src0*%
X60110000Y-57645000D03*
%TO.N,A1*%
X57570000Y-60185000D03*
%TO.N,SRC1*%
X60110000Y-60185000D03*
%TO.N,A2*%
X57570000Y-62725000D03*
%TO.N,SRC2*%
X60110000Y-62725000D03*
%TO.N,A3*%
X57570000Y-65265000D03*
%TO.N,SRC3*%
X60110000Y-65265000D03*
%TO.N,A4*%
X57570000Y-67805000D03*
%TO.N,SRC4*%
X60110000Y-67805000D03*
%TO.N,A5*%
X57570000Y-70345000D03*
%TO.N,SRC5*%
X60110000Y-70345000D03*
%TO.N,A6*%
X57570000Y-72885000D03*
%TO.N,SRC6*%
X60110000Y-72885000D03*
%TO.N,A7*%
X57570000Y-75425000D03*
%TO.N,SRC7*%
X60110000Y-75425000D03*
%TO.N,A8*%
X57570000Y-77965000D03*
%TO.N,dst0*%
X60110000Y-77965000D03*
%TO.N,A9*%
X57570000Y-80505000D03*
%TO.N,DST1*%
X60110000Y-80505000D03*
%TO.N,A10*%
X57570000Y-83045000D03*
%TO.N,DST2*%
X60110000Y-83045000D03*
%TO.N,A11*%
X57570000Y-85585000D03*
%TO.N,DST3*%
X60110000Y-85585000D03*
%TO.N,A12*%
X57570000Y-88125000D03*
%TO.N,DST4*%
X60110000Y-88125000D03*
%TO.N,A13*%
X57570000Y-90665000D03*
%TO.N,DST5*%
X60110000Y-90665000D03*
%TO.N,A14*%
X57570000Y-93205000D03*
%TO.N,DST6*%
X60110000Y-93205000D03*
%TO.N,A15*%
X57570000Y-95745000D03*
%TO.N,DST7*%
X60110000Y-95745000D03*
%TO.N,D0*%
X57570000Y-98285000D03*
%TO.N,T0*%
X60110000Y-98285000D03*
%TO.N,D1*%
X57570000Y-100825000D03*
%TO.N,T1*%
X60110000Y-100825000D03*
%TO.N,D2*%
X57570000Y-103365000D03*
%TO.N,T2*%
X60110000Y-103365000D03*
%TO.N,D3*%
X57570000Y-105905000D03*
%TO.N,T3*%
X60110000Y-105905000D03*
%TO.N,D4*%
X57570000Y-108445000D03*
%TO.N,T4*%
X60110000Y-108445000D03*
%TO.N,D5*%
X57570000Y-110985000D03*
%TO.N,T5*%
X60110000Y-110985000D03*
%TO.N,D6*%
X57570000Y-113525000D03*
%TO.N,T6*%
X60110000Y-113525000D03*
%TO.N,D7*%
X57570000Y-116065000D03*
%TO.N,T7*%
X60110000Y-116065000D03*
%TO.N,LDI*%
X57570000Y-118605000D03*
%TO.N,T8*%
X60110000Y-118605000D03*
%TO.N,EXC*%
X57570000Y-121145000D03*
%TO.N,T9*%
X60110000Y-121145000D03*
%TO.N,CLK*%
X57570000Y-123685000D03*
%TO.N,T10*%
X60110000Y-123685000D03*
%TO.N,{slash}R*%
X57570000Y-126225000D03*
%TO.N,T11*%
X60110000Y-126225000D03*
%TO.N,CARRY*%
X57570000Y-128765000D03*
%TO.N,T12*%
X60110000Y-128765000D03*
%TO.N,ZERO*%
X57570000Y-131305000D03*
%TO.N,T13*%
X60110000Y-131305000D03*
%TO.N,MOV*%
X57570000Y-133845000D03*
%TO.N,T14*%
X60110000Y-133845000D03*
%TO.N,MVI*%
X57570000Y-136385000D03*
%TO.N,T15*%
X60110000Y-136385000D03*
%TD*%
D10*
%TO.N,GND*%
%TO.C,U5*%
X78000000Y-95470000D03*
D11*
%TO.N,D0*%
X78000000Y-98010000D03*
%TO.N,D1*%
X78000000Y-100550000D03*
%TO.N,D2*%
X78000000Y-103090000D03*
%TO.N,D3*%
X78000000Y-105630000D03*
%TO.N,D4*%
X78000000Y-108170000D03*
%TO.N,D5*%
X78000000Y-110710000D03*
%TO.N,D6*%
X78000000Y-113250000D03*
%TO.N,D7*%
X78000000Y-115790000D03*
%TO.N,GND*%
X78000000Y-118330000D03*
%TO.N,LDI*%
X85620000Y-118330000D03*
%TO.N,Net-(U5-Q7)*%
X85620000Y-115790000D03*
%TO.N,Net-(U5-Q6)*%
X85620000Y-113250000D03*
%TO.N,Net-(U5-Q5)*%
X85620000Y-110710000D03*
%TO.N,Net-(U5-Q4)*%
X85620000Y-108170000D03*
%TO.N,Net-(U5-Q3)*%
X85620000Y-105630000D03*
%TO.N,Net-(U5-Q2)*%
X85620000Y-103090000D03*
%TO.N,Net-(U5-Q1)*%
X85620000Y-100550000D03*
%TO.N,Net-(U5-Q0)*%
X85620000Y-98010000D03*
%TO.N,+5V*%
X85620000Y-95470000D03*
%TD*%
D12*
%TO.N,unconnected-(H1-Pad1)*%
%TO.C,H1*%
X59000000Y-51000000D03*
%TD*%
D10*
%TO.N,CARRY*%
%TO.C,U4*%
X65750000Y-125710000D03*
D11*
%TO.N,mvc*%
X65750000Y-128250000D03*
%TO.N,Net-(U3-Pad4)*%
X65750000Y-130790000D03*
%TO.N,ZERO*%
X65750000Y-133330000D03*
%TO.N,mvz*%
X65750000Y-135870000D03*
%TO.N,Net-(U3-Pad5)*%
X65750000Y-138410000D03*
%TO.N,GND*%
X65750000Y-140950000D03*
%TO.N,MOV*%
X73370000Y-140950000D03*
%TO.N,Net-(U3-Pad8)*%
X73370000Y-138410000D03*
%TO.N,EXC*%
X73370000Y-135870000D03*
%TO.N,unconnected-(U4-Pad11)*%
X73370000Y-133330000D03*
%TO.N,unconnected-(U4-Pad12)*%
X73370000Y-130790000D03*
%TO.N,unconnected-(U4-Pad13)*%
X73370000Y-128250000D03*
%TO.N,+5V*%
X73370000Y-125710000D03*
%TD*%
D10*
%TO.N,+5V*%
%TO.C,U1*%
X65695000Y-53380000D03*
D11*
%TO.N,EXC*%
X65695000Y-55920000D03*
%TO.N,CLK*%
X65695000Y-58460000D03*
%TO.N,Net-(U1A-~{S})*%
X65695000Y-61000000D03*
%TO.N,LDI*%
X65695000Y-63540000D03*
%TO.N,unconnected-(U1A-~{Q}-Pad6)*%
X65695000Y-66080000D03*
%TO.N,GND*%
X65695000Y-68620000D03*
%TO.N,pcc*%
X73315000Y-68620000D03*
%TO.N,EXC*%
X73315000Y-66080000D03*
%TO.N,+5V*%
X73315000Y-63540000D03*
%TO.N,CLK*%
X73315000Y-61000000D03*
%TO.N,LDI*%
X73315000Y-58460000D03*
%TO.N,Net-(U1A-~{S})*%
X73315000Y-55920000D03*
%TO.N,+5V*%
X73315000Y-53380000D03*
%TD*%
D10*
%TO.N,Net-(U5-Q0)*%
%TO.C,U8*%
X89195000Y-53560000D03*
D11*
%TO.N,Net-(U5-Q1)*%
X89195000Y-56100000D03*
%TO.N,Net-(U5-Q2)*%
X89195000Y-58640000D03*
%TO.N,GND*%
X89195000Y-61180000D03*
X89195000Y-63720000D03*
%TO.N,+5V*%
X89195000Y-66260000D03*
%TO.N,SRC7*%
X89195000Y-68800000D03*
%TO.N,GND*%
X89195000Y-71340000D03*
%TO.N,SRC6*%
X96815000Y-71340000D03*
%TO.N,SRC5*%
X96815000Y-68800000D03*
%TO.N,SRC4*%
X96815000Y-66260000D03*
%TO.N,SRC3*%
X96815000Y-63720000D03*
%TO.N,SRC2*%
X96815000Y-61180000D03*
%TO.N,SRC1*%
X96815000Y-58640000D03*
%TO.N,src0*%
X96815000Y-56100000D03*
%TO.N,+5V*%
X96815000Y-53560000D03*
%TD*%
D10*
%TO.N,{slash}R*%
%TO.C,U9*%
X114195000Y-53610000D03*
D11*
%TO.N,pcc*%
X114195000Y-56150000D03*
%TO.N,T0*%
X114195000Y-58690000D03*
%TO.N,T1*%
X114195000Y-61230000D03*
%TO.N,T2*%
X114195000Y-63770000D03*
%TO.N,T3*%
X114195000Y-66310000D03*
%TO.N,+5V*%
X114195000Y-68850000D03*
%TO.N,GND*%
X114195000Y-71390000D03*
%TO.N,Net-(U10-~{PE})*%
X121815000Y-71390000D03*
%TO.N,+5V*%
X121815000Y-68850000D03*
%TO.N,a3*%
X121815000Y-66310000D03*
%TO.N,a2*%
X121815000Y-63770000D03*
%TO.N,a1*%
X121815000Y-61230000D03*
%TO.N,a0*%
X121815000Y-58690000D03*
%TO.N,Net-(U10-CEP)*%
X121815000Y-56150000D03*
%TO.N,+5V*%
X121815000Y-53610000D03*
%TD*%
D10*
%TO.N,LDI*%
%TO.C,U3*%
X65750000Y-101700000D03*
D11*
%TO.N,EXC*%
X65750000Y-104240000D03*
%TO.N,Net-(U2-Pad1)*%
X65750000Y-106780000D03*
%TO.N,Net-(U3-Pad4)*%
X65750000Y-109320000D03*
%TO.N,Net-(U3-Pad5)*%
X65750000Y-111860000D03*
%TO.N,Net-(U3-Pad6)*%
X65750000Y-114400000D03*
%TO.N,GND*%
X65750000Y-116940000D03*
%TO.N,Net-(U3-Pad8)*%
X73370000Y-116940000D03*
%TO.N,Net-(U3-Pad6)*%
X73370000Y-114400000D03*
%TO.N,mv*%
X73370000Y-111860000D03*
%TO.N,unconnected-(U3-Pad11)*%
X73370000Y-109320000D03*
%TO.N,unconnected-(U3-Pad12)*%
X73370000Y-106780000D03*
%TO.N,unconnected-(U3-Pad13)*%
X73370000Y-104240000D03*
%TO.N,+5V*%
X73370000Y-101700000D03*
%TD*%
D10*
%TO.N,Net-(U5-Q3)*%
%TO.C,U7*%
X89250000Y-79660000D03*
D11*
%TO.N,Net-(U5-Q4)*%
X89250000Y-82200000D03*
%TO.N,Net-(U5-Q5)*%
X89250000Y-84740000D03*
%TO.N,GND*%
X89250000Y-87280000D03*
X89250000Y-89820000D03*
%TO.N,+5V*%
X89250000Y-92360000D03*
%TO.N,DST7*%
X89250000Y-94900000D03*
%TO.N,GND*%
X89250000Y-97440000D03*
%TO.N,DST6*%
X96870000Y-97440000D03*
%TO.N,DST5*%
X96870000Y-94900000D03*
%TO.N,DST4*%
X96870000Y-92360000D03*
%TO.N,DST3*%
X96870000Y-89820000D03*
%TO.N,DST2*%
X96870000Y-87280000D03*
%TO.N,DST1*%
X96870000Y-84740000D03*
%TO.N,dst0*%
X96870000Y-82200000D03*
%TO.N,+5V*%
X96870000Y-79660000D03*
%TD*%
D15*
%TO.N,+5V*%
%TO.C,J2*%
X109000000Y-137500000D03*
D16*
%TO.N,GND*%
X106000000Y-137500000D03*
%TO.N,+5V*%
X109000000Y-134500000D03*
%TO.N,GND*%
X106000000Y-134500000D03*
%TD*%
D12*
%TO.N,unconnected-(H4-Pad1)*%
%TO.C,H4*%
X143000000Y-143000000D03*
%TD*%
D10*
%TO.N,{slash}R*%
%TO.C,U10*%
X124000000Y-74520000D03*
D11*
%TO.N,pcc*%
X124000000Y-77060000D03*
%TO.N,T4*%
X124000000Y-79600000D03*
%TO.N,T5*%
X124000000Y-82140000D03*
%TO.N,T6*%
X124000000Y-84680000D03*
%TO.N,T7*%
X124000000Y-87220000D03*
%TO.N,Net-(U10-CEP)*%
X124000000Y-89760000D03*
%TO.N,GND*%
X124000000Y-92300000D03*
%TO.N,Net-(U10-~{PE})*%
X131620000Y-92300000D03*
%TO.N,+5V*%
X131620000Y-89760000D03*
%TO.N,a7*%
X131620000Y-87220000D03*
%TO.N,a6*%
X131620000Y-84680000D03*
%TO.N,a5*%
X131620000Y-82140000D03*
%TO.N,a4*%
X131620000Y-79600000D03*
%TO.N,Net-(U10-TC)*%
X131620000Y-77060000D03*
%TO.N,+5V*%
X131620000Y-74520000D03*
%TD*%
D10*
%TO.N,Net-(U16-OE)*%
%TO.C,U16*%
X101500000Y-53560000D03*
D11*
%TO.N,GND*%
X101500000Y-56100000D03*
X101500000Y-58640000D03*
X101500000Y-61180000D03*
X101500000Y-63720000D03*
X101500000Y-66260000D03*
X101500000Y-68800000D03*
X101500000Y-71340000D03*
X101500000Y-73880000D03*
X101500000Y-76420000D03*
%TO.N,+5V*%
X109120000Y-76420000D03*
%TO.N,T7*%
X109120000Y-73880000D03*
%TO.N,T6*%
X109120000Y-71340000D03*
%TO.N,T5*%
X109120000Y-68800000D03*
%TO.N,T4*%
X109120000Y-66260000D03*
%TO.N,T3*%
X109120000Y-63720000D03*
%TO.N,T2*%
X109120000Y-61180000D03*
%TO.N,T1*%
X109120000Y-58640000D03*
%TO.N,T0*%
X109120000Y-56100000D03*
%TO.N,+5V*%
X109120000Y-53560000D03*
%TD*%
D10*
%TO.N,Net-(U2-Pad1)*%
%TO.C,U2*%
X65750000Y-77700000D03*
D11*
%TO.N,R*%
X65750000Y-80240000D03*
%TO.N,Net-(U1A-~{S})*%
X65750000Y-82780000D03*
%TO.N,unconnected-(U2-Pad4)*%
X65750000Y-85320000D03*
%TO.N,unconnected-(U2-Pad5)*%
X65750000Y-87860000D03*
%TO.N,unconnected-(U2-Pad6)*%
X65750000Y-90400000D03*
%TO.N,GND*%
X65750000Y-92940000D03*
%TO.N,unconnected-(U2-Pad8)*%
X73370000Y-92940000D03*
%TO.N,unconnected-(U2-Pad9)*%
X73370000Y-90400000D03*
%TO.N,unconnected-(U2-Pad10)*%
X73370000Y-87860000D03*
%TO.N,unconnected-(U2-Pad11)*%
X73370000Y-85320000D03*
%TO.N,unconnected-(U2-Pad12)*%
X73370000Y-82780000D03*
%TO.N,unconnected-(U2-Pad13)*%
X73370000Y-80240000D03*
%TO.N,+5V*%
X73370000Y-77700000D03*
%TD*%
D10*
%TO.N,Net-(U14-OE)*%
%TO.C,U15*%
X135500000Y-101620000D03*
D11*
%TO.N,a8*%
X135500000Y-104160000D03*
%TO.N,a9*%
X135500000Y-106700000D03*
%TO.N,a10*%
X135500000Y-109240000D03*
%TO.N,a11*%
X135500000Y-111780000D03*
%TO.N,a12*%
X135500000Y-114320000D03*
%TO.N,a13*%
X135500000Y-116860000D03*
%TO.N,a14*%
X135500000Y-119400000D03*
%TO.N,a15*%
X135500000Y-121940000D03*
%TO.N,GND*%
X135500000Y-124480000D03*
%TO.N,+5V*%
X143120000Y-124480000D03*
%TO.N,A15*%
X143120000Y-121940000D03*
%TO.N,A14*%
X143120000Y-119400000D03*
%TO.N,A13*%
X143120000Y-116860000D03*
%TO.N,A12*%
X143120000Y-114320000D03*
%TO.N,A11*%
X143120000Y-111780000D03*
%TO.N,A10*%
X143120000Y-109240000D03*
%TO.N,A9*%
X143120000Y-106700000D03*
%TO.N,A8*%
X143120000Y-104160000D03*
%TO.N,+5V*%
X143120000Y-101620000D03*
%TD*%
D10*
%TO.N,{slash}R*%
%TO.C,U13*%
X78000000Y-125710000D03*
D11*
X78000000Y-128250000D03*
%TO.N,R*%
X78000000Y-130790000D03*
%TO.N,MOV*%
X78000000Y-133330000D03*
%TO.N,dst0*%
X78000000Y-135870000D03*
%TO.N,Net-(U10-~{PE})*%
X78000000Y-138410000D03*
%TO.N,GND*%
X78000000Y-140950000D03*
%TO.N,Net-(U14-OE)*%
X85620000Y-140950000D03*
%TO.N,LDI*%
X85620000Y-138410000D03*
X85620000Y-135870000D03*
%TO.N,Net-(U16-OE)*%
X85620000Y-133330000D03*
%TO.N,MOV*%
X85620000Y-130790000D03*
%TO.N,src0*%
X85620000Y-128250000D03*
%TO.N,+5V*%
X85620000Y-125710000D03*
%TD*%
D10*
%TO.N,Net-(U16-OE)*%
%TO.C,U17*%
X101500000Y-101560000D03*
D11*
%TO.N,GND*%
X101500000Y-104100000D03*
X101500000Y-106640000D03*
X101500000Y-109180000D03*
X101500000Y-111720000D03*
X101500000Y-114260000D03*
X101500000Y-116800000D03*
X101500000Y-119340000D03*
X101500000Y-121880000D03*
X101500000Y-124420000D03*
%TO.N,+5V*%
X109120000Y-124420000D03*
%TO.N,T15*%
X109120000Y-121880000D03*
%TO.N,T14*%
X109120000Y-119340000D03*
%TO.N,T13*%
X109120000Y-116800000D03*
%TO.N,T12*%
X109120000Y-114260000D03*
%TO.N,T11*%
X109120000Y-111720000D03*
%TO.N,T10*%
X109120000Y-109180000D03*
%TO.N,T9*%
X109120000Y-106640000D03*
%TO.N,T8*%
X109120000Y-104100000D03*
%TO.N,+5V*%
X109120000Y-101560000D03*
%TD*%
D17*
%TO.N,EXC*%
X63250000Y-134500000D03*
%TO.N,SRC5*%
X91500000Y-68250000D03*
%TO.N,D6*%
X62250000Y-115000000D03*
%TO.N,D1*%
X68500000Y-109500000D03*
%TO.N,DST6*%
X76000000Y-99250000D03*
X89000000Y-100500000D03*
X79750000Y-99500000D03*
%TO.N,src0*%
X93000000Y-110750000D03*
X93000000Y-114059000D03*
%TO.N,DST1*%
X70750000Y-79000000D03*
%TO.N,DST2*%
X71500000Y-81250000D03*
%TO.N,D7*%
X62250000Y-117250000D03*
%TO.N,D2*%
X70000000Y-109000000D03*
%TO.N,MVI*%
X91250000Y-128250000D03*
%TO.N,{slash}R*%
X117250000Y-108750000D03*
%TO.N,DST4*%
X79000000Y-90500000D03*
X69000000Y-87500000D03*
X76250000Y-92000000D03*
%TO.N,D4*%
X63555645Y-112555645D03*
%TO.N,DST3*%
X76000000Y-85000000D03*
%TO.N,dst0*%
X93797538Y-113996260D03*
X93750000Y-110250000D03*
X82750000Y-131250000D03*
%TO.N,D5*%
X62500000Y-114000000D03*
%TO.N,D3*%
X70750000Y-109500000D03*
%TO.N,D0*%
X69197210Y-107552790D03*
%TO.N,SRC6*%
X93250000Y-73750000D03*
%TO.N,DST7*%
X68500000Y-96500000D03*
X80750000Y-92250000D03*
X63500000Y-101000000D03*
%TO.N,DST5*%
X89689300Y-98889300D03*
X80250000Y-98250000D03*
X76250000Y-97750000D03*
%TO.N,SRC4*%
X93250000Y-66250000D03*
%TO.N,R*%
X68000000Y-82000000D03*
X68950735Y-100049265D03*
X67750000Y-104250000D03*
X69500000Y-128000000D03*
%TO.N,Net-(U3-Pad4)*%
X64048265Y-117298265D03*
%TO.N,mv*%
X87004265Y-115259000D03*
X76000000Y-111211000D03*
%TO.N,mvz*%
X76250000Y-137250000D03*
%TO.N,mvc*%
X74750000Y-132000000D03*
%TO.N,Net-(U5-Q5)*%
X83500000Y-90000000D03*
%TO.N,Net-(U10-~{PE})*%
X121750000Y-77176000D03*
X114751000Y-122250000D03*
%TO.N,Net-(U11-TC)*%
X127500000Y-119000000D03*
%TD*%
D18*
%TO.N,A13*%
X61261000Y-92728240D02*
X60348760Y-91816000D01*
X97326050Y-109241000D02*
X93491000Y-109241000D01*
X90981000Y-106731000D02*
X75216050Y-106731000D01*
X75216050Y-106731000D02*
X73826050Y-105341000D01*
X72591000Y-105341000D02*
X61261000Y-94011000D01*
X73826050Y-105341000D02*
X72591000Y-105341000D01*
X98366050Y-110281000D02*
X97326050Y-109241000D01*
X60348760Y-91816000D02*
X58721000Y-91816000D01*
X107096050Y-115421000D02*
X101956050Y-110281000D01*
X141681000Y-115421000D02*
X107096050Y-115421000D01*
X93491000Y-109241000D02*
X90981000Y-106731000D01*
X143120000Y-116860000D02*
X141681000Y-115421000D01*
X101956050Y-110281000D02*
X98366050Y-110281000D01*
X58721000Y-91816000D02*
X57570000Y-90665000D01*
X61261000Y-94011000D02*
X61261000Y-92728240D01*
%TO.N,SRC5*%
X92050000Y-68800000D02*
X91500000Y-68250000D01*
X96815000Y-68800000D02*
X92050000Y-68800000D01*
%TO.N,A14*%
X89398050Y-109271000D02*
X75216050Y-109271000D01*
X75216050Y-109271000D02*
X73826050Y-107881000D01*
X100568050Y-115361000D02*
X96988050Y-111781000D01*
X104556050Y-117961000D02*
X101956050Y-115361000D01*
X58721000Y-94356000D02*
X57570000Y-93205000D01*
X101956050Y-115361000D02*
X100568050Y-115361000D01*
X67833950Y-101841190D02*
X60348760Y-94356000D01*
X96988050Y-111781000D02*
X91908050Y-111781000D01*
X91908050Y-111781000D02*
X89398050Y-109271000D01*
X60348760Y-94356000D02*
X58721000Y-94356000D01*
X141681000Y-117961000D02*
X104556050Y-117961000D01*
X143120000Y-119400000D02*
X141681000Y-117961000D01*
X73826050Y-107881000D02*
X72913950Y-107881000D01*
X72913950Y-107881000D02*
X67833950Y-102801000D01*
X67833950Y-102801000D02*
X67833950Y-101841190D01*
%TO.N,D1*%
X60582760Y-104750000D02*
X59838240Y-104750000D01*
X58721000Y-103632760D02*
X58721000Y-101976000D01*
X61261000Y-105428240D02*
X60582760Y-104750000D01*
X59838240Y-104750000D02*
X58721000Y-103632760D01*
X58721000Y-101976000D02*
X57570000Y-100825000D01*
X61261000Y-106511000D02*
X61261000Y-105428240D01*
X68500000Y-109500000D02*
X67579000Y-110421000D01*
X67579000Y-110421000D02*
X65171000Y-110421000D01*
X65171000Y-110421000D02*
X61261000Y-106511000D01*
%TO.N,A15*%
X61261000Y-97657000D02*
X60500000Y-96896000D01*
X143120000Y-121940000D02*
X141681000Y-120501000D01*
X75216050Y-111811000D02*
X73826050Y-110421000D01*
X61261000Y-101308050D02*
X61261000Y-97657000D01*
X60500000Y-96896000D02*
X58721000Y-96896000D01*
X94448050Y-116861000D02*
X89398050Y-111811000D01*
X97111000Y-116861000D02*
X94448050Y-116861000D01*
X73826050Y-110421000D02*
X72913950Y-110421000D01*
X141681000Y-120501000D02*
X100751000Y-120501000D01*
X100751000Y-120501000D02*
X97111000Y-116861000D01*
X67833950Y-105341000D02*
X65293950Y-105341000D01*
X58721000Y-96896000D02*
X57570000Y-95745000D01*
X65293950Y-105341000D02*
X61261000Y-101308050D01*
X72913950Y-110421000D02*
X67833950Y-105341000D01*
X89398050Y-111811000D02*
X75216050Y-111811000D01*
%TO.N,A4*%
X60432760Y-66500000D02*
X58875000Y-66500000D01*
X136496050Y-66766050D02*
X122916000Y-66766050D01*
X61343760Y-67411000D02*
X60432760Y-66500000D01*
X58875000Y-66500000D02*
X57570000Y-67805000D01*
X122271050Y-67411000D02*
X61343760Y-67411000D01*
X122916000Y-66766050D02*
X122271050Y-67411000D01*
X143000000Y-73270000D02*
X136496050Y-66766050D01*
%TO.N,DST1*%
X95769000Y-83639000D02*
X78326050Y-83639000D01*
X73687050Y-79000000D02*
X70750000Y-79000000D01*
X96870000Y-84740000D02*
X95769000Y-83639000D01*
X78326050Y-83639000D02*
X73687050Y-79000000D01*
%TO.N,A0*%
X61343760Y-57251000D02*
X60586760Y-56494000D01*
X143000000Y-63110000D02*
X137141000Y-57251000D01*
X137141000Y-57251000D02*
X61343760Y-57251000D01*
X60586760Y-56494000D02*
X58721000Y-56494000D01*
X58721000Y-56494000D02*
X57570000Y-57645000D01*
%TO.N,A6*%
X60824760Y-71734000D02*
X58721000Y-71734000D01*
X136819000Y-72169000D02*
X122593050Y-72169000D01*
X143000000Y-78350000D02*
X136819000Y-72169000D01*
X122593050Y-72169000D02*
X122271050Y-72491000D01*
X61581760Y-72491000D02*
X60824760Y-71734000D01*
X58721000Y-71734000D02*
X57570000Y-72885000D01*
X122271050Y-72491000D02*
X61581760Y-72491000D01*
%TO.N,DST2*%
X77988050Y-85841000D02*
X73488050Y-81341000D01*
X96870000Y-87280000D02*
X95431000Y-85841000D01*
X73488050Y-81341000D02*
X71591000Y-81341000D01*
X71591000Y-81341000D02*
X71500000Y-81250000D01*
X95431000Y-85841000D02*
X77988050Y-85841000D01*
%TO.N,A3*%
X61343760Y-64871000D02*
X60586760Y-64114000D01*
X60586760Y-64114000D02*
X58721000Y-64114000D01*
X122593050Y-64549000D02*
X122271050Y-64871000D01*
X143000000Y-70730000D02*
X136819000Y-64549000D01*
X122271050Y-64871000D02*
X61343760Y-64871000D01*
X58721000Y-64114000D02*
X57570000Y-65265000D01*
X136819000Y-64549000D02*
X122593050Y-64549000D01*
%TO.N,D2*%
X58721000Y-104516000D02*
X57570000Y-103365000D01*
X60586760Y-107056000D02*
X59633240Y-107056000D01*
X59633240Y-107056000D02*
X58721000Y-106143760D01*
X58721000Y-106143760D02*
X58721000Y-104516000D01*
X61261000Y-107730240D02*
X60586760Y-107056000D01*
X61261000Y-108928050D02*
X61261000Y-107730240D01*
X66206050Y-112961000D02*
X65293950Y-112961000D01*
X70000000Y-109167050D02*
X66206050Y-112961000D01*
X70000000Y-109000000D02*
X70000000Y-109167050D01*
X65293950Y-112961000D02*
X61261000Y-108928050D01*
%TO.N,A7*%
X58721000Y-74274000D02*
X57570000Y-75425000D01*
X120348150Y-74981000D02*
X61293760Y-74981000D01*
X60586760Y-74274000D02*
X58721000Y-74274000D01*
X133028050Y-74371000D02*
X131549050Y-72892000D01*
X122437150Y-72892000D02*
X120348150Y-74981000D01*
X131549050Y-72892000D02*
X122437150Y-72892000D01*
X61293760Y-74981000D02*
X60586760Y-74274000D01*
X143000000Y-80890000D02*
X136481000Y-74371000D01*
X136481000Y-74371000D02*
X133028050Y-74371000D01*
%TO.N,MVI*%
X60696000Y-139511000D02*
X86076050Y-139511000D01*
X57570000Y-136385000D02*
X60696000Y-139511000D01*
X91250000Y-134337050D02*
X91250000Y-128250000D01*
X86076050Y-139511000D02*
X91250000Y-134337050D01*
%TO.N,{slash}R*%
X81431000Y-122279000D02*
X100341950Y-122279000D01*
X100341950Y-122279000D02*
X101043950Y-122981000D01*
X123479000Y-122981000D02*
X124000000Y-122460000D01*
X101043950Y-122981000D02*
X123479000Y-122981000D01*
X78000000Y-125710000D02*
X81431000Y-122279000D01*
%TO.N,A9*%
X87708050Y-96001000D02*
X85957050Y-94250000D01*
X81317050Y-94250000D02*
X73826050Y-86759000D01*
X85957050Y-94250000D02*
X81317050Y-94250000D01*
X58721000Y-81656000D02*
X57570000Y-80505000D01*
X71286050Y-86759000D02*
X66183050Y-81656000D01*
X143120000Y-106700000D02*
X132421000Y-96001000D01*
X132421000Y-96001000D02*
X87708050Y-96001000D01*
X73826050Y-86759000D02*
X71286050Y-86759000D01*
X66183050Y-81656000D02*
X58721000Y-81656000D01*
%TO.N,DST4*%
X88461000Y-93461000D02*
X86322000Y-91322000D01*
X76089000Y-91839000D02*
X73251950Y-91839000D01*
X73251950Y-91839000D02*
X69000000Y-87587050D01*
X69000000Y-87587050D02*
X69000000Y-87500000D01*
X79682900Y-90500000D02*
X79000000Y-90500000D01*
X96870000Y-92360000D02*
X95769000Y-93461000D01*
X80270000Y-91087100D02*
X79682900Y-90500000D01*
X95769000Y-93461000D02*
X88461000Y-93461000D01*
X80504900Y-91322000D02*
X80270000Y-91087100D01*
X86322000Y-91322000D02*
X80837100Y-91322000D01*
X80837100Y-91322000D02*
X80504900Y-91322000D01*
X76250000Y-92000000D02*
X76089000Y-91839000D01*
%TO.N,A12*%
X75216050Y-104191000D02*
X73826050Y-102801000D01*
X107096050Y-112881000D02*
X101956050Y-107741000D01*
X96413950Y-106701000D02*
X93903950Y-104191000D01*
X93903950Y-104191000D02*
X75216050Y-104191000D01*
X101956050Y-107741000D02*
X98366050Y-107741000D01*
X97326050Y-106701000D02*
X96413950Y-106701000D01*
X143120000Y-114320000D02*
X141681000Y-112881000D01*
X58945000Y-89500000D02*
X57570000Y-88125000D01*
X73826050Y-102801000D02*
X72551000Y-102801000D01*
X141681000Y-112881000D02*
X107096050Y-112881000D01*
X98366050Y-107741000D02*
X97326050Y-106701000D01*
X61261000Y-91511000D02*
X61261000Y-90188240D01*
X60572760Y-89500000D02*
X58945000Y-89500000D01*
X61261000Y-90188240D02*
X60572760Y-89500000D01*
X72551000Y-102801000D02*
X61261000Y-91511000D01*
%TO.N,DST3*%
X79719000Y-88719000D02*
X76000000Y-85000000D01*
X96870000Y-89820000D02*
X95769000Y-88719000D01*
X95769000Y-88719000D02*
X79719000Y-88719000D01*
%TO.N,A1*%
X58721000Y-59034000D02*
X57570000Y-60185000D01*
X143000000Y-65650000D02*
X136496050Y-59146050D01*
X122916000Y-59146050D02*
X122271050Y-59791000D01*
X122271050Y-59791000D02*
X61343760Y-59791000D01*
X61343760Y-59791000D02*
X60586760Y-59034000D01*
X60586760Y-59034000D02*
X58721000Y-59034000D01*
X136496050Y-59146050D02*
X122916000Y-59146050D01*
%TO.N,A2*%
X143000000Y-68190000D02*
X136810000Y-62000000D01*
X60586760Y-61574000D02*
X58721000Y-61574000D01*
X61343760Y-62331000D02*
X60586760Y-61574000D01*
X58721000Y-61574000D02*
X57570000Y-62725000D01*
X122271050Y-62331000D02*
X61343760Y-62331000D01*
X122602050Y-62000000D02*
X122271050Y-62331000D01*
X136810000Y-62000000D02*
X122602050Y-62000000D01*
%TO.N,A8*%
X143120000Y-104160000D02*
X132361000Y-93401000D01*
X80671000Y-90921000D02*
X73631000Y-83881000D01*
X70948050Y-83881000D02*
X66183050Y-79116000D01*
X96988050Y-90921000D02*
X80671000Y-90921000D01*
X132361000Y-93401000D02*
X99468050Y-93401000D01*
X66183050Y-79116000D02*
X58721000Y-79116000D01*
X99468050Y-93401000D02*
X96988050Y-90921000D01*
X58721000Y-79116000D02*
X57570000Y-77965000D01*
X73631000Y-83881000D02*
X70948050Y-83881000D01*
%TO.N,dst0*%
X96870000Y-82200000D02*
X91269000Y-76599000D01*
X61476000Y-76599000D02*
X60110000Y-77965000D01*
X78130000Y-135870000D02*
X78000000Y-135870000D01*
X91269000Y-76599000D02*
X61476000Y-76599000D01*
X82750000Y-131250000D02*
X78130000Y-135870000D01*
%TO.N,A10*%
X60348760Y-84196000D02*
X58721000Y-84196000D01*
X65113760Y-88961000D02*
X60348760Y-84196000D01*
X58721000Y-84196000D02*
X57570000Y-83045000D01*
X86076050Y-96571000D02*
X74571000Y-96571000D01*
X66961000Y-88961000D02*
X65113760Y-88961000D01*
X143120000Y-109240000D02*
X136601000Y-102721000D01*
X92226050Y-102721000D02*
X86076050Y-96571000D01*
X136601000Y-102721000D02*
X92226050Y-102721000D01*
X74571000Y-96571000D02*
X66961000Y-88961000D01*
%TO.N,D5*%
X58721000Y-112136000D02*
X57570000Y-110985000D01*
X62500000Y-114000000D02*
X60636000Y-112136000D01*
X60636000Y-112136000D02*
X58721000Y-112136000D01*
%TO.N,D3*%
X58721000Y-107056000D02*
X57570000Y-105905000D01*
X58721000Y-108683760D02*
X58721000Y-107056000D01*
X60586760Y-109596000D02*
X59633240Y-109596000D01*
X70750000Y-109500000D02*
X70750000Y-110957050D01*
X65293950Y-115501000D02*
X61261000Y-111468050D01*
X70750000Y-110957050D02*
X66206050Y-115501000D01*
X59633240Y-109596000D02*
X58721000Y-108683760D01*
X61261000Y-111468050D02*
X61261000Y-110270240D01*
X66206050Y-115501000D02*
X65293950Y-115501000D01*
X61261000Y-110270240D02*
X60586760Y-109596000D01*
%TO.N,D0*%
X61261000Y-103848050D02*
X61261000Y-102864240D01*
X65293950Y-107881000D02*
X61261000Y-103848050D01*
X58721000Y-101063760D02*
X58721000Y-99436000D01*
X69197210Y-107552790D02*
X68869000Y-107881000D01*
X68869000Y-107881000D02*
X65293950Y-107881000D01*
X59633240Y-101976000D02*
X58721000Y-101063760D01*
X58721000Y-99436000D02*
X57570000Y-98285000D01*
X61261000Y-102864240D02*
X60372760Y-101976000D01*
X60372760Y-101976000D02*
X59633240Y-101976000D01*
%TO.N,A5*%
X58721000Y-69194000D02*
X57570000Y-70345000D01*
X60586760Y-69194000D02*
X58721000Y-69194000D01*
X122593050Y-69629000D02*
X122271050Y-69951000D01*
X122271050Y-69951000D02*
X61343760Y-69951000D01*
X143000000Y-75810000D02*
X136819000Y-69629000D01*
X61343760Y-69951000D02*
X60586760Y-69194000D01*
X136819000Y-69629000D02*
X122593050Y-69629000D01*
%TO.N,SRC6*%
X60975000Y-73750000D02*
X60110000Y-72885000D01*
X93250000Y-73750000D02*
X60975000Y-73750000D01*
%TO.N,DST7*%
X89250000Y-94900000D02*
X86600000Y-92250000D01*
X86600000Y-92250000D02*
X80750000Y-92250000D01*
X63500000Y-101000000D02*
X63500000Y-99135000D01*
X63500000Y-99135000D02*
X60110000Y-95745000D01*
%TO.N,A11*%
X65113760Y-91501000D02*
X60348760Y-86736000D01*
X76018050Y-101651000D02*
X65868050Y-91501000D01*
X98378000Y-105500000D02*
X96000000Y-103122000D01*
X65868050Y-91501000D02*
X65113760Y-91501000D01*
X96000000Y-103122000D02*
X87547050Y-103122000D01*
X58721000Y-86736000D02*
X57570000Y-85585000D01*
X87547050Y-103122000D02*
X86076050Y-101651000D01*
X86076050Y-101651000D02*
X76018050Y-101651000D01*
X60348760Y-86736000D02*
X58721000Y-86736000D01*
X143120000Y-111780000D02*
X136840000Y-105500000D01*
X136840000Y-105500000D02*
X98378000Y-105500000D01*
%TO.N,SRC4*%
X96815000Y-66260000D02*
X93260000Y-66260000D01*
X93260000Y-66260000D02*
X93250000Y-66250000D01*
%TO.N,Net-(U3-Pad4)*%
X64048265Y-129088265D02*
X64048265Y-117298265D01*
X65750000Y-130790000D02*
X64048265Y-129088265D01*
%TO.N,Net-(U10-~{PE})*%
X123762950Y-86000000D02*
X121750000Y-83987050D01*
X125320000Y-86000000D02*
X123762950Y-86000000D01*
X121750000Y-83987050D02*
X121750000Y-77176000D01*
X131620000Y-92300000D02*
X125320000Y-86000000D01*
%TD*%
M02*
