%TF.GenerationSoftware,KiCad,Pcbnew,9.0.0*%
%TF.CreationDate,2025-03-09T01:52:38-05:00*%
%TF.ProjectId,tta8_cu,74746138-5f63-4752-9e6b-696361645f70,0*%
%TF.SameCoordinates,Original*%
%TF.FileFunction,Soldermask,Top*%
%TF.FilePolarity,Negative*%
%FSLAX46Y46*%
G04 Gerber Fmt 4.6, Leading zero omitted, Abs format (unit mm)*
G04 Created by KiCad (PCBNEW 9.0.0) date 2025-03-09 01:52:38*
%MOMM*%
%LPD*%
G01*
G04 APERTURE LIST*
G04 Aperture macros list*
%AMRoundRect*
0 Rectangle with rounded corners*
0 $1 Rounding radius*
0 $2 $3 $4 $5 $6 $7 $8 $9 X,Y pos of 4 corners*
0 Add a 4 corners polygon primitive as box body*
4,1,4,$2,$3,$4,$5,$6,$7,$8,$9,$2,$3,0*
0 Add four circle primitives for the rounded corners*
1,1,$1+$1,$2,$3*
1,1,$1+$1,$4,$5*
1,1,$1+$1,$6,$7*
1,1,$1+$1,$8,$9*
0 Add four rect primitives between the rounded corners*
20,1,$1+$1,$2,$3,$4,$5,0*
20,1,$1+$1,$4,$5,$6,$7,0*
20,1,$1+$1,$6,$7,$8,$9,0*
20,1,$1+$1,$8,$9,$2,$3,0*%
G04 Aperture macros list end*
%ADD10RoundRect,0.250000X-0.550000X-0.550000X0.550000X-0.550000X0.550000X0.550000X-0.550000X0.550000X0*%
%ADD11C,1.600000*%
%ADD12C,6.400000*%
%ADD13R,1.700000X1.700000*%
%ADD14O,1.700000X1.700000*%
%ADD15C,3.000000*%
%ADD16RoundRect,0.250001X0.499999X0.499999X-0.499999X0.499999X-0.499999X-0.499999X0.499999X-0.499999X0*%
%ADD17C,1.500000*%
G04 APERTURE END LIST*
D10*
%TO.C,U6*%
X89250000Y-105600000D03*
D11*
X89250000Y-108140000D03*
X89250000Y-110680000D03*
X89250000Y-113220000D03*
X89250000Y-115760000D03*
X89250000Y-118300000D03*
X89250000Y-120840000D03*
X89250000Y-123380000D03*
X96870000Y-123380000D03*
X96870000Y-120840000D03*
X96870000Y-118300000D03*
X96870000Y-115760000D03*
X96870000Y-113220000D03*
X96870000Y-110680000D03*
X96870000Y-108140000D03*
X96870000Y-105600000D03*
%TD*%
D10*
%TO.C,U12*%
X124000000Y-122460000D03*
D11*
X124000000Y-125000000D03*
X124000000Y-127540000D03*
X124000000Y-130080000D03*
X124000000Y-132620000D03*
X124000000Y-135160000D03*
X124000000Y-137700000D03*
X124000000Y-140240000D03*
X131620000Y-140240000D03*
X131620000Y-137700000D03*
X131620000Y-135160000D03*
X131620000Y-132620000D03*
X131620000Y-130080000D03*
X131620000Y-127540000D03*
X131620000Y-125000000D03*
X131620000Y-122460000D03*
%TD*%
D10*
%TO.C,U11*%
X114250000Y-101560000D03*
D11*
X114250000Y-104100000D03*
X114250000Y-106640000D03*
X114250000Y-109180000D03*
X114250000Y-111720000D03*
X114250000Y-114260000D03*
X114250000Y-116800000D03*
X114250000Y-119340000D03*
X121870000Y-119340000D03*
X121870000Y-116800000D03*
X121870000Y-114260000D03*
X121870000Y-111720000D03*
X121870000Y-109180000D03*
X121870000Y-106640000D03*
X121870000Y-104100000D03*
X121870000Y-101560000D03*
%TD*%
D12*
%TO.C,H3*%
X59000000Y-143000000D03*
%TD*%
%TO.C,H2*%
X143000000Y-51000000D03*
%TD*%
D10*
%TO.C,U14*%
X135380000Y-60570000D03*
D11*
X135380000Y-63110000D03*
X135380000Y-65650000D03*
X135380000Y-68190000D03*
X135380000Y-70730000D03*
X135380000Y-73270000D03*
X135380000Y-75810000D03*
X135380000Y-78350000D03*
X135380000Y-80890000D03*
X135380000Y-83430000D03*
X143000000Y-83430000D03*
X143000000Y-80890000D03*
X143000000Y-78350000D03*
X143000000Y-75810000D03*
X143000000Y-73270000D03*
X143000000Y-70730000D03*
X143000000Y-68190000D03*
X143000000Y-65650000D03*
X143000000Y-63110000D03*
X143000000Y-60570000D03*
%TD*%
D13*
%TO.C,J1*%
X57570000Y-57645000D03*
D14*
X60110000Y-57645000D03*
X57570000Y-60185000D03*
X60110000Y-60185000D03*
X57570000Y-62725000D03*
X60110000Y-62725000D03*
X57570000Y-65265000D03*
X60110000Y-65265000D03*
X57570000Y-67805000D03*
X60110000Y-67805000D03*
X57570000Y-70345000D03*
X60110000Y-70345000D03*
X57570000Y-72885000D03*
X60110000Y-72885000D03*
X57570000Y-75425000D03*
X60110000Y-75425000D03*
X57570000Y-77965000D03*
X60110000Y-77965000D03*
X57570000Y-80505000D03*
X60110000Y-80505000D03*
X57570000Y-83045000D03*
X60110000Y-83045000D03*
X57570000Y-85585000D03*
X60110000Y-85585000D03*
X57570000Y-88125000D03*
X60110000Y-88125000D03*
X57570000Y-90665000D03*
X60110000Y-90665000D03*
X57570000Y-93205000D03*
X60110000Y-93205000D03*
X57570000Y-95745000D03*
X60110000Y-95745000D03*
X57570000Y-98285000D03*
X60110000Y-98285000D03*
X57570000Y-100825000D03*
X60110000Y-100825000D03*
X57570000Y-103365000D03*
X60110000Y-103365000D03*
X57570000Y-105905000D03*
X60110000Y-105905000D03*
X57570000Y-108445000D03*
X60110000Y-108445000D03*
X57570000Y-110985000D03*
X60110000Y-110985000D03*
X57570000Y-113525000D03*
X60110000Y-113525000D03*
X57570000Y-116065000D03*
X60110000Y-116065000D03*
X57570000Y-118605000D03*
X60110000Y-118605000D03*
X57570000Y-121145000D03*
X60110000Y-121145000D03*
X57570000Y-123685000D03*
X60110000Y-123685000D03*
X57570000Y-126225000D03*
X60110000Y-126225000D03*
X57570000Y-128765000D03*
X60110000Y-128765000D03*
X57570000Y-131305000D03*
X60110000Y-131305000D03*
X57570000Y-133845000D03*
X60110000Y-133845000D03*
X57570000Y-136385000D03*
X60110000Y-136385000D03*
%TD*%
D10*
%TO.C,U5*%
X78000000Y-95470000D03*
D11*
X78000000Y-98010000D03*
X78000000Y-100550000D03*
X78000000Y-103090000D03*
X78000000Y-105630000D03*
X78000000Y-108170000D03*
X78000000Y-110710000D03*
X78000000Y-113250000D03*
X78000000Y-115790000D03*
X78000000Y-118330000D03*
X85620000Y-118330000D03*
X85620000Y-115790000D03*
X85620000Y-113250000D03*
X85620000Y-110710000D03*
X85620000Y-108170000D03*
X85620000Y-105630000D03*
X85620000Y-103090000D03*
X85620000Y-100550000D03*
X85620000Y-98010000D03*
X85620000Y-95470000D03*
%TD*%
D12*
%TO.C,H1*%
X59000000Y-51000000D03*
%TD*%
D10*
%TO.C,U4*%
X65750000Y-125710000D03*
D11*
X65750000Y-128250000D03*
X65750000Y-130790000D03*
X65750000Y-133330000D03*
X65750000Y-135870000D03*
X65750000Y-138410000D03*
X65750000Y-140950000D03*
X73370000Y-140950000D03*
X73370000Y-138410000D03*
X73370000Y-135870000D03*
X73370000Y-133330000D03*
X73370000Y-130790000D03*
X73370000Y-128250000D03*
X73370000Y-125710000D03*
%TD*%
D10*
%TO.C,U1*%
X65695000Y-53380000D03*
D11*
X65695000Y-55920000D03*
X65695000Y-58460000D03*
X65695000Y-61000000D03*
X65695000Y-63540000D03*
X65695000Y-66080000D03*
X65695000Y-68620000D03*
X73315000Y-68620000D03*
X73315000Y-66080000D03*
X73315000Y-63540000D03*
X73315000Y-61000000D03*
X73315000Y-58460000D03*
X73315000Y-55920000D03*
X73315000Y-53380000D03*
%TD*%
D10*
%TO.C,U8*%
X89195000Y-53560000D03*
D11*
X89195000Y-56100000D03*
X89195000Y-58640000D03*
X89195000Y-61180000D03*
X89195000Y-63720000D03*
X89195000Y-66260000D03*
X89195000Y-68800000D03*
X89195000Y-71340000D03*
X96815000Y-71340000D03*
X96815000Y-68800000D03*
X96815000Y-66260000D03*
X96815000Y-63720000D03*
X96815000Y-61180000D03*
X96815000Y-58640000D03*
X96815000Y-56100000D03*
X96815000Y-53560000D03*
%TD*%
D10*
%TO.C,U9*%
X114195000Y-53610000D03*
D11*
X114195000Y-56150000D03*
X114195000Y-58690000D03*
X114195000Y-61230000D03*
X114195000Y-63770000D03*
X114195000Y-66310000D03*
X114195000Y-68850000D03*
X114195000Y-71390000D03*
X121815000Y-71390000D03*
X121815000Y-68850000D03*
X121815000Y-66310000D03*
X121815000Y-63770000D03*
X121815000Y-61230000D03*
X121815000Y-58690000D03*
X121815000Y-56150000D03*
X121815000Y-53610000D03*
%TD*%
D10*
%TO.C,U3*%
X65750000Y-101700000D03*
D11*
X65750000Y-104240000D03*
X65750000Y-106780000D03*
X65750000Y-109320000D03*
X65750000Y-111860000D03*
X65750000Y-114400000D03*
X65750000Y-116940000D03*
X73370000Y-116940000D03*
X73370000Y-114400000D03*
X73370000Y-111860000D03*
X73370000Y-109320000D03*
X73370000Y-106780000D03*
X73370000Y-104240000D03*
X73370000Y-101700000D03*
%TD*%
D10*
%TO.C,U7*%
X89250000Y-79660000D03*
D11*
X89250000Y-82200000D03*
X89250000Y-84740000D03*
X89250000Y-87280000D03*
X89250000Y-89820000D03*
X89250000Y-92360000D03*
X89250000Y-94900000D03*
X89250000Y-97440000D03*
X96870000Y-97440000D03*
X96870000Y-94900000D03*
X96870000Y-92360000D03*
X96870000Y-89820000D03*
X96870000Y-87280000D03*
X96870000Y-84740000D03*
X96870000Y-82200000D03*
X96870000Y-79660000D03*
%TD*%
D15*
%TO.C,J2*%
X107500000Y-141820000D03*
D16*
X109000000Y-137500000D03*
D17*
X106000000Y-137500000D03*
X109000000Y-134500000D03*
X106000000Y-134500000D03*
%TD*%
D12*
%TO.C,H4*%
X143000000Y-143000000D03*
%TD*%
D10*
%TO.C,U10*%
X124000000Y-74520000D03*
D11*
X124000000Y-77060000D03*
X124000000Y-79600000D03*
X124000000Y-82140000D03*
X124000000Y-84680000D03*
X124000000Y-87220000D03*
X124000000Y-89760000D03*
X124000000Y-92300000D03*
X131620000Y-92300000D03*
X131620000Y-89760000D03*
X131620000Y-87220000D03*
X131620000Y-84680000D03*
X131620000Y-82140000D03*
X131620000Y-79600000D03*
X131620000Y-77060000D03*
X131620000Y-74520000D03*
%TD*%
D10*
%TO.C,U16*%
X101500000Y-53560000D03*
D11*
X101500000Y-56100000D03*
X101500000Y-58640000D03*
X101500000Y-61180000D03*
X101500000Y-63720000D03*
X101500000Y-66260000D03*
X101500000Y-68800000D03*
X101500000Y-71340000D03*
X101500000Y-73880000D03*
X101500000Y-76420000D03*
X109120000Y-76420000D03*
X109120000Y-73880000D03*
X109120000Y-71340000D03*
X109120000Y-68800000D03*
X109120000Y-66260000D03*
X109120000Y-63720000D03*
X109120000Y-61180000D03*
X109120000Y-58640000D03*
X109120000Y-56100000D03*
X109120000Y-53560000D03*
%TD*%
D10*
%TO.C,U2*%
X65750000Y-77700000D03*
D11*
X65750000Y-80240000D03*
X65750000Y-82780000D03*
X65750000Y-85320000D03*
X65750000Y-87860000D03*
X65750000Y-90400000D03*
X65750000Y-92940000D03*
X73370000Y-92940000D03*
X73370000Y-90400000D03*
X73370000Y-87860000D03*
X73370000Y-85320000D03*
X73370000Y-82780000D03*
X73370000Y-80240000D03*
X73370000Y-77700000D03*
%TD*%
D10*
%TO.C,U15*%
X135500000Y-101620000D03*
D11*
X135500000Y-104160000D03*
X135500000Y-106700000D03*
X135500000Y-109240000D03*
X135500000Y-111780000D03*
X135500000Y-114320000D03*
X135500000Y-116860000D03*
X135500000Y-119400000D03*
X135500000Y-121940000D03*
X135500000Y-124480000D03*
X143120000Y-124480000D03*
X143120000Y-121940000D03*
X143120000Y-119400000D03*
X143120000Y-116860000D03*
X143120000Y-114320000D03*
X143120000Y-111780000D03*
X143120000Y-109240000D03*
X143120000Y-106700000D03*
X143120000Y-104160000D03*
X143120000Y-101620000D03*
%TD*%
D10*
%TO.C,U13*%
X78000000Y-125710000D03*
D11*
X78000000Y-128250000D03*
X78000000Y-130790000D03*
X78000000Y-133330000D03*
X78000000Y-135870000D03*
X78000000Y-138410000D03*
X78000000Y-140950000D03*
X85620000Y-140950000D03*
X85620000Y-138410000D03*
X85620000Y-135870000D03*
X85620000Y-133330000D03*
X85620000Y-130790000D03*
X85620000Y-128250000D03*
X85620000Y-125710000D03*
%TD*%
D10*
%TO.C,U17*%
X101500000Y-101560000D03*
D11*
X101500000Y-104100000D03*
X101500000Y-106640000D03*
X101500000Y-109180000D03*
X101500000Y-111720000D03*
X101500000Y-114260000D03*
X101500000Y-116800000D03*
X101500000Y-119340000D03*
X101500000Y-121880000D03*
X101500000Y-124420000D03*
X109120000Y-124420000D03*
X109120000Y-121880000D03*
X109120000Y-119340000D03*
X109120000Y-116800000D03*
X109120000Y-114260000D03*
X109120000Y-111720000D03*
X109120000Y-109180000D03*
X109120000Y-106640000D03*
X109120000Y-104100000D03*
X109120000Y-101560000D03*
%TD*%
M02*
