M48
; DRILL file {KiCad 9.0.4} date 2025-09-05T01:15:10-0400
; FORMAT={-:-/ absolute / metric / decimal}
; #@! TF.CreationDate,2025-09-05T01:15:10-04:00
; #@! TF.GenerationSoftware,Kicad,Pcbnew,9.0.4
; #@! TF.FileFunction,Plated,1,4,PTH
FMAT,2
METRIC
; #@! TA.AperFunction,Plated,PTH,ViaDrill
T1C0.300
; #@! TA.AperFunction,Plated,PTH,ComponentDrill
T2C0.800
; #@! TA.AperFunction,Plated,PTH,ComponentDrill
T3C1.000
; #@! TA.AperFunction,Plated,PTH,ComponentDrill
T4C1.020
; #@! TA.AperFunction,Plated,PTH,ComponentDrill
T5C3.200
%
G90
G05
T1
X62.2Y-75.6
X62.25Y-115.0
X62.25Y-117.25
X62.5Y-114.0
X63.25Y-134.5
X63.5Y-101.0
X63.556Y-112.556
X64.048Y-117.298
X66.25Y-71.55
X68.5Y-96.5
X68.5Y-107.2
X68.5Y-108.1
X68.6Y-109.1
X69.0Y-87.5
X69.215Y-110.159
X69.9Y-133.2
X70.7Y-81.341
X70.7Y-119.205
X70.75Y-79.0
X71.669Y-122.0
X73.2Y-85.8
X73.2Y-92.439
X74.75Y-132.0
X76.0Y-85.0
X76.0Y-99.25
X76.0Y-111.211
X76.25Y-92.0
X76.25Y-97.75
X76.25Y-137.25
X79.0Y-90.5
X79.4Y-78.3
X79.4Y-79.6
X79.4Y-81.0
X79.75Y-99.5
X80.25Y-98.25
X80.75Y-92.25
X82.75Y-131.25
X83.5Y-90.0
X84.8Y-58.3
X84.8Y-61.4
X87.004Y-115.259
X89.0Y-100.5
X89.689Y-98.889
X91.25Y-128.25
X91.5Y-68.25
X93.0Y-110.75
X93.0Y-114.059
X93.25Y-66.25
X93.25Y-73.75
X93.75Y-110.25
X93.798Y-113.996
T2
X65.75Y-101.7
X65.75Y-104.24
X65.75Y-106.78
X65.75Y-109.32
X65.75Y-111.86
X65.75Y-114.4
X65.75Y-116.94
X65.75Y-125.71
X65.75Y-128.25
X65.75Y-130.79
X65.75Y-133.33
X65.75Y-135.87
X65.75Y-138.41
X65.75Y-140.95
X73.295Y-53.48
X73.295Y-56.02
X73.295Y-58.56
X73.295Y-61.1
X73.295Y-63.64
X73.295Y-66.18
X73.295Y-68.72
X73.37Y-101.7
X73.37Y-104.24
X73.37Y-106.78
X73.37Y-109.32
X73.37Y-111.86
X73.37Y-114.4
X73.37Y-116.94
X73.37Y-125.71
X73.37Y-128.25
X73.37Y-130.79
X73.37Y-133.33
X73.37Y-135.87
X73.37Y-138.41
X73.37Y-140.95
X78.0Y-95.47
X78.0Y-98.01
X78.0Y-100.55
X78.0Y-103.09
X78.0Y-105.63
X78.0Y-108.17
X78.0Y-110.71
X78.0Y-113.25
X78.0Y-115.79
X78.0Y-118.33
X78.0Y-125.71
X78.0Y-128.25
X78.0Y-130.79
X78.0Y-133.33
X78.0Y-135.87
X78.0Y-138.41
X78.0Y-140.95
X80.915Y-53.48
X80.915Y-56.02
X80.915Y-58.56
X80.915Y-61.1
X80.915Y-63.64
X80.915Y-66.18
X80.915Y-68.72
X85.62Y-95.47
X85.62Y-98.01
X85.62Y-100.55
X85.62Y-103.09
X85.62Y-105.63
X85.62Y-108.17
X85.62Y-110.71
X85.62Y-113.25
X85.62Y-115.79
X85.62Y-118.33
X85.62Y-125.71
X85.62Y-128.25
X85.62Y-130.79
X85.62Y-133.33
X85.62Y-135.87
X85.62Y-138.41
X85.62Y-140.95
X89.195Y-53.56
X89.195Y-56.1
X89.195Y-58.64
X89.195Y-61.18
X89.195Y-63.72
X89.195Y-66.26
X89.195Y-68.8
X89.195Y-71.34
X89.25Y-79.66
X89.25Y-82.2
X89.25Y-84.74
X89.25Y-87.28
X89.25Y-89.82
X89.25Y-92.36
X89.25Y-94.9
X89.25Y-97.44
X89.25Y-105.6
X89.25Y-108.14
X89.25Y-110.68
X89.25Y-113.22
X89.25Y-115.76
X89.25Y-118.3
X89.25Y-120.84
X89.25Y-123.38
X96.815Y-53.56
X96.815Y-56.1
X96.815Y-58.64
X96.815Y-61.18
X96.815Y-63.72
X96.815Y-66.26
X96.815Y-68.8
X96.815Y-71.34
X96.87Y-79.66
X96.87Y-82.2
X96.87Y-84.74
X96.87Y-87.28
X96.87Y-89.82
X96.87Y-92.36
X96.87Y-94.9
X96.87Y-97.44
X96.87Y-105.6
X96.87Y-108.14
X96.87Y-110.68
X96.87Y-113.22
X96.87Y-115.76
X96.87Y-118.3
X96.87Y-120.84
X96.87Y-123.38
X101.5Y-53.56
X101.5Y-56.1
X101.5Y-58.64
X101.5Y-61.18
X101.5Y-63.72
X101.5Y-66.26
X101.5Y-68.8
X101.5Y-71.34
X101.5Y-73.88
X101.5Y-76.42
X101.5Y-101.56
X101.5Y-104.1
X101.5Y-106.64
X101.5Y-109.18
X101.5Y-111.72
X101.5Y-114.26
X101.5Y-116.8
X101.5Y-119.34
X101.5Y-121.88
X101.5Y-124.42
X109.12Y-53.56
X109.12Y-56.1
X109.12Y-58.64
X109.12Y-61.18
X109.12Y-63.72
X109.12Y-66.26
X109.12Y-68.8
X109.12Y-71.34
X109.12Y-73.88
X109.12Y-76.42
X109.12Y-101.56
X109.12Y-104.1
X109.12Y-106.64
X109.12Y-109.18
X109.12Y-111.72
X109.12Y-114.26
X109.12Y-116.8
X109.12Y-119.34
X109.12Y-121.88
X109.12Y-124.42
X114.195Y-53.61
X114.195Y-56.15
X114.195Y-58.69
X114.195Y-61.23
X114.195Y-63.77
X114.195Y-66.31
X114.195Y-68.85
X114.195Y-71.39
X114.3Y-101.6
X114.3Y-104.14
X114.3Y-106.68
X114.3Y-109.22
X114.3Y-111.76
X114.3Y-114.3
X114.3Y-116.84
X114.3Y-119.38
X121.815Y-53.61
X121.815Y-56.15
X121.815Y-58.69
X121.815Y-61.23
X121.815Y-63.77
X121.815Y-66.31
X121.815Y-68.85
X121.815Y-71.39
X121.92Y-101.6
X121.92Y-104.14
X121.92Y-106.68
X121.92Y-109.22
X121.92Y-111.76
X121.92Y-114.3
X121.92Y-116.84
X121.92Y-119.38
X123.995Y-74.51
X123.995Y-77.05
X123.995Y-79.59
X123.995Y-82.13
X123.995Y-84.67
X123.995Y-87.21
X123.995Y-89.75
X123.995Y-92.29
X124.0Y-122.46
X124.0Y-125.0
X124.0Y-127.54
X124.0Y-130.08
X124.0Y-132.62
X124.0Y-135.16
X124.0Y-137.7
X124.0Y-140.24
X131.615Y-74.51
X131.615Y-77.05
X131.615Y-79.59
X131.615Y-82.13
X131.615Y-84.67
X131.615Y-87.21
X131.615Y-89.75
X131.615Y-92.29
X131.62Y-122.46
X131.62Y-125.0
X131.62Y-127.54
X131.62Y-130.08
X131.62Y-132.62
X131.62Y-135.16
X131.62Y-137.7
X131.62Y-140.24
X135.38Y-60.57
X135.38Y-63.11
X135.38Y-65.65
X135.38Y-68.19
X135.38Y-70.73
X135.38Y-73.27
X135.38Y-75.81
X135.38Y-78.35
X135.38Y-80.89
X135.38Y-83.43
X135.5Y-101.62
X135.5Y-104.16
X135.5Y-106.7
X135.5Y-109.24
X135.5Y-111.78
X135.5Y-114.32
X135.5Y-116.86
X135.5Y-119.4
X135.5Y-121.94
X135.5Y-124.48
X143.0Y-60.57
X143.0Y-63.11
X143.0Y-65.65
X143.0Y-68.19
X143.0Y-70.73
X143.0Y-73.27
X143.0Y-75.81
X143.0Y-78.35
X143.0Y-80.89
X143.0Y-83.43
X143.12Y-101.62
X143.12Y-104.16
X143.12Y-106.7
X143.12Y-109.24
X143.12Y-111.78
X143.12Y-114.32
X143.12Y-116.86
X143.12Y-119.4
X143.12Y-121.94
X143.12Y-124.48
T3
X57.57Y-57.645
X57.57Y-60.185
X57.57Y-62.725
X57.57Y-65.265
X57.57Y-67.805
X57.57Y-70.345
X57.57Y-72.885
X57.57Y-75.425
X57.57Y-77.965
X57.57Y-80.505
X57.57Y-83.045
X57.57Y-85.585
X57.57Y-88.125
X57.57Y-90.665
X57.57Y-93.205
X57.57Y-95.745
X57.57Y-98.285
X57.57Y-100.825
X57.57Y-103.365
X57.57Y-105.905
X57.57Y-108.445
X57.57Y-110.985
X57.57Y-113.525
X57.57Y-116.065
X57.57Y-118.605
X57.57Y-121.145
X57.57Y-123.685
X57.57Y-126.225
X57.57Y-128.765
X57.57Y-131.305
X57.57Y-133.845
X57.57Y-136.385
X60.11Y-57.645
X60.11Y-60.185
X60.11Y-62.725
X60.11Y-65.265
X60.11Y-67.805
X60.11Y-70.345
X60.11Y-72.885
X60.11Y-75.425
X60.11Y-77.965
X60.11Y-80.505
X60.11Y-83.045
X60.11Y-85.585
X60.11Y-88.125
X60.11Y-90.665
X60.11Y-93.205
X60.11Y-95.745
X60.11Y-98.285
X60.11Y-100.825
X60.11Y-103.365
X60.11Y-105.905
X60.11Y-108.445
X60.11Y-110.985
X60.11Y-113.525
X60.11Y-116.065
X60.11Y-118.605
X60.11Y-121.145
X60.11Y-123.685
X60.11Y-126.225
X60.11Y-128.765
X60.11Y-131.305
X60.11Y-133.845
X60.11Y-136.385
X62.65Y-57.645
X62.65Y-60.185
X62.65Y-62.725
X62.65Y-65.265
X62.65Y-67.805
X62.65Y-70.345
T4
X106.0Y-134.5
X106.0Y-137.5
X109.0Y-134.5
X109.0Y-137.5
T5
X59.0Y-51.0
X59.0Y-143.0
X143.0Y-51.0
X143.0Y-143.0
M30
