%TF.GenerationSoftware,KiCad,Pcbnew,9.0.4*%
%TF.CreationDate,2025-09-21T21:53:55-04:00*%
%TF.ProjectId,tta8_cu_async,74746138-5f63-4755-9f61-73796e632e6b,0*%
%TF.SameCoordinates,Original*%
%TF.FileFunction,Copper,L2,Inr*%
%TF.FilePolarity,Positive*%
%FSLAX46Y46*%
G04 Gerber Fmt 4.6, Leading zero omitted, Abs format (unit mm)*
G04 Created by KiCad (PCBNEW 9.0.4) date 2025-09-21 21:53:55*
%MOMM*%
%LPD*%
G01*
G04 APERTURE LIST*
G04 Aperture macros list*
%AMRoundRect*
0 Rectangle with rounded corners*
0 $1 Rounding radius*
0 $2 $3 $4 $5 $6 $7 $8 $9 X,Y pos of 4 corners*
0 Add a 4 corners polygon primitive as box body*
4,1,4,$2,$3,$4,$5,$6,$7,$8,$9,$2,$3,0*
0 Add four circle primitives for the rounded corners*
1,1,$1+$1,$2,$3*
1,1,$1+$1,$4,$5*
1,1,$1+$1,$6,$7*
1,1,$1+$1,$8,$9*
0 Add four rect primitives between the rounded corners*
20,1,$1+$1,$2,$3,$4,$5,0*
20,1,$1+$1,$4,$5,$6,$7,0*
20,1,$1+$1,$6,$7,$8,$9,0*
20,1,$1+$1,$8,$9,$2,$3,0*%
G04 Aperture macros list end*
%TA.AperFunction,ComponentPad*%
%ADD10R,1.700000X1.700000*%
%TD*%
%TA.AperFunction,ComponentPad*%
%ADD11C,1.700000*%
%TD*%
%TA.AperFunction,ComponentPad*%
%ADD12RoundRect,0.250000X-0.550000X-0.550000X0.550000X-0.550000X0.550000X0.550000X-0.550000X0.550000X0*%
%TD*%
%TA.AperFunction,ComponentPad*%
%ADD13C,1.600000*%
%TD*%
%TA.AperFunction,ComponentPad*%
%ADD14C,6.400000*%
%TD*%
%TA.AperFunction,ComponentPad*%
%ADD15O,1.700000X1.700000*%
%TD*%
%TA.AperFunction,ComponentPad*%
%ADD16RoundRect,0.250001X0.499999X0.499999X-0.499999X0.499999X-0.499999X-0.499999X0.499999X-0.499999X0*%
%TD*%
%TA.AperFunction,ComponentPad*%
%ADD17C,1.500000*%
%TD*%
%TA.AperFunction,ViaPad*%
%ADD18C,0.600000*%
%TD*%
%TA.AperFunction,Conductor*%
%ADD19C,0.200000*%
%TD*%
G04 APERTURE END LIST*
D10*
%TO.N,srce0*%
%TO.C,J2*%
X62650000Y-57645000D03*
D11*
%TO.N,srce1*%
X62650000Y-60185000D03*
%TO.N,srce2*%
X62650000Y-62725000D03*
%TO.N,dste0*%
X62650000Y-65265000D03*
%TO.N,dste1*%
X62650000Y-67805000D03*
%TO.N,dste2*%
X62650000Y-70345000D03*
%TD*%
D12*
%TO.N,Net-(U4-Q6)*%
%TO.C,U5*%
X89250000Y-105600000D03*
D13*
%TO.N,Net-(U4-Q7)*%
X89250000Y-108140000D03*
%TO.N,GND*%
X89250000Y-110680000D03*
X89250000Y-113220000D03*
X89250000Y-115760000D03*
%TO.N,+5V*%
X89250000Y-118300000D03*
%TO.N,unconnected-(U5-Y7-Pad7)*%
X89250000Y-120840000D03*
%TO.N,GND*%
X89250000Y-123380000D03*
%TO.N,unconnected-(U5-Y6-Pad9)*%
X96870000Y-123380000D03*
%TO.N,unconnected-(U5-Y5-Pad10)*%
X96870000Y-120840000D03*
%TO.N,unconnected-(U5-Y4-Pad11)*%
X96870000Y-118300000D03*
%TO.N,MVI*%
X96870000Y-115760000D03*
%TO.N,mvz*%
X96870000Y-113220000D03*
%TO.N,mvc*%
X96870000Y-110680000D03*
%TO.N,mv*%
X96870000Y-108140000D03*
%TO.N,+5V*%
X96870000Y-105600000D03*
%TD*%
D14*
%TO.N,unconnected-(H3-Pad1)*%
%TO.C,H3*%
X59000000Y-143000000D03*
%TD*%
%TO.N,unconnected-(H2-Pad1)*%
%TO.C,H2*%
X143000000Y-51000000D03*
%TD*%
D12*
%TO.N,Net-(U13-OE)*%
%TO.C,U13*%
X135380000Y-60570000D03*
D13*
%TO.N,a0*%
X135380000Y-63110000D03*
%TO.N,a1*%
X135380000Y-65650000D03*
%TO.N,a2*%
X135380000Y-68190000D03*
%TO.N,a3*%
X135380000Y-70730000D03*
%TO.N,a4*%
X135380000Y-73270000D03*
%TO.N,a5*%
X135380000Y-75810000D03*
%TO.N,a6*%
X135380000Y-78350000D03*
%TO.N,a7*%
X135380000Y-80890000D03*
%TO.N,GND*%
X135380000Y-83430000D03*
%TO.N,+5V*%
X143000000Y-83430000D03*
%TO.N,A7*%
X143000000Y-80890000D03*
%TO.N,A6*%
X143000000Y-78350000D03*
%TO.N,A5*%
X143000000Y-75810000D03*
%TO.N,A4*%
X143000000Y-73270000D03*
%TO.N,A3*%
X143000000Y-70730000D03*
%TO.N,A2*%
X143000000Y-68190000D03*
%TO.N,A1*%
X143000000Y-65650000D03*
%TO.N,A0*%
X143000000Y-63110000D03*
%TO.N,+5V*%
X143000000Y-60570000D03*
%TD*%
D10*
%TO.N,A0*%
%TO.C,J1*%
X57570000Y-57645000D03*
D15*
%TO.N,src0*%
X60110000Y-57645000D03*
%TO.N,A1*%
X57570000Y-60185000D03*
%TO.N,SRC1*%
X60110000Y-60185000D03*
%TO.N,A2*%
X57570000Y-62725000D03*
%TO.N,SRC2*%
X60110000Y-62725000D03*
%TO.N,A3*%
X57570000Y-65265000D03*
%TO.N,SRC3*%
X60110000Y-65265000D03*
%TO.N,A4*%
X57570000Y-67805000D03*
%TO.N,SRC4*%
X60110000Y-67805000D03*
%TO.N,A5*%
X57570000Y-70345000D03*
%TO.N,SRC5*%
X60110000Y-70345000D03*
%TO.N,A6*%
X57570000Y-72885000D03*
%TO.N,SRC6*%
X60110000Y-72885000D03*
%TO.N,A7*%
X57570000Y-75425000D03*
%TO.N,SRC7*%
X60110000Y-75425000D03*
%TO.N,A8*%
X57570000Y-77965000D03*
%TO.N,dst0*%
X60110000Y-77965000D03*
%TO.N,A9*%
X57570000Y-80505000D03*
%TO.N,DST1*%
X60110000Y-80505000D03*
%TO.N,A10*%
X57570000Y-83045000D03*
%TO.N,DST2*%
X60110000Y-83045000D03*
%TO.N,A11*%
X57570000Y-85585000D03*
%TO.N,DST3*%
X60110000Y-85585000D03*
%TO.N,A12*%
X57570000Y-88125000D03*
%TO.N,DST4*%
X60110000Y-88125000D03*
%TO.N,A13*%
X57570000Y-90665000D03*
%TO.N,DST5*%
X60110000Y-90665000D03*
%TO.N,A14*%
X57570000Y-93205000D03*
%TO.N,DST6*%
X60110000Y-93205000D03*
%TO.N,A15*%
X57570000Y-95745000D03*
%TO.N,DST7*%
X60110000Y-95745000D03*
%TO.N,D0*%
X57570000Y-98285000D03*
%TO.N,T0*%
X60110000Y-98285000D03*
%TO.N,D1*%
X57570000Y-100825000D03*
%TO.N,T1*%
X60110000Y-100825000D03*
%TO.N,D2*%
X57570000Y-103365000D03*
%TO.N,T2*%
X60110000Y-103365000D03*
%TO.N,D3*%
X57570000Y-105905000D03*
%TO.N,T3*%
X60110000Y-105905000D03*
%TO.N,D4*%
X57570000Y-108445000D03*
%TO.N,T4*%
X60110000Y-108445000D03*
%TO.N,D5*%
X57570000Y-110985000D03*
%TO.N,T5*%
X60110000Y-110985000D03*
%TO.N,D6*%
X57570000Y-113525000D03*
%TO.N,T6*%
X60110000Y-113525000D03*
%TO.N,D7*%
X57570000Y-116065000D03*
%TO.N,T7*%
X60110000Y-116065000D03*
%TO.N,LDI*%
X57570000Y-118605000D03*
%TO.N,T8*%
X60110000Y-118605000D03*
%TO.N,EXC*%
X57570000Y-121145000D03*
%TO.N,T9*%
X60110000Y-121145000D03*
%TO.N,CLK*%
X57570000Y-123685000D03*
%TO.N,T10*%
X60110000Y-123685000D03*
%TO.N,{slash}R*%
X57570000Y-126225000D03*
%TO.N,T11*%
X60110000Y-126225000D03*
%TO.N,CARRY*%
X57570000Y-128765000D03*
%TO.N,T12*%
X60110000Y-128765000D03*
%TO.N,ZERO*%
X57570000Y-131305000D03*
%TO.N,T13*%
X60110000Y-131305000D03*
%TO.N,MOV*%
X57570000Y-133845000D03*
%TO.N,T14*%
X60110000Y-133845000D03*
%TO.N,MVI*%
X57570000Y-136385000D03*
%TO.N,T15*%
X60110000Y-136385000D03*
%TD*%
D12*
%TO.N,T1*%
%TO.C,U8*%
X114195000Y-53610000D03*
D13*
%TO.N,a1*%
X114195000Y-56150000D03*
%TO.N,a0*%
X114195000Y-58690000D03*
%TO.N,+5V*%
X114195000Y-61230000D03*
%TO.N,EXC*%
X114195000Y-63770000D03*
%TO.N,a2*%
X114195000Y-66310000D03*
%TO.N,a3*%
X114195000Y-68850000D03*
%TO.N,GND*%
X114195000Y-71390000D03*
%TO.N,T3*%
X121815000Y-71390000D03*
%TO.N,T2*%
X121815000Y-68850000D03*
%TO.N,Net-(U10-~{LOAD})*%
X121815000Y-66310000D03*
%TO.N,Net-(U8-~{CO})*%
X121815000Y-63770000D03*
%TO.N,Net-(U8-~{BO})*%
X121815000Y-61230000D03*
%TO.N,R*%
X121815000Y-58690000D03*
%TO.N,T0*%
X121815000Y-56150000D03*
%TO.N,+5V*%
X121815000Y-53610000D03*
%TD*%
D12*
%TO.N,T5*%
%TO.C,U9*%
X123995000Y-74510000D03*
D13*
%TO.N,a5*%
X123995000Y-77050000D03*
%TO.N,a4*%
X123995000Y-79590000D03*
%TO.N,Net-(U8-~{BO})*%
X123995000Y-82130000D03*
%TO.N,Net-(U8-~{CO})*%
X123995000Y-84670000D03*
%TO.N,a6*%
X123995000Y-87210000D03*
%TO.N,a7*%
X123995000Y-89750000D03*
%TO.N,GND*%
X123995000Y-92290000D03*
%TO.N,T7*%
X131615000Y-92290000D03*
%TO.N,T6*%
X131615000Y-89750000D03*
%TO.N,Net-(U10-~{LOAD})*%
X131615000Y-87210000D03*
%TO.N,Net-(U10-UP)*%
X131615000Y-84670000D03*
%TO.N,Net-(U10-DOWN)*%
X131615000Y-82130000D03*
%TO.N,R*%
X131615000Y-79590000D03*
%TO.N,T4*%
X131615000Y-77050000D03*
%TO.N,+5V*%
X131615000Y-74510000D03*
%TD*%
D12*
%TO.N,GND*%
%TO.C,U4*%
X78000000Y-95470000D03*
D13*
%TO.N,D0*%
X78000000Y-98010000D03*
%TO.N,D1*%
X78000000Y-100550000D03*
%TO.N,D2*%
X78000000Y-103090000D03*
%TO.N,D3*%
X78000000Y-105630000D03*
%TO.N,D4*%
X78000000Y-108170000D03*
%TO.N,D5*%
X78000000Y-110710000D03*
%TO.N,D6*%
X78000000Y-113250000D03*
%TO.N,D7*%
X78000000Y-115790000D03*
%TO.N,GND*%
X78000000Y-118330000D03*
%TO.N,LDI*%
X85620000Y-118330000D03*
%TO.N,Net-(U4-Q7)*%
X85620000Y-115790000D03*
%TO.N,Net-(U4-Q6)*%
X85620000Y-113250000D03*
%TO.N,dste2*%
X85620000Y-110710000D03*
%TO.N,dste1*%
X85620000Y-108170000D03*
%TO.N,dste0*%
X85620000Y-105630000D03*
%TO.N,srce2*%
X85620000Y-103090000D03*
%TO.N,srce1*%
X85620000Y-100550000D03*
%TO.N,srce0*%
X85620000Y-98010000D03*
%TO.N,+5V*%
X85620000Y-95470000D03*
%TD*%
D14*
%TO.N,unconnected-(H1-Pad1)*%
%TO.C,H1*%
X59000000Y-51000000D03*
%TD*%
D12*
%TO.N,CARRY*%
%TO.C,U3*%
X65750000Y-125710000D03*
D13*
%TO.N,mvc*%
X65750000Y-128250000D03*
%TO.N,Net-(U2-Pad4)*%
X65750000Y-130790000D03*
%TO.N,ZERO*%
X65750000Y-133330000D03*
%TO.N,mvz*%
X65750000Y-135870000D03*
%TO.N,Net-(U2-Pad5)*%
X65750000Y-138410000D03*
%TO.N,GND*%
X65750000Y-140950000D03*
%TO.N,MOV*%
X73370000Y-140950000D03*
%TO.N,Net-(U2-Pad8)*%
X73370000Y-138410000D03*
%TO.N,EXC*%
X73370000Y-135870000D03*
%TO.N,unconnected-(U3-Pad11)*%
X73370000Y-133330000D03*
%TO.N,unconnected-(U3-Pad12)*%
X73370000Y-130790000D03*
%TO.N,unconnected-(U3-Pad13)*%
X73370000Y-128250000D03*
%TO.N,+5V*%
X73370000Y-125710000D03*
%TD*%
D12*
%TO.N,{slash}R*%
%TO.C,U1*%
X73295000Y-53480000D03*
D13*
%TO.N,LDI*%
X73295000Y-56020000D03*
%TO.N,CLK*%
X73295000Y-58560000D03*
%TO.N,+5V*%
X73295000Y-61100000D03*
%TO.N,EXC*%
X73295000Y-63640000D03*
%TO.N,LDI*%
X73295000Y-66180000D03*
%TO.N,GND*%
X73295000Y-68720000D03*
%TO.N,unconnected-(U1B-~{Q}-Pad8)*%
X80915000Y-68720000D03*
%TO.N,unconnected-(U1B-Q-Pad9)*%
X80915000Y-66180000D03*
%TO.N,unconnected-(U1B-~{S}-Pad10)*%
X80915000Y-63640000D03*
%TO.N,unconnected-(U1B-C-Pad11)*%
X80915000Y-61100000D03*
%TO.N,unconnected-(U1B-D-Pad12)*%
X80915000Y-58560000D03*
%TO.N,unconnected-(U1B-~{R}-Pad13)*%
X80915000Y-56020000D03*
%TO.N,+5V*%
X80915000Y-53480000D03*
%TD*%
D12*
%TO.N,srce0*%
%TO.C,U7*%
X89195000Y-53560000D03*
D13*
%TO.N,srce1*%
X89195000Y-56100000D03*
%TO.N,srce2*%
X89195000Y-58640000D03*
%TO.N,GND*%
X89195000Y-61180000D03*
X89195000Y-63720000D03*
%TO.N,+5V*%
X89195000Y-66260000D03*
%TO.N,SRC7*%
X89195000Y-68800000D03*
%TO.N,GND*%
X89195000Y-71340000D03*
%TO.N,SRC6*%
X96815000Y-71340000D03*
%TO.N,SRC5*%
X96815000Y-68800000D03*
%TO.N,SRC4*%
X96815000Y-66260000D03*
%TO.N,SRC3*%
X96815000Y-63720000D03*
%TO.N,SRC2*%
X96815000Y-61180000D03*
%TO.N,SRC1*%
X96815000Y-58640000D03*
%TO.N,src0*%
X96815000Y-56100000D03*
%TO.N,+5V*%
X96815000Y-53560000D03*
%TD*%
D12*
%TO.N,T9*%
%TO.C,U10*%
X114300000Y-101600000D03*
D13*
%TO.N,a9*%
X114300000Y-104140000D03*
%TO.N,a8*%
X114300000Y-106680000D03*
%TO.N,Net-(U10-DOWN)*%
X114300000Y-109220000D03*
%TO.N,Net-(U10-UP)*%
X114300000Y-111760000D03*
%TO.N,a10*%
X114300000Y-114300000D03*
%TO.N,a11*%
X114300000Y-116840000D03*
%TO.N,GND*%
X114300000Y-119380000D03*
%TO.N,T11*%
X121920000Y-119380000D03*
%TO.N,T10*%
X121920000Y-116840000D03*
%TO.N,Net-(U10-~{LOAD})*%
X121920000Y-114300000D03*
%TO.N,Net-(U10-~{CO})*%
X121920000Y-111760000D03*
%TO.N,Net-(U10-~{BO})*%
X121920000Y-109220000D03*
%TO.N,R*%
X121920000Y-106680000D03*
%TO.N,T8*%
X121920000Y-104140000D03*
%TO.N,+5V*%
X121920000Y-101600000D03*
%TD*%
D12*
%TO.N,T13*%
%TO.C,U11*%
X124000000Y-122460000D03*
D13*
%TO.N,a13*%
X124000000Y-125000000D03*
%TO.N,a12*%
X124000000Y-127540000D03*
%TO.N,Net-(U10-~{BO})*%
X124000000Y-130080000D03*
%TO.N,Net-(U10-~{CO})*%
X124000000Y-132620000D03*
%TO.N,a14*%
X124000000Y-135160000D03*
%TO.N,a15*%
X124000000Y-137700000D03*
%TO.N,GND*%
X124000000Y-140240000D03*
%TO.N,T15*%
X131620000Y-140240000D03*
%TO.N,T14*%
X131620000Y-137700000D03*
%TO.N,Net-(U10-~{LOAD})*%
X131620000Y-135160000D03*
%TO.N,unconnected-(U11-~{CO}-Pad12)*%
X131620000Y-132620000D03*
%TO.N,unconnected-(U11-~{BO}-Pad13)*%
X131620000Y-130080000D03*
%TO.N,R*%
X131620000Y-127540000D03*
%TO.N,T12*%
X131620000Y-125000000D03*
%TO.N,+5V*%
X131620000Y-122460000D03*
%TD*%
D12*
%TO.N,unconnected-(U2-Pad1)*%
%TO.C,U2*%
X65750000Y-101700000D03*
D13*
%TO.N,unconnected-(U2-Pad2)*%
X65750000Y-104240000D03*
%TO.N,unconnected-(U2-Pad3)*%
X65750000Y-106780000D03*
%TO.N,Net-(U2-Pad4)*%
X65750000Y-109320000D03*
%TO.N,Net-(U2-Pad5)*%
X65750000Y-111860000D03*
%TO.N,Net-(U2-Pad6)*%
X65750000Y-114400000D03*
%TO.N,GND*%
X65750000Y-116940000D03*
%TO.N,Net-(U2-Pad8)*%
X73370000Y-116940000D03*
%TO.N,Net-(U2-Pad6)*%
X73370000Y-114400000D03*
%TO.N,mv*%
X73370000Y-111860000D03*
%TO.N,unconnected-(U2-Pad11)*%
X73370000Y-109320000D03*
%TO.N,unconnected-(U2-Pad12)*%
X73370000Y-106780000D03*
%TO.N,unconnected-(U2-Pad13)*%
X73370000Y-104240000D03*
%TO.N,+5V*%
X73370000Y-101700000D03*
%TD*%
D12*
%TO.N,dste0*%
%TO.C,U6*%
X89250000Y-79660000D03*
D13*
%TO.N,dste1*%
X89250000Y-82200000D03*
%TO.N,dste2*%
X89250000Y-84740000D03*
%TO.N,GND*%
X89250000Y-87280000D03*
X89250000Y-89820000D03*
%TO.N,+5V*%
X89250000Y-92360000D03*
%TO.N,DST7*%
X89250000Y-94900000D03*
%TO.N,GND*%
X89250000Y-97440000D03*
%TO.N,DST6*%
X96870000Y-97440000D03*
%TO.N,DST5*%
X96870000Y-94900000D03*
%TO.N,DST4*%
X96870000Y-92360000D03*
%TO.N,DST3*%
X96870000Y-89820000D03*
%TO.N,DST2*%
X96870000Y-87280000D03*
%TO.N,DST1*%
X96870000Y-84740000D03*
%TO.N,dst0*%
X96870000Y-82200000D03*
%TO.N,+5V*%
X96870000Y-79660000D03*
%TD*%
D16*
%TO.N,+5V*%
%TO.C,J3*%
X109000000Y-137500000D03*
D17*
%TO.N,GND*%
X106000000Y-137500000D03*
%TO.N,+5V*%
X109000000Y-134500000D03*
%TO.N,GND*%
X106000000Y-134500000D03*
%TD*%
D14*
%TO.N,unconnected-(H4-Pad1)*%
%TO.C,H4*%
X143000000Y-143000000D03*
%TD*%
D12*
%TO.N,Net-(U15-OE)*%
%TO.C,U15*%
X101500000Y-53560000D03*
D13*
%TO.N,GND*%
X101500000Y-56100000D03*
X101500000Y-58640000D03*
X101500000Y-61180000D03*
X101500000Y-63720000D03*
X101500000Y-66260000D03*
X101500000Y-68800000D03*
X101500000Y-71340000D03*
X101500000Y-73880000D03*
X101500000Y-76420000D03*
%TO.N,+5V*%
X109120000Y-76420000D03*
%TO.N,T7*%
X109120000Y-73880000D03*
%TO.N,T6*%
X109120000Y-71340000D03*
%TO.N,T5*%
X109120000Y-68800000D03*
%TO.N,T4*%
X109120000Y-66260000D03*
%TO.N,T3*%
X109120000Y-63720000D03*
%TO.N,T2*%
X109120000Y-61180000D03*
%TO.N,T1*%
X109120000Y-58640000D03*
%TO.N,T0*%
X109120000Y-56100000D03*
%TO.N,+5V*%
X109120000Y-53560000D03*
%TD*%
D12*
%TO.N,Net-(U13-OE)*%
%TO.C,U14*%
X135500000Y-101620000D03*
D13*
%TO.N,a8*%
X135500000Y-104160000D03*
%TO.N,a9*%
X135500000Y-106700000D03*
%TO.N,a10*%
X135500000Y-109240000D03*
%TO.N,a11*%
X135500000Y-111780000D03*
%TO.N,a12*%
X135500000Y-114320000D03*
%TO.N,a13*%
X135500000Y-116860000D03*
%TO.N,a14*%
X135500000Y-119400000D03*
%TO.N,a15*%
X135500000Y-121940000D03*
%TO.N,GND*%
X135500000Y-124480000D03*
%TO.N,+5V*%
X143120000Y-124480000D03*
%TO.N,A15*%
X143120000Y-121940000D03*
%TO.N,A14*%
X143120000Y-119400000D03*
%TO.N,A13*%
X143120000Y-116860000D03*
%TO.N,A12*%
X143120000Y-114320000D03*
%TO.N,A11*%
X143120000Y-111780000D03*
%TO.N,A10*%
X143120000Y-109240000D03*
%TO.N,A9*%
X143120000Y-106700000D03*
%TO.N,A8*%
X143120000Y-104160000D03*
%TO.N,+5V*%
X143120000Y-101620000D03*
%TD*%
D12*
%TO.N,{slash}R*%
%TO.C,U12*%
X78000000Y-125710000D03*
D13*
X78000000Y-128250000D03*
%TO.N,R*%
X78000000Y-130790000D03*
%TO.N,MOV*%
X78000000Y-133330000D03*
%TO.N,dst0*%
X78000000Y-135870000D03*
%TO.N,Net-(U10-~{LOAD})*%
X78000000Y-138410000D03*
%TO.N,GND*%
X78000000Y-140950000D03*
%TO.N,Net-(U13-OE)*%
X85620000Y-140950000D03*
%TO.N,LDI*%
X85620000Y-138410000D03*
X85620000Y-135870000D03*
%TO.N,Net-(U15-OE)*%
X85620000Y-133330000D03*
%TO.N,MOV*%
X85620000Y-130790000D03*
%TO.N,src0*%
X85620000Y-128250000D03*
%TO.N,+5V*%
X85620000Y-125710000D03*
%TD*%
D12*
%TO.N,Net-(U15-OE)*%
%TO.C,U16*%
X101500000Y-101560000D03*
D13*
%TO.N,GND*%
X101500000Y-104100000D03*
X101500000Y-106640000D03*
X101500000Y-109180000D03*
X101500000Y-111720000D03*
X101500000Y-114260000D03*
X101500000Y-116800000D03*
X101500000Y-119340000D03*
X101500000Y-121880000D03*
X101500000Y-124420000D03*
%TO.N,+5V*%
X109120000Y-124420000D03*
%TO.N,T15*%
X109120000Y-121880000D03*
%TO.N,T14*%
X109120000Y-119340000D03*
%TO.N,T13*%
X109120000Y-116800000D03*
%TO.N,T12*%
X109120000Y-114260000D03*
%TO.N,T11*%
X109120000Y-111720000D03*
%TO.N,T10*%
X109120000Y-109180000D03*
%TO.N,T9*%
X109120000Y-106640000D03*
%TO.N,T8*%
X109120000Y-104100000D03*
%TO.N,+5V*%
X109120000Y-101560000D03*
%TD*%
D18*
%TO.N,+5V*%
X78300000Y-60700000D03*
%TO.N,LDI*%
X70700000Y-119205000D03*
%TO.N,EXC*%
X69900000Y-133200000D03*
X77200000Y-56100000D03*
X77200000Y-63000000D03*
X63250000Y-134500000D03*
%TO.N,SRC5*%
X91500000Y-68250000D03*
%TO.N,D6*%
X62250000Y-115000000D03*
%TO.N,D1*%
X68500000Y-108100000D03*
%TO.N,DST6*%
X76000000Y-99250000D03*
X89000000Y-100500000D03*
X79750000Y-99500000D03*
%TO.N,src0*%
X93000000Y-110750000D03*
X93000000Y-114059000D03*
%TO.N,DST1*%
X70750000Y-79000000D03*
%TO.N,DST2*%
X70700000Y-81341000D03*
%TO.N,D7*%
X62250000Y-117250000D03*
%TO.N,D2*%
X68600000Y-109100000D03*
%TO.N,MVI*%
X91250000Y-128250000D03*
%TO.N,{slash}R*%
X73200000Y-92439000D03*
X71669000Y-122000000D03*
X73200000Y-85800000D03*
%TO.N,DST4*%
X79000000Y-90500000D03*
X69000000Y-87500000D03*
X76250000Y-92000000D03*
%TO.N,D4*%
X63555645Y-112555645D03*
%TO.N,DST3*%
X76000000Y-85000000D03*
%TO.N,dst0*%
X93797538Y-113996260D03*
X93750000Y-110250000D03*
X82750000Y-131250000D03*
%TO.N,D5*%
X62500000Y-114000000D03*
%TO.N,D3*%
X69214579Y-110159000D03*
%TO.N,D0*%
X68500000Y-107200000D03*
%TO.N,CLK*%
X62200000Y-75600000D03*
X66250000Y-71550000D03*
%TO.N,SRC6*%
X93250000Y-73750000D03*
%TO.N,DST7*%
X68500000Y-96500000D03*
X80750000Y-92250000D03*
X63500000Y-101000000D03*
%TO.N,DST5*%
X89689300Y-98889300D03*
X80250000Y-98250000D03*
X76250000Y-97750000D03*
%TO.N,SRC4*%
X93250000Y-66250000D03*
%TO.N,srce2*%
X84800000Y-61400000D03*
%TO.N,dste0*%
X79400000Y-78300000D03*
%TO.N,dste2*%
X83500000Y-90000000D03*
X79400000Y-81000000D03*
%TO.N,dste1*%
X79400000Y-79600000D03*
%TO.N,srce1*%
X84800000Y-58300000D03*
%TO.N,mv*%
X87004265Y-115259000D03*
X76000000Y-111211000D03*
%TO.N,Net-(U2-Pad4)*%
X64048265Y-117298265D03*
%TO.N,mvz*%
X76250000Y-137250000D03*
%TO.N,mvc*%
X74750000Y-132000000D03*
%TD*%
D19*
%TO.N,SRC5*%
X83100000Y-72500000D02*
X62265000Y-72500000D01*
X90949000Y-67699000D02*
X87901000Y-67699000D01*
X62265000Y-72500000D02*
X60110000Y-70345000D01*
X91500000Y-68250000D02*
X90949000Y-67699000D01*
X87901000Y-67699000D02*
X83100000Y-72500000D01*
%TO.N,D1*%
X69798210Y-106254740D02*
X73052950Y-103000000D01*
X75550000Y-103000000D02*
X78000000Y-100550000D01*
X69798210Y-106801790D02*
X69798210Y-106254740D01*
X73052950Y-103000000D02*
X75550000Y-103000000D01*
X68500000Y-108100000D02*
X69798210Y-106801790D01*
%TO.N,T9*%
X109120000Y-106640000D02*
X109260000Y-106640000D01*
X109260000Y-106640000D02*
X114300000Y-101600000D01*
X76742050Y-121145000D02*
X60110000Y-121145000D01*
X105479000Y-110281000D02*
X98826050Y-110281000D01*
X83795150Y-114091900D02*
X76742050Y-121145000D01*
X83795150Y-112119000D02*
X83795150Y-114091900D01*
X98826050Y-110281000D02*
X96988050Y-112119000D01*
X109120000Y-106640000D02*
X105479000Y-110281000D01*
X96988050Y-112119000D02*
X83795150Y-112119000D01*
%TO.N,T8*%
X109120000Y-104100000D02*
X112920000Y-100300000D01*
X118080000Y-100300000D02*
X121920000Y-104140000D01*
X112920000Y-100300000D02*
X118080000Y-100300000D01*
X79101000Y-115333950D02*
X79101000Y-116246050D01*
X109120000Y-104100000D02*
X105479000Y-107741000D01*
X96988050Y-109579000D02*
X84855950Y-109579000D01*
X79101000Y-116246050D02*
X78456050Y-116891000D01*
X78456050Y-116891000D02*
X77543950Y-116891000D01*
X84855950Y-109579000D02*
X79101000Y-115333950D01*
X105479000Y-107741000D02*
X98826050Y-107741000D01*
X77543950Y-116891000D02*
X75829950Y-118605000D01*
X98826050Y-107741000D02*
X96988050Y-109579000D01*
X75829950Y-118605000D02*
X60110000Y-118605000D01*
%TO.N,DST6*%
X89000000Y-100500000D02*
X87511000Y-101989000D01*
X82239000Y-101989000D02*
X79750000Y-99500000D01*
X87511000Y-101989000D02*
X82239000Y-101989000D01*
%TO.N,src0*%
X96815000Y-56100000D02*
X95534000Y-54819000D01*
X62936000Y-54819000D02*
X60110000Y-57645000D01*
X95534000Y-54819000D02*
X62936000Y-54819000D01*
%TO.N,T0*%
X75333050Y-86759000D02*
X71286050Y-86759000D01*
X109120000Y-56100000D02*
X102601000Y-62619000D01*
X112920000Y-52300000D02*
X117965000Y-52300000D01*
X61261000Y-97134000D02*
X60110000Y-98285000D01*
X117965000Y-52300000D02*
X121815000Y-56150000D01*
X96358950Y-65159000D02*
X90296000Y-71221950D01*
X66206050Y-91839000D02*
X65293950Y-91839000D01*
X102601000Y-62619000D02*
X101043950Y-62619000D01*
X90296000Y-71221950D02*
X90296000Y-71796050D01*
X90296000Y-71796050D02*
X75333050Y-86759000D01*
X98503950Y-65159000D02*
X96358950Y-65159000D01*
X61261000Y-95871950D02*
X61261000Y-97134000D01*
X109120000Y-56100000D02*
X112920000Y-52300000D01*
X65293950Y-91839000D02*
X61261000Y-95871950D01*
X101043950Y-62619000D02*
X98503950Y-65159000D01*
X71286050Y-86759000D02*
X66206050Y-91839000D01*
%TO.N,DST1*%
X70750000Y-79000000D02*
X61615000Y-79000000D01*
X61615000Y-79000000D02*
X60110000Y-80505000D01*
%TO.N,T15*%
X63236000Y-139511000D02*
X60110000Y-136385000D01*
X121140000Y-133900000D02*
X125280000Y-133900000D01*
X91489000Y-139511000D02*
X63236000Y-139511000D01*
X109120000Y-121880000D02*
X91489000Y-139511000D01*
X109120000Y-121880000D02*
X121140000Y-133900000D01*
X125280000Y-133900000D02*
X131620000Y-140240000D01*
%TO.N,T14*%
X109120000Y-119340000D02*
X94029000Y-134431000D01*
X94029000Y-134431000D02*
X64030943Y-134431000D01*
X109120000Y-119340000D02*
X121080000Y-131300000D01*
X64030943Y-134431000D02*
X63444943Y-133845000D01*
X63444943Y-133845000D02*
X60110000Y-133845000D01*
X125220000Y-131300000D02*
X131620000Y-137700000D01*
X121080000Y-131300000D02*
X125220000Y-131300000D01*
%TO.N,T7*%
X91368050Y-104499000D02*
X88308050Y-104499000D01*
X85032000Y-107069000D02*
X79101000Y-113000000D01*
X109120000Y-73880000D02*
X121140000Y-85900000D01*
X85738050Y-107069000D02*
X85032000Y-107069000D01*
X73577050Y-115750000D02*
X60425000Y-115750000D01*
X79101000Y-113706050D02*
X78118050Y-114689000D01*
X74638050Y-114689000D02*
X73577050Y-115750000D01*
X121140000Y-85900000D02*
X125225000Y-85900000D01*
X88308050Y-104499000D02*
X85738050Y-107069000D01*
X97971000Y-97896050D02*
X91368050Y-104499000D01*
X60425000Y-115750000D02*
X60110000Y-116065000D01*
X97971000Y-85029000D02*
X97971000Y-97896050D01*
X79101000Y-113000000D02*
X79101000Y-113706050D01*
X125225000Y-85900000D02*
X131615000Y-92290000D01*
X78118050Y-114689000D02*
X74638050Y-114689000D01*
X109120000Y-73880000D02*
X97971000Y-85029000D01*
%TO.N,T1*%
X97271050Y-67699000D02*
X96358950Y-67699000D01*
X71636000Y-89299000D02*
X60110000Y-100825000D01*
X114150000Y-53610000D02*
X114195000Y-53610000D01*
X109120000Y-58640000D02*
X102601000Y-65159000D01*
X99811050Y-65159000D02*
X97271050Y-67699000D01*
X102601000Y-65159000D02*
X99811050Y-65159000D01*
X109120000Y-58640000D02*
X114150000Y-53610000D01*
X74758950Y-89299000D02*
X71636000Y-89299000D01*
X96358950Y-67699000D02*
X74758950Y-89299000D01*
%TO.N,DST2*%
X61814000Y-81341000D02*
X60110000Y-83045000D01*
X70700000Y-81341000D02*
X61814000Y-81341000D01*
%TO.N,T13*%
X123140000Y-121600000D02*
X124000000Y-122460000D01*
X105479000Y-120441000D02*
X98826050Y-120441000D01*
X109120000Y-116800000D02*
X109120000Y-117468943D01*
X61726000Y-129689000D02*
X60110000Y-131305000D01*
X88665950Y-129689000D02*
X61726000Y-129689000D01*
X113920000Y-121600000D02*
X123140000Y-121600000D01*
X96413950Y-121941000D02*
X88665950Y-129689000D01*
X109120000Y-116800000D02*
X105479000Y-120441000D01*
X98826050Y-120441000D02*
X97326050Y-121941000D01*
X109120000Y-116800000D02*
X113920000Y-121600000D01*
X97326050Y-121941000D02*
X96413950Y-121941000D01*
%TO.N,D2*%
X69107050Y-108592950D02*
X70000000Y-108592950D01*
X72913950Y-105679000D02*
X75411000Y-105679000D01*
X75411000Y-105679000D02*
X78000000Y-103090000D01*
X68600000Y-109100000D02*
X69107050Y-108592950D01*
X70000000Y-108592950D02*
X72913950Y-105679000D01*
%TO.N,DST4*%
X77750000Y-90500000D02*
X76250000Y-92000000D01*
X68250000Y-86750000D02*
X61485000Y-86750000D01*
X61485000Y-86750000D02*
X60110000Y-88125000D01*
X79000000Y-90500000D02*
X77750000Y-90500000D01*
X69000000Y-87500000D02*
X68250000Y-86750000D01*
%TO.N,T6*%
X96552950Y-83500000D02*
X90351000Y-89701950D01*
X79101000Y-110591950D02*
X79101000Y-111899000D01*
X73826050Y-113299000D02*
X60336000Y-113299000D01*
X109120000Y-71340000D02*
X121180000Y-83400000D01*
X86076050Y-104529000D02*
X85163950Y-104529000D01*
X90351000Y-100254050D02*
X86076050Y-104529000D01*
X125265000Y-83400000D02*
X131615000Y-89750000D01*
X121180000Y-83400000D02*
X125265000Y-83400000D01*
X109120000Y-71340000D02*
X109120000Y-71507050D01*
X90351000Y-89701950D02*
X90351000Y-100254050D01*
X79101000Y-111899000D02*
X75226050Y-111899000D01*
X109120000Y-71507050D02*
X97127050Y-83500000D01*
X60336000Y-113299000D02*
X60110000Y-113525000D01*
X75226050Y-111899000D02*
X73826050Y-113299000D01*
X97127050Y-83500000D02*
X96552950Y-83500000D01*
X85163950Y-104529000D02*
X79101000Y-110591950D01*
%TO.N,SRC1*%
X95376000Y-57201000D02*
X70400000Y-57201000D01*
X68701000Y-58900000D02*
X61395000Y-58900000D01*
X70400000Y-57201000D02*
X68701000Y-58900000D01*
X96815000Y-58640000D02*
X95376000Y-57201000D01*
X61395000Y-58900000D02*
X60110000Y-60185000D01*
%TO.N,SRC3*%
X72400000Y-62400000D02*
X70900000Y-63900000D01*
X96815000Y-63720000D02*
X95495000Y-62400000D01*
X95495000Y-62400000D02*
X72400000Y-62400000D01*
X60335000Y-65265000D02*
X60110000Y-65265000D01*
X61700000Y-63900000D02*
X60335000Y-65265000D01*
X70900000Y-63900000D02*
X61700000Y-63900000D01*
%TO.N,D4*%
X63136000Y-112136000D02*
X59633240Y-112136000D01*
X59633240Y-112136000D02*
X58721000Y-111223760D01*
X58721000Y-109596000D02*
X57570000Y-108445000D01*
X63555645Y-112555645D02*
X63136000Y-112136000D01*
X58721000Y-111223760D02*
X58721000Y-109596000D01*
%TO.N,T4*%
X127974000Y-73409000D02*
X131615000Y-77050000D01*
X68351000Y-106399000D02*
X66531000Y-108219000D01*
X60336000Y-108219000D02*
X60110000Y-108445000D01*
X118186900Y-73409000D02*
X127974000Y-73409000D01*
X107618000Y-69882000D02*
X102181000Y-75319000D01*
X112811000Y-69951000D02*
X114728900Y-69951000D01*
X114728900Y-69951000D02*
X118186900Y-73409000D01*
X97688050Y-75319000D02*
X89368050Y-83639000D01*
X109120000Y-66260000D02*
X112811000Y-69951000D01*
X87944840Y-83639000D02*
X68351000Y-103232840D01*
X109120000Y-66260000D02*
X107618000Y-67762000D01*
X102181000Y-75319000D02*
X97688050Y-75319000D01*
X107618000Y-67762000D02*
X107618000Y-69882000D01*
X66531000Y-108219000D02*
X60336000Y-108219000D01*
X89368050Y-83639000D02*
X87944840Y-83639000D01*
X68351000Y-103232840D02*
X68351000Y-106399000D01*
%TO.N,DST3*%
X76000000Y-85000000D02*
X75219000Y-84219000D01*
X75219000Y-84219000D02*
X61476000Y-84219000D01*
X61476000Y-84219000D02*
X60110000Y-85585000D01*
%TO.N,T5*%
X73826050Y-110759000D02*
X60336000Y-110759000D01*
X60336000Y-110759000D02*
X60110000Y-110985000D01*
X88793950Y-88719000D02*
X79101000Y-98411950D01*
X78118050Y-109609000D02*
X74976050Y-109609000D01*
X96413950Y-81099000D02*
X93500000Y-84012950D01*
X114830000Y-74510000D02*
X123995000Y-74510000D01*
X79101000Y-98411950D02*
X79101000Y-108626050D01*
X108019000Y-69901000D02*
X108019000Y-71481000D01*
X93500000Y-84925050D02*
X89706050Y-88719000D01*
X74976050Y-109609000D02*
X73826050Y-110759000D01*
X108019000Y-71481000D02*
X98401000Y-81099000D01*
X109120000Y-68800000D02*
X108019000Y-69901000D01*
X89706050Y-88719000D02*
X88793950Y-88719000D01*
X79101000Y-108626050D02*
X78118050Y-109609000D01*
X109120000Y-68800000D02*
X114830000Y-74510000D01*
X98401000Y-81099000D02*
X96413950Y-81099000D01*
X93500000Y-84012950D02*
X93500000Y-84925050D01*
%TO.N,SRC2*%
X95534000Y-59899000D02*
X71000000Y-59899000D01*
X61435000Y-61400000D02*
X60110000Y-62725000D01*
X69499000Y-61400000D02*
X61435000Y-61400000D01*
X96815000Y-61180000D02*
X95534000Y-59899000D01*
X71000000Y-59899000D02*
X69499000Y-61400000D01*
%TO.N,T2*%
X109120000Y-61180000D02*
X102601000Y-67699000D01*
X95088050Y-70239000D02*
X73488050Y-91839000D01*
X109120000Y-61180000D02*
X110440000Y-62500000D01*
X71636000Y-91839000D02*
X60110000Y-103365000D01*
X73488050Y-91839000D02*
X71636000Y-91839000D01*
X97271050Y-70239000D02*
X95088050Y-70239000D01*
X99811050Y-67699000D02*
X97271050Y-70239000D01*
X102601000Y-67699000D02*
X99811050Y-67699000D01*
X110440000Y-62500000D02*
X115465000Y-62500000D01*
X115465000Y-62500000D02*
X121815000Y-68850000D01*
%TO.N,SRC7*%
X89195000Y-68800000D02*
X84295000Y-73700000D01*
X84295000Y-73700000D02*
X61835000Y-73700000D01*
X61835000Y-73700000D02*
X60110000Y-75425000D01*
%TO.N,D3*%
X69214579Y-110159000D02*
X71373579Y-108000000D01*
X71373579Y-108000000D02*
X75630000Y-108000000D01*
X75630000Y-108000000D02*
X78000000Y-105630000D01*
%TO.N,D0*%
X74885900Y-98627050D02*
X77382950Y-98627050D01*
X69197210Y-106502790D02*
X69197210Y-104315740D01*
X69197210Y-104315740D02*
X74885900Y-98627050D01*
X68500000Y-107200000D02*
X69197210Y-106502790D01*
X77382950Y-98627050D02*
X78000000Y-98010000D01*
%TO.N,SRC6*%
X96815000Y-71340000D02*
X95660000Y-71340000D01*
X95660000Y-71340000D02*
X93250000Y-73750000D01*
%TO.N,DST7*%
X68500000Y-96500000D02*
X68000000Y-96500000D01*
X68000000Y-96500000D02*
X63500000Y-101000000D01*
%TO.N,DST5*%
X81449000Y-99449000D02*
X80250000Y-98250000D01*
X89689300Y-98889300D02*
X88665221Y-98889300D01*
X88665221Y-98889300D02*
X88105521Y-99449000D01*
X88105521Y-99449000D02*
X81449000Y-99449000D01*
%TO.N,T3*%
X88464840Y-78559000D02*
X74471000Y-92552840D01*
X74471000Y-92552840D02*
X74471000Y-93396050D01*
X67268050Y-100599000D02*
X64964840Y-100599000D01*
X74471000Y-93396050D02*
X67268050Y-100599000D01*
X110400000Y-65000000D02*
X115425000Y-65000000D01*
X109120000Y-63720000D02*
X102601000Y-70239000D01*
X102601000Y-70239000D02*
X99473050Y-70239000D01*
X115425000Y-65000000D02*
X121815000Y-71390000D01*
X99473050Y-70239000D02*
X91153050Y-78559000D01*
X64964840Y-100599000D02*
X60110000Y-105453840D01*
X91153050Y-78559000D02*
X88464840Y-78559000D01*
X109120000Y-63720000D02*
X110400000Y-65000000D01*
X60110000Y-105453840D02*
X60110000Y-105905000D01*
%TO.N,T12*%
X109120000Y-114260000D02*
X105479000Y-117901000D01*
X81465150Y-119739000D02*
X74055150Y-127149000D01*
X112900000Y-118040000D02*
X112900000Y-119800000D01*
X96988050Y-119739000D02*
X81465150Y-119739000D01*
X105479000Y-117901000D02*
X98826050Y-117901000D01*
X127819000Y-121199000D02*
X131620000Y-125000000D01*
X98826050Y-117901000D02*
X96988050Y-119739000D01*
X61726000Y-127149000D02*
X60110000Y-128765000D01*
X74055150Y-127149000D02*
X61726000Y-127149000D01*
X109120000Y-114260000D02*
X112900000Y-118040000D01*
X112900000Y-119800000D02*
X114299000Y-121199000D01*
X114299000Y-121199000D02*
X127819000Y-121199000D01*
%TO.N,T11*%
X96988050Y-117199000D02*
X83438050Y-117199000D01*
X105479000Y-115361000D02*
X98826050Y-115361000D01*
X83438050Y-117199000D02*
X76028050Y-124609000D01*
X76028050Y-124609000D02*
X61726000Y-124609000D01*
X112900000Y-115500000D02*
X118040000Y-115500000D01*
X118040000Y-115500000D02*
X121920000Y-119380000D01*
X109120000Y-111720000D02*
X105479000Y-115361000D01*
X109120000Y-111720000D02*
X112900000Y-115500000D01*
X98826050Y-115361000D02*
X96988050Y-117199000D01*
X61726000Y-124609000D02*
X60110000Y-126225000D01*
%TO.N,T10*%
X113040000Y-113100000D02*
X118180000Y-113100000D01*
X109120000Y-109180000D02*
X113040000Y-113100000D01*
X109120000Y-109180000D02*
X105479000Y-112821000D01*
X96988050Y-114659000D02*
X83795150Y-114659000D01*
X105479000Y-112821000D02*
X98826050Y-112821000D01*
X74769150Y-123685000D02*
X60110000Y-123685000D01*
X118180000Y-113100000D02*
X121920000Y-116840000D01*
X83795150Y-114659000D02*
X74769150Y-123685000D01*
X98826050Y-112821000D02*
X96988050Y-114659000D01*
%TO.N,SRC4*%
X93250000Y-66250000D02*
X92000000Y-65000000D01*
X82600000Y-71000000D02*
X68700000Y-71000000D01*
X88600000Y-65000000D02*
X82600000Y-71000000D01*
X68700000Y-71000000D02*
X66700000Y-69000000D01*
X61305000Y-69000000D02*
X60110000Y-67805000D01*
X66700000Y-69000000D02*
X61305000Y-69000000D01*
X92000000Y-65000000D02*
X88600000Y-65000000D01*
%TO.N,a2*%
X120376000Y-72491000D02*
X114195000Y-66310000D01*
X131079000Y-72491000D02*
X120376000Y-72491000D01*
X135380000Y-68190000D02*
X131079000Y-72491000D01*
%TO.N,a3*%
X118900000Y-72900000D02*
X114850000Y-68850000D01*
X133210000Y-72900000D02*
X118900000Y-72900000D01*
X135380000Y-70730000D02*
X133210000Y-72900000D01*
X114850000Y-68850000D02*
X114195000Y-68850000D01*
%TO.N,a0*%
X135380000Y-63110000D02*
X132270000Y-60000000D01*
X132270000Y-60000000D02*
X115505000Y-60000000D01*
X115505000Y-60000000D02*
X114195000Y-58690000D01*
%TO.N,a1*%
X112900000Y-57445000D02*
X114195000Y-56150000D01*
X134830000Y-65100000D02*
X119622050Y-65100000D01*
X112900000Y-59200000D02*
X112900000Y-57445000D01*
X114522050Y-60000000D02*
X113700000Y-60000000D01*
X113700000Y-60000000D02*
X112900000Y-59200000D01*
X119622050Y-65100000D02*
X114522050Y-60000000D01*
X135380000Y-65650000D02*
X134830000Y-65100000D01*
%TO.N,a7*%
X135380000Y-80890000D02*
X133300000Y-82970000D01*
X132500000Y-93900000D02*
X128145000Y-93900000D01*
X135380000Y-81487100D02*
X135380000Y-80890000D01*
X128145000Y-93900000D02*
X123995000Y-89750000D01*
X133300000Y-93100000D02*
X132500000Y-93900000D01*
X133300000Y-82970000D02*
X133300000Y-93100000D01*
%TO.N,a5*%
X125245000Y-78300000D02*
X123995000Y-77050000D01*
X135380000Y-75810000D02*
X132890000Y-78300000D01*
X132890000Y-78300000D02*
X125245000Y-78300000D01*
%TO.N,a6*%
X130285000Y-93500000D02*
X123995000Y-87210000D01*
X132300000Y-93500000D02*
X130285000Y-93500000D01*
X132900000Y-92900000D02*
X132300000Y-93500000D01*
X135380000Y-78350000D02*
X132900000Y-80830000D01*
X132900000Y-80830000D02*
X132900000Y-92900000D01*
%TO.N,a4*%
X135985050Y-77100000D02*
X134749950Y-77100000D01*
X135380000Y-73270000D02*
X136600000Y-74490000D01*
X132900000Y-80100000D02*
X132200000Y-80800000D01*
X134749950Y-77100000D02*
X132900000Y-78949950D01*
X132900000Y-78949950D02*
X132900000Y-80100000D01*
X125205000Y-80800000D02*
X123995000Y-79590000D01*
X136600000Y-76485050D02*
X135985050Y-77100000D01*
X136600000Y-74490000D02*
X136600000Y-76485050D01*
X132200000Y-80800000D02*
X125205000Y-80800000D01*
%TO.N,a10*%
X121400000Y-118100000D02*
X117600000Y-114300000D01*
X135500000Y-109240000D02*
X126640000Y-118100000D01*
X117600000Y-114300000D02*
X114300000Y-114300000D01*
X126640000Y-118100000D02*
X121400000Y-118100000D01*
%TO.N,a11*%
X135500000Y-111780000D02*
X133620000Y-111780000D01*
X124800000Y-120600000D02*
X118060000Y-120600000D01*
X133620000Y-111780000D02*
X124800000Y-120600000D01*
X118060000Y-120600000D02*
X114300000Y-116840000D01*
%TO.N,a9*%
X134200000Y-105400000D02*
X115560000Y-105400000D01*
X115560000Y-105400000D02*
X114300000Y-104140000D01*
X135500000Y-106700000D02*
X134200000Y-105400000D01*
%TO.N,a8*%
X136800000Y-105460000D02*
X136800000Y-107200000D01*
X136000000Y-108000000D02*
X115620000Y-108000000D01*
X135500000Y-104160000D02*
X136800000Y-105460000D01*
X115620000Y-108000000D02*
X114300000Y-106680000D01*
X136800000Y-107200000D02*
X136000000Y-108000000D01*
%TO.N,a13*%
X125300000Y-126300000D02*
X124000000Y-125000000D01*
X132900000Y-119460000D02*
X132900000Y-125600000D01*
X135500000Y-116860000D02*
X132900000Y-119460000D01*
X132200000Y-126300000D02*
X125300000Y-126300000D01*
X132900000Y-125600000D02*
X132200000Y-126300000D01*
%TO.N,a14*%
X132200000Y-141500000D02*
X130340000Y-141500000D01*
X130340000Y-141500000D02*
X124000000Y-135160000D01*
X135500000Y-119400000D02*
X133700000Y-121200000D01*
X133700000Y-140000000D02*
X132200000Y-141500000D01*
X133700000Y-121200000D02*
X133700000Y-140000000D01*
%TO.N,a12*%
X133300000Y-119700000D02*
X133300000Y-127700000D01*
X125260000Y-128800000D02*
X124000000Y-127540000D01*
X133300000Y-127700000D02*
X132200000Y-128800000D01*
X134900000Y-118100000D02*
X133300000Y-119700000D01*
X136800000Y-117455050D02*
X136155050Y-118100000D01*
X136155050Y-118100000D02*
X134900000Y-118100000D01*
X132200000Y-128800000D02*
X125260000Y-128800000D01*
X135500000Y-114320000D02*
X136800000Y-115620000D01*
X136800000Y-115620000D02*
X136800000Y-117455050D01*
%TO.N,a15*%
X128200000Y-141900000D02*
X124000000Y-137700000D01*
X135500000Y-121940000D02*
X134100000Y-123340000D01*
X134100000Y-140300000D02*
X132500000Y-141900000D01*
X132500000Y-141900000D02*
X128200000Y-141900000D01*
X134100000Y-123340000D02*
X134100000Y-140300000D01*
%TD*%
M02*
