%TF.GenerationSoftware,KiCad,Pcbnew,9.0.4*%
%TF.CreationDate,2025-09-17T01:01:28-04:00*%
%TF.ProjectId,tta8_lsu,74746138-5f6c-4737-952e-6b696361645f,0*%
%TF.SameCoordinates,Original*%
%TF.FileFunction,Copper,L2,Bot*%
%TF.FilePolarity,Positive*%
%FSLAX46Y46*%
G04 Gerber Fmt 4.6, Leading zero omitted, Abs format (unit mm)*
G04 Created by KiCad (PCBNEW 9.0.4) date 2025-09-17 01:01:28*
%MOMM*%
%LPD*%
G01*
G04 APERTURE LIST*
G04 Aperture macros list*
%AMRoundRect*
0 Rectangle with rounded corners*
0 $1 Rounding radius*
0 $2 $3 $4 $5 $6 $7 $8 $9 X,Y pos of 4 corners*
0 Add a 4 corners polygon primitive as box body*
4,1,4,$2,$3,$4,$5,$6,$7,$8,$9,$2,$3,0*
0 Add four circle primitives for the rounded corners*
1,1,$1+$1,$2,$3*
1,1,$1+$1,$4,$5*
1,1,$1+$1,$6,$7*
1,1,$1+$1,$8,$9*
0 Add four rect primitives between the rounded corners*
20,1,$1+$1,$2,$3,$4,$5,0*
20,1,$1+$1,$4,$5,$6,$7,0*
20,1,$1+$1,$6,$7,$8,$9,0*
20,1,$1+$1,$8,$9,$2,$3,0*%
G04 Aperture macros list end*
%TA.AperFunction,ComponentPad*%
%ADD10C,1.600000*%
%TD*%
%TA.AperFunction,ComponentPad*%
%ADD11RoundRect,0.250000X0.550000X-0.550000X0.550000X0.550000X-0.550000X0.550000X-0.550000X-0.550000X0*%
%TD*%
%TA.AperFunction,ComponentPad*%
%ADD12RoundRect,0.250000X0.550000X0.550000X-0.550000X0.550000X-0.550000X-0.550000X0.550000X-0.550000X0*%
%TD*%
%TA.AperFunction,ComponentPad*%
%ADD13RoundRect,0.250000X-0.550000X-0.550000X0.550000X-0.550000X0.550000X0.550000X-0.550000X0.550000X0*%
%TD*%
%TA.AperFunction,ComponentPad*%
%ADD14R,1.700000X1.700000*%
%TD*%
%TA.AperFunction,ComponentPad*%
%ADD15C,1.700000*%
%TD*%
%TA.AperFunction,ComponentPad*%
%ADD16C,6.400000*%
%TD*%
%TA.AperFunction,ComponentPad*%
%ADD17O,1.700000X1.700000*%
%TD*%
%TA.AperFunction,ComponentPad*%
%ADD18RoundRect,0.250001X0.499999X0.499999X-0.499999X0.499999X-0.499999X-0.499999X0.499999X-0.499999X0*%
%TD*%
%TA.AperFunction,ComponentPad*%
%ADD19C,1.500000*%
%TD*%
%TA.AperFunction,ViaPad*%
%ADD20C,0.600000*%
%TD*%
%TA.AperFunction,Conductor*%
%ADD21C,0.200000*%
%TD*%
%TA.AperFunction,Conductor*%
%ADD22C,0.500000*%
%TD*%
G04 APERTURE END LIST*
D10*
%TO.P,U8,14,VCC*%
%TO.N,+5V*%
X93600000Y-53100000D03*
%TO.P,U8,13*%
%TO.N,Net-(U8-Pad13)*%
X96140000Y-53100000D03*
%TO.P,U8,12*%
%TO.N,Net-(U6-OE)*%
X98680000Y-53100000D03*
%TO.P,U8,11*%
X101220000Y-53100000D03*
%TO.P,U8,10*%
%TO.N,Net-(U8-Pad10)*%
X103760000Y-53100000D03*
%TO.P,U8,9*%
%TO.N,Net-(U5-OE)*%
X106300000Y-53100000D03*
%TO.P,U8,8*%
X108840000Y-53100000D03*
%TO.P,U8,7,GND*%
%TO.N,GND*%
X108840000Y-60720000D03*
%TO.P,U8,6*%
%TO.N,Net-(U8-Pad10)*%
X106300000Y-60720000D03*
%TO.P,U8,5*%
%TO.N,Net-(U8-Pad13)*%
X103760000Y-60720000D03*
%TO.P,U8,4*%
%TO.N,Net-(U1-OE)*%
X101220000Y-60720000D03*
%TO.P,U8,3*%
%TO.N,Net-(U7-Pad3)*%
X98680000Y-60720000D03*
%TO.P,U8,2*%
X96140000Y-60720000D03*
D11*
%TO.P,U8,1*%
%TO.N,Net-(U1-Load)*%
X93600000Y-60720000D03*
%TD*%
D10*
%TO.P,U5,20,VCC*%
%TO.N,+5V*%
X105100000Y-95380000D03*
%TO.P,U5,19,Q0*%
%TO.N,D7*%
X105100000Y-92840000D03*
%TO.P,U5,18,Q1*%
%TO.N,D6*%
X105100000Y-90300000D03*
%TO.P,U5,17,Q2*%
%TO.N,D5*%
X105100000Y-87760000D03*
%TO.P,U5,16,Q3*%
%TO.N,D4*%
X105100000Y-85220000D03*
%TO.P,U5,15,Q4*%
%TO.N,D3*%
X105100000Y-82680000D03*
%TO.P,U5,14,Q5*%
%TO.N,D2*%
X105100000Y-80140000D03*
%TO.P,U5,13,Q6*%
%TO.N,D1*%
X105100000Y-77600000D03*
%TO.P,U5,12,Q7*%
%TO.N,D0*%
X105100000Y-75060000D03*
%TO.P,U5,11,Load*%
%TO.N,+5V*%
X105100000Y-72520000D03*
%TO.P,U5,10,GND*%
%TO.N,GND*%
X112720000Y-72520000D03*
%TO.P,U5,9,D7*%
%TO.N,T0*%
X112720000Y-75060000D03*
%TO.P,U5,8,D6*%
%TO.N,T1*%
X112720000Y-77600000D03*
%TO.P,U5,7,D5*%
%TO.N,T2*%
X112720000Y-80140000D03*
%TO.P,U5,6,D4*%
%TO.N,T3*%
X112720000Y-82680000D03*
%TO.P,U5,5,D3*%
%TO.N,T4*%
X112720000Y-85220000D03*
%TO.P,U5,4,D2*%
%TO.N,T5*%
X112720000Y-87760000D03*
%TO.P,U5,3,D1*%
%TO.N,T6*%
X112720000Y-90300000D03*
%TO.P,U5,2,D0*%
%TO.N,T7*%
X112720000Y-92840000D03*
D12*
%TO.P,U5,1,OE*%
%TO.N,Net-(U5-OE)*%
X112720000Y-95380000D03*
%TD*%
D13*
%TO.P,U6,1,OE*%
%TO.N,Net-(U6-OE)*%
X105100000Y-102500000D03*
D10*
%TO.P,U6,2,D0*%
%TO.N,D7*%
X105100000Y-105040000D03*
%TO.P,U6,3,D1*%
%TO.N,D6*%
X105100000Y-107580000D03*
%TO.P,U6,4,D2*%
%TO.N,D5*%
X105100000Y-110120000D03*
%TO.P,U6,5,D3*%
%TO.N,D4*%
X105100000Y-112660000D03*
%TO.P,U6,6,D4*%
%TO.N,D3*%
X105100000Y-115200000D03*
%TO.P,U6,7,D5*%
%TO.N,D2*%
X105100000Y-117740000D03*
%TO.P,U6,8,D6*%
%TO.N,D1*%
X105100000Y-120280000D03*
%TO.P,U6,9,D7*%
%TO.N,D0*%
X105100000Y-122820000D03*
%TO.P,U6,10,GND*%
%TO.N,GND*%
X105100000Y-125360000D03*
%TO.P,U6,11,Load*%
%TO.N,+5V*%
X112720000Y-125360000D03*
%TO.P,U6,12,Q7*%
%TO.N,T0*%
X112720000Y-122820000D03*
%TO.P,U6,13,Q6*%
%TO.N,T1*%
X112720000Y-120280000D03*
%TO.P,U6,14,Q5*%
%TO.N,T2*%
X112720000Y-117740000D03*
%TO.P,U6,15,Q4*%
%TO.N,T3*%
X112720000Y-115200000D03*
%TO.P,U6,16,Q3*%
%TO.N,T4*%
X112720000Y-112660000D03*
%TO.P,U6,17,Q2*%
%TO.N,T5*%
X112720000Y-110120000D03*
%TO.P,U6,18,Q1*%
%TO.N,T6*%
X112720000Y-107580000D03*
%TO.P,U6,19,Q0*%
%TO.N,T7*%
X112720000Y-105040000D03*
%TO.P,U6,20,VCC*%
%TO.N,+5V*%
X112720000Y-102500000D03*
%TD*%
D12*
%TO.P,U3,1,OE*%
%TO.N,Net-(U3-OE)*%
X95725000Y-125370000D03*
D10*
%TO.P,U3,2,D0*%
%TO.N,T15*%
X95725000Y-122830000D03*
%TO.P,U3,3,D1*%
%TO.N,T14*%
X95725000Y-120290000D03*
%TO.P,U3,4,D2*%
%TO.N,T13*%
X95725000Y-117750000D03*
%TO.P,U3,5,D3*%
%TO.N,T12*%
X95725000Y-115210000D03*
%TO.P,U3,6,D4*%
%TO.N,T11*%
X95725000Y-112670000D03*
%TO.P,U3,7,D5*%
%TO.N,T10*%
X95725000Y-110130000D03*
%TO.P,U3,8,D6*%
%TO.N,T9*%
X95725000Y-107590000D03*
%TO.P,U3,9,D7*%
%TO.N,T8*%
X95725000Y-105050000D03*
%TO.P,U3,10,GND*%
%TO.N,GND*%
X95725000Y-102510000D03*
%TO.P,U3,11,Load*%
%TO.N,Net-(U1-Load)*%
X88105000Y-102510000D03*
%TO.P,U3,12,Q7*%
%TO.N,A8*%
X88105000Y-105050000D03*
%TO.P,U3,13,Q6*%
%TO.N,A9*%
X88105000Y-107590000D03*
%TO.P,U3,14,Q5*%
%TO.N,A10*%
X88105000Y-110130000D03*
%TO.P,U3,15,Q4*%
%TO.N,A11*%
X88105000Y-112670000D03*
%TO.P,U3,16,Q3*%
%TO.N,A12*%
X88105000Y-115210000D03*
%TO.P,U3,17,Q2*%
%TO.N,A13*%
X88105000Y-117750000D03*
%TO.P,U3,18,Q1*%
%TO.N,A14*%
X88105000Y-120290000D03*
%TO.P,U3,19,Q0*%
%TO.N,A15*%
X88105000Y-122830000D03*
%TO.P,U3,20,VCC*%
%TO.N,+5V*%
X88105000Y-125370000D03*
%TD*%
D12*
%TO.P,U1,1,OE*%
%TO.N,Net-(U1-OE)*%
X77720000Y-125360000D03*
D10*
%TO.P,U1,2,D0*%
%TO.N,T15*%
X77720000Y-122820000D03*
%TO.P,U1,3,D1*%
%TO.N,T14*%
X77720000Y-120280000D03*
%TO.P,U1,4,D2*%
%TO.N,T13*%
X77720000Y-117740000D03*
%TO.P,U1,5,D3*%
%TO.N,T12*%
X77720000Y-115200000D03*
%TO.P,U1,6,D4*%
%TO.N,T11*%
X77720000Y-112660000D03*
%TO.P,U1,7,D5*%
%TO.N,T10*%
X77720000Y-110120000D03*
%TO.P,U1,8,D6*%
%TO.N,T9*%
X77720000Y-107580000D03*
%TO.P,U1,9,D7*%
%TO.N,T8*%
X77720000Y-105040000D03*
%TO.P,U1,10,GND*%
%TO.N,GND*%
X77720000Y-102500000D03*
%TO.P,U1,11,Load*%
%TO.N,Net-(U1-Load)*%
X70100000Y-102500000D03*
%TO.P,U1,12,Q7*%
%TO.N,A8*%
X70100000Y-105040000D03*
%TO.P,U1,13,Q6*%
%TO.N,A9*%
X70100000Y-107580000D03*
%TO.P,U1,14,Q5*%
%TO.N,A10*%
X70100000Y-110120000D03*
%TO.P,U1,15,Q4*%
%TO.N,A11*%
X70100000Y-112660000D03*
%TO.P,U1,16,Q3*%
%TO.N,A12*%
X70100000Y-115200000D03*
%TO.P,U1,17,Q2*%
%TO.N,A13*%
X70100000Y-117740000D03*
%TO.P,U1,18,Q1*%
%TO.N,A14*%
X70100000Y-120280000D03*
%TO.P,U1,19,Q0*%
%TO.N,A15*%
X70100000Y-122820000D03*
%TO.P,U1,20,VCC*%
%TO.N,+5V*%
X70100000Y-125360000D03*
%TD*%
D12*
%TO.P,U2,1,OE*%
%TO.N,Net-(U1-OE)*%
X77720000Y-95320000D03*
D10*
%TO.P,U2,2,D0*%
%TO.N,T7*%
X77720000Y-92780000D03*
%TO.P,U2,3,D1*%
%TO.N,T6*%
X77720000Y-90240000D03*
%TO.P,U2,4,D2*%
%TO.N,T5*%
X77720000Y-87700000D03*
%TO.P,U2,5,D3*%
%TO.N,T4*%
X77720000Y-85160000D03*
%TO.P,U2,6,D4*%
%TO.N,T3*%
X77720000Y-82620000D03*
%TO.P,U2,7,D5*%
%TO.N,T2*%
X77720000Y-80080000D03*
%TO.P,U2,8,D6*%
%TO.N,T1*%
X77720000Y-77540000D03*
%TO.P,U2,9,D7*%
%TO.N,T0*%
X77720000Y-75000000D03*
%TO.P,U2,10,GND*%
%TO.N,GND*%
X77720000Y-72460000D03*
%TO.P,U2,11,Load*%
%TO.N,Net-(U1-Load)*%
X70100000Y-72460000D03*
%TO.P,U2,12,Q7*%
%TO.N,A0*%
X70100000Y-75000000D03*
%TO.P,U2,13,Q6*%
%TO.N,A1*%
X70100000Y-77540000D03*
%TO.P,U2,14,Q5*%
%TO.N,A2*%
X70100000Y-80080000D03*
%TO.P,U2,15,Q4*%
%TO.N,A3*%
X70100000Y-82620000D03*
%TO.P,U2,16,Q3*%
%TO.N,A4*%
X70100000Y-85160000D03*
%TO.P,U2,17,Q2*%
%TO.N,A5*%
X70100000Y-87700000D03*
%TO.P,U2,18,Q1*%
%TO.N,A6*%
X70100000Y-90240000D03*
%TO.P,U2,19,Q0*%
%TO.N,A7*%
X70100000Y-92780000D03*
%TO.P,U2,20,VCC*%
%TO.N,+5V*%
X70100000Y-95320000D03*
%TD*%
D12*
%TO.P,U4,1,OE*%
%TO.N,Net-(U3-OE)*%
X95700000Y-95360000D03*
D10*
%TO.P,U4,2,D0*%
%TO.N,T7*%
X95700000Y-92820000D03*
%TO.P,U4,3,D1*%
%TO.N,T6*%
X95700000Y-90280000D03*
%TO.P,U4,4,D2*%
%TO.N,T5*%
X95700000Y-87740000D03*
%TO.P,U4,5,D3*%
%TO.N,T4*%
X95700000Y-85200000D03*
%TO.P,U4,6,D4*%
%TO.N,T3*%
X95700000Y-82660000D03*
%TO.P,U4,7,D5*%
%TO.N,T2*%
X95700000Y-80120000D03*
%TO.P,U4,8,D6*%
%TO.N,T1*%
X95700000Y-77580000D03*
%TO.P,U4,9,D7*%
%TO.N,T0*%
X95700000Y-75040000D03*
%TO.P,U4,10,GND*%
%TO.N,GND*%
X95700000Y-72500000D03*
%TO.P,U4,11,Load*%
%TO.N,Net-(U1-Load)*%
X88080000Y-72500000D03*
%TO.P,U4,12,Q7*%
%TO.N,A0*%
X88080000Y-75040000D03*
%TO.P,U4,13,Q6*%
%TO.N,A1*%
X88080000Y-77580000D03*
%TO.P,U4,14,Q5*%
%TO.N,A2*%
X88080000Y-80120000D03*
%TO.P,U4,15,Q4*%
%TO.N,A3*%
X88080000Y-82660000D03*
%TO.P,U4,16,Q3*%
%TO.N,A4*%
X88080000Y-85200000D03*
%TO.P,U4,17,Q2*%
%TO.N,A5*%
X88080000Y-87740000D03*
%TO.P,U4,18,Q1*%
%TO.N,A6*%
X88080000Y-90280000D03*
%TO.P,U4,19,Q0*%
%TO.N,A7*%
X88080000Y-92820000D03*
%TO.P,U4,20,VCC*%
%TO.N,+5V*%
X88080000Y-95360000D03*
%TD*%
D11*
%TO.P,U7,1*%
%TO.N,DST1*%
X71612500Y-60705000D03*
D10*
%TO.P,U7,2*%
%TO.N,MOV*%
X74152500Y-60705000D03*
%TO.P,U7,3*%
%TO.N,Net-(U7-Pad3)*%
X76692500Y-60705000D03*
%TO.P,U7,4*%
%TO.N,SRC1*%
X79232500Y-60705000D03*
%TO.P,U7,5*%
%TO.N,MOV*%
X81772500Y-60705000D03*
%TO.P,U7,6*%
%TO.N,Net-(U3-OE)*%
X84312500Y-60705000D03*
%TO.P,U7,7,GND*%
%TO.N,GND*%
X86852500Y-60705000D03*
%TO.P,U7,8*%
%TO.N,Net-(U5-OE)*%
X86852500Y-53085000D03*
%TO.P,U7,9*%
%TO.N,DST2*%
X84312500Y-53085000D03*
%TO.P,U7,10*%
%TO.N,MOV*%
X81772500Y-53085000D03*
%TO.P,U7,11*%
%TO.N,Net-(U6-OE)*%
X79232500Y-53085000D03*
%TO.P,U7,12*%
%TO.N,SRC2*%
X76692500Y-53085000D03*
%TO.P,U7,13*%
%TO.N,MOV*%
X74152500Y-53085000D03*
%TO.P,U7,14,VCC*%
%TO.N,+5V*%
X71612500Y-53085000D03*
%TD*%
D14*
%TO.P,J2,1,Pin_1*%
%TO.N,srce0*%
X62650000Y-57645000D03*
D15*
%TO.P,J2,2,Pin_2*%
%TO.N,srce1*%
X62650000Y-60185000D03*
%TO.P,J2,3,Pin_3*%
%TO.N,srce2*%
X62650000Y-62725000D03*
%TO.P,J2,4,Pin_4*%
%TO.N,dste0*%
X62650000Y-65265000D03*
%TO.P,J2,5,Pin_5*%
%TO.N,dste1*%
X62650000Y-67805000D03*
%TO.P,J2,6,Pin_6*%
%TO.N,dste2*%
X62650000Y-70345000D03*
%TD*%
D16*
%TO.P,H3,1,1*%
%TO.N,unconnected-(H3-Pad1)*%
X59000000Y-143000000D03*
%TD*%
%TO.P,H2,1,1*%
%TO.N,unconnected-(H2-Pad1)*%
X143000000Y-51000000D03*
%TD*%
D14*
%TO.P,J1,1,Pin_1*%
%TO.N,A0*%
X57570000Y-57645000D03*
D17*
%TO.P,J1,2,Pin_2*%
%TO.N,SRC0*%
X60110000Y-57645000D03*
%TO.P,J1,3,Pin_3*%
%TO.N,A1*%
X57570000Y-60185000D03*
%TO.P,J1,4,Pin_4*%
%TO.N,SRC1*%
X60110000Y-60185000D03*
%TO.P,J1,5,Pin_5*%
%TO.N,A2*%
X57570000Y-62725000D03*
%TO.P,J1,6,Pin_6*%
%TO.N,SRC2*%
X60110000Y-62725000D03*
%TO.P,J1,7,Pin_7*%
%TO.N,A3*%
X57570000Y-65265000D03*
%TO.P,J1,8,Pin_8*%
%TO.N,SRC3*%
X60110000Y-65265000D03*
%TO.P,J1,9,Pin_9*%
%TO.N,A4*%
X57570000Y-67805000D03*
%TO.P,J1,10,Pin_10*%
%TO.N,SRC4*%
X60110000Y-67805000D03*
%TO.P,J1,11,Pin_11*%
%TO.N,A5*%
X57570000Y-70345000D03*
%TO.P,J1,12,Pin_12*%
%TO.N,SRC5*%
X60110000Y-70345000D03*
%TO.P,J1,13,Pin_13*%
%TO.N,A6*%
X57570000Y-72885000D03*
%TO.P,J1,14,Pin_14*%
%TO.N,SRC6*%
X60110000Y-72885000D03*
%TO.P,J1,15,Pin_15*%
%TO.N,A7*%
X57570000Y-75425000D03*
%TO.P,J1,16,Pin_16*%
%TO.N,SRC7*%
X60110000Y-75425000D03*
%TO.P,J1,17,Pin_17*%
%TO.N,A8*%
X57570000Y-77965000D03*
%TO.P,J1,18,Pin_18*%
%TO.N,DST0*%
X60110000Y-77965000D03*
%TO.P,J1,19,Pin_19*%
%TO.N,A9*%
X57570000Y-80505000D03*
%TO.P,J1,20,Pin_20*%
%TO.N,DST1*%
X60110000Y-80505000D03*
%TO.P,J1,21,Pin_21*%
%TO.N,A10*%
X57570000Y-83045000D03*
%TO.P,J1,22,Pin_22*%
%TO.N,DST2*%
X60110000Y-83045000D03*
%TO.P,J1,23,Pin_23*%
%TO.N,A11*%
X57570000Y-85585000D03*
%TO.P,J1,24,Pin_24*%
%TO.N,DST3*%
X60110000Y-85585000D03*
%TO.P,J1,25,Pin_25*%
%TO.N,A12*%
X57570000Y-88125000D03*
%TO.P,J1,26,Pin_26*%
%TO.N,DST4*%
X60110000Y-88125000D03*
%TO.P,J1,27,Pin_27*%
%TO.N,A13*%
X57570000Y-90665000D03*
%TO.P,J1,28,Pin_28*%
%TO.N,DST5*%
X60110000Y-90665000D03*
%TO.P,J1,29,Pin_29*%
%TO.N,A14*%
X57570000Y-93205000D03*
%TO.P,J1,30,Pin_30*%
%TO.N,DST6*%
X60110000Y-93205000D03*
%TO.P,J1,31,Pin_31*%
%TO.N,A15*%
X57570000Y-95745000D03*
%TO.P,J1,32,Pin_32*%
%TO.N,DST7*%
X60110000Y-95745000D03*
%TO.P,J1,33,Pin_33*%
%TO.N,D0*%
X57570000Y-98285000D03*
%TO.P,J1,34,Pin_34*%
%TO.N,T0*%
X60110000Y-98285000D03*
%TO.P,J1,35,Pin_35*%
%TO.N,D1*%
X57570000Y-100825000D03*
%TO.P,J1,36,Pin_36*%
%TO.N,T1*%
X60110000Y-100825000D03*
%TO.P,J1,37,Pin_37*%
%TO.N,D2*%
X57570000Y-103365000D03*
%TO.P,J1,38,Pin_38*%
%TO.N,T2*%
X60110000Y-103365000D03*
%TO.P,J1,39,Pin_39*%
%TO.N,D3*%
X57570000Y-105905000D03*
%TO.P,J1,40,Pin_40*%
%TO.N,T3*%
X60110000Y-105905000D03*
%TO.P,J1,41,Pin_41*%
%TO.N,D4*%
X57570000Y-108445000D03*
%TO.P,J1,42,Pin_42*%
%TO.N,T4*%
X60110000Y-108445000D03*
%TO.P,J1,43,Pin_43*%
%TO.N,D5*%
X57570000Y-110985000D03*
%TO.P,J1,44,Pin_44*%
%TO.N,T5*%
X60110000Y-110985000D03*
%TO.P,J1,45,Pin_45*%
%TO.N,D6*%
X57570000Y-113525000D03*
%TO.P,J1,46,Pin_46*%
%TO.N,T6*%
X60110000Y-113525000D03*
%TO.P,J1,47,Pin_47*%
%TO.N,D7*%
X57570000Y-116065000D03*
%TO.P,J1,48,Pin_48*%
%TO.N,T7*%
X60110000Y-116065000D03*
%TO.P,J1,49,Pin_49*%
%TO.N,LDI*%
X57570000Y-118605000D03*
%TO.P,J1,50,Pin_50*%
%TO.N,T8*%
X60110000Y-118605000D03*
%TO.P,J1,51,Pin_51*%
%TO.N,EXC*%
X57570000Y-121145000D03*
%TO.P,J1,52,Pin_52*%
%TO.N,T9*%
X60110000Y-121145000D03*
%TO.P,J1,53,Pin_53*%
%TO.N,CLK*%
X57570000Y-123685000D03*
%TO.P,J1,54,Pin_54*%
%TO.N,T10*%
X60110000Y-123685000D03*
%TO.P,J1,55,Pin_55*%
%TO.N,{slash}R*%
X57570000Y-126225000D03*
%TO.P,J1,56,Pin_56*%
%TO.N,T11*%
X60110000Y-126225000D03*
%TO.P,J1,57,Pin_57*%
%TO.N,CARRY*%
X57570000Y-128765000D03*
%TO.P,J1,58,Pin_58*%
%TO.N,T12*%
X60110000Y-128765000D03*
%TO.P,J1,59,Pin_59*%
%TO.N,ZERO*%
X57570000Y-131305000D03*
%TO.P,J1,60,Pin_60*%
%TO.N,T13*%
X60110000Y-131305000D03*
%TO.P,J1,61,Pin_61*%
%TO.N,MOV*%
X57570000Y-133845000D03*
%TO.P,J1,62,Pin_62*%
%TO.N,T14*%
X60110000Y-133845000D03*
%TO.P,J1,63,Pin_63*%
%TO.N,MVI*%
X57570000Y-136385000D03*
%TO.P,J1,64,Pin_64*%
%TO.N,T15*%
X60110000Y-136385000D03*
%TD*%
D16*
%TO.P,H1,1,1*%
%TO.N,unconnected-(H1-Pad1)*%
X59000000Y-51000000D03*
%TD*%
D18*
%TO.P,J3,1,Pin_1*%
%TO.N,+5V*%
X109000000Y-137500000D03*
D19*
%TO.P,J3,2,Pin_2*%
%TO.N,GND*%
X106000000Y-137500000D03*
%TO.P,J3,3,Pin_3*%
%TO.N,+5V*%
X109000000Y-134500000D03*
%TO.P,J3,4,Pin_4*%
%TO.N,GND*%
X106000000Y-134500000D03*
%TD*%
D16*
%TO.P,H4,1,1*%
%TO.N,unconnected-(H4-Pad1)*%
X143000000Y-143000000D03*
%TD*%
D20*
%TO.N,Net-(U1-Load)*%
X89650000Y-97150000D03*
%TO.N,Net-(U6-OE)*%
X110900000Y-98600000D03*
%TO.N,Net-(U1-OE)*%
X92650000Y-94350000D03*
X100800000Y-96900000D03*
X100100000Y-129400000D03*
%TO.N,Net-(U1-Load)*%
X91200000Y-95600000D03*
%TD*%
D21*
%TO.N,Net-(U1-Load)*%
X89650000Y-97150000D02*
X91200000Y-95600000D01*
%TO.N,T0*%
X94440000Y-75040000D02*
X95700000Y-75040000D01*
X93200000Y-73800000D02*
X94440000Y-75040000D01*
X83400000Y-73800000D02*
X93200000Y-73800000D01*
X77720000Y-75000000D02*
X82200000Y-75000000D01*
X82200000Y-75000000D02*
X83400000Y-73800000D01*
%TO.N,Net-(U1-OE)*%
X78940000Y-94100000D02*
X77720000Y-95320000D01*
X92400000Y-94100000D02*
X78940000Y-94100000D01*
X92650000Y-94350000D02*
X92400000Y-94100000D01*
D22*
%TO.N,+5V*%
X112720000Y-98920000D02*
X112720000Y-102500000D01*
X109180000Y-95380000D02*
X112720000Y-98920000D01*
X105100000Y-95380000D02*
X109180000Y-95380000D01*
D21*
%TO.N,Net-(U6-OE)*%
X110900000Y-98600000D02*
X106700000Y-98600000D01*
X105100000Y-100200000D02*
X105100000Y-102500000D01*
X106700000Y-98600000D02*
X105100000Y-100200000D01*
D22*
%TO.N,+5V*%
X102400000Y-127900000D02*
X109000000Y-134500000D01*
X90635000Y-127900000D02*
X102400000Y-127900000D01*
X88105000Y-125370000D02*
X90635000Y-127900000D01*
D21*
%TO.N,Net-(U1-OE)*%
X95200000Y-96900000D02*
X100800000Y-96900000D01*
X92650000Y-94350000D02*
X95200000Y-96900000D01*
%TO.N,T7*%
X94480000Y-91600000D02*
X95700000Y-92820000D01*
X78900000Y-91600000D02*
X94480000Y-91600000D01*
X77720000Y-92780000D02*
X78900000Y-91600000D01*
%TO.N,T6*%
X94420000Y-89000000D02*
X95700000Y-90280000D01*
X77720000Y-90240000D02*
X78960000Y-89000000D01*
X78960000Y-89000000D02*
X94420000Y-89000000D01*
%TO.N,T5*%
X94460000Y-86500000D02*
X95700000Y-87740000D01*
X78920000Y-86500000D02*
X94460000Y-86500000D01*
X77720000Y-87700000D02*
X78920000Y-86500000D01*
%TO.N,T4*%
X78880000Y-84000000D02*
X94500000Y-84000000D01*
X77720000Y-85160000D02*
X78880000Y-84000000D01*
X94500000Y-84000000D02*
X95700000Y-85200000D01*
%TO.N,T3*%
X94440000Y-81400000D02*
X95700000Y-82660000D01*
X78940000Y-81400000D02*
X94440000Y-81400000D01*
X77720000Y-82620000D02*
X78940000Y-81400000D01*
%TO.N,T2*%
X94480000Y-78900000D02*
X95700000Y-80120000D01*
X77720000Y-80080000D02*
X78900000Y-78900000D01*
X78900000Y-78900000D02*
X94480000Y-78900000D01*
%TO.N,T1*%
X94420000Y-76300000D02*
X95700000Y-77580000D01*
X78960000Y-76300000D02*
X94420000Y-76300000D01*
X77720000Y-77540000D02*
X78960000Y-76300000D01*
%TO.N,Net-(U1-Load)*%
X93600000Y-66980000D02*
X88080000Y-72500000D01*
X93600000Y-60720000D02*
X93600000Y-66980000D01*
%TO.N,Net-(U1-OE)*%
X81760000Y-129400000D02*
X77720000Y-125360000D01*
X100100000Y-129400000D02*
X81760000Y-129400000D01*
%TO.N,T11*%
X66311000Y-117289000D02*
X66311000Y-120024000D01*
X66311000Y-120024000D02*
X60110000Y-126225000D01*
X73880000Y-116500000D02*
X67100000Y-116500000D01*
X77720000Y-112660000D02*
X73880000Y-116500000D01*
X67100000Y-116500000D02*
X66311000Y-117289000D01*
%TO.N,T13*%
X67113000Y-124302000D02*
X60110000Y-131305000D01*
X67113000Y-122287000D02*
X67113000Y-124302000D01*
X67800000Y-121600000D02*
X67113000Y-122287000D01*
X73860000Y-121600000D02*
X67800000Y-121600000D01*
X77720000Y-117740000D02*
X73860000Y-121600000D01*
%TO.N,T14*%
X67514000Y-126441000D02*
X60110000Y-133845000D01*
X67514000Y-124886000D02*
X67514000Y-126441000D01*
X73900000Y-124100000D02*
X68300000Y-124100000D01*
X68300000Y-124100000D02*
X67514000Y-124886000D01*
X77720000Y-120280000D02*
X73900000Y-124100000D01*
%TO.N,T15*%
X69894999Y-126600000D02*
X60110000Y-136384999D01*
X73940000Y-126600000D02*
X69894999Y-126600000D01*
X77720000Y-122820000D02*
X73940000Y-126600000D01*
X60110000Y-136384999D02*
X60110000Y-136385000D01*
%TO.N,T12*%
X66712000Y-122163000D02*
X60110000Y-128765000D01*
X66712000Y-119788000D02*
X66712000Y-122163000D01*
X67500000Y-119000000D02*
X66712000Y-119788000D01*
X77720000Y-115200000D02*
X73920000Y-119000000D01*
X73920000Y-119000000D02*
X67500000Y-119000000D01*
%TO.N,T10*%
X65910000Y-114590000D02*
X65910000Y-117885000D01*
X65910000Y-117885000D02*
X60110000Y-123685000D01*
X66600000Y-113900000D02*
X65910000Y-114590000D01*
X73940000Y-113900000D02*
X66600000Y-113900000D01*
X77720000Y-110120000D02*
X73940000Y-113900000D01*
%TO.N,T9*%
X65509000Y-112291000D02*
X65509000Y-115746000D01*
X65509000Y-115746000D02*
X60110000Y-121145000D01*
X73900000Y-111400000D02*
X66400000Y-111400000D01*
X66400000Y-111400000D02*
X65509000Y-112291000D01*
X77720000Y-107580000D02*
X73900000Y-111400000D01*
%TO.N,T8*%
X65108000Y-109792000D02*
X65108000Y-113607000D01*
X65108000Y-113607000D02*
X60110000Y-118605000D01*
X66000000Y-108900000D02*
X65108000Y-109792000D01*
X73860000Y-108900000D02*
X66000000Y-108900000D01*
X77720000Y-105040000D02*
X73860000Y-108900000D01*
%TO.N,T7*%
X64707000Y-111468000D02*
X60110000Y-116065000D01*
X66500000Y-94000000D02*
X64707000Y-95793000D01*
X64707000Y-95793000D02*
X64707000Y-111468000D01*
X77720000Y-92780000D02*
X76500000Y-94000000D01*
X76500000Y-94000000D02*
X66500000Y-94000000D01*
%TO.N,T6*%
X64306000Y-109329000D02*
X60110000Y-113525000D01*
X64306000Y-92994000D02*
X64306000Y-109329000D01*
X65800000Y-91500000D02*
X64306000Y-92994000D01*
X77720000Y-90240000D02*
X76460000Y-91500000D01*
X76460000Y-91500000D02*
X65800000Y-91500000D01*
%TO.N,T5*%
X63905000Y-107190000D02*
X60110000Y-110985000D01*
X65100000Y-89000000D02*
X63905000Y-90195000D01*
X76420000Y-89000000D02*
X65100000Y-89000000D01*
X77720000Y-87700000D02*
X76420000Y-89000000D01*
X63905000Y-90195000D02*
X63905000Y-107190000D01*
%TO.N,T4*%
X64700000Y-86400000D02*
X63504000Y-87596000D01*
X63504000Y-105051000D02*
X60110000Y-108445000D01*
X76480000Y-86400000D02*
X64700000Y-86400000D01*
X77720000Y-85160000D02*
X76480000Y-86400000D01*
X63504000Y-87596000D02*
X63504000Y-105051000D01*
%TO.N,T3*%
X63103000Y-102912000D02*
X60110000Y-105905000D01*
X63103000Y-85097000D02*
X63103000Y-102912000D01*
X64300000Y-83900000D02*
X63103000Y-85097000D01*
X76440000Y-83900000D02*
X64300000Y-83900000D01*
X77720000Y-82620000D02*
X76440000Y-83900000D01*
%TO.N,Net-(U6-OE)*%
X97380000Y-51800000D02*
X98680000Y-53100000D01*
X80517500Y-51800000D02*
X97380000Y-51800000D01*
X79232500Y-53085000D02*
X80517500Y-51800000D01*
%TO.N,Net-(U5-OE)*%
X104900000Y-54500000D02*
X88267500Y-54500000D01*
%TO.N,DST2*%
X67167100Y-62000000D02*
X79832500Y-62000000D01*
%TO.N,SRC1*%
X65700000Y-59300000D02*
X77827500Y-59300000D01*
%TO.N,DST1*%
X67895000Y-60705000D02*
X71612500Y-60705000D01*
%TO.N,SRC2*%
X68900000Y-54500000D02*
X75277500Y-54500000D01*
%TO.N,T7*%
X96980000Y-94100000D02*
X111460000Y-94100000D01*
%TO.N,T6*%
X111520000Y-91500000D02*
X96920000Y-91500000D01*
%TO.N,T5*%
X96960000Y-89000000D02*
X111480000Y-89000000D01*
%TO.N,T4*%
X111540000Y-86400000D02*
X96900000Y-86400000D01*
%TO.N,T3*%
X96940000Y-83900000D02*
X111500000Y-83900000D01*
%TO.N,T2*%
X111460000Y-81400000D02*
X96980000Y-81400000D01*
%TO.N,T1*%
X96920000Y-78800000D02*
X111520000Y-78800000D01*
%TO.N,T0*%
X111480000Y-76300000D02*
X96960000Y-76300000D01*
%TO.N,T5*%
X114623000Y-108217000D02*
X112720000Y-110120000D01*
X112720000Y-87760000D02*
X114623000Y-89663000D01*
X114623000Y-89663000D02*
X114623000Y-108217000D01*
%TO.N,T7*%
X112720000Y-92840000D02*
X113821000Y-93941000D01*
%TO.N,T6*%
X114222000Y-91802000D02*
X114222000Y-106078000D01*
X112720000Y-90300000D02*
X114222000Y-91802000D01*
%TO.N,T7*%
X113821000Y-93941000D02*
X113821000Y-103939000D01*
%TO.N,T6*%
X114222000Y-106078000D02*
X112720000Y-107580000D01*
%TO.N,T7*%
X113821000Y-103939000D02*
X112720000Y-105040000D01*
D22*
%TO.N,+5V*%
X112220000Y-102500000D02*
X112720000Y-102500000D01*
D21*
%TO.N,T4*%
X111540000Y-86400000D02*
X112720000Y-85220000D01*
%TO.N,T3*%
X112720000Y-82680000D02*
X115425000Y-85385000D01*
%TO.N,T1*%
X116227000Y-116773000D02*
X112720000Y-120280000D01*
%TO.N,T0*%
X112720000Y-75060000D02*
X116628000Y-78968000D01*
%TO.N,T4*%
X115024000Y-87524000D02*
X115024000Y-110356000D01*
%TO.N,T3*%
X111500000Y-83900000D02*
X112720000Y-82680000D01*
%TO.N,T1*%
X116227000Y-81107000D02*
X116227000Y-116773000D01*
%TO.N,T2*%
X111460000Y-81400000D02*
X112720000Y-80140000D01*
%TO.N,T1*%
X112720000Y-77600000D02*
X116227000Y-81107000D01*
%TO.N,T0*%
X116628000Y-78968000D02*
X116628000Y-118912000D01*
%TO.N,T7*%
X111460000Y-94100000D02*
X112720000Y-92840000D01*
%TO.N,T5*%
X111480000Y-89000000D02*
X112720000Y-87760000D01*
%TO.N,T3*%
X115425000Y-112495000D02*
X112720000Y-115200000D01*
%TO.N,T6*%
X111520000Y-91500000D02*
X112720000Y-90300000D01*
%TO.N,T4*%
X115024000Y-110356000D02*
X112720000Y-112660000D01*
%TO.N,T2*%
X115826000Y-114634000D02*
X112720000Y-117740000D01*
%TO.N,T0*%
X116628000Y-118912000D02*
X112720000Y-122820000D01*
%TO.N,T1*%
X111520000Y-78800000D02*
X112720000Y-77600000D01*
%TO.N,T3*%
X115425000Y-85385000D02*
X115425000Y-112495000D01*
%TO.N,T2*%
X112720000Y-80140000D02*
X115826000Y-83246000D01*
X115826000Y-83246000D02*
X115826000Y-114634000D01*
%TO.N,T0*%
X111480000Y-76300000D02*
X112720000Y-75060000D01*
%TO.N,T4*%
X112720000Y-85220000D02*
X115024000Y-87524000D01*
%TO.N,T2*%
X62702000Y-100773000D02*
X60110000Y-103365000D01*
X63456300Y-81400000D02*
X62702000Y-82154300D01*
X62702000Y-82154300D02*
X62702000Y-100773000D01*
X76400000Y-81400000D02*
X63456300Y-81400000D01*
X77720000Y-80080000D02*
X76400000Y-81400000D01*
%TO.N,SRC1*%
X61425000Y-61500000D02*
X60110000Y-60185000D01*
X65700000Y-59300000D02*
X63500000Y-61500000D01*
X79232500Y-60705000D02*
X77827500Y-59300000D01*
X63500000Y-61500000D02*
X61425000Y-61500000D01*
%TO.N,DST2*%
X64601000Y-64566100D02*
X64601000Y-78554000D01*
X80532500Y-56865000D02*
X80532500Y-61300000D01*
X67167100Y-62000000D02*
X64601000Y-64566100D01*
X84312500Y-53085000D02*
X80532500Y-56865000D01*
X80532500Y-61300000D02*
X79832500Y-62000000D01*
X64601000Y-78554000D02*
X60110000Y-83045000D01*
%TO.N,T1*%
X62301000Y-98634000D02*
X60110000Y-100825000D01*
X62301000Y-81988200D02*
X62301000Y-98634000D01*
X65489200Y-78800000D02*
X62301000Y-81988200D01*
X76460000Y-78800000D02*
X65489200Y-78800000D01*
X77720000Y-77540000D02*
X76460000Y-78800000D01*
%TO.N,T0*%
X61900000Y-96495000D02*
X60110000Y-98285000D01*
X61900000Y-81822100D02*
X61900000Y-96495000D01*
X65002000Y-78720100D02*
X61900000Y-81822100D01*
X65002000Y-77598000D02*
X65002000Y-78720100D01*
X66300000Y-76300000D02*
X65002000Y-77598000D01*
X76420000Y-76300000D02*
X66300000Y-76300000D01*
X77720000Y-75000000D02*
X76420000Y-76300000D01*
%TO.N,DST1*%
X64200000Y-64400000D02*
X64200000Y-76415000D01*
X67895000Y-60705000D02*
X64200000Y-64400000D01*
X64200000Y-76415000D02*
X60110000Y-80505000D01*
%TO.N,Net-(U6-OE)*%
X98680000Y-53100000D02*
X101220000Y-53100000D01*
%TO.N,Net-(U5-OE)*%
X104900000Y-54500000D02*
X106300000Y-53100000D01*
X86852500Y-53085000D02*
X88267500Y-54500000D01*
X106300000Y-53100000D02*
X108840000Y-53100000D01*
%TO.N,SRC2*%
X58800000Y-59400000D02*
X58800000Y-61415000D01*
X58800000Y-61415000D02*
X60110000Y-62725000D01*
X64500000Y-58900000D02*
X59300000Y-58900000D01*
X68900000Y-54500000D02*
X64500000Y-58900000D01*
X76692500Y-53085000D02*
X75277500Y-54500000D01*
X59300000Y-58900000D02*
X58800000Y-59400000D01*
%TO.N,T15*%
X77720000Y-122820000D02*
X79000000Y-124100000D01*
X79000000Y-124100000D02*
X94455000Y-124100000D01*
%TO.N,T14*%
X79040000Y-121600000D02*
X77720000Y-120280000D01*
%TO.N,T15*%
X94455000Y-124100000D02*
X95725000Y-122830000D01*
%TO.N,T14*%
X94415000Y-121600000D02*
X79040000Y-121600000D01*
%TO.N,T13*%
X78980000Y-119000000D02*
X94475000Y-119000000D01*
X77720000Y-117740000D02*
X78980000Y-119000000D01*
X94475000Y-119000000D02*
X95725000Y-117750000D01*
%TO.N,T14*%
X95725000Y-120290000D02*
X94415000Y-121600000D01*
%TO.N,T12*%
X77720000Y-115200000D02*
X79020000Y-116500000D01*
X79020000Y-116500000D02*
X94435000Y-116500000D01*
X94435000Y-116500000D02*
X95725000Y-115210000D01*
%TO.N,T9*%
X94415000Y-108900000D02*
X95725000Y-107590000D01*
%TO.N,T11*%
X79060000Y-114000000D02*
X94395000Y-114000000D01*
%TO.N,T10*%
X77720000Y-110120000D02*
X79000000Y-111400000D01*
X94455000Y-111400000D02*
X95725000Y-110130000D01*
%TO.N,T9*%
X77720000Y-107580000D02*
X79040000Y-108900000D01*
%TO.N,T10*%
X79000000Y-111400000D02*
X94455000Y-111400000D01*
%TO.N,T8*%
X77720000Y-105040000D02*
X78980000Y-106300000D01*
%TO.N,T9*%
X79040000Y-108900000D02*
X94415000Y-108900000D01*
%TO.N,T11*%
X94395000Y-114000000D02*
X95725000Y-112670000D01*
X77720000Y-112660000D02*
X79060000Y-114000000D01*
%TO.N,T8*%
X94475000Y-106300000D02*
X95725000Y-105050000D01*
X78980000Y-106300000D02*
X94475000Y-106300000D01*
%TO.N,T2*%
X95700000Y-80120000D02*
X96980000Y-81400000D01*
%TO.N,T3*%
X95700000Y-82660000D02*
X96940000Y-83900000D01*
%TO.N,T4*%
X95700000Y-85200000D02*
X96900000Y-86400000D01*
%TO.N,T1*%
X95700000Y-77580000D02*
X96920000Y-78800000D01*
%TO.N,T7*%
X95700000Y-92820000D02*
X96980000Y-94100000D01*
%TO.N,T5*%
X95700000Y-87740000D02*
X96960000Y-89000000D01*
%TO.N,T0*%
X95700000Y-75040000D02*
X96960000Y-76300000D01*
%TO.N,T6*%
X95700000Y-90280000D02*
X96920000Y-91500000D01*
%TD*%
%TA.AperFunction,Conductor*%
%TO.N,GND*%
G36*
X141206917Y-47501946D02*
G01*
X141211942Y-47500900D01*
X141240102Y-47511690D01*
X141269031Y-47520185D01*
X141272391Y-47524063D01*
X141277185Y-47525900D01*
X141295043Y-47550204D01*
X141314786Y-47572989D01*
X141315516Y-47578068D01*
X141318556Y-47582205D01*
X141320438Y-47612301D01*
X141324730Y-47642147D01*
X141322597Y-47646816D01*
X141322918Y-47651938D01*
X141308233Y-47678268D01*
X141295705Y-47705703D01*
X141290709Y-47709691D01*
X141288887Y-47712960D01*
X141260445Y-47733858D01*
X141095279Y-47822140D01*
X141095261Y-47822151D01*
X140792964Y-48024140D01*
X140792950Y-48024150D01*
X140511893Y-48254807D01*
X140254807Y-48511893D01*
X140024150Y-48792950D01*
X140024140Y-48792964D01*
X139822151Y-49095261D01*
X139822140Y-49095279D01*
X139650756Y-49415916D01*
X139650754Y-49415921D01*
X139511614Y-49751834D01*
X139406067Y-50099776D01*
X139406064Y-50099787D01*
X139335137Y-50456369D01*
X139307628Y-50735679D01*
X139299500Y-50818206D01*
X139299500Y-51181794D01*
X139308125Y-51269360D01*
X139335137Y-51543630D01*
X139406064Y-51900212D01*
X139406067Y-51900223D01*
X139511614Y-52248165D01*
X139577458Y-52407127D01*
X139641557Y-52561876D01*
X139650754Y-52584078D01*
X139650756Y-52584083D01*
X139822140Y-52904720D01*
X139822151Y-52904738D01*
X140024140Y-53207035D01*
X140024150Y-53207049D01*
X140254807Y-53488106D01*
X140511893Y-53745192D01*
X140511898Y-53745196D01*
X140511899Y-53745197D01*
X140792956Y-53975854D01*
X141095268Y-54177853D01*
X141095277Y-54177858D01*
X141095279Y-54177859D01*
X141415916Y-54349243D01*
X141415918Y-54349243D01*
X141415924Y-54349247D01*
X141751836Y-54488386D01*
X142099767Y-54593930D01*
X142099773Y-54593931D01*
X142099776Y-54593932D01*
X142099787Y-54593935D01*
X142456369Y-54664862D01*
X142818206Y-54700500D01*
X142818209Y-54700500D01*
X143181791Y-54700500D01*
X143181794Y-54700500D01*
X143543631Y-54664862D01*
X143613045Y-54651054D01*
X143900212Y-54593935D01*
X143900223Y-54593932D01*
X143900223Y-54593931D01*
X143900233Y-54593930D01*
X144248164Y-54488386D01*
X144584076Y-54349247D01*
X144904732Y-54177853D01*
X145207044Y-53975854D01*
X145488101Y-53745197D01*
X145745197Y-53488101D01*
X145975854Y-53207044D01*
X146177853Y-52904732D01*
X146266142Y-52739555D01*
X146315104Y-52689711D01*
X146383242Y-52674250D01*
X146448921Y-52698082D01*
X146491290Y-52753639D01*
X146499500Y-52798008D01*
X146499500Y-141201991D01*
X146479815Y-141269030D01*
X146427011Y-141314785D01*
X146357853Y-141324729D01*
X146294297Y-141295704D01*
X146266142Y-141260444D01*
X146177859Y-141095279D01*
X146177858Y-141095277D01*
X146177853Y-141095268D01*
X145975854Y-140792956D01*
X145745197Y-140511899D01*
X145745196Y-140511898D01*
X145745192Y-140511893D01*
X145488106Y-140254807D01*
X145207049Y-140024150D01*
X145207048Y-140024149D01*
X145207044Y-140024146D01*
X144904732Y-139822147D01*
X144904727Y-139822144D01*
X144904720Y-139822140D01*
X144584083Y-139650756D01*
X144584078Y-139650754D01*
X144248165Y-139511614D01*
X143900223Y-139406067D01*
X143900212Y-139406064D01*
X143543630Y-139335137D01*
X143271111Y-139308296D01*
X143181794Y-139299500D01*
X142818206Y-139299500D01*
X142735679Y-139307628D01*
X142456369Y-139335137D01*
X142099787Y-139406064D01*
X142099776Y-139406067D01*
X141751834Y-139511614D01*
X141415921Y-139650754D01*
X141415916Y-139650756D01*
X141095279Y-139822140D01*
X141095261Y-139822151D01*
X140792964Y-140024140D01*
X140792950Y-140024150D01*
X140511893Y-140254807D01*
X140254807Y-140511893D01*
X140024150Y-140792950D01*
X140024140Y-140792964D01*
X139822151Y-141095261D01*
X139822140Y-141095279D01*
X139650756Y-141415916D01*
X139650754Y-141415921D01*
X139511614Y-141751834D01*
X139406067Y-142099776D01*
X139406064Y-142099787D01*
X139335137Y-142456369D01*
X139321396Y-142595890D01*
X139301824Y-142794617D01*
X139299500Y-142818209D01*
X139299500Y-143181790D01*
X139335137Y-143543630D01*
X139406064Y-143900212D01*
X139406067Y-143900223D01*
X139511614Y-144248165D01*
X139650754Y-144584078D01*
X139650756Y-144584083D01*
X139822140Y-144904720D01*
X139822151Y-144904738D01*
X140024140Y-145207035D01*
X140024150Y-145207049D01*
X140254807Y-145488106D01*
X140511893Y-145745192D01*
X140511898Y-145745196D01*
X140511899Y-145745197D01*
X140792956Y-145975854D01*
X141095268Y-146177853D01*
X141095277Y-146177858D01*
X141095279Y-146177859D01*
X141260445Y-146266142D01*
X141310289Y-146315104D01*
X141325750Y-146383242D01*
X141301918Y-146448921D01*
X141246361Y-146491290D01*
X141201992Y-146499500D01*
X60798008Y-146499500D01*
X60730969Y-146479815D01*
X60685214Y-146427011D01*
X60675270Y-146357853D01*
X60704295Y-146294297D01*
X60739555Y-146266142D01*
X60785286Y-146241698D01*
X60904732Y-146177853D01*
X61207044Y-145975854D01*
X61488101Y-145745197D01*
X61745197Y-145488101D01*
X61975854Y-145207044D01*
X62177853Y-144904732D01*
X62349247Y-144584076D01*
X62488386Y-144248164D01*
X62593930Y-143900233D01*
X62593932Y-143900223D01*
X62593935Y-143900212D01*
X62664862Y-143543630D01*
X62671015Y-143481157D01*
X62700500Y-143181794D01*
X62700500Y-142818206D01*
X62664862Y-142456369D01*
X62606357Y-142162240D01*
X62593935Y-142099787D01*
X62593932Y-142099776D01*
X62593931Y-142099773D01*
X62593930Y-142099767D01*
X62488386Y-141751836D01*
X62469093Y-141705258D01*
X105749500Y-141705258D01*
X105749500Y-141934741D01*
X105771230Y-142099787D01*
X105779452Y-142162238D01*
X105779453Y-142162240D01*
X105838842Y-142383887D01*
X105926650Y-142595876D01*
X105926657Y-142595890D01*
X106041392Y-142794617D01*
X106181081Y-142976661D01*
X106181089Y-142976670D01*
X106343330Y-143138911D01*
X106343338Y-143138918D01*
X106525382Y-143278607D01*
X106525385Y-143278608D01*
X106525388Y-143278611D01*
X106724112Y-143393344D01*
X106724117Y-143393346D01*
X106724123Y-143393349D01*
X106815480Y-143431190D01*
X106936113Y-143481158D01*
X107157762Y-143540548D01*
X107385266Y-143570500D01*
X107385273Y-143570500D01*
X107614727Y-143570500D01*
X107614734Y-143570500D01*
X107842238Y-143540548D01*
X108063887Y-143481158D01*
X108275888Y-143393344D01*
X108474612Y-143278611D01*
X108656661Y-143138919D01*
X108656665Y-143138914D01*
X108656670Y-143138911D01*
X108818911Y-142976670D01*
X108818914Y-142976665D01*
X108818919Y-142976661D01*
X108958611Y-142794612D01*
X109073344Y-142595888D01*
X109161158Y-142383887D01*
X109220548Y-142162238D01*
X109250500Y-141934734D01*
X109250500Y-141705266D01*
X109220548Y-141477762D01*
X109161158Y-141256113D01*
X109073344Y-141044112D01*
X108958611Y-140845388D01*
X108958608Y-140845385D01*
X108958607Y-140845382D01*
X108818918Y-140663338D01*
X108818911Y-140663330D01*
X108656670Y-140501089D01*
X108656661Y-140501081D01*
X108474617Y-140361392D01*
X108275890Y-140246657D01*
X108275876Y-140246650D01*
X108063887Y-140158842D01*
X107842238Y-140099452D01*
X107804215Y-140094446D01*
X107614741Y-140069500D01*
X107614734Y-140069500D01*
X107385266Y-140069500D01*
X107385258Y-140069500D01*
X107168715Y-140098009D01*
X107157762Y-140099452D01*
X107064076Y-140124554D01*
X106936112Y-140158842D01*
X106724123Y-140246650D01*
X106724109Y-140246657D01*
X106525382Y-140361392D01*
X106343338Y-140501081D01*
X106181081Y-140663338D01*
X106041392Y-140845382D01*
X105926657Y-141044109D01*
X105926650Y-141044123D01*
X105838842Y-141256112D01*
X105779453Y-141477759D01*
X105779451Y-141477770D01*
X105749500Y-141705258D01*
X62469093Y-141705258D01*
X62349247Y-141415924D01*
X62300502Y-141324729D01*
X62177859Y-141095279D01*
X62177858Y-141095277D01*
X62177853Y-141095268D01*
X61975854Y-140792956D01*
X61745197Y-140511899D01*
X61745196Y-140511898D01*
X61745192Y-140511893D01*
X61488106Y-140254807D01*
X61207049Y-140024150D01*
X61207048Y-140024149D01*
X61207044Y-140024146D01*
X60904732Y-139822147D01*
X60904727Y-139822144D01*
X60904720Y-139822140D01*
X60584083Y-139650756D01*
X60584078Y-139650754D01*
X60248165Y-139511614D01*
X59900223Y-139406067D01*
X59900212Y-139406064D01*
X59543630Y-139335137D01*
X59271111Y-139308296D01*
X59181794Y-139299500D01*
X58818206Y-139299500D01*
X58735679Y-139307628D01*
X58456369Y-139335137D01*
X58099787Y-139406064D01*
X58099776Y-139406067D01*
X57751834Y-139511614D01*
X57415921Y-139650754D01*
X57415916Y-139650756D01*
X57095279Y-139822140D01*
X57095261Y-139822151D01*
X56792964Y-140024140D01*
X56792950Y-140024150D01*
X56511893Y-140254807D01*
X56254807Y-140511893D01*
X56024150Y-140792950D01*
X56024140Y-140792964D01*
X55822151Y-141095261D01*
X55822140Y-141095279D01*
X55733858Y-141260444D01*
X55684896Y-141310289D01*
X55616758Y-141325749D01*
X55551078Y-141301917D01*
X55508710Y-141246360D01*
X55500500Y-141201991D01*
X55500500Y-56747135D01*
X56219500Y-56747135D01*
X56219500Y-58542870D01*
X56219501Y-58542876D01*
X56225908Y-58602483D01*
X56276202Y-58737328D01*
X56276206Y-58737335D01*
X56362452Y-58852544D01*
X56362455Y-58852547D01*
X56477664Y-58938793D01*
X56477671Y-58938797D01*
X56609082Y-58987810D01*
X56665016Y-59029681D01*
X56689433Y-59095145D01*
X56674582Y-59163418D01*
X56653431Y-59191673D01*
X56539889Y-59305215D01*
X56414951Y-59477179D01*
X56318444Y-59666585D01*
X56252753Y-59868760D01*
X56219500Y-60078713D01*
X56219500Y-60291286D01*
X56248501Y-60474394D01*
X56252754Y-60501243D01*
X56301848Y-60652339D01*
X56318444Y-60703414D01*
X56414951Y-60892820D01*
X56539890Y-61064786D01*
X56690213Y-61215109D01*
X56862182Y-61340050D01*
X56870946Y-61344516D01*
X56921742Y-61392491D01*
X56938536Y-61460312D01*
X56915998Y-61526447D01*
X56870946Y-61565484D01*
X56862182Y-61569949D01*
X56690213Y-61694890D01*
X56539890Y-61845213D01*
X56414951Y-62017179D01*
X56318444Y-62206585D01*
X56252753Y-62408760D01*
X56219500Y-62618713D01*
X56219500Y-62831286D01*
X56252753Y-63041239D01*
X56318444Y-63243414D01*
X56414951Y-63432820D01*
X56539890Y-63604786D01*
X56690213Y-63755109D01*
X56862182Y-63880050D01*
X56870946Y-63884516D01*
X56921742Y-63932491D01*
X56938536Y-64000312D01*
X56915998Y-64066447D01*
X56870946Y-64105484D01*
X56862182Y-64109949D01*
X56690213Y-64234890D01*
X56539890Y-64385213D01*
X56414951Y-64557179D01*
X56318444Y-64746585D01*
X56252753Y-64948760D01*
X56219500Y-65158713D01*
X56219500Y-65371286D01*
X56252753Y-65581239D01*
X56318444Y-65783414D01*
X56414951Y-65972820D01*
X56539890Y-66144786D01*
X56690213Y-66295109D01*
X56862182Y-66420050D01*
X56870946Y-66424516D01*
X56921742Y-66472491D01*
X56938536Y-66540312D01*
X56915998Y-66606447D01*
X56870946Y-66645484D01*
X56862182Y-66649949D01*
X56690213Y-66774890D01*
X56539890Y-66925213D01*
X56414951Y-67097179D01*
X56318444Y-67286585D01*
X56252753Y-67488760D01*
X56219500Y-67698713D01*
X56219500Y-67911286D01*
X56252753Y-68121239D01*
X56318444Y-68323414D01*
X56414951Y-68512820D01*
X56539890Y-68684786D01*
X56690213Y-68835109D01*
X56862182Y-68960050D01*
X56870946Y-68964516D01*
X56921742Y-69012491D01*
X56938536Y-69080312D01*
X56915998Y-69146447D01*
X56870946Y-69185484D01*
X56862182Y-69189949D01*
X56690213Y-69314890D01*
X56539890Y-69465213D01*
X56414951Y-69637179D01*
X56318444Y-69826585D01*
X56252753Y-70028760D01*
X56219500Y-70238713D01*
X56219500Y-70451286D01*
X56252753Y-70661239D01*
X56318444Y-70863414D01*
X56414951Y-71052820D01*
X56539890Y-71224786D01*
X56690213Y-71375109D01*
X56862182Y-71500050D01*
X56870946Y-71504516D01*
X56921742Y-71552491D01*
X56938536Y-71620312D01*
X56915998Y-71686447D01*
X56870946Y-71725484D01*
X56862182Y-71729949D01*
X56690213Y-71854890D01*
X56539890Y-72005213D01*
X56414951Y-72177179D01*
X56318444Y-72366585D01*
X56252753Y-72568760D01*
X56231079Y-72705606D01*
X56219500Y-72778713D01*
X56219500Y-72991287D01*
X56223894Y-73019031D01*
X56252477Y-73199499D01*
X56252754Y-73201243D01*
X56306681Y-73367213D01*
X56318444Y-73403414D01*
X56414951Y-73592820D01*
X56539890Y-73764786D01*
X56690213Y-73915109D01*
X56862182Y-74040050D01*
X56870946Y-74044516D01*
X56921742Y-74092491D01*
X56938536Y-74160312D01*
X56915998Y-74226447D01*
X56870946Y-74265484D01*
X56862182Y-74269949D01*
X56690213Y-74394890D01*
X56539890Y-74545213D01*
X56414951Y-74717179D01*
X56318444Y-74906585D01*
X56252753Y-75108760D01*
X56219500Y-75318713D01*
X56219500Y-75531286D01*
X56246142Y-75699500D01*
X56252754Y-75741243D01*
X56314502Y-75931284D01*
X56318444Y-75943414D01*
X56414951Y-76132820D01*
X56539890Y-76304786D01*
X56690213Y-76455109D01*
X56862182Y-76580050D01*
X56870946Y-76584516D01*
X56921742Y-76632491D01*
X56938536Y-76700312D01*
X56915998Y-76766447D01*
X56870946Y-76805484D01*
X56862182Y-76809949D01*
X56690213Y-76934890D01*
X56539890Y-77085213D01*
X56414951Y-77257179D01*
X56318444Y-77446585D01*
X56318443Y-77446587D01*
X56318443Y-77446588D01*
X56285598Y-77547672D01*
X56252753Y-77648760D01*
X56223880Y-77831058D01*
X56219500Y-77858713D01*
X56219500Y-78071287D01*
X56228326Y-78127011D01*
X56252527Y-78279815D01*
X56252754Y-78281243D01*
X56280321Y-78366086D01*
X56318444Y-78483414D01*
X56414951Y-78672820D01*
X56539890Y-78844786D01*
X56690213Y-78995109D01*
X56862182Y-79120050D01*
X56870946Y-79124516D01*
X56921742Y-79172491D01*
X56938536Y-79240312D01*
X56915998Y-79306447D01*
X56870946Y-79345484D01*
X56862182Y-79349949D01*
X56690213Y-79474890D01*
X56539890Y-79625213D01*
X56414951Y-79797179D01*
X56318444Y-79986585D01*
X56318443Y-79986587D01*
X56318443Y-79986588D01*
X56295154Y-80058265D01*
X56252753Y-80188760D01*
X56252753Y-80188762D01*
X56219500Y-80398713D01*
X56219500Y-80611287D01*
X56226874Y-80657844D01*
X56249150Y-80798493D01*
X56252754Y-80821243D01*
X56280321Y-80906086D01*
X56318444Y-81023414D01*
X56414951Y-81212820D01*
X56539890Y-81384786D01*
X56690213Y-81535109D01*
X56862182Y-81660050D01*
X56870946Y-81664516D01*
X56921742Y-81712491D01*
X56938536Y-81780312D01*
X56915998Y-81846447D01*
X56870946Y-81885484D01*
X56862182Y-81889949D01*
X56690213Y-82014890D01*
X56539890Y-82165213D01*
X56414951Y-82337179D01*
X56318444Y-82526585D01*
X56318443Y-82526587D01*
X56318443Y-82526588D01*
X56285598Y-82627672D01*
X56252753Y-82728760D01*
X56247433Y-82762351D01*
X56219500Y-82938713D01*
X56219500Y-83151287D01*
X56223924Y-83179219D01*
X56242974Y-83299499D01*
X56252754Y-83361243D01*
X56296128Y-83494735D01*
X56318444Y-83563414D01*
X56414951Y-83752820D01*
X56539890Y-83924786D01*
X56690213Y-84075109D01*
X56862182Y-84200050D01*
X56870946Y-84204516D01*
X56921742Y-84252491D01*
X56938536Y-84320312D01*
X56915998Y-84386447D01*
X56870946Y-84425484D01*
X56862182Y-84429949D01*
X56690213Y-84554890D01*
X56539890Y-84705213D01*
X56414951Y-84877179D01*
X56318444Y-85066585D01*
X56318443Y-85066587D01*
X56318443Y-85066588D01*
X56285598Y-85167672D01*
X56252753Y-85268760D01*
X56232427Y-85397097D01*
X56219500Y-85478713D01*
X56219500Y-85691287D01*
X56223922Y-85719206D01*
X56252477Y-85899499D01*
X56252754Y-85901243D01*
X56258852Y-85920012D01*
X56318444Y-86103414D01*
X56414951Y-86292820D01*
X56539890Y-86464786D01*
X56690213Y-86615109D01*
X56862182Y-86740050D01*
X56870946Y-86744516D01*
X56921742Y-86792491D01*
X56938536Y-86860312D01*
X56915998Y-86926447D01*
X56870946Y-86965484D01*
X56862182Y-86969949D01*
X56690213Y-87094890D01*
X56539890Y-87245213D01*
X56414951Y-87417179D01*
X56318444Y-87606585D01*
X56318443Y-87606587D01*
X56318443Y-87606588D01*
X56285598Y-87707672D01*
X56252753Y-87808760D01*
X56221746Y-88004534D01*
X56219500Y-88018713D01*
X56219500Y-88231287D01*
X56223707Y-88257846D01*
X56250608Y-88427697D01*
X56252754Y-88441243D01*
X56314502Y-88631284D01*
X56318444Y-88643414D01*
X56414951Y-88832820D01*
X56539890Y-89004786D01*
X56690213Y-89155109D01*
X56862182Y-89280050D01*
X56870946Y-89284516D01*
X56921742Y-89332491D01*
X56938536Y-89400312D01*
X56915998Y-89466447D01*
X56870946Y-89505484D01*
X56862182Y-89509949D01*
X56690213Y-89634890D01*
X56539890Y-89785213D01*
X56414951Y-89957179D01*
X56318444Y-90146585D01*
X56252753Y-90348760D01*
X56247433Y-90382351D01*
X56219500Y-90558713D01*
X56219500Y-90771287D01*
X56228326Y-90827011D01*
X56252527Y-90979815D01*
X56252754Y-90981243D01*
X56265178Y-91019481D01*
X56318444Y-91183414D01*
X56414951Y-91372820D01*
X56539890Y-91544786D01*
X56690213Y-91695109D01*
X56862182Y-91820050D01*
X56870946Y-91824516D01*
X56921742Y-91872491D01*
X56938536Y-91940312D01*
X56915998Y-92006447D01*
X56870946Y-92045484D01*
X56862182Y-92049949D01*
X56690213Y-92174890D01*
X56539890Y-92325213D01*
X56414951Y-92497179D01*
X56318444Y-92686585D01*
X56252753Y-92888760D01*
X56247433Y-92922351D01*
X56219500Y-93098713D01*
X56219500Y-93311287D01*
X56226874Y-93357844D01*
X56252474Y-93519480D01*
X56252754Y-93521243D01*
X56291536Y-93640602D01*
X56318444Y-93723414D01*
X56414951Y-93912820D01*
X56539890Y-94084786D01*
X56690213Y-94235109D01*
X56862182Y-94360050D01*
X56870946Y-94364516D01*
X56921742Y-94412491D01*
X56938536Y-94480312D01*
X56915998Y-94546447D01*
X56870946Y-94585484D01*
X56862182Y-94589949D01*
X56690213Y-94714890D01*
X56539890Y-94865213D01*
X56414951Y-95037179D01*
X56318444Y-95226585D01*
X56252753Y-95428760D01*
X56219500Y-95638713D01*
X56219500Y-95851286D01*
X56246664Y-96022797D01*
X56252754Y-96061243D01*
X56307370Y-96229334D01*
X56318444Y-96263414D01*
X56414951Y-96452820D01*
X56539890Y-96624786D01*
X56690213Y-96775109D01*
X56862182Y-96900050D01*
X56870946Y-96904516D01*
X56921742Y-96952491D01*
X56938536Y-97020312D01*
X56915998Y-97086447D01*
X56870946Y-97125484D01*
X56862182Y-97129949D01*
X56690213Y-97254890D01*
X56539890Y-97405213D01*
X56414951Y-97577179D01*
X56318444Y-97766585D01*
X56318443Y-97766587D01*
X56318443Y-97766588D01*
X56300000Y-97823349D01*
X56252753Y-97968760D01*
X56224452Y-98147450D01*
X56219500Y-98178713D01*
X56219500Y-98391287D01*
X56252754Y-98601243D01*
X56280321Y-98686086D01*
X56318444Y-98803414D01*
X56414951Y-98992820D01*
X56539890Y-99164786D01*
X56690213Y-99315109D01*
X56862182Y-99440050D01*
X56870946Y-99444516D01*
X56921742Y-99492491D01*
X56938536Y-99560312D01*
X56915998Y-99626447D01*
X56870946Y-99665484D01*
X56862182Y-99669949D01*
X56690213Y-99794890D01*
X56539890Y-99945213D01*
X56414951Y-100117179D01*
X56318444Y-100306585D01*
X56252753Y-100508760D01*
X56219500Y-100718713D01*
X56219500Y-100931287D01*
X56252754Y-101141243D01*
X56306041Y-101305244D01*
X56318444Y-101343414D01*
X56414951Y-101532820D01*
X56539890Y-101704786D01*
X56690213Y-101855109D01*
X56862182Y-101980050D01*
X56870946Y-101984516D01*
X56921742Y-102032491D01*
X56938536Y-102100312D01*
X56915998Y-102166447D01*
X56870946Y-102205484D01*
X56862182Y-102209949D01*
X56690213Y-102334890D01*
X56539890Y-102485213D01*
X56414951Y-102657179D01*
X56318444Y-102846585D01*
X56252753Y-103048760D01*
X56219500Y-103258713D01*
X56219500Y-103471286D01*
X56249312Y-103659515D01*
X56252754Y-103681243D01*
X56317400Y-103880203D01*
X56318444Y-103883414D01*
X56414951Y-104072820D01*
X56539890Y-104244786D01*
X56690213Y-104395109D01*
X56862182Y-104520050D01*
X56870946Y-104524516D01*
X56921742Y-104572491D01*
X56938536Y-104640312D01*
X56915998Y-104706447D01*
X56870946Y-104745484D01*
X56862182Y-104749949D01*
X56690213Y-104874890D01*
X56539890Y-105025213D01*
X56414951Y-105197179D01*
X56318444Y-105386585D01*
X56252753Y-105588760D01*
X56219500Y-105798713D01*
X56219500Y-106011286D01*
X56249312Y-106199515D01*
X56252754Y-106221243D01*
X56310542Y-106399096D01*
X56318444Y-106423414D01*
X56414951Y-106612820D01*
X56539890Y-106784786D01*
X56690213Y-106935109D01*
X56862182Y-107060050D01*
X56870946Y-107064516D01*
X56921742Y-107112491D01*
X56938536Y-107180312D01*
X56915998Y-107246447D01*
X56870946Y-107285484D01*
X56862182Y-107289949D01*
X56690213Y-107414890D01*
X56539890Y-107565213D01*
X56414951Y-107737179D01*
X56318444Y-107926585D01*
X56252753Y-108128760D01*
X56219500Y-108338713D01*
X56219500Y-108551286D01*
X56249906Y-108743265D01*
X56252754Y-108761243D01*
X56305153Y-108922511D01*
X56318444Y-108963414D01*
X56414951Y-109152820D01*
X56539890Y-109324786D01*
X56690213Y-109475109D01*
X56862182Y-109600050D01*
X56870946Y-109604516D01*
X56921742Y-109652491D01*
X56938536Y-109720312D01*
X56915998Y-109786447D01*
X56870946Y-109825484D01*
X56862182Y-109829949D01*
X56690213Y-109954890D01*
X56539890Y-110105213D01*
X56414951Y-110277179D01*
X56318444Y-110466585D01*
X56252753Y-110668760D01*
X56219500Y-110878713D01*
X56219500Y-111091286D01*
X56249312Y-111279515D01*
X56252754Y-111301243D01*
X56305153Y-111462511D01*
X56318444Y-111503414D01*
X56414951Y-111692820D01*
X56539890Y-111864786D01*
X56690213Y-112015109D01*
X56862182Y-112140050D01*
X56870946Y-112144516D01*
X56921742Y-112192491D01*
X56938536Y-112260312D01*
X56915998Y-112326447D01*
X56870946Y-112365484D01*
X56862182Y-112369949D01*
X56690213Y-112494890D01*
X56539890Y-112645213D01*
X56414951Y-112817179D01*
X56318444Y-113006585D01*
X56252753Y-113208760D01*
X56230128Y-113351610D01*
X56219500Y-113418713D01*
X56219500Y-113631287D01*
X56222775Y-113651966D01*
X56249312Y-113819515D01*
X56252754Y-113841243D01*
X56305153Y-114002511D01*
X56318444Y-114043414D01*
X56414951Y-114232820D01*
X56539890Y-114404786D01*
X56690213Y-114555109D01*
X56862182Y-114680050D01*
X56870946Y-114684516D01*
X56921742Y-114732491D01*
X56938536Y-114800312D01*
X56915998Y-114866447D01*
X56870946Y-114905484D01*
X56862182Y-114909949D01*
X56690213Y-115034890D01*
X56539890Y-115185213D01*
X56414951Y-115357179D01*
X56318444Y-115546585D01*
X56252753Y-115748760D01*
X56219500Y-115958713D01*
X56219500Y-116171286D01*
X56249312Y-116359515D01*
X56252754Y-116381243D01*
X56311025Y-116560583D01*
X56318444Y-116583414D01*
X56414951Y-116772820D01*
X56539890Y-116944786D01*
X56690213Y-117095109D01*
X56862182Y-117220050D01*
X56870946Y-117224516D01*
X56921742Y-117272491D01*
X56938536Y-117340312D01*
X56915998Y-117406447D01*
X56870946Y-117445484D01*
X56862182Y-117449949D01*
X56690213Y-117574890D01*
X56539890Y-117725213D01*
X56414951Y-117897179D01*
X56318444Y-118086585D01*
X56252753Y-118288760D01*
X56219500Y-118498713D01*
X56219500Y-118711286D01*
X56249312Y-118899515D01*
X56252754Y-118921243D01*
X56314712Y-119111930D01*
X56318444Y-119123414D01*
X56414951Y-119312820D01*
X56539890Y-119484786D01*
X56690213Y-119635109D01*
X56862182Y-119760050D01*
X56870946Y-119764516D01*
X56921742Y-119812491D01*
X56938536Y-119880312D01*
X56915998Y-119946447D01*
X56870946Y-119985484D01*
X56862182Y-119989949D01*
X56690213Y-120114890D01*
X56539890Y-120265213D01*
X56414951Y-120437179D01*
X56318444Y-120626585D01*
X56252753Y-120828760D01*
X56226160Y-120996666D01*
X56219500Y-121038713D01*
X56219500Y-121251287D01*
X56222775Y-121271966D01*
X56249312Y-121439515D01*
X56252754Y-121461243D01*
X56305153Y-121622511D01*
X56318444Y-121663414D01*
X56414951Y-121852820D01*
X56539890Y-122024786D01*
X56690213Y-122175109D01*
X56862182Y-122300050D01*
X56870946Y-122304516D01*
X56921742Y-122352491D01*
X56938536Y-122420312D01*
X56915998Y-122486447D01*
X56870946Y-122525484D01*
X56862182Y-122529949D01*
X56690213Y-122654890D01*
X56539890Y-122805213D01*
X56414951Y-122977179D01*
X56318444Y-123166585D01*
X56252753Y-123368760D01*
X56219500Y-123578713D01*
X56219500Y-123791286D01*
X56249312Y-123979515D01*
X56252754Y-124001243D01*
X56304807Y-124161446D01*
X56318444Y-124203414D01*
X56414951Y-124392820D01*
X56539890Y-124564786D01*
X56690213Y-124715109D01*
X56862182Y-124840050D01*
X56870946Y-124844516D01*
X56921742Y-124892491D01*
X56938536Y-124960312D01*
X56915998Y-125026447D01*
X56870946Y-125065484D01*
X56862182Y-125069949D01*
X56690213Y-125194890D01*
X56539890Y-125345213D01*
X56414951Y-125517179D01*
X56318444Y-125706585D01*
X56252753Y-125908760D01*
X56226772Y-126072797D01*
X56219500Y-126118713D01*
X56219500Y-126331287D01*
X56224359Y-126361966D01*
X56249398Y-126520058D01*
X56252754Y-126541243D01*
X56297534Y-126679062D01*
X56318444Y-126743414D01*
X56414951Y-126932820D01*
X56539890Y-127104786D01*
X56690213Y-127255109D01*
X56862182Y-127380050D01*
X56870946Y-127384516D01*
X56921742Y-127432491D01*
X56938536Y-127500312D01*
X56915998Y-127566447D01*
X56870946Y-127605484D01*
X56862182Y-127609949D01*
X56690213Y-127734890D01*
X56539890Y-127885213D01*
X56414951Y-128057179D01*
X56318444Y-128246585D01*
X56252753Y-128448760D01*
X56247338Y-128482951D01*
X56219500Y-128658713D01*
X56219500Y-128871287D01*
X56252754Y-129081243D01*
X56280321Y-129166086D01*
X56318444Y-129283414D01*
X56414951Y-129472820D01*
X56539890Y-129644786D01*
X56690213Y-129795109D01*
X56862182Y-129920050D01*
X56870946Y-129924516D01*
X56921742Y-129972491D01*
X56938536Y-130040312D01*
X56915998Y-130106447D01*
X56870946Y-130145484D01*
X56862182Y-130149949D01*
X56690213Y-130274890D01*
X56539890Y-130425213D01*
X56414951Y-130597179D01*
X56318444Y-130786585D01*
X56252753Y-130988760D01*
X56252753Y-130988762D01*
X56219500Y-131198713D01*
X56219500Y-131411287D01*
X56252754Y-131621243D01*
X56280321Y-131706086D01*
X56318444Y-131823414D01*
X56414951Y-132012820D01*
X56539890Y-132184786D01*
X56690213Y-132335109D01*
X56862182Y-132460050D01*
X56870946Y-132464516D01*
X56921742Y-132512491D01*
X56938536Y-132580312D01*
X56915998Y-132646447D01*
X56870946Y-132685484D01*
X56862182Y-132689949D01*
X56690213Y-132814890D01*
X56539890Y-132965213D01*
X56414951Y-133137179D01*
X56318444Y-133326585D01*
X56252753Y-133528760D01*
X56227951Y-133685354D01*
X56219500Y-133738713D01*
X56219500Y-133951287D01*
X56252754Y-134161243D01*
X56261075Y-134186853D01*
X56318444Y-134363414D01*
X56414951Y-134552820D01*
X56539890Y-134724786D01*
X56690213Y-134875109D01*
X56862182Y-135000050D01*
X56870946Y-135004516D01*
X56921742Y-135052491D01*
X56938536Y-135120312D01*
X56915998Y-135186447D01*
X56870946Y-135225484D01*
X56862182Y-135229949D01*
X56690213Y-135354890D01*
X56539890Y-135505213D01*
X56414951Y-135677179D01*
X56318444Y-135866585D01*
X56252753Y-136068760D01*
X56224127Y-136249500D01*
X56219500Y-136278713D01*
X56219500Y-136491287D01*
X56225845Y-136531345D01*
X56249494Y-136680664D01*
X56252754Y-136701243D01*
X56299419Y-136844863D01*
X56318444Y-136903414D01*
X56414951Y-137092820D01*
X56539890Y-137264786D01*
X56690213Y-137415109D01*
X56862179Y-137540048D01*
X56862181Y-137540049D01*
X56862184Y-137540051D01*
X57051588Y-137636557D01*
X57253757Y-137702246D01*
X57463713Y-137735500D01*
X57463714Y-137735500D01*
X57676286Y-137735500D01*
X57676287Y-137735500D01*
X57886243Y-137702246D01*
X58088412Y-137636557D01*
X58277816Y-137540051D01*
X58332943Y-137499999D01*
X58449786Y-137415109D01*
X58449788Y-137415106D01*
X58449792Y-137415104D01*
X58600104Y-137264792D01*
X58600106Y-137264788D01*
X58600109Y-137264786D01*
X58725048Y-137092820D01*
X58725047Y-137092820D01*
X58725051Y-137092816D01*
X58729514Y-137084054D01*
X58777488Y-137033259D01*
X58845308Y-137016463D01*
X58911444Y-137038999D01*
X58950486Y-137084056D01*
X58954951Y-137092820D01*
X59079890Y-137264786D01*
X59230213Y-137415109D01*
X59402179Y-137540048D01*
X59402181Y-137540049D01*
X59402184Y-137540051D01*
X59591588Y-137636557D01*
X59793757Y-137702246D01*
X60003713Y-137735500D01*
X60003714Y-137735500D01*
X60216286Y-137735500D01*
X60216287Y-137735500D01*
X60426243Y-137702246D01*
X60628412Y-137636557D01*
X60817816Y-137540051D01*
X60872943Y-137499999D01*
X60989786Y-137415109D01*
X60989788Y-137415106D01*
X60989792Y-137415104D01*
X61003279Y-137401617D01*
X104750000Y-137401617D01*
X104750000Y-137598382D01*
X104780778Y-137792705D01*
X104841581Y-137979835D01*
X104930905Y-138155145D01*
X104956319Y-138190125D01*
X104956320Y-138190125D01*
X105508871Y-137637574D01*
X105524755Y-137696853D01*
X105591898Y-137813147D01*
X105686853Y-137908102D01*
X105803147Y-137975245D01*
X105862424Y-137991128D01*
X105309873Y-138543677D01*
X105309873Y-138543678D01*
X105344858Y-138569096D01*
X105520164Y-138658418D01*
X105707294Y-138719221D01*
X105901618Y-138750000D01*
X106098382Y-138750000D01*
X106292705Y-138719221D01*
X106479835Y-138658418D01*
X106655143Y-138569095D01*
X106690125Y-138543678D01*
X106690126Y-138543678D01*
X106137575Y-137991127D01*
X106196853Y-137975245D01*
X106313147Y-137908102D01*
X106408102Y-137813147D01*
X106475245Y-137696853D01*
X106491128Y-137637575D01*
X107043678Y-138190126D01*
X107043678Y-138190125D01*
X107069095Y-138155143D01*
X107158418Y-137979835D01*
X107219221Y-137792705D01*
X107250000Y-137598382D01*
X107250000Y-137401617D01*
X107219221Y-137207294D01*
X107158418Y-137020162D01*
X107149740Y-137003131D01*
X107149739Y-137003130D01*
X107122660Y-136949984D01*
X107749500Y-136949984D01*
X107749500Y-138050015D01*
X107760000Y-138152795D01*
X107760001Y-138152797D01*
X107760779Y-138155145D01*
X107815186Y-138319335D01*
X107815187Y-138319337D01*
X107907286Y-138468651D01*
X107907289Y-138468655D01*
X108031344Y-138592710D01*
X108031348Y-138592713D01*
X108180662Y-138684812D01*
X108180664Y-138684813D01*
X108180666Y-138684814D01*
X108347203Y-138739999D01*
X108449992Y-138750500D01*
X108449997Y-138750500D01*
X109550003Y-138750500D01*
X109550008Y-138750500D01*
X109652797Y-138739999D01*
X109819334Y-138684814D01*
X109968655Y-138592711D01*
X110092711Y-138468655D01*
X110184814Y-138319334D01*
X110239999Y-138152797D01*
X110250500Y-138050008D01*
X110250500Y-136949992D01*
X110239999Y-136847203D01*
X110184814Y-136680666D01*
X110092711Y-136531345D01*
X109968655Y-136407289D01*
X109968651Y-136407286D01*
X109819337Y-136315187D01*
X109819335Y-136315186D01*
X109736065Y-136287593D01*
X109652797Y-136260001D01*
X109652795Y-136260000D01*
X109550015Y-136249500D01*
X109550008Y-136249500D01*
X108449992Y-136249500D01*
X108449984Y-136249500D01*
X108347204Y-136260000D01*
X108347203Y-136260001D01*
X108180664Y-136315186D01*
X108180662Y-136315187D01*
X108031348Y-136407286D01*
X108031344Y-136407289D01*
X107907289Y-136531344D01*
X107907286Y-136531348D01*
X107815187Y-136680662D01*
X107815186Y-136680664D01*
X107760001Y-136847203D01*
X107760000Y-136847204D01*
X107749500Y-136949984D01*
X107122660Y-136949984D01*
X107069096Y-136844858D01*
X107043678Y-136809873D01*
X107043677Y-136809873D01*
X106491127Y-137362423D01*
X106475245Y-137303147D01*
X106408102Y-137186853D01*
X106313147Y-137091898D01*
X106196853Y-137024755D01*
X106137574Y-137008871D01*
X106690125Y-136456320D01*
X106690125Y-136456319D01*
X106655145Y-136430905D01*
X106479835Y-136341581D01*
X106292705Y-136280778D01*
X106098382Y-136250000D01*
X105901618Y-136250000D01*
X105707294Y-136280778D01*
X105520161Y-136341582D01*
X105344863Y-136430899D01*
X105344859Y-136430902D01*
X105309873Y-136456320D01*
X105309872Y-136456320D01*
X105862425Y-137008871D01*
X105803147Y-137024755D01*
X105686853Y-137091898D01*
X105591898Y-137186853D01*
X105524755Y-137303147D01*
X105508871Y-137362424D01*
X104956320Y-136809872D01*
X104956320Y-136809873D01*
X104930902Y-136844859D01*
X104930899Y-136844863D01*
X104841582Y-137020161D01*
X104780778Y-137207294D01*
X104750000Y-137401617D01*
X61003279Y-137401617D01*
X61140104Y-137264792D01*
X61140106Y-137264788D01*
X61140109Y-137264786D01*
X61265048Y-137092820D01*
X61265047Y-137092820D01*
X61265051Y-137092816D01*
X61361557Y-136903412D01*
X61427246Y-136701243D01*
X61460500Y-136491287D01*
X61460500Y-136278713D01*
X61427246Y-136068757D01*
X61413506Y-136026473D01*
X61411512Y-135956633D01*
X61443755Y-135900477D01*
X70107415Y-127236819D01*
X70168738Y-127203334D01*
X70195096Y-127200500D01*
X73853331Y-127200500D01*
X73853347Y-127200501D01*
X73860943Y-127200501D01*
X74019054Y-127200501D01*
X74019057Y-127200501D01*
X74171785Y-127159577D01*
X74221904Y-127130639D01*
X74308716Y-127080520D01*
X74420520Y-126968716D01*
X74420520Y-126968714D01*
X74430728Y-126958507D01*
X74430730Y-126958504D01*
X76207821Y-125181412D01*
X76269142Y-125147929D01*
X76338834Y-125152913D01*
X76394767Y-125194785D01*
X76419184Y-125260249D01*
X76419500Y-125269095D01*
X76419500Y-125960001D01*
X76419501Y-125960019D01*
X76430000Y-126062796D01*
X76430001Y-126062799D01*
X76477856Y-126207213D01*
X76485186Y-126229334D01*
X76577288Y-126378656D01*
X76701344Y-126502712D01*
X76850666Y-126594814D01*
X77017203Y-126649999D01*
X77119991Y-126660500D01*
X78119901Y-126660499D01*
X78186940Y-126680183D01*
X78207582Y-126696818D01*
X81391284Y-129880520D01*
X81528215Y-129959577D01*
X81680943Y-130000501D01*
X81680946Y-130000501D01*
X81846654Y-130000501D01*
X81846670Y-130000500D01*
X99520234Y-130000500D01*
X99587273Y-130020185D01*
X99589125Y-130021398D01*
X99720814Y-130109390D01*
X99720827Y-130109397D01*
X99866498Y-130169735D01*
X99866503Y-130169737D01*
X100021153Y-130200499D01*
X100021156Y-130200500D01*
X100021158Y-130200500D01*
X100178844Y-130200500D01*
X100178845Y-130200499D01*
X100333497Y-130169737D01*
X100479179Y-130109394D01*
X100610289Y-130021789D01*
X100721789Y-129910289D01*
X100809394Y-129779179D01*
X100869737Y-129633497D01*
X100900500Y-129478842D01*
X100900500Y-129321158D01*
X100900500Y-129321155D01*
X100900499Y-129321153D01*
X100869738Y-129166510D01*
X100869737Y-129166503D01*
X100869564Y-129166086D01*
X100809397Y-129020827D01*
X100809390Y-129020814D01*
X100721789Y-128889711D01*
X100721786Y-128889707D01*
X100694260Y-128862181D01*
X100660775Y-128800858D01*
X100665759Y-128731166D01*
X100707631Y-128675233D01*
X100773095Y-128650816D01*
X100781941Y-128650500D01*
X102037770Y-128650500D01*
X102104809Y-128670185D01*
X102125451Y-128686819D01*
X104905700Y-131467068D01*
X106559569Y-133120936D01*
X106593054Y-133182259D01*
X106588070Y-133251951D01*
X106546198Y-133307884D01*
X106480734Y-133332301D01*
X106433570Y-133326548D01*
X106292705Y-133280778D01*
X106098382Y-133250000D01*
X105901618Y-133250000D01*
X105707294Y-133280778D01*
X105520161Y-133341582D01*
X105344863Y-133430899D01*
X105344859Y-133430902D01*
X105309873Y-133456320D01*
X105309872Y-133456320D01*
X105862425Y-134008871D01*
X105803147Y-134024755D01*
X105686853Y-134091898D01*
X105591898Y-134186853D01*
X105524755Y-134303147D01*
X105508871Y-134362424D01*
X104956320Y-133809872D01*
X104956320Y-133809873D01*
X104930902Y-133844859D01*
X104930899Y-133844863D01*
X104841582Y-134020161D01*
X104780778Y-134207294D01*
X104750000Y-134401617D01*
X104750000Y-134598382D01*
X104780778Y-134792705D01*
X104841581Y-134979835D01*
X104930905Y-135155145D01*
X104956319Y-135190125D01*
X104956320Y-135190125D01*
X105508871Y-134637574D01*
X105524755Y-134696853D01*
X105591898Y-134813147D01*
X105686853Y-134908102D01*
X105803147Y-134975245D01*
X105862424Y-134991128D01*
X105309873Y-135543677D01*
X105309873Y-135543678D01*
X105344858Y-135569096D01*
X105520164Y-135658418D01*
X105707294Y-135719221D01*
X105901618Y-135750000D01*
X106098382Y-135750000D01*
X106292705Y-135719221D01*
X106479835Y-135658418D01*
X106655143Y-135569095D01*
X106690125Y-135543678D01*
X106690126Y-135543678D01*
X106137575Y-134991127D01*
X106196853Y-134975245D01*
X106313147Y-134908102D01*
X106408102Y-134813147D01*
X106475245Y-134696853D01*
X106491128Y-134637574D01*
X107043678Y-135190126D01*
X107043678Y-135190125D01*
X107069095Y-135155143D01*
X107158418Y-134979835D01*
X107219221Y-134792705D01*
X107250000Y-134598382D01*
X107250000Y-134401617D01*
X107219221Y-134207296D01*
X107173451Y-134066430D01*
X107171456Y-133996589D01*
X107207536Y-133936756D01*
X107270237Y-133905927D01*
X107339651Y-133913891D01*
X107379063Y-133940430D01*
X107717227Y-134278594D01*
X107750712Y-134339917D01*
X107752020Y-134385672D01*
X107749500Y-134401583D01*
X107749500Y-134598422D01*
X107780290Y-134792826D01*
X107841117Y-134980029D01*
X107907184Y-135109692D01*
X107930476Y-135155405D01*
X108046172Y-135314646D01*
X108185354Y-135453828D01*
X108344595Y-135569524D01*
X108427455Y-135611743D01*
X108519970Y-135658882D01*
X108519972Y-135658882D01*
X108519975Y-135658884D01*
X108603263Y-135685946D01*
X108707173Y-135719709D01*
X108901578Y-135750500D01*
X108901583Y-135750500D01*
X109098422Y-135750500D01*
X109292826Y-135719709D01*
X109294328Y-135719221D01*
X109480025Y-135658884D01*
X109655405Y-135569524D01*
X109814646Y-135453828D01*
X109953828Y-135314646D01*
X110069524Y-135155405D01*
X110158884Y-134980025D01*
X110219709Y-134792826D01*
X110219728Y-134792705D01*
X110250500Y-134598422D01*
X110250500Y-134401577D01*
X110219709Y-134207173D01*
X110158882Y-134019970D01*
X110100774Y-133905927D01*
X110069524Y-133844595D01*
X109953828Y-133685354D01*
X109814646Y-133546172D01*
X109655405Y-133430476D01*
X109480029Y-133341117D01*
X109292826Y-133280290D01*
X109098422Y-133249500D01*
X109098417Y-133249500D01*
X108901583Y-133249500D01*
X108885672Y-133252020D01*
X108816378Y-133243064D01*
X108778594Y-133217227D01*
X102878421Y-127317052D01*
X102878414Y-127317046D01*
X102804729Y-127267812D01*
X102804729Y-127267813D01*
X102755491Y-127234913D01*
X102618917Y-127178343D01*
X102618907Y-127178340D01*
X102473920Y-127149500D01*
X102473918Y-127149500D01*
X90997229Y-127149500D01*
X90930190Y-127129815D01*
X90909548Y-127113181D01*
X89431473Y-125635106D01*
X89397988Y-125573783D01*
X89396681Y-125528028D01*
X89405500Y-125472352D01*
X89405500Y-125267648D01*
X89393976Y-125194890D01*
X89373477Y-125065465D01*
X89331592Y-124936557D01*
X89310220Y-124870781D01*
X89310218Y-124870777D01*
X89308714Y-124866148D01*
X89310035Y-124865718D01*
X89303236Y-124802486D01*
X89334509Y-124740006D01*
X89394597Y-124704352D01*
X89425266Y-124700500D01*
X94300500Y-124700500D01*
X94367539Y-124720185D01*
X94413294Y-124772989D01*
X94424500Y-124824500D01*
X94424500Y-125970001D01*
X94424501Y-125970018D01*
X94435000Y-126072796D01*
X94435001Y-126072799D01*
X94474589Y-126192265D01*
X94490186Y-126239334D01*
X94582288Y-126388656D01*
X94706344Y-126512712D01*
X94855666Y-126604814D01*
X95022203Y-126659999D01*
X95124991Y-126670500D01*
X96325008Y-126670499D01*
X96427797Y-126659999D01*
X96594334Y-126604814D01*
X96743656Y-126512712D01*
X96867712Y-126388656D01*
X96959814Y-126239334D01*
X97014999Y-126072797D01*
X97025500Y-125970009D01*
X97025499Y-124769992D01*
X97025397Y-124768998D01*
X97014999Y-124667203D01*
X97014998Y-124667200D01*
X96963830Y-124512786D01*
X96959814Y-124500666D01*
X96867712Y-124351344D01*
X96743656Y-124227288D01*
X96637361Y-124161725D01*
X96594336Y-124135187D01*
X96594335Y-124135186D01*
X96594334Y-124135186D01*
X96512427Y-124108044D01*
X96454984Y-124068272D01*
X96428161Y-124003756D01*
X96440476Y-123934980D01*
X96478547Y-123890021D01*
X96572219Y-123821966D01*
X96716966Y-123677219D01*
X96716968Y-123677215D01*
X96716971Y-123677213D01*
X96788534Y-123578713D01*
X96837287Y-123511610D01*
X96930220Y-123329219D01*
X96993477Y-123134534D01*
X97025500Y-122932352D01*
X97025500Y-122727648D01*
X97010161Y-122630802D01*
X96993477Y-122525465D01*
X96963577Y-122433443D01*
X96930220Y-122330781D01*
X96930218Y-122330778D01*
X96930218Y-122330776D01*
X96864764Y-122202317D01*
X96837287Y-122148390D01*
X96787976Y-122080518D01*
X96716971Y-121982786D01*
X96572213Y-121838028D01*
X96406614Y-121717715D01*
X96386984Y-121707713D01*
X96313917Y-121670483D01*
X96263123Y-121622511D01*
X96246328Y-121554690D01*
X96268865Y-121488555D01*
X96313917Y-121449516D01*
X96406610Y-121402287D01*
X96460340Y-121363250D01*
X96572213Y-121281971D01*
X96572215Y-121281968D01*
X96572219Y-121281966D01*
X96716966Y-121137219D01*
X96716968Y-121137215D01*
X96716971Y-121137213D01*
X96802588Y-121019369D01*
X96837287Y-120971610D01*
X96930220Y-120789219D01*
X96993477Y-120594534D01*
X97025500Y-120392352D01*
X97025500Y-120187648D01*
X96995845Y-120000416D01*
X96993477Y-119985465D01*
X96963577Y-119893443D01*
X96930220Y-119790781D01*
X96930218Y-119790778D01*
X96930218Y-119790776D01*
X96871590Y-119675714D01*
X96837287Y-119608390D01*
X96801822Y-119559576D01*
X96716971Y-119442786D01*
X96572213Y-119298028D01*
X96406614Y-119177715D01*
X96386984Y-119167713D01*
X96313917Y-119130483D01*
X96263123Y-119082511D01*
X96246328Y-119014690D01*
X96268865Y-118948555D01*
X96313917Y-118909516D01*
X96406610Y-118862287D01*
X96544529Y-118762084D01*
X96572213Y-118741971D01*
X96572215Y-118741968D01*
X96572219Y-118741966D01*
X96716966Y-118597219D01*
X96716968Y-118597215D01*
X96716971Y-118597213D01*
X96788534Y-118498713D01*
X96837287Y-118431610D01*
X96930220Y-118249219D01*
X96993477Y-118054534D01*
X97025500Y-117852352D01*
X97025500Y-117647648D01*
X97002339Y-117501416D01*
X96993477Y-117445465D01*
X96963577Y-117353443D01*
X96930220Y-117250781D01*
X96930218Y-117250778D01*
X96930218Y-117250776D01*
X96890583Y-117172989D01*
X96837287Y-117068390D01*
X96829556Y-117057749D01*
X96716971Y-116902786D01*
X96572213Y-116758028D01*
X96406614Y-116637715D01*
X96386984Y-116627713D01*
X96313917Y-116590483D01*
X96263123Y-116542511D01*
X96246328Y-116474690D01*
X96268865Y-116408555D01*
X96313917Y-116369516D01*
X96406610Y-116322287D01*
X96544529Y-116222084D01*
X96572213Y-116201971D01*
X96572215Y-116201968D01*
X96572219Y-116201966D01*
X96716966Y-116057219D01*
X96716968Y-116057215D01*
X96716971Y-116057213D01*
X96771546Y-115982096D01*
X96837287Y-115891610D01*
X96930220Y-115709219D01*
X96993477Y-115514534D01*
X97025500Y-115312352D01*
X97025500Y-115107648D01*
X96999937Y-114946250D01*
X96993477Y-114905465D01*
X96963577Y-114813443D01*
X96930220Y-114710781D01*
X96930218Y-114710778D01*
X96930218Y-114710776D01*
X96883015Y-114618137D01*
X96837287Y-114528390D01*
X96787292Y-114459577D01*
X96716971Y-114362786D01*
X96572213Y-114218028D01*
X96406614Y-114097715D01*
X96386984Y-114087713D01*
X96313917Y-114050483D01*
X96263123Y-114002511D01*
X96246328Y-113934690D01*
X96268865Y-113868555D01*
X96313917Y-113829516D01*
X96406610Y-113782287D01*
X96427770Y-113766913D01*
X96572213Y-113661971D01*
X96572215Y-113661968D01*
X96572219Y-113661966D01*
X96716966Y-113517219D01*
X96716968Y-113517215D01*
X96716971Y-113517213D01*
X96802493Y-113399500D01*
X96837287Y-113351610D01*
X96930220Y-113169219D01*
X96993477Y-112974534D01*
X97025500Y-112772352D01*
X97025500Y-112567648D01*
X97017436Y-112516735D01*
X96993477Y-112365465D01*
X96963577Y-112273443D01*
X96930220Y-112170781D01*
X96930218Y-112170778D01*
X96930218Y-112170776D01*
X96874492Y-112061409D01*
X96837287Y-111988390D01*
X96789258Y-111922283D01*
X96716971Y-111822786D01*
X96572213Y-111678028D01*
X96406614Y-111557715D01*
X96386984Y-111547713D01*
X96313917Y-111510483D01*
X96263123Y-111462511D01*
X96246328Y-111394690D01*
X96268865Y-111328555D01*
X96313917Y-111289516D01*
X96406610Y-111242287D01*
X96438299Y-111219264D01*
X96572213Y-111121971D01*
X96572215Y-111121968D01*
X96572219Y-111121966D01*
X96716966Y-110977219D01*
X96716968Y-110977215D01*
X96716971Y-110977213D01*
X96788534Y-110878713D01*
X96837287Y-110811610D01*
X96930220Y-110629219D01*
X96993477Y-110434534D01*
X97025500Y-110232352D01*
X97025500Y-110027648D01*
X97010161Y-109930802D01*
X96993477Y-109825465D01*
X96951592Y-109696557D01*
X96930220Y-109630781D01*
X96930218Y-109630778D01*
X96930218Y-109630776D01*
X96864764Y-109502317D01*
X96837287Y-109448390D01*
X96787976Y-109380518D01*
X96716971Y-109282786D01*
X96572213Y-109138028D01*
X96406614Y-109017715D01*
X96386984Y-109007713D01*
X96313917Y-108970483D01*
X96263123Y-108922511D01*
X96246328Y-108854690D01*
X96268865Y-108788555D01*
X96313917Y-108749516D01*
X96406610Y-108702287D01*
X96544529Y-108602084D01*
X96572213Y-108581971D01*
X96572215Y-108581968D01*
X96572219Y-108581966D01*
X96716966Y-108437219D01*
X96716968Y-108437215D01*
X96716971Y-108437213D01*
X96769732Y-108364590D01*
X96837287Y-108271610D01*
X96930220Y-108089219D01*
X96993477Y-107894534D01*
X97025500Y-107692352D01*
X97025500Y-107487648D01*
X97006538Y-107367930D01*
X96993477Y-107285465D01*
X96930218Y-107090776D01*
X96872687Y-106977867D01*
X96837287Y-106908390D01*
X96815328Y-106878166D01*
X96716971Y-106742786D01*
X96572213Y-106598028D01*
X96406614Y-106477715D01*
X96386984Y-106467713D01*
X96313917Y-106430483D01*
X96263123Y-106382511D01*
X96246328Y-106314690D01*
X96268865Y-106248555D01*
X96313917Y-106209516D01*
X96406610Y-106162287D01*
X96427770Y-106146913D01*
X96572213Y-106041971D01*
X96572215Y-106041968D01*
X96572219Y-106041966D01*
X96716966Y-105897219D01*
X96716968Y-105897215D01*
X96716971Y-105897213D01*
X96788534Y-105798713D01*
X96837287Y-105731610D01*
X96930220Y-105549219D01*
X96993477Y-105354534D01*
X97025500Y-105152352D01*
X97025500Y-104947648D01*
X96994338Y-104750902D01*
X96993477Y-104745465D01*
X96930218Y-104550776D01*
X96896503Y-104484607D01*
X96837287Y-104368390D01*
X96829556Y-104357749D01*
X96716971Y-104202786D01*
X96572213Y-104058028D01*
X96406611Y-103937713D01*
X96313369Y-103890203D01*
X96262574Y-103842229D01*
X96245779Y-103774407D01*
X96268317Y-103708273D01*
X96313371Y-103669234D01*
X96406346Y-103621861D01*
X96406347Y-103621861D01*
X96450921Y-103589474D01*
X95771447Y-102910000D01*
X95777661Y-102910000D01*
X95879394Y-102882741D01*
X95970606Y-102830080D01*
X96045080Y-102755606D01*
X96097741Y-102664394D01*
X96125000Y-102562661D01*
X96125000Y-102556447D01*
X96804474Y-103235921D01*
X96836859Y-103191349D01*
X96929755Y-103009031D01*
X96992990Y-102814417D01*
X97025000Y-102612317D01*
X97025000Y-102407682D01*
X96992990Y-102205582D01*
X96929755Y-102010968D01*
X96836859Y-101828650D01*
X96804474Y-101784077D01*
X96804474Y-101784076D01*
X96125000Y-102463551D01*
X96125000Y-102457339D01*
X96097741Y-102355606D01*
X96045080Y-102264394D01*
X95970606Y-102189920D01*
X95879394Y-102137259D01*
X95777661Y-102110000D01*
X95771446Y-102110000D01*
X96450922Y-101430524D01*
X96450921Y-101430523D01*
X96406359Y-101398147D01*
X96406350Y-101398141D01*
X96224031Y-101305244D01*
X96029417Y-101242009D01*
X95827317Y-101210000D01*
X95622683Y-101210000D01*
X95420582Y-101242009D01*
X95225968Y-101305244D01*
X95043644Y-101398143D01*
X94999077Y-101430523D01*
X94999077Y-101430524D01*
X95678554Y-102110000D01*
X95672339Y-102110000D01*
X95570606Y-102137259D01*
X95479394Y-102189920D01*
X95404920Y-102264394D01*
X95352259Y-102355606D01*
X95325000Y-102457339D01*
X95325000Y-102463553D01*
X94645524Y-101784077D01*
X94645523Y-101784077D01*
X94613143Y-101828644D01*
X94520244Y-102010968D01*
X94457009Y-102205582D01*
X94425000Y-102407682D01*
X94425000Y-102612317D01*
X94457009Y-102814417D01*
X94520244Y-103009031D01*
X94613141Y-103191350D01*
X94613147Y-103191359D01*
X94645523Y-103235921D01*
X94645524Y-103235922D01*
X95325000Y-102556446D01*
X95325000Y-102562661D01*
X95352259Y-102664394D01*
X95404920Y-102755606D01*
X95479394Y-102830080D01*
X95570606Y-102882741D01*
X95672339Y-102910000D01*
X95678553Y-102910000D01*
X94999076Y-103589474D01*
X95043652Y-103621861D01*
X95136628Y-103669234D01*
X95187425Y-103717208D01*
X95204220Y-103785029D01*
X95181683Y-103851164D01*
X95136630Y-103890203D01*
X95043388Y-103937713D01*
X94877786Y-104058028D01*
X94733028Y-104202786D01*
X94612715Y-104368386D01*
X94519781Y-104550776D01*
X94456522Y-104745465D01*
X94441774Y-104838583D01*
X94424500Y-104947648D01*
X94424500Y-105152352D01*
X94454939Y-105344534D01*
X94456523Y-105354534D01*
X94461172Y-105368843D01*
X94461606Y-105384055D01*
X94466925Y-105398315D01*
X94462583Y-105418270D01*
X94463167Y-105438684D01*
X94455078Y-105452770D01*
X94452073Y-105466588D01*
X94430925Y-105494838D01*
X94262582Y-105663182D01*
X94201261Y-105696666D01*
X94174903Y-105699500D01*
X89432062Y-105699500D01*
X89365023Y-105679815D01*
X89319268Y-105627011D01*
X89309324Y-105557853D01*
X89314131Y-105537181D01*
X89334593Y-105474208D01*
X89373477Y-105354534D01*
X89405500Y-105152352D01*
X89405500Y-104947648D01*
X89374338Y-104750902D01*
X89373477Y-104745465D01*
X89310218Y-104550776D01*
X89276503Y-104484607D01*
X89217287Y-104368390D01*
X89209556Y-104357749D01*
X89096971Y-104202786D01*
X88952213Y-104058028D01*
X88786614Y-103937715D01*
X88760970Y-103924649D01*
X88693917Y-103890483D01*
X88643123Y-103842511D01*
X88626328Y-103774690D01*
X88648865Y-103708555D01*
X88693917Y-103669516D01*
X88786610Y-103622287D01*
X88929246Y-103518657D01*
X88952213Y-103501971D01*
X88952215Y-103501968D01*
X88952219Y-103501966D01*
X89096966Y-103357219D01*
X89096968Y-103357215D01*
X89096971Y-103357213D01*
X89168534Y-103258713D01*
X89217287Y-103191610D01*
X89310220Y-103009219D01*
X89373477Y-102814534D01*
X89405500Y-102612352D01*
X89405500Y-102407648D01*
X89393976Y-102334890D01*
X89373477Y-102205465D01*
X89331592Y-102076557D01*
X89310220Y-102010781D01*
X89310218Y-102010778D01*
X89310218Y-102010776D01*
X89253770Y-101899992D01*
X89217287Y-101828390D01*
X89194629Y-101797203D01*
X89096971Y-101662786D01*
X88952213Y-101518028D01*
X88786613Y-101397715D01*
X88786612Y-101397714D01*
X88786610Y-101397713D01*
X88707272Y-101357288D01*
X88604223Y-101304781D01*
X88409534Y-101241522D01*
X88234995Y-101213878D01*
X88207352Y-101209500D01*
X88002648Y-101209500D01*
X87978329Y-101213351D01*
X87800465Y-101241522D01*
X87605776Y-101304781D01*
X87423386Y-101397715D01*
X87257786Y-101518028D01*
X87113028Y-101662786D01*
X86992715Y-101828386D01*
X86899781Y-102010776D01*
X86836522Y-102205465D01*
X86804500Y-102407648D01*
X86804500Y-102612351D01*
X86836522Y-102814534D01*
X86899781Y-103009223D01*
X86946036Y-103100001D01*
X86992585Y-103191359D01*
X86992715Y-103191613D01*
X87113028Y-103357213D01*
X87257786Y-103501971D01*
X87364462Y-103579474D01*
X87423390Y-103622287D01*
X87496454Y-103659515D01*
X87516080Y-103669515D01*
X87566876Y-103717490D01*
X87583671Y-103785311D01*
X87561134Y-103851446D01*
X87516080Y-103890485D01*
X87423386Y-103937715D01*
X87257786Y-104058028D01*
X87113028Y-104202786D01*
X86992715Y-104368386D01*
X86899781Y-104550776D01*
X86836522Y-104745465D01*
X86804500Y-104947648D01*
X86804500Y-105152351D01*
X86836522Y-105354534D01*
X86895869Y-105537181D01*
X86897864Y-105607023D01*
X86861784Y-105666856D01*
X86799083Y-105697684D01*
X86777938Y-105699500D01*
X79280097Y-105699500D01*
X79213058Y-105679815D01*
X79192416Y-105663181D01*
X79014077Y-105484842D01*
X78980592Y-105423519D01*
X78983828Y-105358841D01*
X78988477Y-105344534D01*
X79020500Y-105142352D01*
X79020500Y-104937648D01*
X78988477Y-104735466D01*
X78925220Y-104540781D01*
X78925218Y-104540778D01*
X78925218Y-104540776D01*
X78850996Y-104395109D01*
X78832287Y-104358390D01*
X78824556Y-104347749D01*
X78711971Y-104192786D01*
X78567213Y-104048028D01*
X78401611Y-103927713D01*
X78308369Y-103880203D01*
X78257574Y-103832229D01*
X78240779Y-103764407D01*
X78263317Y-103698273D01*
X78308371Y-103659234D01*
X78401346Y-103611861D01*
X78401347Y-103611861D01*
X78445921Y-103579474D01*
X77766447Y-102900000D01*
X77772661Y-102900000D01*
X77874394Y-102872741D01*
X77965606Y-102820080D01*
X78040080Y-102745606D01*
X78092741Y-102654394D01*
X78120000Y-102552661D01*
X78120000Y-102546448D01*
X78799474Y-103225922D01*
X78799474Y-103225921D01*
X78831859Y-103181349D01*
X78924755Y-102999031D01*
X78987990Y-102804417D01*
X79020000Y-102602317D01*
X79020000Y-102397682D01*
X78987990Y-102195582D01*
X78924755Y-102000968D01*
X78831859Y-101818650D01*
X78799474Y-101774077D01*
X78799474Y-101774076D01*
X78120000Y-102453551D01*
X78120000Y-102447339D01*
X78092741Y-102345606D01*
X78040080Y-102254394D01*
X77965606Y-102179920D01*
X77874394Y-102127259D01*
X77772661Y-102100000D01*
X77766446Y-102100000D01*
X78445922Y-101420524D01*
X78445921Y-101420523D01*
X78401359Y-101388147D01*
X78401350Y-101388141D01*
X78219031Y-101295244D01*
X78024417Y-101232009D01*
X77822317Y-101200000D01*
X77617683Y-101200000D01*
X77415582Y-101232009D01*
X77220968Y-101295244D01*
X77038644Y-101388143D01*
X76994077Y-101420523D01*
X76994077Y-101420524D01*
X77673554Y-102100000D01*
X77667339Y-102100000D01*
X77565606Y-102127259D01*
X77474394Y-102179920D01*
X77399920Y-102254394D01*
X77347259Y-102345606D01*
X77320000Y-102447339D01*
X77320000Y-102453553D01*
X76640524Y-101774077D01*
X76640523Y-101774077D01*
X76608143Y-101818644D01*
X76515244Y-102000968D01*
X76452009Y-102195582D01*
X76420000Y-102397682D01*
X76420000Y-102602317D01*
X76452009Y-102804417D01*
X76515244Y-102999031D01*
X76608141Y-103181350D01*
X76608147Y-103181359D01*
X76640523Y-103225921D01*
X76640524Y-103225922D01*
X77320000Y-102546446D01*
X77320000Y-102552661D01*
X77347259Y-102654394D01*
X77399920Y-102745606D01*
X77474394Y-102820080D01*
X77565606Y-102872741D01*
X77667339Y-102900000D01*
X77673553Y-102900000D01*
X76994076Y-103579474D01*
X77038652Y-103611861D01*
X77131628Y-103659234D01*
X77182425Y-103707208D01*
X77199220Y-103775029D01*
X77176683Y-103841164D01*
X77131630Y-103880203D01*
X77038388Y-103927713D01*
X76872786Y-104048028D01*
X76728028Y-104192786D01*
X76607715Y-104358386D01*
X76514781Y-104540776D01*
X76451522Y-104735465D01*
X76419500Y-104937648D01*
X76419500Y-105142351D01*
X76451522Y-105344534D01*
X76456173Y-105358848D01*
X76458165Y-105428690D01*
X76425921Y-105484842D01*
X73647584Y-108263181D01*
X73586261Y-108296666D01*
X73559903Y-108299500D01*
X71395331Y-108299500D01*
X71328292Y-108279815D01*
X71282537Y-108227011D01*
X71272593Y-108157853D01*
X71284846Y-108119205D01*
X71305218Y-108079223D01*
X71305218Y-108079222D01*
X71305220Y-108079219D01*
X71368477Y-107884534D01*
X71400500Y-107682352D01*
X71400500Y-107477648D01*
X71390560Y-107414890D01*
X71368477Y-107275465D01*
X71308469Y-107090781D01*
X71305220Y-107080781D01*
X71305218Y-107080778D01*
X71305218Y-107080776D01*
X71269200Y-107010087D01*
X71212287Y-106898390D01*
X71197594Y-106878166D01*
X71091971Y-106732786D01*
X70947213Y-106588028D01*
X70781614Y-106467715D01*
X70775006Y-106464348D01*
X70688917Y-106420483D01*
X70638123Y-106372511D01*
X70621328Y-106304690D01*
X70643865Y-106238555D01*
X70688917Y-106199516D01*
X70781610Y-106152287D01*
X70802770Y-106136913D01*
X70947213Y-106031971D01*
X70947215Y-106031968D01*
X70947219Y-106031966D01*
X71091966Y-105887219D01*
X71091968Y-105887215D01*
X71091971Y-105887213D01*
X71205019Y-105731613D01*
X71212287Y-105721610D01*
X71305220Y-105539219D01*
X71368477Y-105344534D01*
X71400500Y-105142352D01*
X71400500Y-104937648D01*
X71368477Y-104735466D01*
X71305220Y-104540781D01*
X71305218Y-104540778D01*
X71305218Y-104540776D01*
X71230996Y-104395109D01*
X71212287Y-104358390D01*
X71204556Y-104347749D01*
X71091971Y-104192786D01*
X70947213Y-104048028D01*
X70781614Y-103927715D01*
X70775006Y-103924348D01*
X70688917Y-103880483D01*
X70638123Y-103832511D01*
X70621328Y-103764690D01*
X70643865Y-103698555D01*
X70688917Y-103659516D01*
X70781610Y-103612287D01*
X70910482Y-103518657D01*
X70947213Y-103491971D01*
X70947215Y-103491968D01*
X70947219Y-103491966D01*
X71091966Y-103347219D01*
X71091968Y-103347215D01*
X71091971Y-103347213D01*
X71172828Y-103235921D01*
X71212287Y-103181610D01*
X71305220Y-102999219D01*
X71368477Y-102804534D01*
X71400500Y-102602352D01*
X71400500Y-102397648D01*
X71379394Y-102264394D01*
X71368477Y-102195465D01*
X71308469Y-102010781D01*
X71305220Y-102000781D01*
X71305218Y-102000778D01*
X71305218Y-102000776D01*
X71253865Y-101899991D01*
X71212287Y-101818390D01*
X71196892Y-101797200D01*
X71091971Y-101652786D01*
X70947213Y-101508028D01*
X70781613Y-101387715D01*
X70781612Y-101387714D01*
X70781610Y-101387713D01*
X70721898Y-101357288D01*
X70599223Y-101294781D01*
X70404534Y-101231522D01*
X70229995Y-101203878D01*
X70202352Y-101199500D01*
X69997648Y-101199500D01*
X69973329Y-101203351D01*
X69795465Y-101231522D01*
X69600776Y-101294781D01*
X69418386Y-101387715D01*
X69252786Y-101508028D01*
X69108028Y-101652786D01*
X68987715Y-101818386D01*
X68894781Y-102000776D01*
X68831522Y-102195465D01*
X68799500Y-102397648D01*
X68799500Y-102602351D01*
X68831522Y-102804534D01*
X68894781Y-102999223D01*
X68946135Y-103100009D01*
X68987585Y-103181359D01*
X68987715Y-103181613D01*
X69108028Y-103347213D01*
X69252786Y-103491971D01*
X69373226Y-103579474D01*
X69418390Y-103612287D01*
X69509840Y-103658883D01*
X69511080Y-103659515D01*
X69561876Y-103707490D01*
X69578671Y-103775311D01*
X69556134Y-103841446D01*
X69511080Y-103880485D01*
X69418386Y-103927715D01*
X69252786Y-104048028D01*
X69108028Y-104192786D01*
X68987715Y-104358386D01*
X68894781Y-104540776D01*
X68831522Y-104735465D01*
X68799500Y-104937648D01*
X68799500Y-105142351D01*
X68831522Y-105344534D01*
X68894781Y-105539223D01*
X68939512Y-105627011D01*
X68976447Y-105699500D01*
X68987715Y-105721613D01*
X69108028Y-105887213D01*
X69252786Y-106031971D01*
X69407749Y-106144556D01*
X69418390Y-106152287D01*
X69509840Y-106198883D01*
X69511080Y-106199515D01*
X69561876Y-106247490D01*
X69578671Y-106315311D01*
X69556134Y-106381446D01*
X69511080Y-106420485D01*
X69418386Y-106467715D01*
X69252786Y-106588028D01*
X69108028Y-106732786D01*
X68987715Y-106898386D01*
X68894781Y-107080776D01*
X68831522Y-107275465D01*
X68799500Y-107477648D01*
X68799500Y-107682351D01*
X68831522Y-107884534D01*
X68894781Y-108079223D01*
X68915154Y-108119205D01*
X68928050Y-108187874D01*
X68901774Y-108252614D01*
X68844668Y-108292872D01*
X68804669Y-108299500D01*
X65920940Y-108299500D01*
X65880019Y-108310464D01*
X65880019Y-108310465D01*
X65842751Y-108320451D01*
X65768214Y-108340423D01*
X65768209Y-108340426D01*
X65631290Y-108419475D01*
X65631282Y-108419481D01*
X65519181Y-108531583D01*
X65457858Y-108565068D01*
X65388166Y-108560084D01*
X65332233Y-108518212D01*
X65307816Y-108452748D01*
X65307500Y-108443902D01*
X65307500Y-96093097D01*
X65327185Y-96026058D01*
X65343819Y-96005416D01*
X66712416Y-94636819D01*
X66773739Y-94603334D01*
X66800097Y-94600500D01*
X68804669Y-94600500D01*
X68871708Y-94620185D01*
X68917463Y-94672989D01*
X68927407Y-94742147D01*
X68915154Y-94780795D01*
X68894781Y-94820776D01*
X68831522Y-95015465D01*
X68804984Y-95183023D01*
X68799500Y-95217648D01*
X68799500Y-95422352D01*
X68800515Y-95428760D01*
X68831522Y-95624534D01*
X68894781Y-95819223D01*
X68946135Y-95920009D01*
X68976711Y-95980018D01*
X68987715Y-96001613D01*
X69108028Y-96167213D01*
X69252786Y-96311971D01*
X69375449Y-96401089D01*
X69418390Y-96432287D01*
X69505063Y-96476449D01*
X69600776Y-96525218D01*
X69600778Y-96525218D01*
X69600781Y-96525220D01*
X69691856Y-96554812D01*
X69795465Y-96588477D01*
X69896557Y-96604488D01*
X69997648Y-96620500D01*
X69997649Y-96620500D01*
X70202351Y-96620500D01*
X70202352Y-96620500D01*
X70404534Y-96588477D01*
X70599219Y-96525220D01*
X70781610Y-96432287D01*
X70874590Y-96364732D01*
X70947213Y-96311971D01*
X70947215Y-96311968D01*
X70947219Y-96311966D01*
X71091966Y-96167219D01*
X71091968Y-96167215D01*
X71091971Y-96167213D01*
X71167834Y-96062795D01*
X71212287Y-96001610D01*
X71305220Y-95819219D01*
X71368477Y-95624534D01*
X71400500Y-95422352D01*
X71400500Y-95217648D01*
X71395016Y-95183023D01*
X71368477Y-95015465D01*
X71327923Y-94890653D01*
X71305220Y-94820781D01*
X71305218Y-94820778D01*
X71305218Y-94820776D01*
X71284846Y-94780795D01*
X71271950Y-94712126D01*
X71298226Y-94647386D01*
X71355332Y-94607128D01*
X71395331Y-94600500D01*
X76295500Y-94600500D01*
X76362539Y-94620185D01*
X76408294Y-94672989D01*
X76419500Y-94724500D01*
X76419500Y-95920001D01*
X76419501Y-95920018D01*
X76430000Y-96022796D01*
X76430001Y-96022799D01*
X76485185Y-96189331D01*
X76485187Y-96189336D01*
X76509858Y-96229334D01*
X76577288Y-96338656D01*
X76701344Y-96462712D01*
X76850666Y-96554814D01*
X77017203Y-96609999D01*
X77119991Y-96620500D01*
X78320008Y-96620499D01*
X78422797Y-96609999D01*
X78589334Y-96554814D01*
X78738656Y-96462712D01*
X78862712Y-96338656D01*
X78954814Y-96189334D01*
X79009999Y-96022797D01*
X79020500Y-95920009D01*
X79020499Y-94920098D01*
X79029144Y-94890653D01*
X79035667Y-94860672D01*
X79039420Y-94855658D01*
X79040183Y-94853060D01*
X79056818Y-94832417D01*
X79152418Y-94736818D01*
X79213742Y-94703334D01*
X79240099Y-94700500D01*
X86756187Y-94700500D01*
X86823226Y-94720185D01*
X86868981Y-94772989D01*
X86878925Y-94842147D01*
X86874118Y-94862818D01*
X86811523Y-95055461D01*
X86811523Y-95055464D01*
X86779500Y-95257648D01*
X86779500Y-95462351D01*
X86811522Y-95664534D01*
X86874781Y-95859223D01*
X86926135Y-95960009D01*
X86958128Y-96022799D01*
X86967715Y-96041613D01*
X87088028Y-96207213D01*
X87232786Y-96351971D01*
X87359533Y-96444056D01*
X87398390Y-96472287D01*
X87502273Y-96525218D01*
X87580776Y-96565218D01*
X87580778Y-96565218D01*
X87580781Y-96565220D01*
X87642329Y-96585218D01*
X87775465Y-96628477D01*
X87876557Y-96644488D01*
X87977648Y-96660500D01*
X87977649Y-96660500D01*
X88182351Y-96660500D01*
X88182352Y-96660500D01*
X88384534Y-96628477D01*
X88579219Y-96565220D01*
X88761610Y-96472287D01*
X88854590Y-96404732D01*
X88927213Y-96351971D01*
X88927215Y-96351968D01*
X88927219Y-96351966D01*
X89071966Y-96207219D01*
X89071968Y-96207215D01*
X89071971Y-96207213D01*
X89142390Y-96110288D01*
X89192287Y-96041610D01*
X89285220Y-95859219D01*
X89348477Y-95664534D01*
X89380500Y-95462352D01*
X89380500Y-95257648D01*
X89348477Y-95055466D01*
X89348476Y-95055462D01*
X89348476Y-95055461D01*
X89285882Y-94862818D01*
X89283887Y-94792977D01*
X89319967Y-94733144D01*
X89382668Y-94702316D01*
X89403813Y-94700500D01*
X90696561Y-94700500D01*
X90763600Y-94720185D01*
X90809355Y-94772989D01*
X90819299Y-94842147D01*
X90790274Y-94905703D01*
X90765452Y-94927602D01*
X90689711Y-94978210D01*
X90689707Y-94978213D01*
X90578213Y-95089707D01*
X90578210Y-95089711D01*
X90490609Y-95220814D01*
X90490602Y-95220827D01*
X90430264Y-95366498D01*
X90430261Y-95366508D01*
X90399361Y-95521850D01*
X90366976Y-95583761D01*
X90365425Y-95585339D01*
X89635339Y-96315425D01*
X89574016Y-96348910D01*
X89571850Y-96349361D01*
X89416508Y-96380261D01*
X89416498Y-96380264D01*
X89270827Y-96440602D01*
X89270814Y-96440609D01*
X89139711Y-96528210D01*
X89139707Y-96528213D01*
X89028213Y-96639707D01*
X89028210Y-96639711D01*
X88940609Y-96770814D01*
X88940602Y-96770827D01*
X88880264Y-96916498D01*
X88880261Y-96916510D01*
X88849500Y-97071153D01*
X88849500Y-97228846D01*
X88880261Y-97383489D01*
X88880264Y-97383501D01*
X88940602Y-97529172D01*
X88940609Y-97529185D01*
X89028210Y-97660288D01*
X89028213Y-97660292D01*
X89139707Y-97771786D01*
X89139711Y-97771789D01*
X89270814Y-97859390D01*
X89270827Y-97859397D01*
X89397749Y-97911969D01*
X89416503Y-97919737D01*
X89571153Y-97950499D01*
X89571156Y-97950500D01*
X89571158Y-97950500D01*
X89728844Y-97950500D01*
X89728845Y-97950499D01*
X89883497Y-97919737D01*
X90029179Y-97859394D01*
X90160289Y-97771789D01*
X90271789Y-97660289D01*
X90359394Y-97529179D01*
X90419737Y-97383497D01*
X90445319Y-97254890D01*
X90450638Y-97228150D01*
X90483023Y-97166239D01*
X90484518Y-97164716D01*
X91214662Y-96434572D01*
X91275983Y-96401089D01*
X91278150Y-96400638D01*
X91336085Y-96389113D01*
X91433497Y-96369737D01*
X91579179Y-96309394D01*
X91710289Y-96221789D01*
X91821789Y-96110289D01*
X91909394Y-95979179D01*
X91969737Y-95833497D01*
X92000500Y-95678842D01*
X92000500Y-95521158D01*
X92000500Y-95521155D01*
X92000499Y-95521153D01*
X91969738Y-95366510D01*
X91969738Y-95366508D01*
X91969737Y-95366503D01*
X91935294Y-95283349D01*
X91909397Y-95220827D01*
X91909390Y-95220814D01*
X91821789Y-95089711D01*
X91821786Y-95089707D01*
X91710292Y-94978213D01*
X91710288Y-94978210D01*
X91634548Y-94927602D01*
X91612800Y-94901580D01*
X91590645Y-94876011D01*
X91590481Y-94874873D01*
X91589743Y-94873990D01*
X91585521Y-94840377D01*
X91580701Y-94806853D01*
X91581179Y-94805805D01*
X91581036Y-94804665D01*
X91595654Y-94774109D01*
X91609726Y-94743297D01*
X91610693Y-94742675D01*
X91611190Y-94741637D01*
X91640016Y-94723830D01*
X91668504Y-94705523D01*
X91670003Y-94705307D01*
X91670634Y-94704918D01*
X91703439Y-94700500D01*
X91855164Y-94700500D01*
X91922203Y-94720185D01*
X91958266Y-94755609D01*
X92028210Y-94860289D01*
X92139707Y-94971786D01*
X92139711Y-94971789D01*
X92270814Y-95059390D01*
X92270827Y-95059397D01*
X92380427Y-95104794D01*
X92416503Y-95119737D01*
X92481147Y-95132595D01*
X92571849Y-95150638D01*
X92633760Y-95183023D01*
X92635338Y-95184573D01*
X94831284Y-97380520D01*
X94831286Y-97380521D01*
X94831290Y-97380524D01*
X94968209Y-97459573D01*
X94968216Y-97459577D01*
X95120943Y-97500501D01*
X95120945Y-97500501D01*
X95286654Y-97500501D01*
X95286670Y-97500500D01*
X100220234Y-97500500D01*
X100287273Y-97520185D01*
X100289125Y-97521398D01*
X100420814Y-97609390D01*
X100420827Y-97609397D01*
X100566498Y-97669735D01*
X100566503Y-97669737D01*
X100721153Y-97700499D01*
X100721156Y-97700500D01*
X100721158Y-97700500D01*
X100878844Y-97700500D01*
X100878845Y-97700499D01*
X101033497Y-97669737D01*
X101179179Y-97609394D01*
X101310289Y-97521789D01*
X101421789Y-97410289D01*
X101509394Y-97279179D01*
X101569737Y-97133497D01*
X101600500Y-96978842D01*
X101600500Y-96821158D01*
X101600500Y-96821155D01*
X101600499Y-96821153D01*
X101569738Y-96666510D01*
X101569737Y-96666503D01*
X101569735Y-96666498D01*
X101509397Y-96520827D01*
X101509390Y-96520814D01*
X101421789Y-96389711D01*
X101421786Y-96389707D01*
X101310292Y-96278213D01*
X101310288Y-96278210D01*
X101179185Y-96190609D01*
X101179172Y-96190602D01*
X101033501Y-96130264D01*
X101033489Y-96130261D01*
X100878845Y-96099500D01*
X100878842Y-96099500D01*
X100721158Y-96099500D01*
X100721155Y-96099500D01*
X100566510Y-96130261D01*
X100566498Y-96130264D01*
X100420827Y-96190602D01*
X100420814Y-96190609D01*
X100289125Y-96278602D01*
X100222447Y-96299480D01*
X100220234Y-96299500D01*
X97083283Y-96299500D01*
X97016244Y-96279815D01*
X96970489Y-96227011D01*
X96960545Y-96157853D01*
X96965575Y-96136501D01*
X96989999Y-96062797D01*
X97000500Y-95960009D01*
X97000499Y-94824499D01*
X97020184Y-94757461D01*
X97072987Y-94711706D01*
X97124499Y-94700500D01*
X103784288Y-94700500D01*
X103851327Y-94720185D01*
X103897082Y-94772989D01*
X103907026Y-94842147D01*
X103896257Y-94876110D01*
X103896647Y-94876272D01*
X103894784Y-94880770D01*
X103894781Y-94880778D01*
X103894780Y-94880781D01*
X103884578Y-94912181D01*
X103831522Y-95075465D01*
X103799500Y-95277648D01*
X103799500Y-95482351D01*
X103831522Y-95684534D01*
X103894781Y-95879223D01*
X103946140Y-95980018D01*
X103977522Y-96041610D01*
X103987715Y-96061613D01*
X104108028Y-96227213D01*
X104252786Y-96371971D01*
X104370823Y-96457728D01*
X104418390Y-96492287D01*
X104483021Y-96525218D01*
X104600776Y-96585218D01*
X104600778Y-96585218D01*
X104600781Y-96585220D01*
X104677040Y-96609998D01*
X104795465Y-96648477D01*
X104871375Y-96660500D01*
X104997648Y-96680500D01*
X104997649Y-96680500D01*
X105202351Y-96680500D01*
X105202352Y-96680500D01*
X105404534Y-96648477D01*
X105599219Y-96585220D01*
X105781610Y-96492287D01*
X105874590Y-96424732D01*
X105947213Y-96371971D01*
X105947215Y-96371968D01*
X105947219Y-96371966D01*
X106091966Y-96227219D01*
X106106501Y-96207213D01*
X106125100Y-96181615D01*
X106180429Y-96138949D01*
X106225418Y-96130500D01*
X108817770Y-96130500D01*
X108884809Y-96150185D01*
X108905451Y-96166819D01*
X110478972Y-97740340D01*
X110489067Y-97758828D01*
X110503148Y-97774504D01*
X110505477Y-97788881D01*
X110512457Y-97801663D01*
X110510954Y-97822677D01*
X110514324Y-97843474D01*
X110508511Y-97856826D01*
X110507473Y-97871355D01*
X110494847Y-97888220D01*
X110486439Y-97907538D01*
X110467960Y-97924135D01*
X110465601Y-97927288D01*
X110460182Y-97931123D01*
X110389125Y-97978602D01*
X110322448Y-97999480D01*
X110320234Y-97999500D01*
X106786670Y-97999500D01*
X106786654Y-97999499D01*
X106779058Y-97999499D01*
X106620943Y-97999499D01*
X106544579Y-98019961D01*
X106468214Y-98040423D01*
X106468209Y-98040426D01*
X106331290Y-98119475D01*
X106331282Y-98119481D01*
X104619481Y-99831282D01*
X104619479Y-99831285D01*
X104569361Y-99918094D01*
X104569359Y-99918096D01*
X104540425Y-99968209D01*
X104540424Y-99968210D01*
X104524544Y-100027472D01*
X104499499Y-100120943D01*
X104499499Y-100120945D01*
X104499499Y-100289046D01*
X104499500Y-100289059D01*
X104499500Y-101087837D01*
X104479815Y-101154876D01*
X104427011Y-101200631D01*
X104401459Y-101209089D01*
X104397207Y-101209999D01*
X104230668Y-101265185D01*
X104230663Y-101265187D01*
X104081342Y-101357289D01*
X103957289Y-101481342D01*
X103865187Y-101630663D01*
X103865186Y-101630666D01*
X103810001Y-101797203D01*
X103810001Y-101797204D01*
X103810000Y-101797204D01*
X103799500Y-101899983D01*
X103799500Y-103100001D01*
X103799501Y-103100018D01*
X103810000Y-103202796D01*
X103810001Y-103202799D01*
X103857856Y-103347213D01*
X103865186Y-103369334D01*
X103957288Y-103518656D01*
X104081344Y-103642712D01*
X104230666Y-103734814D01*
X104312570Y-103761954D01*
X104370015Y-103801727D01*
X104396838Y-103866243D01*
X104384523Y-103935018D01*
X104346451Y-103979978D01*
X104252787Y-104048028D01*
X104252782Y-104048032D01*
X104108028Y-104192786D01*
X103987715Y-104358386D01*
X103894781Y-104540776D01*
X103831522Y-104735465D01*
X103799500Y-104937648D01*
X103799500Y-105142351D01*
X103831522Y-105344534D01*
X103894781Y-105539223D01*
X103939512Y-105627011D01*
X103976447Y-105699500D01*
X103987715Y-105721613D01*
X104108028Y-105887213D01*
X104252786Y-106031971D01*
X104407749Y-106144556D01*
X104418390Y-106152287D01*
X104509840Y-106198883D01*
X104511080Y-106199515D01*
X104561876Y-106247490D01*
X104578671Y-106315311D01*
X104556134Y-106381446D01*
X104511080Y-106420485D01*
X104418386Y-106467715D01*
X104252786Y-106588028D01*
X104108028Y-106732786D01*
X103987715Y-106898386D01*
X103894781Y-107080776D01*
X103831522Y-107275465D01*
X103799500Y-107477648D01*
X103799500Y-107682351D01*
X103831522Y-107884534D01*
X103894781Y-108079223D01*
X103958691Y-108204653D01*
X103983129Y-108252614D01*
X103987715Y-108261613D01*
X104108028Y-108427213D01*
X104252786Y-108571971D01*
X104407749Y-108684556D01*
X104418390Y-108692287D01*
X104509840Y-108738883D01*
X104511080Y-108739515D01*
X104561876Y-108787490D01*
X104578671Y-108855311D01*
X104556134Y-108921446D01*
X104511080Y-108960485D01*
X104418386Y-109007715D01*
X104252786Y-109128028D01*
X104108028Y-109272786D01*
X103987715Y-109438386D01*
X103894781Y-109620776D01*
X103831522Y-109815465D01*
X103799500Y-110017648D01*
X103799500Y-110222351D01*
X103831522Y-110424534D01*
X103894781Y-110619223D01*
X103929758Y-110687868D01*
X103984675Y-110795648D01*
X103987715Y-110801613D01*
X104108028Y-110967213D01*
X104252786Y-111111971D01*
X104400465Y-111219264D01*
X104418390Y-111232287D01*
X104509840Y-111278883D01*
X104511080Y-111279515D01*
X104561876Y-111327490D01*
X104578671Y-111395311D01*
X104556134Y-111461446D01*
X104511080Y-111500485D01*
X104418386Y-111547715D01*
X104252786Y-111668028D01*
X104108028Y-111812786D01*
X103987715Y-111978386D01*
X103894781Y-112160776D01*
X103831522Y-112355465D01*
X103799500Y-112557648D01*
X103799500Y-112762351D01*
X103831522Y-112964534D01*
X103894781Y-113159223D01*
X103947751Y-113263181D01*
X103987109Y-113340425D01*
X103987715Y-113341613D01*
X104108028Y-113507213D01*
X104252786Y-113651971D01*
X104395167Y-113755415D01*
X104418390Y-113772287D01*
X104509840Y-113818883D01*
X104511080Y-113819515D01*
X104561876Y-113867490D01*
X104578671Y-113935311D01*
X104556134Y-114001446D01*
X104511080Y-114040485D01*
X104418386Y-114087715D01*
X104252786Y-114208028D01*
X104108028Y-114352786D01*
X103987715Y-114518386D01*
X103894781Y-114700776D01*
X103831522Y-114895465D01*
X103799500Y-115097648D01*
X103799500Y-115302351D01*
X103831522Y-115504534D01*
X103894781Y-115699223D01*
X103958691Y-115824653D01*
X103986798Y-115879815D01*
X103987715Y-115881613D01*
X104108028Y-116047213D01*
X104252786Y-116191971D01*
X104407749Y-116304556D01*
X104418390Y-116312287D01*
X104509840Y-116358883D01*
X104511080Y-116359515D01*
X104561876Y-116407490D01*
X104578671Y-116475311D01*
X104556134Y-116541446D01*
X104511080Y-116580485D01*
X104418386Y-116627715D01*
X104252786Y-116748028D01*
X104108028Y-116892786D01*
X103987715Y-117058386D01*
X103894781Y-117240776D01*
X103831522Y-117435465D01*
X103799500Y-117637648D01*
X103799500Y-117842351D01*
X103831522Y-118044534D01*
X103894781Y-118239223D01*
X103939512Y-118327011D01*
X103976447Y-118399500D01*
X103987715Y-118421613D01*
X104108028Y-118587213D01*
X104252786Y-118731971D01*
X104407749Y-118844556D01*
X104418390Y-118852287D01*
X104509840Y-118898883D01*
X104511080Y-118899515D01*
X104561876Y-118947490D01*
X104578671Y-119015311D01*
X104556134Y-119081446D01*
X104511080Y-119120485D01*
X104418386Y-119167715D01*
X104252786Y-119288028D01*
X104108028Y-119432786D01*
X103987715Y-119598386D01*
X103894781Y-119780776D01*
X103831522Y-119975465D01*
X103799500Y-120177648D01*
X103799500Y-120382351D01*
X103831522Y-120584534D01*
X103894781Y-120779223D01*
X103958691Y-120904653D01*
X103983129Y-120952614D01*
X103987715Y-120961613D01*
X104108028Y-121127213D01*
X104252786Y-121271971D01*
X104390599Y-121372096D01*
X104418390Y-121392287D01*
X104509840Y-121438883D01*
X104511080Y-121439515D01*
X104561876Y-121487490D01*
X104578671Y-121555311D01*
X104556134Y-121621446D01*
X104511080Y-121660485D01*
X104418386Y-121707715D01*
X104252786Y-121828028D01*
X104108028Y-121972786D01*
X103987715Y-122138386D01*
X103894781Y-122320776D01*
X103831522Y-122515465D01*
X103799500Y-122717648D01*
X103799500Y-122922351D01*
X103831522Y-123124534D01*
X103894781Y-123319223D01*
X103949703Y-123427011D01*
X103986637Y-123499499D01*
X103987715Y-123501613D01*
X104108028Y-123667213D01*
X104252786Y-123811971D01*
X104418385Y-123932284D01*
X104418387Y-123932285D01*
X104418390Y-123932287D01*
X104511080Y-123979515D01*
X104511630Y-123979795D01*
X104562426Y-124027770D01*
X104579221Y-124095591D01*
X104556684Y-124161725D01*
X104511630Y-124200765D01*
X104418644Y-124248143D01*
X104374077Y-124280523D01*
X104374077Y-124280524D01*
X105053554Y-124960000D01*
X105047339Y-124960000D01*
X104945606Y-124987259D01*
X104854394Y-125039920D01*
X104779920Y-125114394D01*
X104727259Y-125205606D01*
X104700000Y-125307339D01*
X104700000Y-125313553D01*
X104020524Y-124634077D01*
X104020523Y-124634077D01*
X103988143Y-124678644D01*
X103895244Y-124860968D01*
X103832009Y-125055582D01*
X103800000Y-125257682D01*
X103800000Y-125462317D01*
X103832009Y-125664417D01*
X103895244Y-125859031D01*
X103988141Y-126041350D01*
X103988147Y-126041359D01*
X104020523Y-126085921D01*
X104020524Y-126085922D01*
X104700000Y-125406446D01*
X104700000Y-125412661D01*
X104727259Y-125514394D01*
X104779920Y-125605606D01*
X104854394Y-125680080D01*
X104945606Y-125732741D01*
X105047339Y-125760000D01*
X105053553Y-125760000D01*
X104374076Y-126439474D01*
X104418650Y-126471859D01*
X104600968Y-126564755D01*
X104795582Y-126627990D01*
X104997683Y-126660000D01*
X105202317Y-126660000D01*
X105404417Y-126627990D01*
X105599031Y-126564755D01*
X105781349Y-126471859D01*
X105825921Y-126439474D01*
X105146447Y-125760000D01*
X105152661Y-125760000D01*
X105254394Y-125732741D01*
X105345606Y-125680080D01*
X105420080Y-125605606D01*
X105472741Y-125514394D01*
X105500000Y-125412661D01*
X105500000Y-125406447D01*
X106179474Y-126085921D01*
X106211859Y-126041349D01*
X106304755Y-125859031D01*
X106367990Y-125664417D01*
X106400000Y-125462317D01*
X106400000Y-125257682D01*
X106367990Y-125055582D01*
X106304755Y-124860968D01*
X106211859Y-124678650D01*
X106179474Y-124634077D01*
X106179474Y-124634076D01*
X105500000Y-125313551D01*
X105500000Y-125307339D01*
X105472741Y-125205606D01*
X105420080Y-125114394D01*
X105345606Y-125039920D01*
X105254394Y-124987259D01*
X105152661Y-124960000D01*
X105146446Y-124960000D01*
X105825922Y-124280524D01*
X105825921Y-124280523D01*
X105781359Y-124248147D01*
X105781350Y-124248141D01*
X105688369Y-124200765D01*
X105637573Y-124152790D01*
X105620778Y-124084969D01*
X105643315Y-124018835D01*
X105688370Y-123979795D01*
X105688920Y-123979515D01*
X105781610Y-123932287D01*
X105912398Y-123837265D01*
X105947213Y-123811971D01*
X105947215Y-123811968D01*
X105947219Y-123811966D01*
X106091966Y-123667219D01*
X106091968Y-123667215D01*
X106091971Y-123667213D01*
X106163064Y-123569360D01*
X106212287Y-123501610D01*
X106305220Y-123319219D01*
X106368477Y-123124534D01*
X106400500Y-122922352D01*
X106400500Y-122717648D01*
X106390560Y-122654890D01*
X106368477Y-122515465D01*
X106329841Y-122396557D01*
X106305220Y-122320781D01*
X106305218Y-122320778D01*
X106305218Y-122320776D01*
X106260567Y-122233145D01*
X106212287Y-122138390D01*
X106204556Y-122127749D01*
X106091971Y-121972786D01*
X105947213Y-121828028D01*
X105781614Y-121707715D01*
X105775006Y-121704348D01*
X105688917Y-121660483D01*
X105638123Y-121612511D01*
X105621328Y-121544690D01*
X105643865Y-121478555D01*
X105688917Y-121439516D01*
X105781610Y-121392287D01*
X105821576Y-121363250D01*
X105947213Y-121271971D01*
X105947215Y-121271968D01*
X105947219Y-121271966D01*
X106091966Y-121127219D01*
X106091968Y-121127215D01*
X106091971Y-121127213D01*
X106170323Y-121019369D01*
X106212287Y-120961610D01*
X106305220Y-120779219D01*
X106368477Y-120584534D01*
X106400500Y-120382352D01*
X106400500Y-120177648D01*
X106390560Y-120114890D01*
X106368477Y-119975465D01*
X106329841Y-119856557D01*
X106305220Y-119780781D01*
X106305218Y-119780778D01*
X106305218Y-119780776D01*
X106252785Y-119677872D01*
X106212287Y-119598390D01*
X106163066Y-119530642D01*
X106091971Y-119432786D01*
X105947213Y-119288028D01*
X105781614Y-119167715D01*
X105764090Y-119158786D01*
X105688917Y-119120483D01*
X105638123Y-119072511D01*
X105621328Y-119004690D01*
X105643865Y-118938555D01*
X105688917Y-118899516D01*
X105781610Y-118852287D01*
X105905765Y-118762084D01*
X105947213Y-118731971D01*
X105947215Y-118731968D01*
X105947219Y-118731966D01*
X106091966Y-118587219D01*
X106091968Y-118587215D01*
X106091971Y-118587213D01*
X106145008Y-118514212D01*
X106212287Y-118421610D01*
X106305220Y-118239219D01*
X106368477Y-118044534D01*
X106400500Y-117842352D01*
X106400500Y-117637648D01*
X106390560Y-117574890D01*
X106368477Y-117435465D01*
X106329841Y-117316557D01*
X106305220Y-117240781D01*
X106305218Y-117240778D01*
X106305218Y-117240776D01*
X106264298Y-117160467D01*
X106212287Y-117058390D01*
X106184240Y-117019786D01*
X106091971Y-116892786D01*
X105947213Y-116748028D01*
X105781614Y-116627715D01*
X105775006Y-116624348D01*
X105688917Y-116580483D01*
X105638123Y-116532511D01*
X105621328Y-116464690D01*
X105643865Y-116398555D01*
X105688917Y-116359516D01*
X105781610Y-116312287D01*
X105905765Y-116222084D01*
X105947213Y-116191971D01*
X105947215Y-116191968D01*
X105947219Y-116191966D01*
X106091966Y-116047219D01*
X106091968Y-116047215D01*
X106091971Y-116047213D01*
X106199289Y-115899500D01*
X106212287Y-115881610D01*
X106305220Y-115699219D01*
X106368477Y-115504534D01*
X106400500Y-115302352D01*
X106400500Y-115097648D01*
X106390560Y-115034890D01*
X106368477Y-114895465D01*
X106325377Y-114762818D01*
X106305220Y-114700781D01*
X106305218Y-114700778D01*
X106305218Y-114700776D01*
X106255049Y-114602316D01*
X106212287Y-114518390D01*
X106199289Y-114500500D01*
X106091971Y-114352786D01*
X105947213Y-114208028D01*
X105781614Y-114087715D01*
X105775006Y-114084348D01*
X105688917Y-114040483D01*
X105638123Y-113992511D01*
X105621328Y-113924690D01*
X105643865Y-113858555D01*
X105688917Y-113819516D01*
X105781610Y-113772287D01*
X105850921Y-113721930D01*
X105947213Y-113651971D01*
X105947215Y-113651968D01*
X105947219Y-113651966D01*
X106091966Y-113507219D01*
X106091968Y-113507215D01*
X106091971Y-113507213D01*
X106144732Y-113434590D01*
X106212287Y-113341610D01*
X106305220Y-113159219D01*
X106368477Y-112964534D01*
X106400500Y-112762352D01*
X106400500Y-112557648D01*
X106390560Y-112494890D01*
X106368477Y-112355465D01*
X106329841Y-112236557D01*
X106305220Y-112160781D01*
X106305218Y-112160778D01*
X106305218Y-112160776D01*
X106260488Y-112072990D01*
X106212287Y-111978390D01*
X106171524Y-111922284D01*
X106091971Y-111812786D01*
X105947213Y-111668028D01*
X105781614Y-111547715D01*
X105775006Y-111544348D01*
X105688917Y-111500483D01*
X105638123Y-111452511D01*
X105621328Y-111384690D01*
X105643865Y-111318555D01*
X105688917Y-111279516D01*
X105781610Y-111232287D01*
X105802770Y-111216913D01*
X105947213Y-111111971D01*
X105947215Y-111111968D01*
X105947219Y-111111966D01*
X106091966Y-110967219D01*
X106091968Y-110967215D01*
X106091971Y-110967213D01*
X106184087Y-110840424D01*
X106212287Y-110801610D01*
X106305220Y-110619219D01*
X106368477Y-110424534D01*
X106400500Y-110222352D01*
X106400500Y-110017648D01*
X106390560Y-109954890D01*
X106368477Y-109815465D01*
X106318879Y-109662819D01*
X106305220Y-109620781D01*
X106305218Y-109620778D01*
X106305218Y-109620776D01*
X106260567Y-109533145D01*
X106212287Y-109438390D01*
X106201311Y-109423283D01*
X106091971Y-109272786D01*
X105947213Y-109128028D01*
X105781614Y-109007715D01*
X105775006Y-109004348D01*
X105688917Y-108960483D01*
X105638123Y-108912511D01*
X105621328Y-108844690D01*
X105643865Y-108778555D01*
X105688917Y-108739516D01*
X105781610Y-108692287D01*
X105905765Y-108602084D01*
X105947213Y-108571971D01*
X105947215Y-108571968D01*
X105947219Y-108571966D01*
X106091966Y-108427219D01*
X106091968Y-108427215D01*
X106091971Y-108427213D01*
X106176792Y-108310465D01*
X106212287Y-108261610D01*
X106305220Y-108079219D01*
X106368477Y-107884534D01*
X106400500Y-107682352D01*
X106400500Y-107477648D01*
X106390560Y-107414890D01*
X106368477Y-107275465D01*
X106308469Y-107090781D01*
X106305220Y-107080781D01*
X106305218Y-107080778D01*
X106305218Y-107080776D01*
X106269200Y-107010087D01*
X106212287Y-106898390D01*
X106197594Y-106878166D01*
X106091971Y-106732786D01*
X105947213Y-106588028D01*
X105781614Y-106467715D01*
X105775006Y-106464348D01*
X105688917Y-106420483D01*
X105638123Y-106372511D01*
X105621328Y-106304690D01*
X105643865Y-106238555D01*
X105688917Y-106199516D01*
X105781610Y-106152287D01*
X105802770Y-106136913D01*
X105947213Y-106031971D01*
X105947215Y-106031968D01*
X105947219Y-106031966D01*
X106091966Y-105887219D01*
X106091968Y-105887215D01*
X106091971Y-105887213D01*
X106205019Y-105731613D01*
X106212287Y-105721610D01*
X106305220Y-105539219D01*
X106368477Y-105344534D01*
X106400500Y-105142352D01*
X106400500Y-104937648D01*
X106368477Y-104735466D01*
X106305220Y-104540781D01*
X106305218Y-104540778D01*
X106305218Y-104540776D01*
X106230996Y-104395109D01*
X106212287Y-104358390D01*
X106204556Y-104347749D01*
X106091971Y-104192786D01*
X105947219Y-104048034D01*
X105876237Y-103996463D01*
X105853547Y-103979978D01*
X105810882Y-103924649D01*
X105804903Y-103855036D01*
X105837508Y-103793240D01*
X105887426Y-103761955D01*
X105969334Y-103734814D01*
X106118656Y-103642712D01*
X106242712Y-103518656D01*
X106334814Y-103369334D01*
X106389999Y-103202797D01*
X106400500Y-103100009D01*
X106400499Y-101899992D01*
X106389999Y-101797203D01*
X106334814Y-101630666D01*
X106242712Y-101481344D01*
X106118656Y-101357288D01*
X105969334Y-101265186D01*
X105869213Y-101232009D01*
X105802795Y-101210000D01*
X105798533Y-101209088D01*
X105737102Y-101175801D01*
X105703419Y-101114586D01*
X105700500Y-101087837D01*
X105700500Y-100500097D01*
X105720185Y-100433058D01*
X105736819Y-100412416D01*
X106912417Y-99236819D01*
X106973740Y-99203334D01*
X107000098Y-99200500D01*
X110320234Y-99200500D01*
X110387273Y-99220185D01*
X110389125Y-99221398D01*
X110520814Y-99309390D01*
X110520827Y-99309397D01*
X110666498Y-99369735D01*
X110666503Y-99369737D01*
X110821153Y-99400499D01*
X110821156Y-99400500D01*
X110821158Y-99400500D01*
X110978844Y-99400500D01*
X110978845Y-99400499D01*
X111133497Y-99369737D01*
X111279179Y-99309394D01*
X111410289Y-99221789D01*
X111521789Y-99110289D01*
X111568877Y-99039815D01*
X111585042Y-99026306D01*
X111597668Y-99009441D01*
X111611312Y-99004351D01*
X111622487Y-98995013D01*
X111643391Y-98992386D01*
X111663132Y-98985024D01*
X111677361Y-98988119D01*
X111691812Y-98986304D01*
X111710819Y-98995397D01*
X111731405Y-98999876D01*
X111751282Y-99014756D01*
X111754839Y-99016458D01*
X111759659Y-99021027D01*
X111933181Y-99194549D01*
X111966666Y-99255872D01*
X111969500Y-99282230D01*
X111969500Y-101374582D01*
X111949815Y-101441621D01*
X111918385Y-101474900D01*
X111872787Y-101508028D01*
X111872782Y-101508032D01*
X111728028Y-101652786D01*
X111607715Y-101818386D01*
X111514781Y-102000776D01*
X111451522Y-102195465D01*
X111419500Y-102397648D01*
X111419500Y-102602351D01*
X111451522Y-102804534D01*
X111514781Y-102999223D01*
X111566135Y-103100009D01*
X111607585Y-103181359D01*
X111607715Y-103181613D01*
X111728028Y-103347213D01*
X111872786Y-103491971D01*
X111993226Y-103579474D01*
X112038390Y-103612287D01*
X112129840Y-103658883D01*
X112131080Y-103659515D01*
X112181876Y-103707490D01*
X112198671Y-103775311D01*
X112176134Y-103841446D01*
X112131080Y-103880485D01*
X112038386Y-103927715D01*
X111872786Y-104048028D01*
X111728028Y-104192786D01*
X111607715Y-104358386D01*
X111514781Y-104540776D01*
X111451522Y-104735465D01*
X111419500Y-104937648D01*
X111419500Y-105142351D01*
X111451522Y-105344534D01*
X111514781Y-105539223D01*
X111559512Y-105627011D01*
X111596447Y-105699500D01*
X111607715Y-105721613D01*
X111728028Y-105887213D01*
X111872786Y-106031971D01*
X112027749Y-106144556D01*
X112038390Y-106152287D01*
X112129840Y-106198883D01*
X112131080Y-106199515D01*
X112181876Y-106247490D01*
X112198671Y-106315311D01*
X112176134Y-106381446D01*
X112131080Y-106420485D01*
X112038386Y-106467715D01*
X111872786Y-106588028D01*
X111728028Y-106732786D01*
X111607715Y-106898386D01*
X111514781Y-107080776D01*
X111451522Y-107275465D01*
X111419500Y-107477648D01*
X111419500Y-107682351D01*
X111451522Y-107884534D01*
X111514781Y-108079223D01*
X111578691Y-108204653D01*
X111603129Y-108252614D01*
X111607715Y-108261613D01*
X111728028Y-108427213D01*
X111872786Y-108571971D01*
X112027749Y-108684556D01*
X112038390Y-108692287D01*
X112129840Y-108738883D01*
X112131080Y-108739515D01*
X112181876Y-108787490D01*
X112198671Y-108855311D01*
X112176134Y-108921446D01*
X112131080Y-108960485D01*
X112038386Y-109007715D01*
X111872786Y-109128028D01*
X111728028Y-109272786D01*
X111607715Y-109438386D01*
X111514781Y-109620776D01*
X111451522Y-109815465D01*
X111419500Y-110017648D01*
X111419500Y-110222351D01*
X111451522Y-110424534D01*
X111514781Y-110619223D01*
X111549758Y-110687868D01*
X111604675Y-110795648D01*
X111607715Y-110801613D01*
X111728028Y-110967213D01*
X111872786Y-111111971D01*
X112020465Y-111219264D01*
X112038390Y-111232287D01*
X112129840Y-111278883D01*
X112131080Y-111279515D01*
X112181876Y-111327490D01*
X112198671Y-111395311D01*
X112176134Y-111461446D01*
X112131080Y-111500485D01*
X112038386Y-111547715D01*
X111872786Y-111668028D01*
X111728028Y-111812786D01*
X111607715Y-111978386D01*
X111514781Y-112160776D01*
X111451522Y-112355465D01*
X111419500Y-112557648D01*
X111419500Y-112762351D01*
X111451522Y-112964534D01*
X111514781Y-113159223D01*
X111567751Y-113263181D01*
X111607109Y-113340425D01*
X111607715Y-113341613D01*
X111728028Y-113507213D01*
X111872786Y-113651971D01*
X112015167Y-113755415D01*
X112038390Y-113772287D01*
X112129840Y-113818883D01*
X112131080Y-113819515D01*
X112181876Y-113867490D01*
X112198671Y-113935311D01*
X112176134Y-114001446D01*
X112131080Y-114040485D01*
X112038386Y-114087715D01*
X111872786Y-114208028D01*
X111728028Y-114352786D01*
X111607715Y-114518386D01*
X111514781Y-114700776D01*
X111451522Y-114895465D01*
X111419500Y-115097648D01*
X111419500Y-115302351D01*
X111451522Y-115504534D01*
X111514781Y-115699223D01*
X111578691Y-115824653D01*
X111606798Y-115879815D01*
X111607715Y-115881613D01*
X111728028Y-116047213D01*
X111872786Y-116191971D01*
X112027749Y-116304556D01*
X112038390Y-116312287D01*
X112129840Y-116358883D01*
X112131080Y-116359515D01*
X112181876Y-116407490D01*
X112198671Y-116475311D01*
X112176134Y-116541446D01*
X112131080Y-116580485D01*
X112038386Y-116627715D01*
X111872786Y-116748028D01*
X111728028Y-116892786D01*
X111607715Y-117058386D01*
X111514781Y-117240776D01*
X111451522Y-117435465D01*
X111419500Y-117637648D01*
X111419500Y-117842351D01*
X111451522Y-118044534D01*
X111514781Y-118239223D01*
X111559512Y-118327011D01*
X111596447Y-118399500D01*
X111607715Y-118421613D01*
X111728028Y-118587213D01*
X111872786Y-118731971D01*
X112027749Y-118844556D01*
X112038390Y-118852287D01*
X112129840Y-118898883D01*
X112131080Y-118899515D01*
X112181876Y-118947490D01*
X112198671Y-119015311D01*
X112176134Y-119081446D01*
X112131080Y-119120485D01*
X112038386Y-119167715D01*
X111872786Y-119288028D01*
X111728028Y-119432786D01*
X111607715Y-119598386D01*
X111514781Y-119780776D01*
X111451522Y-119975465D01*
X111419500Y-120177648D01*
X111419500Y-120382351D01*
X111451522Y-120584534D01*
X111514781Y-120779223D01*
X111578691Y-120904653D01*
X111603129Y-120952614D01*
X111607715Y-120961613D01*
X111728028Y-121127213D01*
X111872786Y-121271971D01*
X112010599Y-121372096D01*
X112038390Y-121392287D01*
X112129840Y-121438883D01*
X112131080Y-121439515D01*
X112181876Y-121487490D01*
X112198671Y-121555311D01*
X112176134Y-121621446D01*
X112131080Y-121660485D01*
X112038386Y-121707715D01*
X111872786Y-121828028D01*
X111728028Y-121972786D01*
X111607715Y-122138386D01*
X111514781Y-122320776D01*
X111451522Y-122515465D01*
X111419500Y-122717648D01*
X111419500Y-122922351D01*
X111451522Y-123124534D01*
X111514781Y-123319223D01*
X111569703Y-123427011D01*
X111606637Y-123499499D01*
X111607715Y-123501613D01*
X111728028Y-123667213D01*
X111872786Y-123811971D01*
X112027749Y-123924556D01*
X112038390Y-123932287D01*
X112129840Y-123978883D01*
X112131080Y-123979515D01*
X112181876Y-124027490D01*
X112198671Y-124095311D01*
X112176134Y-124161446D01*
X112131080Y-124200485D01*
X112038386Y-124247715D01*
X111872786Y-124368028D01*
X111728028Y-124512786D01*
X111607715Y-124678386D01*
X111514781Y-124860776D01*
X111451522Y-125055465D01*
X111419500Y-125257648D01*
X111419500Y-125462351D01*
X111451522Y-125664534D01*
X111514781Y-125859223D01*
X111566140Y-125960019D01*
X111607585Y-126041359D01*
X111607715Y-126041613D01*
X111728028Y-126207213D01*
X111872786Y-126351971D01*
X111993226Y-126439474D01*
X112038390Y-126472287D01*
X112132142Y-126520056D01*
X112220776Y-126565218D01*
X112220778Y-126565218D01*
X112220781Y-126565220D01*
X112311856Y-126594812D01*
X112415465Y-126628477D01*
X112478602Y-126638477D01*
X112617648Y-126660500D01*
X112617649Y-126660500D01*
X112822351Y-126660500D01*
X112822352Y-126660500D01*
X113024534Y-126628477D01*
X113219219Y-126565220D01*
X113401610Y-126472287D01*
X113530482Y-126378657D01*
X113567213Y-126351971D01*
X113567215Y-126351968D01*
X113567219Y-126351966D01*
X113711966Y-126207219D01*
X113711968Y-126207215D01*
X113711971Y-126207213D01*
X113776269Y-126118713D01*
X113832287Y-126041610D01*
X113925220Y-125859219D01*
X113988477Y-125664534D01*
X114020500Y-125462352D01*
X114020500Y-125257648D01*
X113998549Y-125119058D01*
X113988477Y-125055465D01*
X113928469Y-124870781D01*
X113925220Y-124860781D01*
X113925218Y-124860778D01*
X113925218Y-124860776D01*
X113890672Y-124792977D01*
X113832287Y-124678390D01*
X113800092Y-124634077D01*
X113711971Y-124512786D01*
X113567213Y-124368028D01*
X113401614Y-124247715D01*
X113395006Y-124244348D01*
X113308917Y-124200483D01*
X113258123Y-124152511D01*
X113241328Y-124084690D01*
X113263865Y-124018555D01*
X113308917Y-123979516D01*
X113401610Y-123932287D01*
X113532398Y-123837265D01*
X113567213Y-123811971D01*
X113567215Y-123811968D01*
X113567219Y-123811966D01*
X113711966Y-123667219D01*
X113711968Y-123667215D01*
X113711971Y-123667213D01*
X113783064Y-123569360D01*
X113832287Y-123501610D01*
X113925220Y-123319219D01*
X113988477Y-123124534D01*
X114020500Y-122922352D01*
X114020500Y-122717648D01*
X114004448Y-122616302D01*
X113988478Y-122515472D01*
X113988477Y-122515471D01*
X113988477Y-122515466D01*
X113983825Y-122501151D01*
X113981832Y-122431312D01*
X114014075Y-122375158D01*
X117108520Y-119280716D01*
X117187577Y-119143784D01*
X117228501Y-118991057D01*
X117228501Y-118832942D01*
X117228501Y-118825347D01*
X117228500Y-118825329D01*
X117228500Y-79057060D01*
X117228501Y-79057047D01*
X117228501Y-78888944D01*
X117228501Y-78888943D01*
X117187577Y-78736216D01*
X117150976Y-78672820D01*
X117108524Y-78599290D01*
X117108518Y-78599282D01*
X115572055Y-77062819D01*
X114014076Y-75504841D01*
X113980592Y-75443519D01*
X113983828Y-75378841D01*
X113988477Y-75364534D01*
X114020500Y-75162352D01*
X114020500Y-74957648D01*
X113988477Y-74755466D01*
X113981978Y-74735465D01*
X113925218Y-74560776D01*
X113890672Y-74492977D01*
X113832287Y-74378390D01*
X113788692Y-74318386D01*
X113711971Y-74212786D01*
X113567213Y-74068028D01*
X113401611Y-73947713D01*
X113308369Y-73900203D01*
X113257574Y-73852229D01*
X113240779Y-73784407D01*
X113263317Y-73718273D01*
X113308371Y-73679234D01*
X113401346Y-73631861D01*
X113401347Y-73631861D01*
X113445921Y-73599474D01*
X112766447Y-72920000D01*
X112772661Y-72920000D01*
X112874394Y-72892741D01*
X112965606Y-72840080D01*
X113040080Y-72765606D01*
X113092741Y-72674394D01*
X113120000Y-72572661D01*
X113120000Y-72566447D01*
X113799474Y-73245921D01*
X113831859Y-73201349D01*
X113924755Y-73019031D01*
X113987990Y-72824417D01*
X114020000Y-72622317D01*
X114020000Y-72417682D01*
X113987990Y-72215582D01*
X113924755Y-72020968D01*
X113831859Y-71838650D01*
X113799474Y-71794077D01*
X113799474Y-71794076D01*
X113120000Y-72473551D01*
X113120000Y-72467339D01*
X113092741Y-72365606D01*
X113040080Y-72274394D01*
X112965606Y-72199920D01*
X112874394Y-72147259D01*
X112772661Y-72120000D01*
X112766446Y-72120000D01*
X113445922Y-71440524D01*
X113445921Y-71440523D01*
X113401359Y-71408147D01*
X113401350Y-71408141D01*
X113219031Y-71315244D01*
X113024417Y-71252009D01*
X112822317Y-71220000D01*
X112617683Y-71220000D01*
X112415582Y-71252009D01*
X112220968Y-71315244D01*
X112038644Y-71408143D01*
X111994077Y-71440523D01*
X111994077Y-71440524D01*
X112673554Y-72120000D01*
X112667339Y-72120000D01*
X112565606Y-72147259D01*
X112474394Y-72199920D01*
X112399920Y-72274394D01*
X112347259Y-72365606D01*
X112320000Y-72467339D01*
X112320000Y-72473553D01*
X111640524Y-71794077D01*
X111640523Y-71794077D01*
X111608143Y-71838644D01*
X111515244Y-72020968D01*
X111452009Y-72215582D01*
X111420000Y-72417682D01*
X111420000Y-72622317D01*
X111452009Y-72824417D01*
X111515244Y-73019031D01*
X111608141Y-73201350D01*
X111608147Y-73201359D01*
X111640523Y-73245921D01*
X111640524Y-73245922D01*
X112320000Y-72566446D01*
X112320000Y-72572661D01*
X112347259Y-72674394D01*
X112399920Y-72765606D01*
X112474394Y-72840080D01*
X112565606Y-72892741D01*
X112667339Y-72920000D01*
X112673553Y-72920000D01*
X111994076Y-73599474D01*
X112038652Y-73631861D01*
X112131628Y-73679234D01*
X112182425Y-73727208D01*
X112199220Y-73795029D01*
X112176683Y-73861164D01*
X112131630Y-73900203D01*
X112038388Y-73947713D01*
X111872786Y-74068028D01*
X111728028Y-74212786D01*
X111607715Y-74378386D01*
X111514781Y-74560776D01*
X111451522Y-74755465D01*
X111419500Y-74957648D01*
X111419500Y-75162351D01*
X111451523Y-75364534D01*
X111456172Y-75378843D01*
X111456606Y-75394055D01*
X111461925Y-75408315D01*
X111457583Y-75428270D01*
X111458167Y-75448684D01*
X111450078Y-75462770D01*
X111447073Y-75476588D01*
X111425925Y-75504838D01*
X111267582Y-75663182D01*
X111206261Y-75696666D01*
X111179903Y-75699500D01*
X106430311Y-75699500D01*
X106363272Y-75679815D01*
X106317517Y-75627011D01*
X106307573Y-75557853D01*
X106312380Y-75537182D01*
X106368477Y-75364534D01*
X106400500Y-75162352D01*
X106400500Y-74957648D01*
X106368477Y-74755466D01*
X106361978Y-74735465D01*
X106305218Y-74560776D01*
X106270672Y-74492977D01*
X106212287Y-74378390D01*
X106168692Y-74318386D01*
X106091971Y-74212786D01*
X105947213Y-74068028D01*
X105781614Y-73947715D01*
X105775006Y-73944348D01*
X105688917Y-73900483D01*
X105638123Y-73852511D01*
X105621328Y-73784690D01*
X105643865Y-73718555D01*
X105688917Y-73679516D01*
X105781610Y-73632287D01*
X105847995Y-73584056D01*
X105947213Y-73511971D01*
X105947215Y-73511968D01*
X105947219Y-73511966D01*
X106091966Y-73367219D01*
X106091968Y-73367215D01*
X106091971Y-73367213D01*
X106171309Y-73258012D01*
X106212287Y-73201610D01*
X106305220Y-73019219D01*
X106368477Y-72824534D01*
X106400500Y-72622352D01*
X106400500Y-72417648D01*
X106390997Y-72357648D01*
X106368477Y-72215465D01*
X106316389Y-72055156D01*
X106305220Y-72020781D01*
X106305218Y-72020778D01*
X106305218Y-72020776D01*
X106271503Y-71954607D01*
X106212287Y-71838390D01*
X106180092Y-71794077D01*
X106091971Y-71672786D01*
X105947213Y-71528028D01*
X105781613Y-71407715D01*
X105781612Y-71407714D01*
X105781610Y-71407713D01*
X105717611Y-71375104D01*
X105599223Y-71314781D01*
X105404534Y-71251522D01*
X105229995Y-71223878D01*
X105202352Y-71219500D01*
X104997648Y-71219500D01*
X104973329Y-71223351D01*
X104795465Y-71251522D01*
X104600776Y-71314781D01*
X104418386Y-71407715D01*
X104252786Y-71528028D01*
X104108028Y-71672786D01*
X103987715Y-71838386D01*
X103894781Y-72020776D01*
X103831522Y-72215465D01*
X103799500Y-72417648D01*
X103799500Y-72622351D01*
X103831522Y-72824534D01*
X103894781Y-73019223D01*
X103929762Y-73087875D01*
X103987585Y-73201359D01*
X103987715Y-73201613D01*
X104108028Y-73367213D01*
X104252786Y-73511971D01*
X104373226Y-73599474D01*
X104418390Y-73632287D01*
X104487480Y-73667490D01*
X104511080Y-73679515D01*
X104561876Y-73727490D01*
X104578671Y-73795311D01*
X104556134Y-73861446D01*
X104511080Y-73900485D01*
X104418386Y-73947715D01*
X104252786Y-74068028D01*
X104108028Y-74212786D01*
X103987715Y-74378386D01*
X103894781Y-74560776D01*
X103831522Y-74755465D01*
X103799500Y-74957648D01*
X103799500Y-75162351D01*
X103831522Y-75364534D01*
X103863442Y-75462770D01*
X103887620Y-75537182D01*
X103889615Y-75607023D01*
X103853535Y-75666856D01*
X103790834Y-75697684D01*
X103769689Y-75699500D01*
X97260097Y-75699500D01*
X97193058Y-75679815D01*
X97172416Y-75663181D01*
X96994077Y-75484842D01*
X96960592Y-75423519D01*
X96963828Y-75358841D01*
X96968477Y-75344534D01*
X97000500Y-75142352D01*
X97000500Y-74937648D01*
X96968477Y-74735465D01*
X96939127Y-74645137D01*
X96905220Y-74540781D01*
X96905218Y-74540778D01*
X96905218Y-74540776D01*
X96864298Y-74460467D01*
X96812287Y-74358390D01*
X96783222Y-74318385D01*
X96691971Y-74192786D01*
X96547213Y-74048028D01*
X96381611Y-73927713D01*
X96288369Y-73880203D01*
X96237574Y-73832229D01*
X96220779Y-73764407D01*
X96243317Y-73698273D01*
X96288371Y-73659234D01*
X96381346Y-73611861D01*
X96381347Y-73611861D01*
X96425921Y-73579474D01*
X95746447Y-72900000D01*
X95752661Y-72900000D01*
X95854394Y-72872741D01*
X95945606Y-72820080D01*
X96020080Y-72745606D01*
X96072741Y-72654394D01*
X96100000Y-72552661D01*
X96100000Y-72546447D01*
X96779474Y-73225921D01*
X96811859Y-73181349D01*
X96904755Y-72999031D01*
X96967990Y-72804417D01*
X97000000Y-72602317D01*
X97000000Y-72397682D01*
X96967990Y-72195582D01*
X96904755Y-72000968D01*
X96811859Y-71818650D01*
X96779474Y-71774077D01*
X96779474Y-71774076D01*
X96100000Y-72453551D01*
X96100000Y-72447339D01*
X96072741Y-72345606D01*
X96020080Y-72254394D01*
X95945606Y-72179920D01*
X95854394Y-72127259D01*
X95752661Y-72100000D01*
X95746446Y-72100000D01*
X96425922Y-71420524D01*
X96425921Y-71420523D01*
X96381359Y-71388147D01*
X96381350Y-71388141D01*
X96199031Y-71295244D01*
X96004417Y-71232009D01*
X95802317Y-71200000D01*
X95597683Y-71200000D01*
X95395582Y-71232009D01*
X95200968Y-71295244D01*
X95018644Y-71388143D01*
X94974077Y-71420523D01*
X94974077Y-71420524D01*
X95653554Y-72100000D01*
X95647339Y-72100000D01*
X95545606Y-72127259D01*
X95454394Y-72179920D01*
X95379920Y-72254394D01*
X95327259Y-72345606D01*
X95300000Y-72447339D01*
X95300000Y-72453553D01*
X94620524Y-71774077D01*
X94620523Y-71774077D01*
X94588143Y-71818644D01*
X94495244Y-72000968D01*
X94432009Y-72195582D01*
X94400000Y-72397682D01*
X94400000Y-72602317D01*
X94432009Y-72804417D01*
X94495244Y-72999031D01*
X94588141Y-73181350D01*
X94588147Y-73181359D01*
X94620523Y-73225921D01*
X94620524Y-73225922D01*
X95300000Y-72546446D01*
X95300000Y-72552661D01*
X95327259Y-72654394D01*
X95379920Y-72745606D01*
X95454394Y-72820080D01*
X95545606Y-72872741D01*
X95647339Y-72900000D01*
X95653553Y-72900000D01*
X94974076Y-73579474D01*
X95018652Y-73611861D01*
X95111628Y-73659234D01*
X95162425Y-73707208D01*
X95179220Y-73775029D01*
X95156683Y-73841164D01*
X95111630Y-73880203D01*
X95018388Y-73927713D01*
X94852786Y-74048028D01*
X94708030Y-74192784D01*
X94681427Y-74229400D01*
X94626096Y-74272065D01*
X94556483Y-74278043D01*
X94494688Y-74245436D01*
X94493429Y-74244194D01*
X93687590Y-73438355D01*
X93687588Y-73438352D01*
X93568717Y-73319481D01*
X93568716Y-73319480D01*
X93462252Y-73258013D01*
X93462250Y-73258012D01*
X93431785Y-73240423D01*
X93431784Y-73240422D01*
X93431783Y-73240422D01*
X93375881Y-73225443D01*
X93279057Y-73199499D01*
X93120943Y-73199499D01*
X93113347Y-73199499D01*
X93113331Y-73199500D01*
X89385522Y-73199500D01*
X89318483Y-73179815D01*
X89272728Y-73127011D01*
X89262784Y-73057853D01*
X89275037Y-73019206D01*
X89285217Y-72999226D01*
X89285217Y-72999222D01*
X89285220Y-72999219D01*
X89348477Y-72804534D01*
X89380500Y-72602352D01*
X89380500Y-72397648D01*
X89348478Y-72195472D01*
X89348477Y-72195471D01*
X89348477Y-72195466D01*
X89343825Y-72181151D01*
X89341832Y-72111312D01*
X89374075Y-72055158D01*
X93968713Y-67460521D01*
X93968716Y-67460520D01*
X94080520Y-67348716D01*
X94130639Y-67261904D01*
X94159577Y-67211785D01*
X94200501Y-67059057D01*
X94200501Y-66900943D01*
X94200501Y-66893348D01*
X94200500Y-66893330D01*
X94200500Y-62132162D01*
X94220185Y-62065123D01*
X94272989Y-62019368D01*
X94298552Y-62010907D01*
X94302788Y-62009999D01*
X94302797Y-62009999D01*
X94469334Y-61954814D01*
X94618656Y-61862712D01*
X94742712Y-61738656D01*
X94834814Y-61589334D01*
X94861955Y-61507427D01*
X94901726Y-61449984D01*
X94966242Y-61423161D01*
X95035018Y-61435476D01*
X95079977Y-61473547D01*
X95137136Y-61552219D01*
X95148034Y-61567219D01*
X95292786Y-61711971D01*
X95413226Y-61799474D01*
X95458390Y-61832287D01*
X95574607Y-61891503D01*
X95640776Y-61925218D01*
X95640778Y-61925218D01*
X95640781Y-61925220D01*
X95731856Y-61954812D01*
X95835465Y-61988477D01*
X95936557Y-62004488D01*
X96037648Y-62020500D01*
X96037649Y-62020500D01*
X96242351Y-62020500D01*
X96242352Y-62020500D01*
X96444534Y-61988477D01*
X96639219Y-61925220D01*
X96821610Y-61832287D01*
X96950482Y-61738657D01*
X96987213Y-61711971D01*
X96987215Y-61711968D01*
X96987219Y-61711966D01*
X97131966Y-61567219D01*
X97131968Y-61567215D01*
X97131971Y-61567213D01*
X97252284Y-61401614D01*
X97252286Y-61401611D01*
X97252287Y-61401610D01*
X97299516Y-61308917D01*
X97347489Y-61258123D01*
X97415310Y-61241328D01*
X97481445Y-61263865D01*
X97520483Y-61308917D01*
X97526140Y-61320018D01*
X97567715Y-61401614D01*
X97688028Y-61567213D01*
X97832786Y-61711971D01*
X97953226Y-61799474D01*
X97998390Y-61832287D01*
X98114607Y-61891503D01*
X98180776Y-61925218D01*
X98180778Y-61925218D01*
X98180781Y-61925220D01*
X98271856Y-61954812D01*
X98375465Y-61988477D01*
X98476557Y-62004488D01*
X98577648Y-62020500D01*
X98577649Y-62020500D01*
X98782351Y-62020500D01*
X98782352Y-62020500D01*
X98984534Y-61988477D01*
X99179219Y-61925220D01*
X99361610Y-61832287D01*
X99490482Y-61738657D01*
X99527213Y-61711971D01*
X99527215Y-61711968D01*
X99527219Y-61711966D01*
X99671966Y-61567219D01*
X99671968Y-61567215D01*
X99671971Y-61567213D01*
X99792284Y-61401614D01*
X99792286Y-61401611D01*
X99792287Y-61401610D01*
X99839516Y-61308917D01*
X99887489Y-61258123D01*
X99955310Y-61241328D01*
X100021445Y-61263865D01*
X100060483Y-61308917D01*
X100066140Y-61320018D01*
X100107715Y-61401614D01*
X100228028Y-61567213D01*
X100372786Y-61711971D01*
X100493226Y-61799474D01*
X100538390Y-61832287D01*
X100654607Y-61891503D01*
X100720776Y-61925218D01*
X100720778Y-61925218D01*
X100720781Y-61925220D01*
X100811856Y-61954812D01*
X100915465Y-61988477D01*
X101016557Y-62004488D01*
X101117648Y-62020500D01*
X101117649Y-62020500D01*
X101322351Y-62020500D01*
X101322352Y-62020500D01*
X101524534Y-61988477D01*
X101719219Y-61925220D01*
X101901610Y-61832287D01*
X102030482Y-61738657D01*
X102067213Y-61711971D01*
X102067215Y-61711968D01*
X102067219Y-61711966D01*
X102211966Y-61567219D01*
X102211968Y-61567215D01*
X102211971Y-61567213D01*
X102332284Y-61401614D01*
X102332286Y-61401611D01*
X102332287Y-61401610D01*
X102379516Y-61308917D01*
X102427489Y-61258123D01*
X102495310Y-61241328D01*
X102561445Y-61263865D01*
X102600483Y-61308917D01*
X102606140Y-61320018D01*
X102647715Y-61401614D01*
X102768028Y-61567213D01*
X102912786Y-61711971D01*
X103033226Y-61799474D01*
X103078390Y-61832287D01*
X103194607Y-61891503D01*
X103260776Y-61925218D01*
X103260778Y-61925218D01*
X103260781Y-61925220D01*
X103351856Y-61954812D01*
X103455465Y-61988477D01*
X103556557Y-62004488D01*
X103657648Y-62020500D01*
X103657649Y-62020500D01*
X103862351Y-62020500D01*
X103862352Y-62020500D01*
X104064534Y-61988477D01*
X104259219Y-61925220D01*
X104441610Y-61832287D01*
X104570482Y-61738657D01*
X104607213Y-61711971D01*
X104607215Y-61711968D01*
X104607219Y-61711966D01*
X104751966Y-61567219D01*
X104751968Y-61567215D01*
X104751971Y-61567213D01*
X104872284Y-61401614D01*
X104872286Y-61401611D01*
X104872287Y-61401610D01*
X104919516Y-61308917D01*
X104967489Y-61258123D01*
X105035310Y-61241328D01*
X105101445Y-61263865D01*
X105140483Y-61308917D01*
X105146140Y-61320018D01*
X105187715Y-61401614D01*
X105308028Y-61567213D01*
X105452786Y-61711971D01*
X105573226Y-61799474D01*
X105618390Y-61832287D01*
X105734607Y-61891503D01*
X105800776Y-61925218D01*
X105800778Y-61925218D01*
X105800781Y-61925220D01*
X105891856Y-61954812D01*
X105995465Y-61988477D01*
X106096557Y-62004488D01*
X106197648Y-62020500D01*
X106197649Y-62020500D01*
X106402351Y-62020500D01*
X106402352Y-62020500D01*
X106604534Y-61988477D01*
X106799219Y-61925220D01*
X106981610Y-61832287D01*
X107110482Y-61738657D01*
X107147213Y-61711971D01*
X107147215Y-61711968D01*
X107147219Y-61711966D01*
X107291966Y-61567219D01*
X107291968Y-61567215D01*
X107291971Y-61567213D01*
X107396894Y-61422797D01*
X107412287Y-61401610D01*
X107459795Y-61308369D01*
X107507769Y-61257573D01*
X107575590Y-61240778D01*
X107641725Y-61263315D01*
X107680765Y-61308369D01*
X107728141Y-61401350D01*
X107728147Y-61401359D01*
X107760523Y-61445921D01*
X107760524Y-61445922D01*
X108440000Y-60766446D01*
X108440000Y-60772661D01*
X108467259Y-60874394D01*
X108519920Y-60965606D01*
X108594394Y-61040080D01*
X108685606Y-61092741D01*
X108787339Y-61120000D01*
X108793553Y-61120000D01*
X108114076Y-61799474D01*
X108158650Y-61831859D01*
X108340968Y-61924755D01*
X108535582Y-61987990D01*
X108737683Y-62020000D01*
X108942317Y-62020000D01*
X109144417Y-61987990D01*
X109339031Y-61924755D01*
X109521349Y-61831859D01*
X109565921Y-61799474D01*
X108886447Y-61120000D01*
X108892661Y-61120000D01*
X108994394Y-61092741D01*
X109085606Y-61040080D01*
X109160080Y-60965606D01*
X109212741Y-60874394D01*
X109240000Y-60772661D01*
X109240000Y-60766447D01*
X109919474Y-61445921D01*
X109951859Y-61401349D01*
X110044755Y-61219031D01*
X110107990Y-61024417D01*
X110140000Y-60822317D01*
X110140000Y-60617682D01*
X110107990Y-60415582D01*
X110044755Y-60220968D01*
X109951859Y-60038650D01*
X109919474Y-59994077D01*
X109919474Y-59994076D01*
X109240000Y-60673551D01*
X109240000Y-60667339D01*
X109212741Y-60565606D01*
X109160080Y-60474394D01*
X109085606Y-60399920D01*
X108994394Y-60347259D01*
X108892661Y-60320000D01*
X108886446Y-60320000D01*
X109565922Y-59640524D01*
X109565921Y-59640523D01*
X109521359Y-59608147D01*
X109521350Y-59608141D01*
X109339031Y-59515244D01*
X109144417Y-59452009D01*
X108942317Y-59420000D01*
X108737683Y-59420000D01*
X108535582Y-59452009D01*
X108340968Y-59515244D01*
X108158644Y-59608143D01*
X108114077Y-59640523D01*
X108114077Y-59640524D01*
X108793554Y-60320000D01*
X108787339Y-60320000D01*
X108685606Y-60347259D01*
X108594394Y-60399920D01*
X108519920Y-60474394D01*
X108467259Y-60565606D01*
X108440000Y-60667339D01*
X108440000Y-60673553D01*
X107760524Y-59994077D01*
X107760523Y-59994077D01*
X107728143Y-60038644D01*
X107680765Y-60131630D01*
X107632790Y-60182426D01*
X107564969Y-60199221D01*
X107498834Y-60176683D01*
X107459795Y-60131630D01*
X107448830Y-60110110D01*
X107412287Y-60038390D01*
X107412285Y-60038387D01*
X107412284Y-60038385D01*
X107291971Y-59872786D01*
X107147213Y-59728028D01*
X106981613Y-59607715D01*
X106981612Y-59607714D01*
X106981610Y-59607713D01*
X106921898Y-59577288D01*
X106799223Y-59514781D01*
X106604534Y-59451522D01*
X106429995Y-59423878D01*
X106402352Y-59419500D01*
X106197648Y-59419500D01*
X106173329Y-59423351D01*
X105995465Y-59451522D01*
X105800776Y-59514781D01*
X105618386Y-59607715D01*
X105452786Y-59728028D01*
X105308028Y-59872786D01*
X105187715Y-60038386D01*
X105140485Y-60131080D01*
X105092510Y-60181876D01*
X105024689Y-60198671D01*
X104958554Y-60176134D01*
X104919515Y-60131080D01*
X104908830Y-60110110D01*
X104872287Y-60038390D01*
X104861578Y-60023650D01*
X104751971Y-59872786D01*
X104607213Y-59728028D01*
X104441613Y-59607715D01*
X104441612Y-59607714D01*
X104441610Y-59607713D01*
X104381898Y-59577288D01*
X104259223Y-59514781D01*
X104064534Y-59451522D01*
X103889995Y-59423878D01*
X103862352Y-59419500D01*
X103657648Y-59419500D01*
X103633329Y-59423351D01*
X103455465Y-59451522D01*
X103260776Y-59514781D01*
X103078386Y-59607715D01*
X102912786Y-59728028D01*
X102768028Y-59872786D01*
X102647715Y-60038386D01*
X102600485Y-60131080D01*
X102552510Y-60181876D01*
X102484689Y-60198671D01*
X102418554Y-60176134D01*
X102379515Y-60131080D01*
X102368830Y-60110110D01*
X102332287Y-60038390D01*
X102321578Y-60023650D01*
X102211971Y-59872786D01*
X102067213Y-59728028D01*
X101901613Y-59607715D01*
X101901612Y-59607714D01*
X101901610Y-59607713D01*
X101841898Y-59577288D01*
X101719223Y-59514781D01*
X101524534Y-59451522D01*
X101349995Y-59423878D01*
X101322352Y-59419500D01*
X101117648Y-59419500D01*
X101093329Y-59423351D01*
X100915465Y-59451522D01*
X100720776Y-59514781D01*
X100538386Y-59607715D01*
X100372786Y-59728028D01*
X100228028Y-59872786D01*
X100107715Y-60038386D01*
X100060485Y-60131080D01*
X100012510Y-60181876D01*
X99944689Y-60198671D01*
X99878554Y-60176134D01*
X99839515Y-60131080D01*
X99828830Y-60110110D01*
X99792287Y-60038390D01*
X99781578Y-60023650D01*
X99671971Y-59872786D01*
X99527213Y-59728028D01*
X99361613Y-59607715D01*
X99361612Y-59607714D01*
X99361610Y-59607713D01*
X99301898Y-59577288D01*
X99179223Y-59514781D01*
X98984534Y-59451522D01*
X98809995Y-59423878D01*
X98782352Y-59419500D01*
X98577648Y-59419500D01*
X98553329Y-59423351D01*
X98375465Y-59451522D01*
X98180776Y-59514781D01*
X97998386Y-59607715D01*
X97832786Y-59728028D01*
X97688028Y-59872786D01*
X97567715Y-60038386D01*
X97520485Y-60131080D01*
X97472510Y-60181876D01*
X97404689Y-60198671D01*
X97338554Y-60176134D01*
X97299515Y-60131080D01*
X97288830Y-60110110D01*
X97252287Y-60038390D01*
X97241578Y-60023650D01*
X97131971Y-59872786D01*
X96987213Y-59728028D01*
X96821613Y-59607715D01*
X96821612Y-59607714D01*
X96821610Y-59607713D01*
X96761898Y-59577288D01*
X96639223Y-59514781D01*
X96444534Y-59451522D01*
X96269995Y-59423878D01*
X96242352Y-59419500D01*
X96037648Y-59419500D01*
X96013329Y-59423351D01*
X95835465Y-59451522D01*
X95640776Y-59514781D01*
X95458386Y-59607715D01*
X95292786Y-59728028D01*
X95148032Y-59872782D01*
X95148028Y-59872787D01*
X95079978Y-59966451D01*
X95024648Y-60009117D01*
X94955035Y-60015096D01*
X94893240Y-59982490D01*
X94861954Y-59932570D01*
X94834814Y-59850666D01*
X94742712Y-59701344D01*
X94618656Y-59577288D01*
X94509504Y-59509963D01*
X94469336Y-59485187D01*
X94469331Y-59485185D01*
X94467862Y-59484698D01*
X94302797Y-59430001D01*
X94302795Y-59430000D01*
X94200010Y-59419500D01*
X92999998Y-59419500D01*
X92999981Y-59419501D01*
X92897203Y-59430000D01*
X92897200Y-59430001D01*
X92730668Y-59485185D01*
X92730663Y-59485187D01*
X92581342Y-59577289D01*
X92457289Y-59701342D01*
X92365187Y-59850663D01*
X92365185Y-59850668D01*
X92344697Y-59912498D01*
X92310001Y-60017203D01*
X92310001Y-60017204D01*
X92310000Y-60017204D01*
X92299500Y-60119983D01*
X92299500Y-61320001D01*
X92299501Y-61320018D01*
X92310000Y-61422796D01*
X92310001Y-61422799D01*
X92352887Y-61552219D01*
X92365186Y-61589334D01*
X92457288Y-61738656D01*
X92581344Y-61862712D01*
X92730666Y-61954814D01*
X92897203Y-62009999D01*
X92897209Y-62009999D01*
X92901448Y-62010907D01*
X92962884Y-62044185D01*
X92996576Y-62105394D01*
X92999500Y-62132162D01*
X92999500Y-66679902D01*
X92979815Y-66746941D01*
X92963181Y-66767583D01*
X88524842Y-71205921D01*
X88463519Y-71239406D01*
X88398848Y-71236173D01*
X88384534Y-71231522D01*
X88209995Y-71203878D01*
X88182352Y-71199500D01*
X87977648Y-71199500D01*
X87953329Y-71203351D01*
X87775465Y-71231522D01*
X87580776Y-71294781D01*
X87398386Y-71387715D01*
X87232786Y-71508028D01*
X87088028Y-71652786D01*
X86967715Y-71818386D01*
X86874781Y-72000776D01*
X86811522Y-72195465D01*
X86779500Y-72397648D01*
X86779500Y-72602351D01*
X86811522Y-72804534D01*
X86874782Y-72999226D01*
X86884963Y-73019206D01*
X86897859Y-73087875D01*
X86871582Y-73152616D01*
X86814475Y-73192872D01*
X86774478Y-73199500D01*
X83479057Y-73199500D01*
X83320942Y-73199500D01*
X83168215Y-73240423D01*
X83137749Y-73258013D01*
X83084516Y-73288746D01*
X83031285Y-73319479D01*
X83031282Y-73319481D01*
X82947352Y-73403412D01*
X82919480Y-73431284D01*
X82919478Y-73431286D01*
X82435656Y-73915109D01*
X81987584Y-74363181D01*
X81926261Y-74396666D01*
X81899903Y-74399500D01*
X78949602Y-74399500D01*
X78882563Y-74379815D01*
X78839117Y-74331795D01*
X78832284Y-74318385D01*
X78711971Y-74152786D01*
X78567213Y-74008028D01*
X78401611Y-73887713D01*
X78308369Y-73840203D01*
X78257574Y-73792229D01*
X78240779Y-73724407D01*
X78263317Y-73658273D01*
X78308371Y-73619234D01*
X78401346Y-73571861D01*
X78401347Y-73571861D01*
X78445921Y-73539474D01*
X77766447Y-72860000D01*
X77772661Y-72860000D01*
X77874394Y-72832741D01*
X77965606Y-72780080D01*
X78040080Y-72705606D01*
X78092741Y-72614394D01*
X78120000Y-72512661D01*
X78120000Y-72506448D01*
X78799474Y-73185922D01*
X78799474Y-73185921D01*
X78831859Y-73141349D01*
X78924755Y-72959031D01*
X78987990Y-72764417D01*
X79020000Y-72562317D01*
X79020000Y-72357682D01*
X78987990Y-72155582D01*
X78924755Y-71960968D01*
X78831859Y-71778650D01*
X78799474Y-71734077D01*
X78799474Y-71734076D01*
X78120000Y-72413551D01*
X78120000Y-72407339D01*
X78092741Y-72305606D01*
X78040080Y-72214394D01*
X77965606Y-72139920D01*
X77874394Y-72087259D01*
X77772661Y-72060000D01*
X77766446Y-72060000D01*
X78445922Y-71380524D01*
X78445921Y-71380523D01*
X78401359Y-71348147D01*
X78401350Y-71348141D01*
X78219031Y-71255244D01*
X78024417Y-71192009D01*
X77822317Y-71160000D01*
X77617683Y-71160000D01*
X77415582Y-71192009D01*
X77220968Y-71255244D01*
X77038644Y-71348143D01*
X76994077Y-71380523D01*
X76994077Y-71380524D01*
X77673554Y-72060000D01*
X77667339Y-72060000D01*
X77565606Y-72087259D01*
X77474394Y-72139920D01*
X77399920Y-72214394D01*
X77347259Y-72305606D01*
X77320000Y-72407339D01*
X77320000Y-72413553D01*
X76640524Y-71734077D01*
X76640523Y-71734077D01*
X76608143Y-71778644D01*
X76515244Y-71960968D01*
X76452009Y-72155582D01*
X76420000Y-72357682D01*
X76420000Y-72562317D01*
X76452009Y-72764417D01*
X76515244Y-72959031D01*
X76608141Y-73141350D01*
X76608147Y-73141359D01*
X76640523Y-73185921D01*
X76640524Y-73185922D01*
X77320000Y-72506446D01*
X77320000Y-72512661D01*
X77347259Y-72614394D01*
X77399920Y-72705606D01*
X77474394Y-72780080D01*
X77565606Y-72832741D01*
X77667339Y-72860000D01*
X77673553Y-72860000D01*
X76994076Y-73539474D01*
X77038652Y-73571861D01*
X77131628Y-73619234D01*
X77182425Y-73667208D01*
X77199220Y-73735029D01*
X77176683Y-73801164D01*
X77131630Y-73840203D01*
X77038388Y-73887713D01*
X76872786Y-74008028D01*
X76728028Y-74152786D01*
X76607715Y-74318386D01*
X76514781Y-74500776D01*
X76451522Y-74695465D01*
X76419500Y-74897648D01*
X76419500Y-75102352D01*
X76429003Y-75162351D01*
X76451523Y-75304534D01*
X76456172Y-75318843D01*
X76458167Y-75388684D01*
X76425922Y-75444842D01*
X76207584Y-75663181D01*
X76146261Y-75696666D01*
X76119903Y-75699500D01*
X71405522Y-75699500D01*
X71338483Y-75679815D01*
X71292728Y-75627011D01*
X71282784Y-75557853D01*
X71295037Y-75519206D01*
X71305217Y-75499226D01*
X71305217Y-75499222D01*
X71305220Y-75499219D01*
X71368477Y-75304534D01*
X71400500Y-75102352D01*
X71400500Y-74897648D01*
X71377980Y-74755465D01*
X71368477Y-74695465D01*
X71324715Y-74560781D01*
X71305220Y-74500781D01*
X71305218Y-74500778D01*
X71305218Y-74500776D01*
X71254124Y-74400500D01*
X71212287Y-74318390D01*
X71204556Y-74307749D01*
X71091971Y-74152786D01*
X70947213Y-74008028D01*
X70781614Y-73887715D01*
X70730058Y-73861446D01*
X70688917Y-73840483D01*
X70638123Y-73792511D01*
X70621328Y-73724690D01*
X70643865Y-73658555D01*
X70688917Y-73619516D01*
X70781610Y-73572287D01*
X70826774Y-73539474D01*
X70947213Y-73451971D01*
X70947215Y-73451968D01*
X70947219Y-73451966D01*
X71091966Y-73307219D01*
X71091968Y-73307215D01*
X71091971Y-73307213D01*
X71151032Y-73225921D01*
X71212287Y-73141610D01*
X71305220Y-72959219D01*
X71368477Y-72764534D01*
X71400500Y-72562352D01*
X71400500Y-72357648D01*
X71377980Y-72215465D01*
X71368477Y-72155465D01*
X71324715Y-72020781D01*
X71305220Y-71960781D01*
X71305218Y-71960778D01*
X71305218Y-71960776D01*
X71271503Y-71894607D01*
X71212287Y-71778390D01*
X71180092Y-71734077D01*
X71091971Y-71612786D01*
X70947213Y-71468028D01*
X70781613Y-71347715D01*
X70781612Y-71347714D01*
X70781610Y-71347713D01*
X70717886Y-71315244D01*
X70599223Y-71254781D01*
X70404534Y-71191522D01*
X70229995Y-71163878D01*
X70202352Y-71159500D01*
X69997648Y-71159500D01*
X69973329Y-71163351D01*
X69795465Y-71191522D01*
X69600776Y-71254781D01*
X69418386Y-71347715D01*
X69252786Y-71468028D01*
X69108028Y-71612786D01*
X68987715Y-71778386D01*
X68894781Y-71960776D01*
X68831522Y-72155465D01*
X68801407Y-72345606D01*
X68799500Y-72357648D01*
X68799500Y-72562352D01*
X68800515Y-72568760D01*
X68831522Y-72764534D01*
X68894781Y-72959223D01*
X68958691Y-73084653D01*
X68987585Y-73141359D01*
X68987715Y-73141613D01*
X69108028Y-73307213D01*
X69252786Y-73451971D01*
X69373226Y-73539474D01*
X69418390Y-73572287D01*
X69509840Y-73618883D01*
X69511080Y-73619515D01*
X69561876Y-73667490D01*
X69578671Y-73735311D01*
X69556134Y-73801446D01*
X69511080Y-73840485D01*
X69418386Y-73887715D01*
X69252786Y-74008028D01*
X69108028Y-74152786D01*
X68987715Y-74318386D01*
X68894781Y-74500776D01*
X68831522Y-74695465D01*
X68799500Y-74897648D01*
X68799500Y-75102352D01*
X68800515Y-75108760D01*
X68831522Y-75304534D01*
X68894782Y-75499226D01*
X68904963Y-75519206D01*
X68917859Y-75587875D01*
X68891582Y-75652616D01*
X68834475Y-75692872D01*
X68794478Y-75699500D01*
X66379057Y-75699500D01*
X66220942Y-75699500D01*
X66068215Y-75740423D01*
X66068214Y-75740423D01*
X66068212Y-75740424D01*
X66068209Y-75740425D01*
X66018096Y-75769359D01*
X66018095Y-75769360D01*
X65974689Y-75794420D01*
X65931285Y-75819479D01*
X65931282Y-75819481D01*
X65413181Y-76337583D01*
X65351858Y-76371068D01*
X65282166Y-76366084D01*
X65226233Y-76324212D01*
X65201816Y-76258748D01*
X65201500Y-76249902D01*
X65201500Y-64866197D01*
X65221185Y-64799158D01*
X65237819Y-64778516D01*
X67379516Y-62636819D01*
X67440839Y-62603334D01*
X67467197Y-62600500D01*
X79745831Y-62600500D01*
X79745847Y-62600501D01*
X79753443Y-62600501D01*
X79911554Y-62600501D01*
X79911557Y-62600501D01*
X80064285Y-62559577D01*
X80114404Y-62530639D01*
X80201216Y-62480520D01*
X80313020Y-62368716D01*
X80313020Y-62368714D01*
X80323228Y-62358507D01*
X80323230Y-62358504D01*
X80884850Y-61796883D01*
X80946171Y-61763400D01*
X81015863Y-61768384D01*
X81045414Y-61784247D01*
X81090890Y-61817287D01*
X81273276Y-61910218D01*
X81273278Y-61910218D01*
X81273281Y-61910220D01*
X81377637Y-61944127D01*
X81467965Y-61973477D01*
X81559596Y-61987990D01*
X81670148Y-62005500D01*
X81670149Y-62005500D01*
X81874851Y-62005500D01*
X81874852Y-62005500D01*
X82077034Y-61973477D01*
X82271719Y-61910220D01*
X82454110Y-61817287D01*
X82585264Y-61721999D01*
X82619713Y-61696971D01*
X82619715Y-61696968D01*
X82619719Y-61696966D01*
X82764466Y-61552219D01*
X82764468Y-61552215D01*
X82764471Y-61552213D01*
X82884784Y-61386614D01*
X82884786Y-61386611D01*
X82884787Y-61386610D01*
X82932016Y-61293917D01*
X82979989Y-61243123D01*
X83047810Y-61226328D01*
X83113945Y-61248865D01*
X83152983Y-61293917D01*
X83176490Y-61340051D01*
X83200215Y-61386614D01*
X83320528Y-61552213D01*
X83465286Y-61696971D01*
X83585414Y-61784247D01*
X83630890Y-61817287D01*
X83731819Y-61868713D01*
X83813276Y-61910218D01*
X83813278Y-61910218D01*
X83813281Y-61910220D01*
X83917637Y-61944127D01*
X84007965Y-61973477D01*
X84099596Y-61987990D01*
X84210148Y-62005500D01*
X84210149Y-62005500D01*
X84414851Y-62005500D01*
X84414852Y-62005500D01*
X84617034Y-61973477D01*
X84811719Y-61910220D01*
X84994110Y-61817287D01*
X85125264Y-61721999D01*
X85159713Y-61696971D01*
X85159715Y-61696968D01*
X85159719Y-61696966D01*
X85304466Y-61552219D01*
X85304468Y-61552215D01*
X85304471Y-61552213D01*
X85398496Y-61422797D01*
X85424787Y-61386610D01*
X85472295Y-61293369D01*
X85520269Y-61242573D01*
X85588090Y-61225778D01*
X85654225Y-61248315D01*
X85693265Y-61293369D01*
X85740641Y-61386350D01*
X85740647Y-61386359D01*
X85773023Y-61430921D01*
X85773024Y-61430922D01*
X86452500Y-60751446D01*
X86452500Y-60757661D01*
X86479759Y-60859394D01*
X86532420Y-60950606D01*
X86606894Y-61025080D01*
X86698106Y-61077741D01*
X86799839Y-61105000D01*
X86806053Y-61105000D01*
X86126576Y-61784474D01*
X86171150Y-61816859D01*
X86353468Y-61909755D01*
X86548082Y-61972990D01*
X86750183Y-62005000D01*
X86954817Y-62005000D01*
X87156917Y-61972990D01*
X87351531Y-61909755D01*
X87533849Y-61816859D01*
X87578421Y-61784474D01*
X86898947Y-61105000D01*
X86905161Y-61105000D01*
X87006894Y-61077741D01*
X87098106Y-61025080D01*
X87172580Y-60950606D01*
X87225241Y-60859394D01*
X87252500Y-60757661D01*
X87252500Y-60751447D01*
X87931974Y-61430921D01*
X87964359Y-61386349D01*
X88057255Y-61204031D01*
X88120490Y-61009417D01*
X88152500Y-60807317D01*
X88152500Y-60602682D01*
X88120490Y-60400582D01*
X88057255Y-60205968D01*
X87964359Y-60023650D01*
X87931974Y-59979077D01*
X87931974Y-59979076D01*
X87252500Y-60658551D01*
X87252500Y-60652339D01*
X87225241Y-60550606D01*
X87172580Y-60459394D01*
X87098106Y-60384920D01*
X87006894Y-60332259D01*
X86905161Y-60305000D01*
X86898946Y-60305000D01*
X87578422Y-59625524D01*
X87578421Y-59625523D01*
X87533859Y-59593147D01*
X87533850Y-59593141D01*
X87351531Y-59500244D01*
X87156917Y-59437009D01*
X86954817Y-59405000D01*
X86750183Y-59405000D01*
X86548082Y-59437009D01*
X86353468Y-59500244D01*
X86171144Y-59593143D01*
X86126577Y-59625523D01*
X86126577Y-59625524D01*
X86806054Y-60305000D01*
X86799839Y-60305000D01*
X86698106Y-60332259D01*
X86606894Y-60384920D01*
X86532420Y-60459394D01*
X86479759Y-60550606D01*
X86452500Y-60652339D01*
X86452500Y-60658553D01*
X85773024Y-59979077D01*
X85773023Y-59979077D01*
X85740643Y-60023644D01*
X85693265Y-60116630D01*
X85645290Y-60167426D01*
X85577469Y-60184221D01*
X85511334Y-60161683D01*
X85472295Y-60116630D01*
X85468973Y-60110110D01*
X85424787Y-60023390D01*
X85424785Y-60023387D01*
X85424784Y-60023385D01*
X85304471Y-59857786D01*
X85159713Y-59713028D01*
X84994113Y-59592715D01*
X84994112Y-59592714D01*
X84994110Y-59592713D01*
X84937153Y-59563691D01*
X84811723Y-59499781D01*
X84617034Y-59436522D01*
X84442495Y-59408878D01*
X84414852Y-59404500D01*
X84210148Y-59404500D01*
X84185829Y-59408351D01*
X84007965Y-59436522D01*
X83813276Y-59499781D01*
X83630886Y-59592715D01*
X83465286Y-59713028D01*
X83320528Y-59857786D01*
X83200215Y-60023386D01*
X83152985Y-60116080D01*
X83105010Y-60166876D01*
X83037189Y-60183671D01*
X82971054Y-60161134D01*
X82932015Y-60116080D01*
X82914080Y-60080881D01*
X82884787Y-60023390D01*
X82852592Y-59979077D01*
X82764471Y-59857786D01*
X82619713Y-59713028D01*
X82454113Y-59592715D01*
X82454112Y-59592714D01*
X82454110Y-59592713D01*
X82397153Y-59563691D01*
X82271723Y-59499781D01*
X82077034Y-59436522D01*
X81902495Y-59408878D01*
X81874852Y-59404500D01*
X81670148Y-59404500D01*
X81629602Y-59410922D01*
X81467964Y-59436523D01*
X81467961Y-59436523D01*
X81295318Y-59492619D01*
X81225477Y-59494614D01*
X81165644Y-59458534D01*
X81134816Y-59395833D01*
X81133000Y-59374688D01*
X81133000Y-57165096D01*
X81152685Y-57098057D01*
X81169314Y-57077420D01*
X83867658Y-54379075D01*
X83928979Y-54345592D01*
X83993651Y-54348825D01*
X84007966Y-54353477D01*
X84210148Y-54385500D01*
X84210149Y-54385500D01*
X84414851Y-54385500D01*
X84414852Y-54385500D01*
X84617034Y-54353477D01*
X84811719Y-54290220D01*
X84994110Y-54197287D01*
X85087090Y-54129732D01*
X85159713Y-54076971D01*
X85159715Y-54076968D01*
X85159719Y-54076966D01*
X85304466Y-53932219D01*
X85304468Y-53932215D01*
X85304471Y-53932213D01*
X85424784Y-53766614D01*
X85424783Y-53766614D01*
X85424787Y-53766610D01*
X85472016Y-53673917D01*
X85519989Y-53623123D01*
X85587810Y-53606328D01*
X85653945Y-53628865D01*
X85692983Y-53673917D01*
X85729300Y-53745192D01*
X85740215Y-53766614D01*
X85860528Y-53932213D01*
X86005286Y-54076971D01*
X86144134Y-54177848D01*
X86170890Y-54197287D01*
X86287107Y-54256503D01*
X86353276Y-54290218D01*
X86353278Y-54290218D01*
X86353281Y-54290220D01*
X86457637Y-54324127D01*
X86547965Y-54353477D01*
X86613306Y-54363826D01*
X86750148Y-54385500D01*
X86750149Y-54385500D01*
X86954851Y-54385500D01*
X86954852Y-54385500D01*
X87157034Y-54353477D01*
X87171342Y-54348827D01*
X87241182Y-54346831D01*
X87297342Y-54379077D01*
X87782639Y-54864374D01*
X87782649Y-54864385D01*
X87786979Y-54868715D01*
X87786980Y-54868716D01*
X87898784Y-54980520D01*
X87985595Y-55030639D01*
X87985597Y-55030641D01*
X88035713Y-55059576D01*
X88035715Y-55059577D01*
X88188442Y-55100500D01*
X88188443Y-55100500D01*
X104813331Y-55100500D01*
X104813347Y-55100501D01*
X104820943Y-55100501D01*
X104979054Y-55100501D01*
X104979057Y-55100501D01*
X105131785Y-55059577D01*
X105181904Y-55030639D01*
X105268716Y-54980520D01*
X105380520Y-54868716D01*
X105380520Y-54868714D01*
X105390728Y-54858507D01*
X105390730Y-54858504D01*
X105855158Y-54394075D01*
X105916479Y-54360592D01*
X105981151Y-54363825D01*
X105995466Y-54368477D01*
X106197648Y-54400500D01*
X106197649Y-54400500D01*
X106402351Y-54400500D01*
X106402352Y-54400500D01*
X106604534Y-54368477D01*
X106799219Y-54305220D01*
X106981610Y-54212287D01*
X107074590Y-54144732D01*
X107147213Y-54091971D01*
X107147215Y-54091968D01*
X107147219Y-54091966D01*
X107291966Y-53947219D01*
X107291968Y-53947215D01*
X107291971Y-53947213D01*
X107412284Y-53781614D01*
X107412285Y-53781613D01*
X107412287Y-53781610D01*
X107419117Y-53768204D01*
X107429566Y-53757140D01*
X107435889Y-53743297D01*
X107453068Y-53732256D01*
X107467091Y-53717409D01*
X107482772Y-53713167D01*
X107494667Y-53705523D01*
X107529602Y-53700500D01*
X107610398Y-53700500D01*
X107677437Y-53720185D01*
X107720883Y-53768205D01*
X107727715Y-53781614D01*
X107848028Y-53947213D01*
X107992786Y-54091971D01*
X108137740Y-54197284D01*
X108158390Y-54212287D01*
X108274607Y-54271503D01*
X108340776Y-54305218D01*
X108340778Y-54305218D01*
X108340781Y-54305220D01*
X108445137Y-54339127D01*
X108535465Y-54368477D01*
X108636557Y-54384488D01*
X108737648Y-54400500D01*
X108737649Y-54400500D01*
X108942351Y-54400500D01*
X108942352Y-54400500D01*
X109144534Y-54368477D01*
X109339219Y-54305220D01*
X109521610Y-54212287D01*
X109614590Y-54144732D01*
X109687213Y-54091971D01*
X109687215Y-54091968D01*
X109687219Y-54091966D01*
X109831966Y-53947219D01*
X109831968Y-53947215D01*
X109831971Y-53947213D01*
X109900699Y-53852615D01*
X109952287Y-53781610D01*
X110045220Y-53599219D01*
X110108477Y-53404534D01*
X110140500Y-53202352D01*
X110140500Y-52997648D01*
X110108477Y-52795466D01*
X110106727Y-52790081D01*
X110069423Y-52675270D01*
X110045220Y-52600781D01*
X110045218Y-52600778D01*
X110045218Y-52600776D01*
X109999515Y-52511080D01*
X109952287Y-52418390D01*
X109939289Y-52400500D01*
X109831971Y-52252786D01*
X109687213Y-52108028D01*
X109521613Y-51987715D01*
X109521612Y-51987714D01*
X109521610Y-51987713D01*
X109464653Y-51958691D01*
X109339223Y-51894781D01*
X109144534Y-51831522D01*
X108969995Y-51803878D01*
X108942352Y-51799500D01*
X108737648Y-51799500D01*
X108713329Y-51803351D01*
X108535465Y-51831522D01*
X108340776Y-51894781D01*
X108158386Y-51987715D01*
X107992786Y-52108028D01*
X107848028Y-52252786D01*
X107727715Y-52418385D01*
X107720883Y-52431795D01*
X107710433Y-52442859D01*
X107704111Y-52456703D01*
X107686931Y-52467743D01*
X107672909Y-52482591D01*
X107657227Y-52486832D01*
X107645333Y-52494477D01*
X107610398Y-52499500D01*
X107529602Y-52499500D01*
X107462563Y-52479815D01*
X107419117Y-52431795D01*
X107412287Y-52418390D01*
X107412285Y-52418387D01*
X107412284Y-52418385D01*
X107291971Y-52252786D01*
X107147213Y-52108028D01*
X106981613Y-51987715D01*
X106981612Y-51987714D01*
X106981610Y-51987713D01*
X106924653Y-51958691D01*
X106799223Y-51894781D01*
X106604534Y-51831522D01*
X106429995Y-51803878D01*
X106402352Y-51799500D01*
X106197648Y-51799500D01*
X106173329Y-51803351D01*
X105995465Y-51831522D01*
X105800776Y-51894781D01*
X105618386Y-51987715D01*
X105452786Y-52108028D01*
X105308028Y-52252786D01*
X105187715Y-52418386D01*
X105140485Y-52511080D01*
X105092510Y-52561876D01*
X105024689Y-52578671D01*
X104958554Y-52556134D01*
X104919515Y-52511080D01*
X104904999Y-52482591D01*
X104872287Y-52418390D01*
X104859289Y-52400500D01*
X104751971Y-52252786D01*
X104607213Y-52108028D01*
X104441613Y-51987715D01*
X104441612Y-51987714D01*
X104441610Y-51987713D01*
X104384653Y-51958691D01*
X104259223Y-51894781D01*
X104064534Y-51831522D01*
X103889995Y-51803878D01*
X103862352Y-51799500D01*
X103657648Y-51799500D01*
X103633329Y-51803351D01*
X103455465Y-51831522D01*
X103260776Y-51894781D01*
X103078386Y-51987715D01*
X102912786Y-52108028D01*
X102768028Y-52252786D01*
X102647715Y-52418386D01*
X102600485Y-52511080D01*
X102552510Y-52561876D01*
X102484689Y-52578671D01*
X102418554Y-52556134D01*
X102379515Y-52511080D01*
X102364999Y-52482591D01*
X102332287Y-52418390D01*
X102319289Y-52400500D01*
X102211971Y-52252786D01*
X102067213Y-52108028D01*
X101901613Y-51987715D01*
X101901612Y-51987714D01*
X101901610Y-51987713D01*
X101844653Y-51958691D01*
X101719223Y-51894781D01*
X101524534Y-51831522D01*
X101349995Y-51803878D01*
X101322352Y-51799500D01*
X101117648Y-51799500D01*
X101093329Y-51803351D01*
X100915465Y-51831522D01*
X100720776Y-51894781D01*
X100538386Y-51987715D01*
X100372786Y-52108028D01*
X100228028Y-52252786D01*
X100107715Y-52418385D01*
X100100883Y-52431795D01*
X100090433Y-52442859D01*
X100084111Y-52456703D01*
X100066931Y-52467743D01*
X100052909Y-52482591D01*
X100037227Y-52486832D01*
X100025333Y-52494477D01*
X99990398Y-52499500D01*
X99909602Y-52499500D01*
X99842563Y-52479815D01*
X99799117Y-52431795D01*
X99792287Y-52418390D01*
X99792285Y-52418387D01*
X99792284Y-52418385D01*
X99671971Y-52252786D01*
X99527213Y-52108028D01*
X99361613Y-51987715D01*
X99361612Y-51987714D01*
X99361610Y-51987713D01*
X99304653Y-51958691D01*
X99179223Y-51894781D01*
X98984534Y-51831522D01*
X98809995Y-51803878D01*
X98782352Y-51799500D01*
X98577648Y-51799500D01*
X98539599Y-51805526D01*
X98375468Y-51831522D01*
X98366717Y-51834365D01*
X98361154Y-51836173D01*
X98291313Y-51838167D01*
X98235157Y-51805922D01*
X97867590Y-51438355D01*
X97867588Y-51438352D01*
X97748717Y-51319481D01*
X97748716Y-51319480D01*
X97661904Y-51269360D01*
X97661904Y-51269359D01*
X97661900Y-51269358D01*
X97611785Y-51240423D01*
X97459057Y-51199499D01*
X97300943Y-51199499D01*
X97293347Y-51199499D01*
X97293331Y-51199500D01*
X80438440Y-51199500D01*
X80397519Y-51210464D01*
X80397519Y-51210465D01*
X80360251Y-51220451D01*
X80285714Y-51240423D01*
X80285709Y-51240426D01*
X80148790Y-51319475D01*
X80148782Y-51319481D01*
X80036978Y-51431286D01*
X79677342Y-51790921D01*
X79616019Y-51824406D01*
X79551348Y-51821173D01*
X79537034Y-51816522D01*
X79362495Y-51788878D01*
X79334852Y-51784500D01*
X79130148Y-51784500D01*
X79105829Y-51788351D01*
X78927965Y-51816522D01*
X78733276Y-51879781D01*
X78550886Y-51972715D01*
X78385286Y-52093028D01*
X78240528Y-52237786D01*
X78120215Y-52403386D01*
X78072985Y-52496080D01*
X78025010Y-52546876D01*
X77957189Y-52563671D01*
X77891054Y-52541134D01*
X77852015Y-52496080D01*
X77845142Y-52482591D01*
X77804787Y-52403390D01*
X77797056Y-52392749D01*
X77684471Y-52237786D01*
X77539713Y-52093028D01*
X77374113Y-51972715D01*
X77374112Y-51972714D01*
X77374110Y-51972713D01*
X77317153Y-51943691D01*
X77191723Y-51879781D01*
X76997034Y-51816522D01*
X76822495Y-51788878D01*
X76794852Y-51784500D01*
X76590148Y-51784500D01*
X76565829Y-51788351D01*
X76387965Y-51816522D01*
X76193276Y-51879781D01*
X76010886Y-51972715D01*
X75845286Y-52093028D01*
X75700528Y-52237786D01*
X75580215Y-52403386D01*
X75532985Y-52496080D01*
X75485010Y-52546876D01*
X75417189Y-52563671D01*
X75351054Y-52541134D01*
X75312015Y-52496080D01*
X75305142Y-52482591D01*
X75264787Y-52403390D01*
X75257056Y-52392749D01*
X75144471Y-52237786D01*
X74999713Y-52093028D01*
X74834113Y-51972715D01*
X74834112Y-51972714D01*
X74834110Y-51972713D01*
X74777153Y-51943691D01*
X74651723Y-51879781D01*
X74457034Y-51816522D01*
X74282495Y-51788878D01*
X74254852Y-51784500D01*
X74050148Y-51784500D01*
X74025829Y-51788351D01*
X73847965Y-51816522D01*
X73653276Y-51879781D01*
X73470886Y-51972715D01*
X73305286Y-52093028D01*
X73160528Y-52237786D01*
X73040215Y-52403386D01*
X72992985Y-52496080D01*
X72945010Y-52546876D01*
X72877189Y-52563671D01*
X72811054Y-52541134D01*
X72772015Y-52496080D01*
X72765142Y-52482591D01*
X72724787Y-52403390D01*
X72717056Y-52392749D01*
X72604471Y-52237786D01*
X72459713Y-52093028D01*
X72294113Y-51972715D01*
X72294112Y-51972714D01*
X72294110Y-51972713D01*
X72237153Y-51943691D01*
X72111723Y-51879781D01*
X71917034Y-51816522D01*
X71742495Y-51788878D01*
X71714852Y-51784500D01*
X71510148Y-51784500D01*
X71485829Y-51788351D01*
X71307965Y-51816522D01*
X71113276Y-51879781D01*
X70930886Y-51972715D01*
X70765286Y-52093028D01*
X70620528Y-52237786D01*
X70500215Y-52403386D01*
X70407281Y-52585776D01*
X70344022Y-52780465D01*
X70312000Y-52982648D01*
X70312000Y-53187351D01*
X70344022Y-53389534D01*
X70407281Y-53584223D01*
X70476059Y-53719205D01*
X70488955Y-53787874D01*
X70462679Y-53852615D01*
X70405572Y-53892872D01*
X70365574Y-53899500D01*
X68986670Y-53899500D01*
X68986654Y-53899499D01*
X68979058Y-53899499D01*
X68820943Y-53899499D01*
X68744579Y-53919961D01*
X68668214Y-53940423D01*
X68668209Y-53940426D01*
X68531290Y-54019475D01*
X68531282Y-54019481D01*
X64287584Y-58263181D01*
X64260656Y-58277884D01*
X64234838Y-58294477D01*
X64228637Y-58295368D01*
X64226261Y-58296666D01*
X64199903Y-58299500D01*
X64124500Y-58299500D01*
X64057461Y-58279815D01*
X64011706Y-58227011D01*
X64000500Y-58175500D01*
X64000499Y-56747129D01*
X64000498Y-56747123D01*
X64000497Y-56747116D01*
X63994091Y-56687517D01*
X63992810Y-56684083D01*
X63943797Y-56552671D01*
X63943793Y-56552664D01*
X63857547Y-56437455D01*
X63857544Y-56437452D01*
X63742335Y-56351206D01*
X63742328Y-56351202D01*
X63607482Y-56300908D01*
X63607483Y-56300908D01*
X63547883Y-56294501D01*
X63547881Y-56294500D01*
X63547873Y-56294500D01*
X63547864Y-56294500D01*
X61752129Y-56294500D01*
X61752123Y-56294501D01*
X61692516Y-56300908D01*
X61557671Y-56351202D01*
X61557664Y-56351206D01*
X61442455Y-56437452D01*
X61442452Y-56437455D01*
X61356206Y-56552664D01*
X61356203Y-56552669D01*
X61307189Y-56684083D01*
X61265317Y-56740016D01*
X61199853Y-56764433D01*
X61131580Y-56749581D01*
X61103326Y-56728430D01*
X60989786Y-56614890D01*
X60817820Y-56489951D01*
X60628414Y-56393444D01*
X60628413Y-56393443D01*
X60628412Y-56393443D01*
X60426243Y-56327754D01*
X60426241Y-56327753D01*
X60426240Y-56327753D01*
X60264957Y-56302208D01*
X60216287Y-56294500D01*
X60003713Y-56294500D01*
X59955042Y-56302208D01*
X59793760Y-56327753D01*
X59591585Y-56393444D01*
X59402179Y-56489951D01*
X59230215Y-56614889D01*
X59116673Y-56728431D01*
X59055350Y-56761915D01*
X58985658Y-56756931D01*
X58929725Y-56715059D01*
X58912810Y-56684082D01*
X58863797Y-56552671D01*
X58863793Y-56552664D01*
X58777547Y-56437455D01*
X58777544Y-56437452D01*
X58662335Y-56351206D01*
X58662328Y-56351202D01*
X58527482Y-56300908D01*
X58527483Y-56300908D01*
X58467883Y-56294501D01*
X58467881Y-56294500D01*
X58467873Y-56294500D01*
X58467864Y-56294500D01*
X56672129Y-56294500D01*
X56672123Y-56294501D01*
X56612516Y-56300908D01*
X56477671Y-56351202D01*
X56477664Y-56351206D01*
X56362455Y-56437452D01*
X56362452Y-56437455D01*
X56276206Y-56552664D01*
X56276202Y-56552671D01*
X56225908Y-56687517D01*
X56219501Y-56747116D01*
X56219501Y-56747123D01*
X56219500Y-56747135D01*
X55500500Y-56747135D01*
X55500500Y-52798008D01*
X55520185Y-52730969D01*
X55572989Y-52685214D01*
X55642147Y-52675270D01*
X55705703Y-52704295D01*
X55733858Y-52739555D01*
X55822140Y-52904720D01*
X55822151Y-52904738D01*
X56024140Y-53207035D01*
X56024150Y-53207049D01*
X56254807Y-53488106D01*
X56511893Y-53745192D01*
X56511898Y-53745196D01*
X56511899Y-53745197D01*
X56792956Y-53975854D01*
X57095268Y-54177853D01*
X57095277Y-54177858D01*
X57095279Y-54177859D01*
X57415916Y-54349243D01*
X57415918Y-54349243D01*
X57415924Y-54349247D01*
X57751836Y-54488386D01*
X58099767Y-54593930D01*
X58099773Y-54593931D01*
X58099776Y-54593932D01*
X58099787Y-54593935D01*
X58456369Y-54664862D01*
X58818206Y-54700500D01*
X58818209Y-54700500D01*
X59181791Y-54700500D01*
X59181794Y-54700500D01*
X59543631Y-54664862D01*
X59613045Y-54651054D01*
X59900212Y-54593935D01*
X59900223Y-54593932D01*
X59900223Y-54593931D01*
X59900233Y-54593930D01*
X60248164Y-54488386D01*
X60584076Y-54349247D01*
X60904732Y-54177853D01*
X61207044Y-53975854D01*
X61488101Y-53745197D01*
X61745197Y-53488101D01*
X61975854Y-53207044D01*
X62177853Y-52904732D01*
X62349247Y-52584076D01*
X62488386Y-52248164D01*
X62593930Y-51900233D01*
X62593932Y-51900223D01*
X62593935Y-51900212D01*
X62664862Y-51543630D01*
X62686939Y-51319479D01*
X62700500Y-51181794D01*
X62700500Y-50818206D01*
X62664862Y-50456369D01*
X62593935Y-50099787D01*
X62593932Y-50099776D01*
X62593931Y-50099773D01*
X62593930Y-50099767D01*
X62488386Y-49751836D01*
X62349247Y-49415924D01*
X62300502Y-49324729D01*
X62177859Y-49095279D01*
X62177858Y-49095277D01*
X62177853Y-49095268D01*
X61975854Y-48792956D01*
X61745197Y-48511899D01*
X61745196Y-48511898D01*
X61745192Y-48511893D01*
X61488106Y-48254807D01*
X61207049Y-48024150D01*
X61207048Y-48024149D01*
X61207044Y-48024146D01*
X60904732Y-47822147D01*
X60904727Y-47822144D01*
X60904720Y-47822140D01*
X60739555Y-47733858D01*
X60689711Y-47684896D01*
X60674250Y-47616758D01*
X60698082Y-47551079D01*
X60753639Y-47508710D01*
X60798008Y-47500500D01*
X141201992Y-47500500D01*
X141206917Y-47501946D01*
G37*
%TD.AperFunction*%
%TD*%
M02*
