%TF.GenerationSoftware,KiCad,Pcbnew,9.0.4*%
%TF.CreationDate,2025-09-22T01:16:19-04:00*%
%TF.ProjectId,tta8_lsu,74746138-5f6c-4737-952e-6b696361645f,0*%
%TF.SameCoordinates,Original*%
%TF.FileFunction,Legend,Top*%
%TF.FilePolarity,Positive*%
%FSLAX46Y46*%
G04 Gerber Fmt 4.6, Leading zero omitted, Abs format (unit mm)*
G04 Created by KiCad (PCBNEW 9.0.4) date 2025-09-22 01:16:19*
%MOMM*%
%LPD*%
G01*
G04 APERTURE LIST*
%ADD10C,0.500000*%
%ADD11C,0.400000*%
%ADD12C,0.250000*%
%ADD13C,0.150000*%
%ADD14C,0.120000*%
G04 APERTURE END LIST*
D10*
X66200000Y-51300000D02*
X66200000Y-66800000D01*
X100300000Y-70400000D02*
X117500000Y-70400000D01*
X98600000Y-130800000D02*
X65600000Y-130800000D01*
X98600000Y-70400000D02*
X65600000Y-70400000D01*
X110900000Y-51300000D02*
X66200000Y-51300000D01*
X66200000Y-66800000D02*
X110900000Y-66800000D01*
X110900000Y-66800000D02*
X110900000Y-51300000D01*
X65600000Y-70400000D02*
X65600000Y-130800000D01*
X98600000Y-70400000D02*
X98600000Y-130800000D01*
X100300000Y-128700000D02*
X117500000Y-128700000D01*
X100300000Y-128700000D02*
X100300000Y-70400000D01*
X117500000Y-70400000D02*
X117500000Y-128700000D01*
D11*
X63478571Y-132173247D02*
X64907142Y-132173247D01*
X64192856Y-134673247D02*
X64192856Y-132173247D01*
X65383333Y-132173247D02*
X66811904Y-132173247D01*
X66097618Y-134673247D02*
X66097618Y-132173247D01*
X67526190Y-133958961D02*
X68716666Y-133958961D01*
X67288095Y-134673247D02*
X68121428Y-132173247D01*
X68121428Y-132173247D02*
X68954761Y-134673247D01*
X70145237Y-133244676D02*
X69907142Y-133125628D01*
X69907142Y-133125628D02*
X69788095Y-133006580D01*
X69788095Y-133006580D02*
X69669047Y-132768485D01*
X69669047Y-132768485D02*
X69669047Y-132649438D01*
X69669047Y-132649438D02*
X69788095Y-132411342D01*
X69788095Y-132411342D02*
X69907142Y-132292295D01*
X69907142Y-132292295D02*
X70145237Y-132173247D01*
X70145237Y-132173247D02*
X70621428Y-132173247D01*
X70621428Y-132173247D02*
X70859523Y-132292295D01*
X70859523Y-132292295D02*
X70978571Y-132411342D01*
X70978571Y-132411342D02*
X71097618Y-132649438D01*
X71097618Y-132649438D02*
X71097618Y-132768485D01*
X71097618Y-132768485D02*
X70978571Y-133006580D01*
X70978571Y-133006580D02*
X70859523Y-133125628D01*
X70859523Y-133125628D02*
X70621428Y-133244676D01*
X70621428Y-133244676D02*
X70145237Y-133244676D01*
X70145237Y-133244676D02*
X69907142Y-133363723D01*
X69907142Y-133363723D02*
X69788095Y-133482771D01*
X69788095Y-133482771D02*
X69669047Y-133720866D01*
X69669047Y-133720866D02*
X69669047Y-134197057D01*
X69669047Y-134197057D02*
X69788095Y-134435152D01*
X69788095Y-134435152D02*
X69907142Y-134554200D01*
X69907142Y-134554200D02*
X70145237Y-134673247D01*
X70145237Y-134673247D02*
X70621428Y-134673247D01*
X70621428Y-134673247D02*
X70859523Y-134554200D01*
X70859523Y-134554200D02*
X70978571Y-134435152D01*
X70978571Y-134435152D02*
X71097618Y-134197057D01*
X71097618Y-134197057D02*
X71097618Y-133720866D01*
X71097618Y-133720866D02*
X70978571Y-133482771D01*
X70978571Y-133482771D02*
X70859523Y-133363723D01*
X70859523Y-133363723D02*
X70621428Y-133244676D01*
X75264285Y-134673247D02*
X74073809Y-134673247D01*
X74073809Y-134673247D02*
X74073809Y-132173247D01*
X76454761Y-134673247D02*
X76216666Y-134554200D01*
X76216666Y-134554200D02*
X76097619Y-134435152D01*
X76097619Y-134435152D02*
X75978571Y-134197057D01*
X75978571Y-134197057D02*
X75978571Y-133482771D01*
X75978571Y-133482771D02*
X76097619Y-133244676D01*
X76097619Y-133244676D02*
X76216666Y-133125628D01*
X76216666Y-133125628D02*
X76454761Y-133006580D01*
X76454761Y-133006580D02*
X76811904Y-133006580D01*
X76811904Y-133006580D02*
X77050000Y-133125628D01*
X77050000Y-133125628D02*
X77169047Y-133244676D01*
X77169047Y-133244676D02*
X77288095Y-133482771D01*
X77288095Y-133482771D02*
X77288095Y-134197057D01*
X77288095Y-134197057D02*
X77169047Y-134435152D01*
X77169047Y-134435152D02*
X77050000Y-134554200D01*
X77050000Y-134554200D02*
X76811904Y-134673247D01*
X76811904Y-134673247D02*
X76454761Y-134673247D01*
X79430952Y-134673247D02*
X79430952Y-133363723D01*
X79430952Y-133363723D02*
X79311905Y-133125628D01*
X79311905Y-133125628D02*
X79073809Y-133006580D01*
X79073809Y-133006580D02*
X78597619Y-133006580D01*
X78597619Y-133006580D02*
X78359524Y-133125628D01*
X79430952Y-134554200D02*
X79192857Y-134673247D01*
X79192857Y-134673247D02*
X78597619Y-134673247D01*
X78597619Y-134673247D02*
X78359524Y-134554200D01*
X78359524Y-134554200D02*
X78240476Y-134316104D01*
X78240476Y-134316104D02*
X78240476Y-134078009D01*
X78240476Y-134078009D02*
X78359524Y-133839914D01*
X78359524Y-133839914D02*
X78597619Y-133720866D01*
X78597619Y-133720866D02*
X79192857Y-133720866D01*
X79192857Y-133720866D02*
X79430952Y-133601819D01*
X81692857Y-134673247D02*
X81692857Y-132173247D01*
X81692857Y-134554200D02*
X81454762Y-134673247D01*
X81454762Y-134673247D02*
X80978571Y-134673247D01*
X80978571Y-134673247D02*
X80740476Y-134554200D01*
X80740476Y-134554200D02*
X80621429Y-134435152D01*
X80621429Y-134435152D02*
X80502381Y-134197057D01*
X80502381Y-134197057D02*
X80502381Y-133482771D01*
X80502381Y-133482771D02*
X80621429Y-133244676D01*
X80621429Y-133244676D02*
X80740476Y-133125628D01*
X80740476Y-133125628D02*
X80978571Y-133006580D01*
X80978571Y-133006580D02*
X81454762Y-133006580D01*
X81454762Y-133006580D02*
X81692857Y-133125628D01*
X84669048Y-134554200D02*
X85026191Y-134673247D01*
X85026191Y-134673247D02*
X85621429Y-134673247D01*
X85621429Y-134673247D02*
X85859524Y-134554200D01*
X85859524Y-134554200D02*
X85978572Y-134435152D01*
X85978572Y-134435152D02*
X86097619Y-134197057D01*
X86097619Y-134197057D02*
X86097619Y-133958961D01*
X86097619Y-133958961D02*
X85978572Y-133720866D01*
X85978572Y-133720866D02*
X85859524Y-133601819D01*
X85859524Y-133601819D02*
X85621429Y-133482771D01*
X85621429Y-133482771D02*
X85145238Y-133363723D01*
X85145238Y-133363723D02*
X84907143Y-133244676D01*
X84907143Y-133244676D02*
X84788096Y-133125628D01*
X84788096Y-133125628D02*
X84669048Y-132887533D01*
X84669048Y-132887533D02*
X84669048Y-132649438D01*
X84669048Y-132649438D02*
X84788096Y-132411342D01*
X84788096Y-132411342D02*
X84907143Y-132292295D01*
X84907143Y-132292295D02*
X85145238Y-132173247D01*
X85145238Y-132173247D02*
X85740477Y-132173247D01*
X85740477Y-132173247D02*
X86097619Y-132292295D01*
X86811905Y-133006580D02*
X87764286Y-133006580D01*
X87169048Y-132173247D02*
X87169048Y-134316104D01*
X87169048Y-134316104D02*
X87288095Y-134554200D01*
X87288095Y-134554200D02*
X87526190Y-134673247D01*
X87526190Y-134673247D02*
X87764286Y-134673247D01*
X88954761Y-134673247D02*
X88716666Y-134554200D01*
X88716666Y-134554200D02*
X88597619Y-134435152D01*
X88597619Y-134435152D02*
X88478571Y-134197057D01*
X88478571Y-134197057D02*
X88478571Y-133482771D01*
X88478571Y-133482771D02*
X88597619Y-133244676D01*
X88597619Y-133244676D02*
X88716666Y-133125628D01*
X88716666Y-133125628D02*
X88954761Y-133006580D01*
X88954761Y-133006580D02*
X89311904Y-133006580D01*
X89311904Y-133006580D02*
X89550000Y-133125628D01*
X89550000Y-133125628D02*
X89669047Y-133244676D01*
X89669047Y-133244676D02*
X89788095Y-133482771D01*
X89788095Y-133482771D02*
X89788095Y-134197057D01*
X89788095Y-134197057D02*
X89669047Y-134435152D01*
X89669047Y-134435152D02*
X89550000Y-134554200D01*
X89550000Y-134554200D02*
X89311904Y-134673247D01*
X89311904Y-134673247D02*
X88954761Y-134673247D01*
X90859524Y-134673247D02*
X90859524Y-133006580D01*
X90859524Y-133482771D02*
X90978571Y-133244676D01*
X90978571Y-133244676D02*
X91097619Y-133125628D01*
X91097619Y-133125628D02*
X91335714Y-133006580D01*
X91335714Y-133006580D02*
X91573809Y-133006580D01*
X93359524Y-134554200D02*
X93121428Y-134673247D01*
X93121428Y-134673247D02*
X92645238Y-134673247D01*
X92645238Y-134673247D02*
X92407143Y-134554200D01*
X92407143Y-134554200D02*
X92288095Y-134316104D01*
X92288095Y-134316104D02*
X92288095Y-133363723D01*
X92288095Y-133363723D02*
X92407143Y-133125628D01*
X92407143Y-133125628D02*
X92645238Y-133006580D01*
X92645238Y-133006580D02*
X93121428Y-133006580D01*
X93121428Y-133006580D02*
X93359524Y-133125628D01*
X93359524Y-133125628D02*
X93478571Y-133363723D01*
X93478571Y-133363723D02*
X93478571Y-133601819D01*
X93478571Y-133601819D02*
X92288095Y-133839914D01*
X96454762Y-132173247D02*
X96454762Y-134197057D01*
X96454762Y-134197057D02*
X96573809Y-134435152D01*
X96573809Y-134435152D02*
X96692857Y-134554200D01*
X96692857Y-134554200D02*
X96930952Y-134673247D01*
X96930952Y-134673247D02*
X97407143Y-134673247D01*
X97407143Y-134673247D02*
X97645238Y-134554200D01*
X97645238Y-134554200D02*
X97764285Y-134435152D01*
X97764285Y-134435152D02*
X97883333Y-134197057D01*
X97883333Y-134197057D02*
X97883333Y-132173247D01*
X99073810Y-133006580D02*
X99073810Y-134673247D01*
X99073810Y-133244676D02*
X99192857Y-133125628D01*
X99192857Y-133125628D02*
X99430952Y-133006580D01*
X99430952Y-133006580D02*
X99788095Y-133006580D01*
X99788095Y-133006580D02*
X100026191Y-133125628D01*
X100026191Y-133125628D02*
X100145238Y-133363723D01*
X100145238Y-133363723D02*
X100145238Y-134673247D01*
X101335715Y-134673247D02*
X101335715Y-133006580D01*
X101335715Y-132173247D02*
X101216667Y-132292295D01*
X101216667Y-132292295D02*
X101335715Y-132411342D01*
X101335715Y-132411342D02*
X101454762Y-132292295D01*
X101454762Y-132292295D02*
X101335715Y-132173247D01*
X101335715Y-132173247D02*
X101335715Y-132411342D01*
X102169048Y-133006580D02*
X103121429Y-133006580D01*
X102526191Y-132173247D02*
X102526191Y-134316104D01*
X102526191Y-134316104D02*
X102645238Y-134554200D01*
X102645238Y-134554200D02*
X102883333Y-134673247D01*
X102883333Y-134673247D02*
X103121429Y-134673247D01*
D12*
X67374857Y-88664472D02*
X67374857Y-87950187D01*
X67803428Y-88807329D02*
X66303428Y-88307329D01*
X66303428Y-88307329D02*
X67803428Y-87807329D01*
X67803428Y-86664473D02*
X66303428Y-86664473D01*
X67732000Y-86664473D02*
X67803428Y-86807330D01*
X67803428Y-86807330D02*
X67803428Y-87093044D01*
X67803428Y-87093044D02*
X67732000Y-87235901D01*
X67732000Y-87235901D02*
X67660571Y-87307330D01*
X67660571Y-87307330D02*
X67517714Y-87378758D01*
X67517714Y-87378758D02*
X67089142Y-87378758D01*
X67089142Y-87378758D02*
X66946285Y-87307330D01*
X66946285Y-87307330D02*
X66874857Y-87235901D01*
X66874857Y-87235901D02*
X66803428Y-87093044D01*
X66803428Y-87093044D02*
X66803428Y-86807330D01*
X66803428Y-86807330D02*
X66874857Y-86664473D01*
X67803428Y-85307330D02*
X66303428Y-85307330D01*
X67732000Y-85307330D02*
X67803428Y-85450187D01*
X67803428Y-85450187D02*
X67803428Y-85735901D01*
X67803428Y-85735901D02*
X67732000Y-85878758D01*
X67732000Y-85878758D02*
X67660571Y-85950187D01*
X67660571Y-85950187D02*
X67517714Y-86021615D01*
X67517714Y-86021615D02*
X67089142Y-86021615D01*
X67089142Y-86021615D02*
X66946285Y-85950187D01*
X66946285Y-85950187D02*
X66874857Y-85878758D01*
X66874857Y-85878758D02*
X66803428Y-85735901D01*
X66803428Y-85735901D02*
X66803428Y-85450187D01*
X66803428Y-85450187D02*
X66874857Y-85307330D01*
X67803428Y-84593044D02*
X66803428Y-84593044D01*
X67089142Y-84593044D02*
X66946285Y-84521615D01*
X66946285Y-84521615D02*
X66874857Y-84450187D01*
X66874857Y-84450187D02*
X66803428Y-84307329D01*
X66803428Y-84307329D02*
X66803428Y-84164472D01*
X67732000Y-83093044D02*
X67803428Y-83235901D01*
X67803428Y-83235901D02*
X67803428Y-83521616D01*
X67803428Y-83521616D02*
X67732000Y-83664473D01*
X67732000Y-83664473D02*
X67589142Y-83735901D01*
X67589142Y-83735901D02*
X67017714Y-83735901D01*
X67017714Y-83735901D02*
X66874857Y-83664473D01*
X66874857Y-83664473D02*
X66803428Y-83521616D01*
X66803428Y-83521616D02*
X66803428Y-83235901D01*
X66803428Y-83235901D02*
X66874857Y-83093044D01*
X66874857Y-83093044D02*
X67017714Y-83021616D01*
X67017714Y-83021616D02*
X67160571Y-83021616D01*
X67160571Y-83021616D02*
X67303428Y-83735901D01*
X67732000Y-82450187D02*
X67803428Y-82307330D01*
X67803428Y-82307330D02*
X67803428Y-82021616D01*
X67803428Y-82021616D02*
X67732000Y-81878759D01*
X67732000Y-81878759D02*
X67589142Y-81807330D01*
X67589142Y-81807330D02*
X67517714Y-81807330D01*
X67517714Y-81807330D02*
X67374857Y-81878759D01*
X67374857Y-81878759D02*
X67303428Y-82021616D01*
X67303428Y-82021616D02*
X67303428Y-82235902D01*
X67303428Y-82235902D02*
X67232000Y-82378759D01*
X67232000Y-82378759D02*
X67089142Y-82450187D01*
X67089142Y-82450187D02*
X67017714Y-82450187D01*
X67017714Y-82450187D02*
X66874857Y-82378759D01*
X66874857Y-82378759D02*
X66803428Y-82235902D01*
X66803428Y-82235902D02*
X66803428Y-82021616D01*
X66803428Y-82021616D02*
X66874857Y-81878759D01*
X67732000Y-81235901D02*
X67803428Y-81093044D01*
X67803428Y-81093044D02*
X67803428Y-80807330D01*
X67803428Y-80807330D02*
X67732000Y-80664473D01*
X67732000Y-80664473D02*
X67589142Y-80593044D01*
X67589142Y-80593044D02*
X67517714Y-80593044D01*
X67517714Y-80593044D02*
X67374857Y-80664473D01*
X67374857Y-80664473D02*
X67303428Y-80807330D01*
X67303428Y-80807330D02*
X67303428Y-81021616D01*
X67303428Y-81021616D02*
X67232000Y-81164473D01*
X67232000Y-81164473D02*
X67089142Y-81235901D01*
X67089142Y-81235901D02*
X67017714Y-81235901D01*
X67017714Y-81235901D02*
X66874857Y-81164473D01*
X66874857Y-81164473D02*
X66803428Y-81021616D01*
X66803428Y-81021616D02*
X66803428Y-80807330D01*
X66803428Y-80807330D02*
X66874857Y-80664473D01*
X67803428Y-78807330D02*
X66303428Y-78807330D01*
X66303428Y-78807330D02*
X66303428Y-78235901D01*
X66303428Y-78235901D02*
X66374857Y-78093044D01*
X66374857Y-78093044D02*
X66446285Y-78021615D01*
X66446285Y-78021615D02*
X66589142Y-77950187D01*
X66589142Y-77950187D02*
X66803428Y-77950187D01*
X66803428Y-77950187D02*
X66946285Y-78021615D01*
X66946285Y-78021615D02*
X67017714Y-78093044D01*
X67017714Y-78093044D02*
X67089142Y-78235901D01*
X67089142Y-78235901D02*
X67089142Y-78807330D01*
X67803428Y-77093044D02*
X67732000Y-77235901D01*
X67732000Y-77235901D02*
X67660571Y-77307330D01*
X67660571Y-77307330D02*
X67517714Y-77378758D01*
X67517714Y-77378758D02*
X67089142Y-77378758D01*
X67089142Y-77378758D02*
X66946285Y-77307330D01*
X66946285Y-77307330D02*
X66874857Y-77235901D01*
X66874857Y-77235901D02*
X66803428Y-77093044D01*
X66803428Y-77093044D02*
X66803428Y-76878758D01*
X66803428Y-76878758D02*
X66874857Y-76735901D01*
X66874857Y-76735901D02*
X66946285Y-76664473D01*
X66946285Y-76664473D02*
X67089142Y-76593044D01*
X67089142Y-76593044D02*
X67517714Y-76593044D01*
X67517714Y-76593044D02*
X67660571Y-76664473D01*
X67660571Y-76664473D02*
X67732000Y-76735901D01*
X67732000Y-76735901D02*
X67803428Y-76878758D01*
X67803428Y-76878758D02*
X67803428Y-77093044D01*
X67803428Y-75950187D02*
X66803428Y-75950187D01*
X66303428Y-75950187D02*
X66374857Y-76021615D01*
X66374857Y-76021615D02*
X66446285Y-75950187D01*
X66446285Y-75950187D02*
X66374857Y-75878758D01*
X66374857Y-75878758D02*
X66303428Y-75950187D01*
X66303428Y-75950187D02*
X66446285Y-75950187D01*
X66803428Y-75235901D02*
X67803428Y-75235901D01*
X66946285Y-75235901D02*
X66874857Y-75164472D01*
X66874857Y-75164472D02*
X66803428Y-75021615D01*
X66803428Y-75021615D02*
X66803428Y-74807329D01*
X66803428Y-74807329D02*
X66874857Y-74664472D01*
X66874857Y-74664472D02*
X67017714Y-74593044D01*
X67017714Y-74593044D02*
X67803428Y-74593044D01*
X66803428Y-74093043D02*
X66803428Y-73521615D01*
X66303428Y-73878758D02*
X67589142Y-73878758D01*
X67589142Y-73878758D02*
X67732000Y-73807329D01*
X67732000Y-73807329D02*
X67803428Y-73664472D01*
X67803428Y-73664472D02*
X67803428Y-73521615D01*
X67732000Y-72450186D02*
X67803428Y-72593043D01*
X67803428Y-72593043D02*
X67803428Y-72878758D01*
X67803428Y-72878758D02*
X67732000Y-73021615D01*
X67732000Y-73021615D02*
X67589142Y-73093043D01*
X67589142Y-73093043D02*
X67017714Y-73093043D01*
X67017714Y-73093043D02*
X66874857Y-73021615D01*
X66874857Y-73021615D02*
X66803428Y-72878758D01*
X66803428Y-72878758D02*
X66803428Y-72593043D01*
X66803428Y-72593043D02*
X66874857Y-72450186D01*
X66874857Y-72450186D02*
X67017714Y-72378758D01*
X67017714Y-72378758D02*
X67160571Y-72378758D01*
X67160571Y-72378758D02*
X67303428Y-73093043D01*
X67803428Y-71735901D02*
X66803428Y-71735901D01*
X67089142Y-71735901D02*
X66946285Y-71664472D01*
X66946285Y-71664472D02*
X66874857Y-71593044D01*
X66874857Y-71593044D02*
X66803428Y-71450186D01*
X66803428Y-71450186D02*
X66803428Y-71307329D01*
X102503428Y-89935902D02*
X101003428Y-89935902D01*
X101003428Y-89935902D02*
X101003428Y-89578759D01*
X101003428Y-89578759D02*
X101074857Y-89364473D01*
X101074857Y-89364473D02*
X101217714Y-89221616D01*
X101217714Y-89221616D02*
X101360571Y-89150187D01*
X101360571Y-89150187D02*
X101646285Y-89078759D01*
X101646285Y-89078759D02*
X101860571Y-89078759D01*
X101860571Y-89078759D02*
X102146285Y-89150187D01*
X102146285Y-89150187D02*
X102289142Y-89221616D01*
X102289142Y-89221616D02*
X102432000Y-89364473D01*
X102432000Y-89364473D02*
X102503428Y-89578759D01*
X102503428Y-89578759D02*
X102503428Y-89935902D01*
X102503428Y-87793045D02*
X101717714Y-87793045D01*
X101717714Y-87793045D02*
X101574857Y-87864473D01*
X101574857Y-87864473D02*
X101503428Y-88007330D01*
X101503428Y-88007330D02*
X101503428Y-88293045D01*
X101503428Y-88293045D02*
X101574857Y-88435902D01*
X102432000Y-87793045D02*
X102503428Y-87935902D01*
X102503428Y-87935902D02*
X102503428Y-88293045D01*
X102503428Y-88293045D02*
X102432000Y-88435902D01*
X102432000Y-88435902D02*
X102289142Y-88507330D01*
X102289142Y-88507330D02*
X102146285Y-88507330D01*
X102146285Y-88507330D02*
X102003428Y-88435902D01*
X102003428Y-88435902D02*
X101932000Y-88293045D01*
X101932000Y-88293045D02*
X101932000Y-87935902D01*
X101932000Y-87935902D02*
X101860571Y-87793045D01*
X101503428Y-87293044D02*
X101503428Y-86721616D01*
X101003428Y-87078759D02*
X102289142Y-87078759D01*
X102289142Y-87078759D02*
X102432000Y-87007330D01*
X102432000Y-87007330D02*
X102503428Y-86864473D01*
X102503428Y-86864473D02*
X102503428Y-86721616D01*
X102503428Y-85578759D02*
X101717714Y-85578759D01*
X101717714Y-85578759D02*
X101574857Y-85650187D01*
X101574857Y-85650187D02*
X101503428Y-85793044D01*
X101503428Y-85793044D02*
X101503428Y-86078759D01*
X101503428Y-86078759D02*
X101574857Y-86221616D01*
X102432000Y-85578759D02*
X102503428Y-85721616D01*
X102503428Y-85721616D02*
X102503428Y-86078759D01*
X102503428Y-86078759D02*
X102432000Y-86221616D01*
X102432000Y-86221616D02*
X102289142Y-86293044D01*
X102289142Y-86293044D02*
X102146285Y-86293044D01*
X102146285Y-86293044D02*
X102003428Y-86221616D01*
X102003428Y-86221616D02*
X101932000Y-86078759D01*
X101932000Y-86078759D02*
X101932000Y-85721616D01*
X101932000Y-85721616D02*
X101860571Y-85578759D01*
X101717714Y-83221616D02*
X101789142Y-83007330D01*
X101789142Y-83007330D02*
X101860571Y-82935901D01*
X101860571Y-82935901D02*
X102003428Y-82864473D01*
X102003428Y-82864473D02*
X102217714Y-82864473D01*
X102217714Y-82864473D02*
X102360571Y-82935901D01*
X102360571Y-82935901D02*
X102432000Y-83007330D01*
X102432000Y-83007330D02*
X102503428Y-83150187D01*
X102503428Y-83150187D02*
X102503428Y-83721616D01*
X102503428Y-83721616D02*
X101003428Y-83721616D01*
X101003428Y-83721616D02*
X101003428Y-83221616D01*
X101003428Y-83221616D02*
X101074857Y-83078759D01*
X101074857Y-83078759D02*
X101146285Y-83007330D01*
X101146285Y-83007330D02*
X101289142Y-82935901D01*
X101289142Y-82935901D02*
X101432000Y-82935901D01*
X101432000Y-82935901D02*
X101574857Y-83007330D01*
X101574857Y-83007330D02*
X101646285Y-83078759D01*
X101646285Y-83078759D02*
X101717714Y-83221616D01*
X101717714Y-83221616D02*
X101717714Y-83721616D01*
X101503428Y-81578759D02*
X102503428Y-81578759D01*
X101503428Y-82221616D02*
X102289142Y-82221616D01*
X102289142Y-82221616D02*
X102432000Y-82150187D01*
X102432000Y-82150187D02*
X102503428Y-82007330D01*
X102503428Y-82007330D02*
X102503428Y-81793044D01*
X102503428Y-81793044D02*
X102432000Y-81650187D01*
X102432000Y-81650187D02*
X102360571Y-81578759D01*
X102432000Y-80935901D02*
X102503428Y-80793044D01*
X102503428Y-80793044D02*
X102503428Y-80507330D01*
X102503428Y-80507330D02*
X102432000Y-80364473D01*
X102432000Y-80364473D02*
X102289142Y-80293044D01*
X102289142Y-80293044D02*
X102217714Y-80293044D01*
X102217714Y-80293044D02*
X102074857Y-80364473D01*
X102074857Y-80364473D02*
X102003428Y-80507330D01*
X102003428Y-80507330D02*
X102003428Y-80721616D01*
X102003428Y-80721616D02*
X101932000Y-80864473D01*
X101932000Y-80864473D02*
X101789142Y-80935901D01*
X101789142Y-80935901D02*
X101717714Y-80935901D01*
X101717714Y-80935901D02*
X101574857Y-80864473D01*
X101574857Y-80864473D02*
X101503428Y-80721616D01*
X101503428Y-80721616D02*
X101503428Y-80507330D01*
X101503428Y-80507330D02*
X101574857Y-80364473D01*
X101717714Y-78007330D02*
X101789142Y-77793044D01*
X101789142Y-77793044D02*
X101860571Y-77721615D01*
X101860571Y-77721615D02*
X102003428Y-77650187D01*
X102003428Y-77650187D02*
X102217714Y-77650187D01*
X102217714Y-77650187D02*
X102360571Y-77721615D01*
X102360571Y-77721615D02*
X102432000Y-77793044D01*
X102432000Y-77793044D02*
X102503428Y-77935901D01*
X102503428Y-77935901D02*
X102503428Y-78507330D01*
X102503428Y-78507330D02*
X101003428Y-78507330D01*
X101003428Y-78507330D02*
X101003428Y-78007330D01*
X101003428Y-78007330D02*
X101074857Y-77864473D01*
X101074857Y-77864473D02*
X101146285Y-77793044D01*
X101146285Y-77793044D02*
X101289142Y-77721615D01*
X101289142Y-77721615D02*
X101432000Y-77721615D01*
X101432000Y-77721615D02*
X101574857Y-77793044D01*
X101574857Y-77793044D02*
X101646285Y-77864473D01*
X101646285Y-77864473D02*
X101717714Y-78007330D01*
X101717714Y-78007330D02*
X101717714Y-78507330D01*
X101503428Y-76364473D02*
X102503428Y-76364473D01*
X101503428Y-77007330D02*
X102289142Y-77007330D01*
X102289142Y-77007330D02*
X102432000Y-76935901D01*
X102432000Y-76935901D02*
X102503428Y-76793044D01*
X102503428Y-76793044D02*
X102503428Y-76578758D01*
X102503428Y-76578758D02*
X102432000Y-76435901D01*
X102432000Y-76435901D02*
X102360571Y-76364473D01*
X101503428Y-75864472D02*
X101503428Y-75293044D01*
X102503428Y-75650187D02*
X101217714Y-75650187D01*
X101217714Y-75650187D02*
X101074857Y-75578758D01*
X101074857Y-75578758D02*
X101003428Y-75435901D01*
X101003428Y-75435901D02*
X101003428Y-75293044D01*
X101503428Y-75007329D02*
X101503428Y-74435901D01*
X102503428Y-74793044D02*
X101217714Y-74793044D01*
X101217714Y-74793044D02*
X101074857Y-74721615D01*
X101074857Y-74721615D02*
X101003428Y-74578758D01*
X101003428Y-74578758D02*
X101003428Y-74435901D01*
X102432000Y-73364472D02*
X102503428Y-73507329D01*
X102503428Y-73507329D02*
X102503428Y-73793044D01*
X102503428Y-73793044D02*
X102432000Y-73935901D01*
X102432000Y-73935901D02*
X102289142Y-74007329D01*
X102289142Y-74007329D02*
X101717714Y-74007329D01*
X101717714Y-74007329D02*
X101574857Y-73935901D01*
X101574857Y-73935901D02*
X101503428Y-73793044D01*
X101503428Y-73793044D02*
X101503428Y-73507329D01*
X101503428Y-73507329D02*
X101574857Y-73364472D01*
X101574857Y-73364472D02*
X101717714Y-73293044D01*
X101717714Y-73293044D02*
X101860571Y-73293044D01*
X101860571Y-73293044D02*
X102003428Y-74007329D01*
X102503428Y-72650187D02*
X101503428Y-72650187D01*
X101789142Y-72650187D02*
X101646285Y-72578758D01*
X101646285Y-72578758D02*
X101574857Y-72507330D01*
X101574857Y-72507330D02*
X101503428Y-72364472D01*
X101503428Y-72364472D02*
X101503428Y-72221615D01*
X102432000Y-71793044D02*
X102503428Y-71650187D01*
X102503428Y-71650187D02*
X102503428Y-71364473D01*
X102503428Y-71364473D02*
X102432000Y-71221616D01*
X102432000Y-71221616D02*
X102289142Y-71150187D01*
X102289142Y-71150187D02*
X102217714Y-71150187D01*
X102217714Y-71150187D02*
X102074857Y-71221616D01*
X102074857Y-71221616D02*
X102003428Y-71364473D01*
X102003428Y-71364473D02*
X102003428Y-71578759D01*
X102003428Y-71578759D02*
X101932000Y-71721616D01*
X101932000Y-71721616D02*
X101789142Y-71793044D01*
X101789142Y-71793044D02*
X101717714Y-71793044D01*
X101717714Y-71793044D02*
X101574857Y-71721616D01*
X101574857Y-71721616D02*
X101503428Y-71578759D01*
X101503428Y-71578759D02*
X101503428Y-71364473D01*
X101503428Y-71364473D02*
X101574857Y-71221616D01*
X70621615Y-65658428D02*
X70621615Y-64158428D01*
X70621615Y-64158428D02*
X70978758Y-64158428D01*
X70978758Y-64158428D02*
X71193044Y-64229857D01*
X71193044Y-64229857D02*
X71335901Y-64372714D01*
X71335901Y-64372714D02*
X71407330Y-64515571D01*
X71407330Y-64515571D02*
X71478758Y-64801285D01*
X71478758Y-64801285D02*
X71478758Y-65015571D01*
X71478758Y-65015571D02*
X71407330Y-65301285D01*
X71407330Y-65301285D02*
X71335901Y-65444142D01*
X71335901Y-65444142D02*
X71193044Y-65587000D01*
X71193044Y-65587000D02*
X70978758Y-65658428D01*
X70978758Y-65658428D02*
X70621615Y-65658428D01*
X72693044Y-65587000D02*
X72550187Y-65658428D01*
X72550187Y-65658428D02*
X72264473Y-65658428D01*
X72264473Y-65658428D02*
X72121615Y-65587000D01*
X72121615Y-65587000D02*
X72050187Y-65444142D01*
X72050187Y-65444142D02*
X72050187Y-64872714D01*
X72050187Y-64872714D02*
X72121615Y-64729857D01*
X72121615Y-64729857D02*
X72264473Y-64658428D01*
X72264473Y-64658428D02*
X72550187Y-64658428D01*
X72550187Y-64658428D02*
X72693044Y-64729857D01*
X72693044Y-64729857D02*
X72764473Y-64872714D01*
X72764473Y-64872714D02*
X72764473Y-65015571D01*
X72764473Y-65015571D02*
X72050187Y-65158428D01*
X74050187Y-65587000D02*
X73907329Y-65658428D01*
X73907329Y-65658428D02*
X73621615Y-65658428D01*
X73621615Y-65658428D02*
X73478758Y-65587000D01*
X73478758Y-65587000D02*
X73407329Y-65515571D01*
X73407329Y-65515571D02*
X73335901Y-65372714D01*
X73335901Y-65372714D02*
X73335901Y-64944142D01*
X73335901Y-64944142D02*
X73407329Y-64801285D01*
X73407329Y-64801285D02*
X73478758Y-64729857D01*
X73478758Y-64729857D02*
X73621615Y-64658428D01*
X73621615Y-64658428D02*
X73907329Y-64658428D01*
X73907329Y-64658428D02*
X74050187Y-64729857D01*
X74907329Y-65658428D02*
X74764472Y-65587000D01*
X74764472Y-65587000D02*
X74693043Y-65515571D01*
X74693043Y-65515571D02*
X74621615Y-65372714D01*
X74621615Y-65372714D02*
X74621615Y-64944142D01*
X74621615Y-64944142D02*
X74693043Y-64801285D01*
X74693043Y-64801285D02*
X74764472Y-64729857D01*
X74764472Y-64729857D02*
X74907329Y-64658428D01*
X74907329Y-64658428D02*
X75121615Y-64658428D01*
X75121615Y-64658428D02*
X75264472Y-64729857D01*
X75264472Y-64729857D02*
X75335901Y-64801285D01*
X75335901Y-64801285D02*
X75407329Y-64944142D01*
X75407329Y-64944142D02*
X75407329Y-65372714D01*
X75407329Y-65372714D02*
X75335901Y-65515571D01*
X75335901Y-65515571D02*
X75264472Y-65587000D01*
X75264472Y-65587000D02*
X75121615Y-65658428D01*
X75121615Y-65658428D02*
X74907329Y-65658428D01*
X76693044Y-65658428D02*
X76693044Y-64158428D01*
X76693044Y-65587000D02*
X76550186Y-65658428D01*
X76550186Y-65658428D02*
X76264472Y-65658428D01*
X76264472Y-65658428D02*
X76121615Y-65587000D01*
X76121615Y-65587000D02*
X76050186Y-65515571D01*
X76050186Y-65515571D02*
X75978758Y-65372714D01*
X75978758Y-65372714D02*
X75978758Y-64944142D01*
X75978758Y-64944142D02*
X76050186Y-64801285D01*
X76050186Y-64801285D02*
X76121615Y-64729857D01*
X76121615Y-64729857D02*
X76264472Y-64658428D01*
X76264472Y-64658428D02*
X76550186Y-64658428D01*
X76550186Y-64658428D02*
X76693044Y-64729857D01*
X77407329Y-65658428D02*
X77407329Y-64658428D01*
X77407329Y-64158428D02*
X77335901Y-64229857D01*
X77335901Y-64229857D02*
X77407329Y-64301285D01*
X77407329Y-64301285D02*
X77478758Y-64229857D01*
X77478758Y-64229857D02*
X77407329Y-64158428D01*
X77407329Y-64158428D02*
X77407329Y-64301285D01*
X78121615Y-64658428D02*
X78121615Y-65658428D01*
X78121615Y-64801285D02*
X78193044Y-64729857D01*
X78193044Y-64729857D02*
X78335901Y-64658428D01*
X78335901Y-64658428D02*
X78550187Y-64658428D01*
X78550187Y-64658428D02*
X78693044Y-64729857D01*
X78693044Y-64729857D02*
X78764473Y-64872714D01*
X78764473Y-64872714D02*
X78764473Y-65658428D01*
X80121616Y-64658428D02*
X80121616Y-65872714D01*
X80121616Y-65872714D02*
X80050187Y-66015571D01*
X80050187Y-66015571D02*
X79978758Y-66087000D01*
X79978758Y-66087000D02*
X79835901Y-66158428D01*
X79835901Y-66158428D02*
X79621616Y-66158428D01*
X79621616Y-66158428D02*
X79478758Y-66087000D01*
X80121616Y-65587000D02*
X79978758Y-65658428D01*
X79978758Y-65658428D02*
X79693044Y-65658428D01*
X79693044Y-65658428D02*
X79550187Y-65587000D01*
X79550187Y-65587000D02*
X79478758Y-65515571D01*
X79478758Y-65515571D02*
X79407330Y-65372714D01*
X79407330Y-65372714D02*
X79407330Y-64944142D01*
X79407330Y-64944142D02*
X79478758Y-64801285D01*
X79478758Y-64801285D02*
X79550187Y-64729857D01*
X79550187Y-64729857D02*
X79693044Y-64658428D01*
X79693044Y-64658428D02*
X79978758Y-64658428D01*
X79978758Y-64658428D02*
X80121616Y-64729857D01*
X82693044Y-65658428D02*
X81978758Y-65658428D01*
X81978758Y-65658428D02*
X81978758Y-64158428D01*
X83407330Y-65658428D02*
X83264473Y-65587000D01*
X83264473Y-65587000D02*
X83193044Y-65515571D01*
X83193044Y-65515571D02*
X83121616Y-65372714D01*
X83121616Y-65372714D02*
X83121616Y-64944142D01*
X83121616Y-64944142D02*
X83193044Y-64801285D01*
X83193044Y-64801285D02*
X83264473Y-64729857D01*
X83264473Y-64729857D02*
X83407330Y-64658428D01*
X83407330Y-64658428D02*
X83621616Y-64658428D01*
X83621616Y-64658428D02*
X83764473Y-64729857D01*
X83764473Y-64729857D02*
X83835902Y-64801285D01*
X83835902Y-64801285D02*
X83907330Y-64944142D01*
X83907330Y-64944142D02*
X83907330Y-65372714D01*
X83907330Y-65372714D02*
X83835902Y-65515571D01*
X83835902Y-65515571D02*
X83764473Y-65587000D01*
X83764473Y-65587000D02*
X83621616Y-65658428D01*
X83621616Y-65658428D02*
X83407330Y-65658428D01*
X85193045Y-64658428D02*
X85193045Y-65872714D01*
X85193045Y-65872714D02*
X85121616Y-66015571D01*
X85121616Y-66015571D02*
X85050187Y-66087000D01*
X85050187Y-66087000D02*
X84907330Y-66158428D01*
X84907330Y-66158428D02*
X84693045Y-66158428D01*
X84693045Y-66158428D02*
X84550187Y-66087000D01*
X85193045Y-65587000D02*
X85050187Y-65658428D01*
X85050187Y-65658428D02*
X84764473Y-65658428D01*
X84764473Y-65658428D02*
X84621616Y-65587000D01*
X84621616Y-65587000D02*
X84550187Y-65515571D01*
X84550187Y-65515571D02*
X84478759Y-65372714D01*
X84478759Y-65372714D02*
X84478759Y-64944142D01*
X84478759Y-64944142D02*
X84550187Y-64801285D01*
X84550187Y-64801285D02*
X84621616Y-64729857D01*
X84621616Y-64729857D02*
X84764473Y-64658428D01*
X84764473Y-64658428D02*
X85050187Y-64658428D01*
X85050187Y-64658428D02*
X85193045Y-64729857D01*
X85907330Y-65658428D02*
X85907330Y-64658428D01*
X85907330Y-64158428D02*
X85835902Y-64229857D01*
X85835902Y-64229857D02*
X85907330Y-64301285D01*
X85907330Y-64301285D02*
X85978759Y-64229857D01*
X85978759Y-64229857D02*
X85907330Y-64158428D01*
X85907330Y-64158428D02*
X85907330Y-64301285D01*
X87264474Y-65587000D02*
X87121616Y-65658428D01*
X87121616Y-65658428D02*
X86835902Y-65658428D01*
X86835902Y-65658428D02*
X86693045Y-65587000D01*
X86693045Y-65587000D02*
X86621616Y-65515571D01*
X86621616Y-65515571D02*
X86550188Y-65372714D01*
X86550188Y-65372714D02*
X86550188Y-64944142D01*
X86550188Y-64944142D02*
X86621616Y-64801285D01*
X86621616Y-64801285D02*
X86693045Y-64729857D01*
X86693045Y-64729857D02*
X86835902Y-64658428D01*
X86835902Y-64658428D02*
X87121616Y-64658428D01*
X87121616Y-64658428D02*
X87264474Y-64729857D01*
D13*
X108148095Y-97164819D02*
X108148095Y-97974342D01*
X108148095Y-97974342D02*
X108195714Y-98069580D01*
X108195714Y-98069580D02*
X108243333Y-98117200D01*
X108243333Y-98117200D02*
X108338571Y-98164819D01*
X108338571Y-98164819D02*
X108529047Y-98164819D01*
X108529047Y-98164819D02*
X108624285Y-98117200D01*
X108624285Y-98117200D02*
X108671904Y-98069580D01*
X108671904Y-98069580D02*
X108719523Y-97974342D01*
X108719523Y-97974342D02*
X108719523Y-97164819D01*
X109671904Y-97164819D02*
X109195714Y-97164819D01*
X109195714Y-97164819D02*
X109148095Y-97641009D01*
X109148095Y-97641009D02*
X109195714Y-97593390D01*
X109195714Y-97593390D02*
X109290952Y-97545771D01*
X109290952Y-97545771D02*
X109529047Y-97545771D01*
X109529047Y-97545771D02*
X109624285Y-97593390D01*
X109624285Y-97593390D02*
X109671904Y-97641009D01*
X109671904Y-97641009D02*
X109719523Y-97736247D01*
X109719523Y-97736247D02*
X109719523Y-97974342D01*
X109719523Y-97974342D02*
X109671904Y-98069580D01*
X109671904Y-98069580D02*
X109624285Y-98117200D01*
X109624285Y-98117200D02*
X109529047Y-98164819D01*
X109529047Y-98164819D02*
X109290952Y-98164819D01*
X109290952Y-98164819D02*
X109195714Y-98117200D01*
X109195714Y-98117200D02*
X109148095Y-98069580D01*
X114054819Y-79171428D02*
X114054819Y-78504762D01*
X114054819Y-78504762D02*
X115054819Y-78933333D01*
X114388152Y-77695238D02*
X115054819Y-77695238D01*
X114007200Y-77933333D02*
X114721485Y-78171428D01*
X114721485Y-78171428D02*
X114721485Y-77552381D01*
X114769104Y-77219047D02*
X114769104Y-76742857D01*
X115054819Y-77314285D02*
X114054819Y-76980952D01*
X114054819Y-76980952D02*
X115054819Y-76647619D01*
X115054819Y-76314285D02*
X114054819Y-76314285D01*
X114531009Y-76314285D02*
X114531009Y-75742857D01*
X115054819Y-75742857D02*
X114054819Y-75742857D01*
X114959580Y-74695238D02*
X115007200Y-74742857D01*
X115007200Y-74742857D02*
X115054819Y-74885714D01*
X115054819Y-74885714D02*
X115054819Y-74980952D01*
X115054819Y-74980952D02*
X115007200Y-75123809D01*
X115007200Y-75123809D02*
X114911961Y-75219047D01*
X114911961Y-75219047D02*
X114816723Y-75266666D01*
X114816723Y-75266666D02*
X114626247Y-75314285D01*
X114626247Y-75314285D02*
X114483390Y-75314285D01*
X114483390Y-75314285D02*
X114292914Y-75266666D01*
X114292914Y-75266666D02*
X114197676Y-75219047D01*
X114197676Y-75219047D02*
X114102438Y-75123809D01*
X114102438Y-75123809D02*
X114054819Y-74980952D01*
X114054819Y-74980952D02*
X114054819Y-74885714D01*
X114054819Y-74885714D02*
X114102438Y-74742857D01*
X114102438Y-74742857D02*
X114150057Y-74695238D01*
X114054819Y-74409523D02*
X114054819Y-73838095D01*
X115054819Y-74123809D02*
X114054819Y-74123809D01*
X114054819Y-73028571D02*
X114054819Y-73504761D01*
X114054819Y-73504761D02*
X114531009Y-73552380D01*
X114531009Y-73552380D02*
X114483390Y-73504761D01*
X114483390Y-73504761D02*
X114435771Y-73409523D01*
X114435771Y-73409523D02*
X114435771Y-73171428D01*
X114435771Y-73171428D02*
X114483390Y-73076190D01*
X114483390Y-73076190D02*
X114531009Y-73028571D01*
X114531009Y-73028571D02*
X114626247Y-72980952D01*
X114626247Y-72980952D02*
X114864342Y-72980952D01*
X114864342Y-72980952D02*
X114959580Y-73028571D01*
X114959580Y-73028571D02*
X115007200Y-73076190D01*
X115007200Y-73076190D02*
X115054819Y-73171428D01*
X115054819Y-73171428D02*
X115054819Y-73409523D01*
X115054819Y-73409523D02*
X115007200Y-73504761D01*
X115007200Y-73504761D02*
X114959580Y-73552380D01*
X114054819Y-72647618D02*
X114054819Y-71980952D01*
X114054819Y-71980952D02*
X115054819Y-72409523D01*
X114054819Y-71695237D02*
X114054819Y-71076190D01*
X114054819Y-71076190D02*
X114435771Y-71409523D01*
X114435771Y-71409523D02*
X114435771Y-71266666D01*
X114435771Y-71266666D02*
X114483390Y-71171428D01*
X114483390Y-71171428D02*
X114531009Y-71123809D01*
X114531009Y-71123809D02*
X114626247Y-71076190D01*
X114626247Y-71076190D02*
X114864342Y-71076190D01*
X114864342Y-71076190D02*
X114959580Y-71123809D01*
X114959580Y-71123809D02*
X115007200Y-71171428D01*
X115007200Y-71171428D02*
X115054819Y-71266666D01*
X115054819Y-71266666D02*
X115054819Y-71552380D01*
X115054819Y-71552380D02*
X115007200Y-71647618D01*
X115007200Y-71647618D02*
X114959580Y-71695237D01*
X116759580Y-102816666D02*
X116807200Y-102864285D01*
X116807200Y-102864285D02*
X116854819Y-103007142D01*
X116854819Y-103007142D02*
X116854819Y-103102380D01*
X116854819Y-103102380D02*
X116807200Y-103245237D01*
X116807200Y-103245237D02*
X116711961Y-103340475D01*
X116711961Y-103340475D02*
X116616723Y-103388094D01*
X116616723Y-103388094D02*
X116426247Y-103435713D01*
X116426247Y-103435713D02*
X116283390Y-103435713D01*
X116283390Y-103435713D02*
X116092914Y-103388094D01*
X116092914Y-103388094D02*
X115997676Y-103340475D01*
X115997676Y-103340475D02*
X115902438Y-103245237D01*
X115902438Y-103245237D02*
X115854819Y-103102380D01*
X115854819Y-103102380D02*
X115854819Y-103007142D01*
X115854819Y-103007142D02*
X115902438Y-102864285D01*
X115902438Y-102864285D02*
X115950057Y-102816666D01*
X115854819Y-101959523D02*
X115854819Y-102149999D01*
X115854819Y-102149999D02*
X115902438Y-102245237D01*
X115902438Y-102245237D02*
X115950057Y-102292856D01*
X115950057Y-102292856D02*
X116092914Y-102388094D01*
X116092914Y-102388094D02*
X116283390Y-102435713D01*
X116283390Y-102435713D02*
X116664342Y-102435713D01*
X116664342Y-102435713D02*
X116759580Y-102388094D01*
X116759580Y-102388094D02*
X116807200Y-102340475D01*
X116807200Y-102340475D02*
X116854819Y-102245237D01*
X116854819Y-102245237D02*
X116854819Y-102054761D01*
X116854819Y-102054761D02*
X116807200Y-101959523D01*
X116807200Y-101959523D02*
X116759580Y-101911904D01*
X116759580Y-101911904D02*
X116664342Y-101864285D01*
X116664342Y-101864285D02*
X116426247Y-101864285D01*
X116426247Y-101864285D02*
X116331009Y-101911904D01*
X116331009Y-101911904D02*
X116283390Y-101959523D01*
X116283390Y-101959523D02*
X116235771Y-102054761D01*
X116235771Y-102054761D02*
X116235771Y-102245237D01*
X116235771Y-102245237D02*
X116283390Y-102340475D01*
X116283390Y-102340475D02*
X116331009Y-102388094D01*
X116331009Y-102388094D02*
X116426247Y-102435713D01*
X62316666Y-54329819D02*
X62316666Y-55044104D01*
X62316666Y-55044104D02*
X62269047Y-55186961D01*
X62269047Y-55186961D02*
X62173809Y-55282200D01*
X62173809Y-55282200D02*
X62030952Y-55329819D01*
X62030952Y-55329819D02*
X61935714Y-55329819D01*
X62745238Y-54425057D02*
X62792857Y-54377438D01*
X62792857Y-54377438D02*
X62888095Y-54329819D01*
X62888095Y-54329819D02*
X63126190Y-54329819D01*
X63126190Y-54329819D02*
X63221428Y-54377438D01*
X63221428Y-54377438D02*
X63269047Y-54425057D01*
X63269047Y-54425057D02*
X63316666Y-54520295D01*
X63316666Y-54520295D02*
X63316666Y-54615533D01*
X63316666Y-54615533D02*
X63269047Y-54758390D01*
X63269047Y-54758390D02*
X62697619Y-55329819D01*
X62697619Y-55329819D02*
X63316666Y-55329819D01*
X90754819Y-61561904D02*
X91564342Y-61561904D01*
X91564342Y-61561904D02*
X91659580Y-61514285D01*
X91659580Y-61514285D02*
X91707200Y-61466666D01*
X91707200Y-61466666D02*
X91754819Y-61371428D01*
X91754819Y-61371428D02*
X91754819Y-61180952D01*
X91754819Y-61180952D02*
X91707200Y-61085714D01*
X91707200Y-61085714D02*
X91659580Y-61038095D01*
X91659580Y-61038095D02*
X91564342Y-60990476D01*
X91564342Y-60990476D02*
X90754819Y-60990476D01*
X91183390Y-60371428D02*
X91135771Y-60466666D01*
X91135771Y-60466666D02*
X91088152Y-60514285D01*
X91088152Y-60514285D02*
X90992914Y-60561904D01*
X90992914Y-60561904D02*
X90945295Y-60561904D01*
X90945295Y-60561904D02*
X90850057Y-60514285D01*
X90850057Y-60514285D02*
X90802438Y-60466666D01*
X90802438Y-60466666D02*
X90754819Y-60371428D01*
X90754819Y-60371428D02*
X90754819Y-60180952D01*
X90754819Y-60180952D02*
X90802438Y-60085714D01*
X90802438Y-60085714D02*
X90850057Y-60038095D01*
X90850057Y-60038095D02*
X90945295Y-59990476D01*
X90945295Y-59990476D02*
X90992914Y-59990476D01*
X90992914Y-59990476D02*
X91088152Y-60038095D01*
X91088152Y-60038095D02*
X91135771Y-60085714D01*
X91135771Y-60085714D02*
X91183390Y-60180952D01*
X91183390Y-60180952D02*
X91183390Y-60371428D01*
X91183390Y-60371428D02*
X91231009Y-60466666D01*
X91231009Y-60466666D02*
X91278628Y-60514285D01*
X91278628Y-60514285D02*
X91373866Y-60561904D01*
X91373866Y-60561904D02*
X91564342Y-60561904D01*
X91564342Y-60561904D02*
X91659580Y-60514285D01*
X91659580Y-60514285D02*
X91707200Y-60466666D01*
X91707200Y-60466666D02*
X91754819Y-60371428D01*
X91754819Y-60371428D02*
X91754819Y-60180952D01*
X91754819Y-60180952D02*
X91707200Y-60085714D01*
X91707200Y-60085714D02*
X91659580Y-60038095D01*
X91659580Y-60038095D02*
X91564342Y-59990476D01*
X91564342Y-59990476D02*
X91373866Y-59990476D01*
X91373866Y-59990476D02*
X91278628Y-60038095D01*
X91278628Y-60038095D02*
X91231009Y-60085714D01*
X91231009Y-60085714D02*
X91183390Y-60180952D01*
X103204762Y-62054819D02*
X103871428Y-62054819D01*
X103871428Y-62054819D02*
X103442857Y-63054819D01*
X104680952Y-62388152D02*
X104680952Y-63054819D01*
X104442857Y-62007200D02*
X104204762Y-62721485D01*
X104204762Y-62721485D02*
X104823809Y-62721485D01*
X105157143Y-62769104D02*
X105633333Y-62769104D01*
X105061905Y-63054819D02*
X105395238Y-62054819D01*
X105395238Y-62054819D02*
X105728571Y-63054819D01*
X106061905Y-63054819D02*
X106061905Y-62054819D01*
X106061905Y-62531009D02*
X106633333Y-62531009D01*
X106633333Y-63054819D02*
X106633333Y-62054819D01*
X107680952Y-62959580D02*
X107633333Y-63007200D01*
X107633333Y-63007200D02*
X107490476Y-63054819D01*
X107490476Y-63054819D02*
X107395238Y-63054819D01*
X107395238Y-63054819D02*
X107252381Y-63007200D01*
X107252381Y-63007200D02*
X107157143Y-62911961D01*
X107157143Y-62911961D02*
X107109524Y-62816723D01*
X107109524Y-62816723D02*
X107061905Y-62626247D01*
X107061905Y-62626247D02*
X107061905Y-62483390D01*
X107061905Y-62483390D02*
X107109524Y-62292914D01*
X107109524Y-62292914D02*
X107157143Y-62197676D01*
X107157143Y-62197676D02*
X107252381Y-62102438D01*
X107252381Y-62102438D02*
X107395238Y-62054819D01*
X107395238Y-62054819D02*
X107490476Y-62054819D01*
X107490476Y-62054819D02*
X107633333Y-62102438D01*
X107633333Y-62102438D02*
X107680952Y-62150057D01*
X107966667Y-62054819D02*
X108538095Y-62054819D01*
X108252381Y-63054819D02*
X108252381Y-62054819D01*
X109061905Y-62054819D02*
X109157143Y-62054819D01*
X109157143Y-62054819D02*
X109252381Y-62102438D01*
X109252381Y-62102438D02*
X109300000Y-62150057D01*
X109300000Y-62150057D02*
X109347619Y-62245295D01*
X109347619Y-62245295D02*
X109395238Y-62435771D01*
X109395238Y-62435771D02*
X109395238Y-62673866D01*
X109395238Y-62673866D02*
X109347619Y-62864342D01*
X109347619Y-62864342D02*
X109300000Y-62959580D01*
X109300000Y-62959580D02*
X109252381Y-63007200D01*
X109252381Y-63007200D02*
X109157143Y-63054819D01*
X109157143Y-63054819D02*
X109061905Y-63054819D01*
X109061905Y-63054819D02*
X108966667Y-63007200D01*
X108966667Y-63007200D02*
X108919048Y-62959580D01*
X108919048Y-62959580D02*
X108871429Y-62864342D01*
X108871429Y-62864342D02*
X108823810Y-62673866D01*
X108823810Y-62673866D02*
X108823810Y-62435771D01*
X108823810Y-62435771D02*
X108871429Y-62245295D01*
X108871429Y-62245295D02*
X108919048Y-62150057D01*
X108919048Y-62150057D02*
X108966667Y-62102438D01*
X108966667Y-62102438D02*
X109061905Y-62054819D01*
X109776191Y-62150057D02*
X109823810Y-62102438D01*
X109823810Y-62102438D02*
X109919048Y-62054819D01*
X109919048Y-62054819D02*
X110157143Y-62054819D01*
X110157143Y-62054819D02*
X110252381Y-62102438D01*
X110252381Y-62102438D02*
X110300000Y-62150057D01*
X110300000Y-62150057D02*
X110347619Y-62245295D01*
X110347619Y-62245295D02*
X110347619Y-62340533D01*
X110347619Y-62340533D02*
X110300000Y-62483390D01*
X110300000Y-62483390D02*
X109728572Y-63054819D01*
X109728572Y-63054819D02*
X110347619Y-63054819D01*
X95533333Y-130059580D02*
X95485714Y-130107200D01*
X95485714Y-130107200D02*
X95342857Y-130154819D01*
X95342857Y-130154819D02*
X95247619Y-130154819D01*
X95247619Y-130154819D02*
X95104762Y-130107200D01*
X95104762Y-130107200D02*
X95009524Y-130011961D01*
X95009524Y-130011961D02*
X94961905Y-129916723D01*
X94961905Y-129916723D02*
X94914286Y-129726247D01*
X94914286Y-129726247D02*
X94914286Y-129583390D01*
X94914286Y-129583390D02*
X94961905Y-129392914D01*
X94961905Y-129392914D02*
X95009524Y-129297676D01*
X95009524Y-129297676D02*
X95104762Y-129202438D01*
X95104762Y-129202438D02*
X95247619Y-129154819D01*
X95247619Y-129154819D02*
X95342857Y-129154819D01*
X95342857Y-129154819D02*
X95485714Y-129202438D01*
X95485714Y-129202438D02*
X95533333Y-129250057D01*
X95866667Y-129154819D02*
X96485714Y-129154819D01*
X96485714Y-129154819D02*
X96152381Y-129535771D01*
X96152381Y-129535771D02*
X96295238Y-129535771D01*
X96295238Y-129535771D02*
X96390476Y-129583390D01*
X96390476Y-129583390D02*
X96438095Y-129631009D01*
X96438095Y-129631009D02*
X96485714Y-129726247D01*
X96485714Y-129726247D02*
X96485714Y-129964342D01*
X96485714Y-129964342D02*
X96438095Y-130059580D01*
X96438095Y-130059580D02*
X96390476Y-130107200D01*
X96390476Y-130107200D02*
X96295238Y-130154819D01*
X96295238Y-130154819D02*
X96009524Y-130154819D01*
X96009524Y-130154819D02*
X95914286Y-130107200D01*
X95914286Y-130107200D02*
X95866667Y-130059580D01*
X77533333Y-99959580D02*
X77485714Y-100007200D01*
X77485714Y-100007200D02*
X77342857Y-100054819D01*
X77342857Y-100054819D02*
X77247619Y-100054819D01*
X77247619Y-100054819D02*
X77104762Y-100007200D01*
X77104762Y-100007200D02*
X77009524Y-99911961D01*
X77009524Y-99911961D02*
X76961905Y-99816723D01*
X76961905Y-99816723D02*
X76914286Y-99626247D01*
X76914286Y-99626247D02*
X76914286Y-99483390D01*
X76914286Y-99483390D02*
X76961905Y-99292914D01*
X76961905Y-99292914D02*
X77009524Y-99197676D01*
X77009524Y-99197676D02*
X77104762Y-99102438D01*
X77104762Y-99102438D02*
X77247619Y-99054819D01*
X77247619Y-99054819D02*
X77342857Y-99054819D01*
X77342857Y-99054819D02*
X77485714Y-99102438D01*
X77485714Y-99102438D02*
X77533333Y-99150057D01*
X77914286Y-99150057D02*
X77961905Y-99102438D01*
X77961905Y-99102438D02*
X78057143Y-99054819D01*
X78057143Y-99054819D02*
X78295238Y-99054819D01*
X78295238Y-99054819D02*
X78390476Y-99102438D01*
X78390476Y-99102438D02*
X78438095Y-99150057D01*
X78438095Y-99150057D02*
X78485714Y-99245295D01*
X78485714Y-99245295D02*
X78485714Y-99340533D01*
X78485714Y-99340533D02*
X78438095Y-99483390D01*
X78438095Y-99483390D02*
X77866667Y-100054819D01*
X77866667Y-100054819D02*
X78485714Y-100054819D01*
X94938095Y-97154819D02*
X94938095Y-97964342D01*
X94938095Y-97964342D02*
X94985714Y-98059580D01*
X94985714Y-98059580D02*
X95033333Y-98107200D01*
X95033333Y-98107200D02*
X95128571Y-98154819D01*
X95128571Y-98154819D02*
X95319047Y-98154819D01*
X95319047Y-98154819D02*
X95414285Y-98107200D01*
X95414285Y-98107200D02*
X95461904Y-98059580D01*
X95461904Y-98059580D02*
X95509523Y-97964342D01*
X95509523Y-97964342D02*
X95509523Y-97154819D01*
X96414285Y-97488152D02*
X96414285Y-98154819D01*
X96176190Y-97107200D02*
X95938095Y-97821485D01*
X95938095Y-97821485D02*
X96557142Y-97821485D01*
X97054819Y-79171428D02*
X97054819Y-78504762D01*
X97054819Y-78504762D02*
X98054819Y-78933333D01*
X97388152Y-77695238D02*
X98054819Y-77695238D01*
X97007200Y-77933333D02*
X97721485Y-78171428D01*
X97721485Y-78171428D02*
X97721485Y-77552381D01*
X97769104Y-77219047D02*
X97769104Y-76742857D01*
X98054819Y-77314285D02*
X97054819Y-76980952D01*
X97054819Y-76980952D02*
X98054819Y-76647619D01*
X98054819Y-76314285D02*
X97054819Y-76314285D01*
X97531009Y-76314285D02*
X97531009Y-75742857D01*
X98054819Y-75742857D02*
X97054819Y-75742857D01*
X97959580Y-74695238D02*
X98007200Y-74742857D01*
X98007200Y-74742857D02*
X98054819Y-74885714D01*
X98054819Y-74885714D02*
X98054819Y-74980952D01*
X98054819Y-74980952D02*
X98007200Y-75123809D01*
X98007200Y-75123809D02*
X97911961Y-75219047D01*
X97911961Y-75219047D02*
X97816723Y-75266666D01*
X97816723Y-75266666D02*
X97626247Y-75314285D01*
X97626247Y-75314285D02*
X97483390Y-75314285D01*
X97483390Y-75314285D02*
X97292914Y-75266666D01*
X97292914Y-75266666D02*
X97197676Y-75219047D01*
X97197676Y-75219047D02*
X97102438Y-75123809D01*
X97102438Y-75123809D02*
X97054819Y-74980952D01*
X97054819Y-74980952D02*
X97054819Y-74885714D01*
X97054819Y-74885714D02*
X97102438Y-74742857D01*
X97102438Y-74742857D02*
X97150057Y-74695238D01*
X97054819Y-74409523D02*
X97054819Y-73838095D01*
X98054819Y-74123809D02*
X97054819Y-74123809D01*
X97054819Y-73028571D02*
X97054819Y-73504761D01*
X97054819Y-73504761D02*
X97531009Y-73552380D01*
X97531009Y-73552380D02*
X97483390Y-73504761D01*
X97483390Y-73504761D02*
X97435771Y-73409523D01*
X97435771Y-73409523D02*
X97435771Y-73171428D01*
X97435771Y-73171428D02*
X97483390Y-73076190D01*
X97483390Y-73076190D02*
X97531009Y-73028571D01*
X97531009Y-73028571D02*
X97626247Y-72980952D01*
X97626247Y-72980952D02*
X97864342Y-72980952D01*
X97864342Y-72980952D02*
X97959580Y-73028571D01*
X97959580Y-73028571D02*
X98007200Y-73076190D01*
X98007200Y-73076190D02*
X98054819Y-73171428D01*
X98054819Y-73171428D02*
X98054819Y-73409523D01*
X98054819Y-73409523D02*
X98007200Y-73504761D01*
X98007200Y-73504761D02*
X97959580Y-73552380D01*
X97054819Y-72647618D02*
X97054819Y-71980952D01*
X97054819Y-71980952D02*
X98054819Y-72409523D01*
X97054819Y-71695237D02*
X97054819Y-71076190D01*
X97054819Y-71076190D02*
X97435771Y-71409523D01*
X97435771Y-71409523D02*
X97435771Y-71266666D01*
X97435771Y-71266666D02*
X97483390Y-71171428D01*
X97483390Y-71171428D02*
X97531009Y-71123809D01*
X97531009Y-71123809D02*
X97626247Y-71076190D01*
X97626247Y-71076190D02*
X97864342Y-71076190D01*
X97864342Y-71076190D02*
X97959580Y-71123809D01*
X97959580Y-71123809D02*
X98007200Y-71171428D01*
X98007200Y-71171428D02*
X98054819Y-71266666D01*
X98054819Y-71266666D02*
X98054819Y-71552380D01*
X98054819Y-71552380D02*
X98007200Y-71647618D01*
X98007200Y-71647618D02*
X97959580Y-71695237D01*
X94938095Y-127254819D02*
X94938095Y-128064342D01*
X94938095Y-128064342D02*
X94985714Y-128159580D01*
X94985714Y-128159580D02*
X95033333Y-128207200D01*
X95033333Y-128207200D02*
X95128571Y-128254819D01*
X95128571Y-128254819D02*
X95319047Y-128254819D01*
X95319047Y-128254819D02*
X95414285Y-128207200D01*
X95414285Y-128207200D02*
X95461904Y-128159580D01*
X95461904Y-128159580D02*
X95509523Y-128064342D01*
X95509523Y-128064342D02*
X95509523Y-127254819D01*
X95890476Y-127254819D02*
X96509523Y-127254819D01*
X96509523Y-127254819D02*
X96176190Y-127635771D01*
X96176190Y-127635771D02*
X96319047Y-127635771D01*
X96319047Y-127635771D02*
X96414285Y-127683390D01*
X96414285Y-127683390D02*
X96461904Y-127731009D01*
X96461904Y-127731009D02*
X96509523Y-127826247D01*
X96509523Y-127826247D02*
X96509523Y-128064342D01*
X96509523Y-128064342D02*
X96461904Y-128159580D01*
X96461904Y-128159580D02*
X96414285Y-128207200D01*
X96414285Y-128207200D02*
X96319047Y-128254819D01*
X96319047Y-128254819D02*
X96033333Y-128254819D01*
X96033333Y-128254819D02*
X95938095Y-128207200D01*
X95938095Y-128207200D02*
X95890476Y-128159580D01*
X97054819Y-109171428D02*
X97054819Y-108504762D01*
X97054819Y-108504762D02*
X98054819Y-108933333D01*
X97388152Y-107695238D02*
X98054819Y-107695238D01*
X97007200Y-107933333D02*
X97721485Y-108171428D01*
X97721485Y-108171428D02*
X97721485Y-107552381D01*
X97769104Y-107219047D02*
X97769104Y-106742857D01*
X98054819Y-107314285D02*
X97054819Y-106980952D01*
X97054819Y-106980952D02*
X98054819Y-106647619D01*
X98054819Y-106314285D02*
X97054819Y-106314285D01*
X97531009Y-106314285D02*
X97531009Y-105742857D01*
X98054819Y-105742857D02*
X97054819Y-105742857D01*
X97959580Y-104695238D02*
X98007200Y-104742857D01*
X98007200Y-104742857D02*
X98054819Y-104885714D01*
X98054819Y-104885714D02*
X98054819Y-104980952D01*
X98054819Y-104980952D02*
X98007200Y-105123809D01*
X98007200Y-105123809D02*
X97911961Y-105219047D01*
X97911961Y-105219047D02*
X97816723Y-105266666D01*
X97816723Y-105266666D02*
X97626247Y-105314285D01*
X97626247Y-105314285D02*
X97483390Y-105314285D01*
X97483390Y-105314285D02*
X97292914Y-105266666D01*
X97292914Y-105266666D02*
X97197676Y-105219047D01*
X97197676Y-105219047D02*
X97102438Y-105123809D01*
X97102438Y-105123809D02*
X97054819Y-104980952D01*
X97054819Y-104980952D02*
X97054819Y-104885714D01*
X97054819Y-104885714D02*
X97102438Y-104742857D01*
X97102438Y-104742857D02*
X97150057Y-104695238D01*
X97054819Y-104409523D02*
X97054819Y-103838095D01*
X98054819Y-104123809D02*
X97054819Y-104123809D01*
X97054819Y-103028571D02*
X97054819Y-103504761D01*
X97054819Y-103504761D02*
X97531009Y-103552380D01*
X97531009Y-103552380D02*
X97483390Y-103504761D01*
X97483390Y-103504761D02*
X97435771Y-103409523D01*
X97435771Y-103409523D02*
X97435771Y-103171428D01*
X97435771Y-103171428D02*
X97483390Y-103076190D01*
X97483390Y-103076190D02*
X97531009Y-103028571D01*
X97531009Y-103028571D02*
X97626247Y-102980952D01*
X97626247Y-102980952D02*
X97864342Y-102980952D01*
X97864342Y-102980952D02*
X97959580Y-103028571D01*
X97959580Y-103028571D02*
X98007200Y-103076190D01*
X98007200Y-103076190D02*
X98054819Y-103171428D01*
X98054819Y-103171428D02*
X98054819Y-103409523D01*
X98054819Y-103409523D02*
X98007200Y-103504761D01*
X98007200Y-103504761D02*
X97959580Y-103552380D01*
X97054819Y-102647618D02*
X97054819Y-101980952D01*
X97054819Y-101980952D02*
X98054819Y-102409523D01*
X97054819Y-101695237D02*
X97054819Y-101076190D01*
X97054819Y-101076190D02*
X97435771Y-101409523D01*
X97435771Y-101409523D02*
X97435771Y-101266666D01*
X97435771Y-101266666D02*
X97483390Y-101171428D01*
X97483390Y-101171428D02*
X97531009Y-101123809D01*
X97531009Y-101123809D02*
X97626247Y-101076190D01*
X97626247Y-101076190D02*
X97864342Y-101076190D01*
X97864342Y-101076190D02*
X97959580Y-101123809D01*
X97959580Y-101123809D02*
X98007200Y-101171428D01*
X98007200Y-101171428D02*
X98054819Y-101266666D01*
X98054819Y-101266666D02*
X98054819Y-101552380D01*
X98054819Y-101552380D02*
X98007200Y-101647618D01*
X98007200Y-101647618D02*
X97959580Y-101695237D01*
X68654819Y-61461904D02*
X69464342Y-61461904D01*
X69464342Y-61461904D02*
X69559580Y-61414285D01*
X69559580Y-61414285D02*
X69607200Y-61366666D01*
X69607200Y-61366666D02*
X69654819Y-61271428D01*
X69654819Y-61271428D02*
X69654819Y-61080952D01*
X69654819Y-61080952D02*
X69607200Y-60985714D01*
X69607200Y-60985714D02*
X69559580Y-60938095D01*
X69559580Y-60938095D02*
X69464342Y-60890476D01*
X69464342Y-60890476D02*
X68654819Y-60890476D01*
X68654819Y-60509523D02*
X68654819Y-59842857D01*
X68654819Y-59842857D02*
X69654819Y-60271428D01*
X81304762Y-62054819D02*
X81971428Y-62054819D01*
X81971428Y-62054819D02*
X81542857Y-63054819D01*
X82780952Y-62388152D02*
X82780952Y-63054819D01*
X82542857Y-62007200D02*
X82304762Y-62721485D01*
X82304762Y-62721485D02*
X82923809Y-62721485D01*
X83257143Y-62769104D02*
X83733333Y-62769104D01*
X83161905Y-63054819D02*
X83495238Y-62054819D01*
X83495238Y-62054819D02*
X83828571Y-63054819D01*
X84161905Y-63054819D02*
X84161905Y-62054819D01*
X84161905Y-62531009D02*
X84733333Y-62531009D01*
X84733333Y-63054819D02*
X84733333Y-62054819D01*
X85780952Y-62959580D02*
X85733333Y-63007200D01*
X85733333Y-63007200D02*
X85590476Y-63054819D01*
X85590476Y-63054819D02*
X85495238Y-63054819D01*
X85495238Y-63054819D02*
X85352381Y-63007200D01*
X85352381Y-63007200D02*
X85257143Y-62911961D01*
X85257143Y-62911961D02*
X85209524Y-62816723D01*
X85209524Y-62816723D02*
X85161905Y-62626247D01*
X85161905Y-62626247D02*
X85161905Y-62483390D01*
X85161905Y-62483390D02*
X85209524Y-62292914D01*
X85209524Y-62292914D02*
X85257143Y-62197676D01*
X85257143Y-62197676D02*
X85352381Y-62102438D01*
X85352381Y-62102438D02*
X85495238Y-62054819D01*
X85495238Y-62054819D02*
X85590476Y-62054819D01*
X85590476Y-62054819D02*
X85733333Y-62102438D01*
X85733333Y-62102438D02*
X85780952Y-62150057D01*
X86066667Y-62054819D02*
X86638095Y-62054819D01*
X86352381Y-63054819D02*
X86352381Y-62054819D01*
X87161905Y-62054819D02*
X87257143Y-62054819D01*
X87257143Y-62054819D02*
X87352381Y-62102438D01*
X87352381Y-62102438D02*
X87400000Y-62150057D01*
X87400000Y-62150057D02*
X87447619Y-62245295D01*
X87447619Y-62245295D02*
X87495238Y-62435771D01*
X87495238Y-62435771D02*
X87495238Y-62673866D01*
X87495238Y-62673866D02*
X87447619Y-62864342D01*
X87447619Y-62864342D02*
X87400000Y-62959580D01*
X87400000Y-62959580D02*
X87352381Y-63007200D01*
X87352381Y-63007200D02*
X87257143Y-63054819D01*
X87257143Y-63054819D02*
X87161905Y-63054819D01*
X87161905Y-63054819D02*
X87066667Y-63007200D01*
X87066667Y-63007200D02*
X87019048Y-62959580D01*
X87019048Y-62959580D02*
X86971429Y-62864342D01*
X86971429Y-62864342D02*
X86923810Y-62673866D01*
X86923810Y-62673866D02*
X86923810Y-62435771D01*
X86923810Y-62435771D02*
X86971429Y-62245295D01*
X86971429Y-62245295D02*
X87019048Y-62150057D01*
X87019048Y-62150057D02*
X87066667Y-62102438D01*
X87066667Y-62102438D02*
X87161905Y-62054819D01*
X88114286Y-62054819D02*
X88209524Y-62054819D01*
X88209524Y-62054819D02*
X88304762Y-62102438D01*
X88304762Y-62102438D02*
X88352381Y-62150057D01*
X88352381Y-62150057D02*
X88400000Y-62245295D01*
X88400000Y-62245295D02*
X88447619Y-62435771D01*
X88447619Y-62435771D02*
X88447619Y-62673866D01*
X88447619Y-62673866D02*
X88400000Y-62864342D01*
X88400000Y-62864342D02*
X88352381Y-62959580D01*
X88352381Y-62959580D02*
X88304762Y-63007200D01*
X88304762Y-63007200D02*
X88209524Y-63054819D01*
X88209524Y-63054819D02*
X88114286Y-63054819D01*
X88114286Y-63054819D02*
X88019048Y-63007200D01*
X88019048Y-63007200D02*
X87971429Y-62959580D01*
X87971429Y-62959580D02*
X87923810Y-62864342D01*
X87923810Y-62864342D02*
X87876191Y-62673866D01*
X87876191Y-62673866D02*
X87876191Y-62435771D01*
X87876191Y-62435771D02*
X87923810Y-62245295D01*
X87923810Y-62245295D02*
X87971429Y-62150057D01*
X87971429Y-62150057D02*
X88019048Y-62102438D01*
X88019048Y-62102438D02*
X88114286Y-62054819D01*
X77533333Y-130059580D02*
X77485714Y-130107200D01*
X77485714Y-130107200D02*
X77342857Y-130154819D01*
X77342857Y-130154819D02*
X77247619Y-130154819D01*
X77247619Y-130154819D02*
X77104762Y-130107200D01*
X77104762Y-130107200D02*
X77009524Y-130011961D01*
X77009524Y-130011961D02*
X76961905Y-129916723D01*
X76961905Y-129916723D02*
X76914286Y-129726247D01*
X76914286Y-129726247D02*
X76914286Y-129583390D01*
X76914286Y-129583390D02*
X76961905Y-129392914D01*
X76961905Y-129392914D02*
X77009524Y-129297676D01*
X77009524Y-129297676D02*
X77104762Y-129202438D01*
X77104762Y-129202438D02*
X77247619Y-129154819D01*
X77247619Y-129154819D02*
X77342857Y-129154819D01*
X77342857Y-129154819D02*
X77485714Y-129202438D01*
X77485714Y-129202438D02*
X77533333Y-129250057D01*
X78485714Y-130154819D02*
X77914286Y-130154819D01*
X78200000Y-130154819D02*
X78200000Y-129154819D01*
X78200000Y-129154819D02*
X78104762Y-129297676D01*
X78104762Y-129297676D02*
X78009524Y-129392914D01*
X78009524Y-129392914D02*
X77914286Y-129440533D01*
X58506666Y-54769819D02*
X58506666Y-55484104D01*
X58506666Y-55484104D02*
X58459047Y-55626961D01*
X58459047Y-55626961D02*
X58363809Y-55722200D01*
X58363809Y-55722200D02*
X58220952Y-55769819D01*
X58220952Y-55769819D02*
X58125714Y-55769819D01*
X59506666Y-55769819D02*
X58935238Y-55769819D01*
X59220952Y-55769819D02*
X59220952Y-54769819D01*
X59220952Y-54769819D02*
X59125714Y-54912676D01*
X59125714Y-54912676D02*
X59030476Y-55007914D01*
X59030476Y-55007914D02*
X58935238Y-55055533D01*
X108148095Y-99624819D02*
X108148095Y-100434342D01*
X108148095Y-100434342D02*
X108195714Y-100529580D01*
X108195714Y-100529580D02*
X108243333Y-100577200D01*
X108243333Y-100577200D02*
X108338571Y-100624819D01*
X108338571Y-100624819D02*
X108529047Y-100624819D01*
X108529047Y-100624819D02*
X108624285Y-100577200D01*
X108624285Y-100577200D02*
X108671904Y-100529580D01*
X108671904Y-100529580D02*
X108719523Y-100434342D01*
X108719523Y-100434342D02*
X108719523Y-99624819D01*
X109624285Y-99624819D02*
X109433809Y-99624819D01*
X109433809Y-99624819D02*
X109338571Y-99672438D01*
X109338571Y-99672438D02*
X109290952Y-99720057D01*
X109290952Y-99720057D02*
X109195714Y-99862914D01*
X109195714Y-99862914D02*
X109148095Y-100053390D01*
X109148095Y-100053390D02*
X109148095Y-100434342D01*
X109148095Y-100434342D02*
X109195714Y-100529580D01*
X109195714Y-100529580D02*
X109243333Y-100577200D01*
X109243333Y-100577200D02*
X109338571Y-100624819D01*
X109338571Y-100624819D02*
X109529047Y-100624819D01*
X109529047Y-100624819D02*
X109624285Y-100577200D01*
X109624285Y-100577200D02*
X109671904Y-100529580D01*
X109671904Y-100529580D02*
X109719523Y-100434342D01*
X109719523Y-100434342D02*
X109719523Y-100196247D01*
X109719523Y-100196247D02*
X109671904Y-100101009D01*
X109671904Y-100101009D02*
X109624285Y-100053390D01*
X109624285Y-100053390D02*
X109529047Y-100005771D01*
X109529047Y-100005771D02*
X109338571Y-100005771D01*
X109338571Y-100005771D02*
X109243333Y-100053390D01*
X109243333Y-100053390D02*
X109195714Y-100101009D01*
X109195714Y-100101009D02*
X109148095Y-100196247D01*
X102754819Y-126771428D02*
X102754819Y-126104762D01*
X102754819Y-126104762D02*
X103754819Y-126533333D01*
X103088152Y-125295238D02*
X103754819Y-125295238D01*
X102707200Y-125533333D02*
X103421485Y-125771428D01*
X103421485Y-125771428D02*
X103421485Y-125152381D01*
X103469104Y-124819047D02*
X103469104Y-124342857D01*
X103754819Y-124914285D02*
X102754819Y-124580952D01*
X102754819Y-124580952D02*
X103754819Y-124247619D01*
X103754819Y-123914285D02*
X102754819Y-123914285D01*
X103231009Y-123914285D02*
X103231009Y-123342857D01*
X103754819Y-123342857D02*
X102754819Y-123342857D01*
X103659580Y-122295238D02*
X103707200Y-122342857D01*
X103707200Y-122342857D02*
X103754819Y-122485714D01*
X103754819Y-122485714D02*
X103754819Y-122580952D01*
X103754819Y-122580952D02*
X103707200Y-122723809D01*
X103707200Y-122723809D02*
X103611961Y-122819047D01*
X103611961Y-122819047D02*
X103516723Y-122866666D01*
X103516723Y-122866666D02*
X103326247Y-122914285D01*
X103326247Y-122914285D02*
X103183390Y-122914285D01*
X103183390Y-122914285D02*
X102992914Y-122866666D01*
X102992914Y-122866666D02*
X102897676Y-122819047D01*
X102897676Y-122819047D02*
X102802438Y-122723809D01*
X102802438Y-122723809D02*
X102754819Y-122580952D01*
X102754819Y-122580952D02*
X102754819Y-122485714D01*
X102754819Y-122485714D02*
X102802438Y-122342857D01*
X102802438Y-122342857D02*
X102850057Y-122295238D01*
X102754819Y-122009523D02*
X102754819Y-121438095D01*
X103754819Y-121723809D02*
X102754819Y-121723809D01*
X102754819Y-120628571D02*
X102754819Y-121104761D01*
X102754819Y-121104761D02*
X103231009Y-121152380D01*
X103231009Y-121152380D02*
X103183390Y-121104761D01*
X103183390Y-121104761D02*
X103135771Y-121009523D01*
X103135771Y-121009523D02*
X103135771Y-120771428D01*
X103135771Y-120771428D02*
X103183390Y-120676190D01*
X103183390Y-120676190D02*
X103231009Y-120628571D01*
X103231009Y-120628571D02*
X103326247Y-120580952D01*
X103326247Y-120580952D02*
X103564342Y-120580952D01*
X103564342Y-120580952D02*
X103659580Y-120628571D01*
X103659580Y-120628571D02*
X103707200Y-120676190D01*
X103707200Y-120676190D02*
X103754819Y-120771428D01*
X103754819Y-120771428D02*
X103754819Y-121009523D01*
X103754819Y-121009523D02*
X103707200Y-121104761D01*
X103707200Y-121104761D02*
X103659580Y-121152380D01*
X102754819Y-120247618D02*
X102754819Y-119580952D01*
X102754819Y-119580952D02*
X103754819Y-120009523D01*
X102754819Y-119295237D02*
X102754819Y-118676190D01*
X102754819Y-118676190D02*
X103135771Y-119009523D01*
X103135771Y-119009523D02*
X103135771Y-118866666D01*
X103135771Y-118866666D02*
X103183390Y-118771428D01*
X103183390Y-118771428D02*
X103231009Y-118723809D01*
X103231009Y-118723809D02*
X103326247Y-118676190D01*
X103326247Y-118676190D02*
X103564342Y-118676190D01*
X103564342Y-118676190D02*
X103659580Y-118723809D01*
X103659580Y-118723809D02*
X103707200Y-118771428D01*
X103707200Y-118771428D02*
X103754819Y-118866666D01*
X103754819Y-118866666D02*
X103754819Y-119152380D01*
X103754819Y-119152380D02*
X103707200Y-119247618D01*
X103707200Y-119247618D02*
X103659580Y-119295237D01*
X101859580Y-95216666D02*
X101907200Y-95264285D01*
X101907200Y-95264285D02*
X101954819Y-95407142D01*
X101954819Y-95407142D02*
X101954819Y-95502380D01*
X101954819Y-95502380D02*
X101907200Y-95645237D01*
X101907200Y-95645237D02*
X101811961Y-95740475D01*
X101811961Y-95740475D02*
X101716723Y-95788094D01*
X101716723Y-95788094D02*
X101526247Y-95835713D01*
X101526247Y-95835713D02*
X101383390Y-95835713D01*
X101383390Y-95835713D02*
X101192914Y-95788094D01*
X101192914Y-95788094D02*
X101097676Y-95740475D01*
X101097676Y-95740475D02*
X101002438Y-95645237D01*
X101002438Y-95645237D02*
X100954819Y-95502380D01*
X100954819Y-95502380D02*
X100954819Y-95407142D01*
X100954819Y-95407142D02*
X101002438Y-95264285D01*
X101002438Y-95264285D02*
X101050057Y-95216666D01*
X100954819Y-94311904D02*
X100954819Y-94788094D01*
X100954819Y-94788094D02*
X101431009Y-94835713D01*
X101431009Y-94835713D02*
X101383390Y-94788094D01*
X101383390Y-94788094D02*
X101335771Y-94692856D01*
X101335771Y-94692856D02*
X101335771Y-94454761D01*
X101335771Y-94454761D02*
X101383390Y-94359523D01*
X101383390Y-94359523D02*
X101431009Y-94311904D01*
X101431009Y-94311904D02*
X101526247Y-94264285D01*
X101526247Y-94264285D02*
X101764342Y-94264285D01*
X101764342Y-94264285D02*
X101859580Y-94311904D01*
X101859580Y-94311904D02*
X101907200Y-94359523D01*
X101907200Y-94359523D02*
X101954819Y-94454761D01*
X101954819Y-94454761D02*
X101954819Y-94692856D01*
X101954819Y-94692856D02*
X101907200Y-94788094D01*
X101907200Y-94788094D02*
X101859580Y-94835713D01*
X89759580Y-60966666D02*
X89807200Y-61014285D01*
X89807200Y-61014285D02*
X89854819Y-61157142D01*
X89854819Y-61157142D02*
X89854819Y-61252380D01*
X89854819Y-61252380D02*
X89807200Y-61395237D01*
X89807200Y-61395237D02*
X89711961Y-61490475D01*
X89711961Y-61490475D02*
X89616723Y-61538094D01*
X89616723Y-61538094D02*
X89426247Y-61585713D01*
X89426247Y-61585713D02*
X89283390Y-61585713D01*
X89283390Y-61585713D02*
X89092914Y-61538094D01*
X89092914Y-61538094D02*
X88997676Y-61490475D01*
X88997676Y-61490475D02*
X88902438Y-61395237D01*
X88902438Y-61395237D02*
X88854819Y-61252380D01*
X88854819Y-61252380D02*
X88854819Y-61157142D01*
X88854819Y-61157142D02*
X88902438Y-61014285D01*
X88902438Y-61014285D02*
X88950057Y-60966666D01*
X89283390Y-60395237D02*
X89235771Y-60490475D01*
X89235771Y-60490475D02*
X89188152Y-60538094D01*
X89188152Y-60538094D02*
X89092914Y-60585713D01*
X89092914Y-60585713D02*
X89045295Y-60585713D01*
X89045295Y-60585713D02*
X88950057Y-60538094D01*
X88950057Y-60538094D02*
X88902438Y-60490475D01*
X88902438Y-60490475D02*
X88854819Y-60395237D01*
X88854819Y-60395237D02*
X88854819Y-60204761D01*
X88854819Y-60204761D02*
X88902438Y-60109523D01*
X88902438Y-60109523D02*
X88950057Y-60061904D01*
X88950057Y-60061904D02*
X89045295Y-60014285D01*
X89045295Y-60014285D02*
X89092914Y-60014285D01*
X89092914Y-60014285D02*
X89188152Y-60061904D01*
X89188152Y-60061904D02*
X89235771Y-60109523D01*
X89235771Y-60109523D02*
X89283390Y-60204761D01*
X89283390Y-60204761D02*
X89283390Y-60395237D01*
X89283390Y-60395237D02*
X89331009Y-60490475D01*
X89331009Y-60490475D02*
X89378628Y-60538094D01*
X89378628Y-60538094D02*
X89473866Y-60585713D01*
X89473866Y-60585713D02*
X89664342Y-60585713D01*
X89664342Y-60585713D02*
X89759580Y-60538094D01*
X89759580Y-60538094D02*
X89807200Y-60490475D01*
X89807200Y-60490475D02*
X89854819Y-60395237D01*
X89854819Y-60395237D02*
X89854819Y-60204761D01*
X89854819Y-60204761D02*
X89807200Y-60109523D01*
X89807200Y-60109523D02*
X89759580Y-60061904D01*
X89759580Y-60061904D02*
X89664342Y-60014285D01*
X89664342Y-60014285D02*
X89473866Y-60014285D01*
X89473866Y-60014285D02*
X89378628Y-60061904D01*
X89378628Y-60061904D02*
X89331009Y-60109523D01*
X89331009Y-60109523D02*
X89283390Y-60204761D01*
X76938095Y-97154819D02*
X76938095Y-97964342D01*
X76938095Y-97964342D02*
X76985714Y-98059580D01*
X76985714Y-98059580D02*
X77033333Y-98107200D01*
X77033333Y-98107200D02*
X77128571Y-98154819D01*
X77128571Y-98154819D02*
X77319047Y-98154819D01*
X77319047Y-98154819D02*
X77414285Y-98107200D01*
X77414285Y-98107200D02*
X77461904Y-98059580D01*
X77461904Y-98059580D02*
X77509523Y-97964342D01*
X77509523Y-97964342D02*
X77509523Y-97154819D01*
X77938095Y-97250057D02*
X77985714Y-97202438D01*
X77985714Y-97202438D02*
X78080952Y-97154819D01*
X78080952Y-97154819D02*
X78319047Y-97154819D01*
X78319047Y-97154819D02*
X78414285Y-97202438D01*
X78414285Y-97202438D02*
X78461904Y-97250057D01*
X78461904Y-97250057D02*
X78509523Y-97345295D01*
X78509523Y-97345295D02*
X78509523Y-97440533D01*
X78509523Y-97440533D02*
X78461904Y-97583390D01*
X78461904Y-97583390D02*
X77890476Y-98154819D01*
X77890476Y-98154819D02*
X78509523Y-98154819D01*
X79054819Y-79071428D02*
X79054819Y-78404762D01*
X79054819Y-78404762D02*
X80054819Y-78833333D01*
X79388152Y-77595238D02*
X80054819Y-77595238D01*
X79007200Y-77833333D02*
X79721485Y-78071428D01*
X79721485Y-78071428D02*
X79721485Y-77452381D01*
X79769104Y-77119047D02*
X79769104Y-76642857D01*
X80054819Y-77214285D02*
X79054819Y-76880952D01*
X79054819Y-76880952D02*
X80054819Y-76547619D01*
X80054819Y-76214285D02*
X79054819Y-76214285D01*
X79531009Y-76214285D02*
X79531009Y-75642857D01*
X80054819Y-75642857D02*
X79054819Y-75642857D01*
X79959580Y-74595238D02*
X80007200Y-74642857D01*
X80007200Y-74642857D02*
X80054819Y-74785714D01*
X80054819Y-74785714D02*
X80054819Y-74880952D01*
X80054819Y-74880952D02*
X80007200Y-75023809D01*
X80007200Y-75023809D02*
X79911961Y-75119047D01*
X79911961Y-75119047D02*
X79816723Y-75166666D01*
X79816723Y-75166666D02*
X79626247Y-75214285D01*
X79626247Y-75214285D02*
X79483390Y-75214285D01*
X79483390Y-75214285D02*
X79292914Y-75166666D01*
X79292914Y-75166666D02*
X79197676Y-75119047D01*
X79197676Y-75119047D02*
X79102438Y-75023809D01*
X79102438Y-75023809D02*
X79054819Y-74880952D01*
X79054819Y-74880952D02*
X79054819Y-74785714D01*
X79054819Y-74785714D02*
X79102438Y-74642857D01*
X79102438Y-74642857D02*
X79150057Y-74595238D01*
X79054819Y-74309523D02*
X79054819Y-73738095D01*
X80054819Y-74023809D02*
X79054819Y-74023809D01*
X79054819Y-72928571D02*
X79054819Y-73404761D01*
X79054819Y-73404761D02*
X79531009Y-73452380D01*
X79531009Y-73452380D02*
X79483390Y-73404761D01*
X79483390Y-73404761D02*
X79435771Y-73309523D01*
X79435771Y-73309523D02*
X79435771Y-73071428D01*
X79435771Y-73071428D02*
X79483390Y-72976190D01*
X79483390Y-72976190D02*
X79531009Y-72928571D01*
X79531009Y-72928571D02*
X79626247Y-72880952D01*
X79626247Y-72880952D02*
X79864342Y-72880952D01*
X79864342Y-72880952D02*
X79959580Y-72928571D01*
X79959580Y-72928571D02*
X80007200Y-72976190D01*
X80007200Y-72976190D02*
X80054819Y-73071428D01*
X80054819Y-73071428D02*
X80054819Y-73309523D01*
X80054819Y-73309523D02*
X80007200Y-73404761D01*
X80007200Y-73404761D02*
X79959580Y-73452380D01*
X79054819Y-72547618D02*
X79054819Y-71880952D01*
X79054819Y-71880952D02*
X80054819Y-72309523D01*
X79054819Y-71595237D02*
X79054819Y-70976190D01*
X79054819Y-70976190D02*
X79435771Y-71309523D01*
X79435771Y-71309523D02*
X79435771Y-71166666D01*
X79435771Y-71166666D02*
X79483390Y-71071428D01*
X79483390Y-71071428D02*
X79531009Y-71023809D01*
X79531009Y-71023809D02*
X79626247Y-70976190D01*
X79626247Y-70976190D02*
X79864342Y-70976190D01*
X79864342Y-70976190D02*
X79959580Y-71023809D01*
X79959580Y-71023809D02*
X80007200Y-71071428D01*
X80007200Y-71071428D02*
X80054819Y-71166666D01*
X80054819Y-71166666D02*
X80054819Y-71452380D01*
X80054819Y-71452380D02*
X80007200Y-71547618D01*
X80007200Y-71547618D02*
X79959580Y-71595237D01*
X95533333Y-99959580D02*
X95485714Y-100007200D01*
X95485714Y-100007200D02*
X95342857Y-100054819D01*
X95342857Y-100054819D02*
X95247619Y-100054819D01*
X95247619Y-100054819D02*
X95104762Y-100007200D01*
X95104762Y-100007200D02*
X95009524Y-99911961D01*
X95009524Y-99911961D02*
X94961905Y-99816723D01*
X94961905Y-99816723D02*
X94914286Y-99626247D01*
X94914286Y-99626247D02*
X94914286Y-99483390D01*
X94914286Y-99483390D02*
X94961905Y-99292914D01*
X94961905Y-99292914D02*
X95009524Y-99197676D01*
X95009524Y-99197676D02*
X95104762Y-99102438D01*
X95104762Y-99102438D02*
X95247619Y-99054819D01*
X95247619Y-99054819D02*
X95342857Y-99054819D01*
X95342857Y-99054819D02*
X95485714Y-99102438D01*
X95485714Y-99102438D02*
X95533333Y-99150057D01*
X96390476Y-99388152D02*
X96390476Y-100054819D01*
X96152381Y-99007200D02*
X95914286Y-99721485D01*
X95914286Y-99721485D02*
X96533333Y-99721485D01*
X110166666Y-144874819D02*
X110166666Y-145589104D01*
X110166666Y-145589104D02*
X110119047Y-145731961D01*
X110119047Y-145731961D02*
X110023809Y-145827200D01*
X110023809Y-145827200D02*
X109880952Y-145874819D01*
X109880952Y-145874819D02*
X109785714Y-145874819D01*
X110547619Y-144874819D02*
X111166666Y-144874819D01*
X111166666Y-144874819D02*
X110833333Y-145255771D01*
X110833333Y-145255771D02*
X110976190Y-145255771D01*
X110976190Y-145255771D02*
X111071428Y-145303390D01*
X111071428Y-145303390D02*
X111119047Y-145351009D01*
X111119047Y-145351009D02*
X111166666Y-145446247D01*
X111166666Y-145446247D02*
X111166666Y-145684342D01*
X111166666Y-145684342D02*
X111119047Y-145779580D01*
X111119047Y-145779580D02*
X111071428Y-145827200D01*
X111071428Y-145827200D02*
X110976190Y-145874819D01*
X110976190Y-145874819D02*
X110690476Y-145874819D01*
X110690476Y-145874819D02*
X110595238Y-145827200D01*
X110595238Y-145827200D02*
X110547619Y-145779580D01*
X67759580Y-60866666D02*
X67807200Y-60914285D01*
X67807200Y-60914285D02*
X67854819Y-61057142D01*
X67854819Y-61057142D02*
X67854819Y-61152380D01*
X67854819Y-61152380D02*
X67807200Y-61295237D01*
X67807200Y-61295237D02*
X67711961Y-61390475D01*
X67711961Y-61390475D02*
X67616723Y-61438094D01*
X67616723Y-61438094D02*
X67426247Y-61485713D01*
X67426247Y-61485713D02*
X67283390Y-61485713D01*
X67283390Y-61485713D02*
X67092914Y-61438094D01*
X67092914Y-61438094D02*
X66997676Y-61390475D01*
X66997676Y-61390475D02*
X66902438Y-61295237D01*
X66902438Y-61295237D02*
X66854819Y-61152380D01*
X66854819Y-61152380D02*
X66854819Y-61057142D01*
X66854819Y-61057142D02*
X66902438Y-60914285D01*
X66902438Y-60914285D02*
X66950057Y-60866666D01*
X66854819Y-60533332D02*
X66854819Y-59866666D01*
X66854819Y-59866666D02*
X67854819Y-60295237D01*
X76938095Y-127254819D02*
X76938095Y-128064342D01*
X76938095Y-128064342D02*
X76985714Y-128159580D01*
X76985714Y-128159580D02*
X77033333Y-128207200D01*
X77033333Y-128207200D02*
X77128571Y-128254819D01*
X77128571Y-128254819D02*
X77319047Y-128254819D01*
X77319047Y-128254819D02*
X77414285Y-128207200D01*
X77414285Y-128207200D02*
X77461904Y-128159580D01*
X77461904Y-128159580D02*
X77509523Y-128064342D01*
X77509523Y-128064342D02*
X77509523Y-127254819D01*
X78509523Y-128254819D02*
X77938095Y-128254819D01*
X78223809Y-128254819D02*
X78223809Y-127254819D01*
X78223809Y-127254819D02*
X78128571Y-127397676D01*
X78128571Y-127397676D02*
X78033333Y-127492914D01*
X78033333Y-127492914D02*
X77938095Y-127540533D01*
X79054819Y-109171428D02*
X79054819Y-108504762D01*
X79054819Y-108504762D02*
X80054819Y-108933333D01*
X79388152Y-107695238D02*
X80054819Y-107695238D01*
X79007200Y-107933333D02*
X79721485Y-108171428D01*
X79721485Y-108171428D02*
X79721485Y-107552381D01*
X79769104Y-107219047D02*
X79769104Y-106742857D01*
X80054819Y-107314285D02*
X79054819Y-106980952D01*
X79054819Y-106980952D02*
X80054819Y-106647619D01*
X80054819Y-106314285D02*
X79054819Y-106314285D01*
X79531009Y-106314285D02*
X79531009Y-105742857D01*
X80054819Y-105742857D02*
X79054819Y-105742857D01*
X79959580Y-104695238D02*
X80007200Y-104742857D01*
X80007200Y-104742857D02*
X80054819Y-104885714D01*
X80054819Y-104885714D02*
X80054819Y-104980952D01*
X80054819Y-104980952D02*
X80007200Y-105123809D01*
X80007200Y-105123809D02*
X79911961Y-105219047D01*
X79911961Y-105219047D02*
X79816723Y-105266666D01*
X79816723Y-105266666D02*
X79626247Y-105314285D01*
X79626247Y-105314285D02*
X79483390Y-105314285D01*
X79483390Y-105314285D02*
X79292914Y-105266666D01*
X79292914Y-105266666D02*
X79197676Y-105219047D01*
X79197676Y-105219047D02*
X79102438Y-105123809D01*
X79102438Y-105123809D02*
X79054819Y-104980952D01*
X79054819Y-104980952D02*
X79054819Y-104885714D01*
X79054819Y-104885714D02*
X79102438Y-104742857D01*
X79102438Y-104742857D02*
X79150057Y-104695238D01*
X79054819Y-104409523D02*
X79054819Y-103838095D01*
X80054819Y-104123809D02*
X79054819Y-104123809D01*
X79054819Y-103028571D02*
X79054819Y-103504761D01*
X79054819Y-103504761D02*
X79531009Y-103552380D01*
X79531009Y-103552380D02*
X79483390Y-103504761D01*
X79483390Y-103504761D02*
X79435771Y-103409523D01*
X79435771Y-103409523D02*
X79435771Y-103171428D01*
X79435771Y-103171428D02*
X79483390Y-103076190D01*
X79483390Y-103076190D02*
X79531009Y-103028571D01*
X79531009Y-103028571D02*
X79626247Y-102980952D01*
X79626247Y-102980952D02*
X79864342Y-102980952D01*
X79864342Y-102980952D02*
X79959580Y-103028571D01*
X79959580Y-103028571D02*
X80007200Y-103076190D01*
X80007200Y-103076190D02*
X80054819Y-103171428D01*
X80054819Y-103171428D02*
X80054819Y-103409523D01*
X80054819Y-103409523D02*
X80007200Y-103504761D01*
X80007200Y-103504761D02*
X79959580Y-103552380D01*
X79054819Y-102647618D02*
X79054819Y-101980952D01*
X79054819Y-101980952D02*
X80054819Y-102409523D01*
X79054819Y-101695237D02*
X79054819Y-101076190D01*
X79054819Y-101076190D02*
X79435771Y-101409523D01*
X79435771Y-101409523D02*
X79435771Y-101266666D01*
X79435771Y-101266666D02*
X79483390Y-101171428D01*
X79483390Y-101171428D02*
X79531009Y-101123809D01*
X79531009Y-101123809D02*
X79626247Y-101076190D01*
X79626247Y-101076190D02*
X79864342Y-101076190D01*
X79864342Y-101076190D02*
X79959580Y-101123809D01*
X79959580Y-101123809D02*
X80007200Y-101171428D01*
X80007200Y-101171428D02*
X80054819Y-101266666D01*
X80054819Y-101266666D02*
X80054819Y-101552380D01*
X80054819Y-101552380D02*
X80007200Y-101647618D01*
X80007200Y-101647618D02*
X79959580Y-101695237D01*
D14*
%TO.C,U5*%
X107910000Y-96710000D02*
G75*
G02*
X109910000Y-96710000I1000000J0D01*
G01*
X111560000Y-96710000D02*
X111560000Y-71190000D01*
X111560000Y-71190000D02*
X106260000Y-71190000D01*
X109910000Y-96710000D02*
X111560000Y-96710000D01*
X106260000Y-96710000D02*
X107910000Y-96710000D01*
X106260000Y-71190000D02*
X106260000Y-96710000D01*
%TO.C,C6*%
X114130000Y-101470000D02*
X114130000Y-96230000D01*
X116870000Y-101470000D02*
X114130000Y-101470000D01*
X114130000Y-96230000D02*
X116870000Y-96230000D01*
X116870000Y-96230000D02*
X116870000Y-101470000D01*
%TO.C,J2*%
X61320000Y-58915000D02*
X61320000Y-71675000D01*
X61320000Y-58915000D02*
X63980000Y-58915000D01*
X61320000Y-71675000D02*
X63980000Y-71675000D01*
X62650000Y-56315000D02*
X63980000Y-56315000D01*
X63980000Y-56315000D02*
X63980000Y-57645000D01*
X63980000Y-58915000D02*
X63980000Y-71675000D01*
%TO.C,U8*%
X92270000Y-54260000D02*
X92270000Y-55910000D01*
X92270000Y-57910000D02*
X92270000Y-59560000D01*
X92270000Y-59560000D02*
X110170000Y-59560000D01*
X110170000Y-54260000D02*
X92270000Y-54260000D01*
X110170000Y-59560000D02*
X110170000Y-54260000D01*
X92270000Y-55910000D02*
G75*
G02*
X92270000Y-57910000I0J-1000000D01*
G01*
%TO.C,C3*%
X89380000Y-127330000D02*
X94620000Y-127330000D01*
X89380000Y-130070000D02*
X89380000Y-127330000D01*
X94620000Y-127330000D02*
X94620000Y-130070000D01*
X94620000Y-130070000D02*
X89380000Y-130070000D01*
%TO.C,C2*%
X71280000Y-97230000D02*
X76520000Y-97230000D01*
X71280000Y-99970000D02*
X71280000Y-97230000D01*
X76520000Y-97230000D02*
X76520000Y-99970000D01*
X76520000Y-99970000D02*
X71280000Y-99970000D01*
%TO.C,U4*%
X89240000Y-71170000D02*
X89240000Y-96690000D01*
X89240000Y-96690000D02*
X90890000Y-96690000D01*
X92890000Y-96690000D02*
X94540000Y-96690000D01*
X94540000Y-71170000D02*
X89240000Y-71170000D01*
X94540000Y-96690000D02*
X94540000Y-71170000D01*
X90890000Y-96690000D02*
G75*
G02*
X92890000Y-96690000I1000000J0D01*
G01*
%TO.C,U3*%
X89265000Y-101180000D02*
X89265000Y-126700000D01*
X89265000Y-126700000D02*
X90915000Y-126700000D01*
X92915000Y-126700000D02*
X94565000Y-126700000D01*
X94565000Y-101180000D02*
X89265000Y-101180000D01*
X94565000Y-126700000D02*
X94565000Y-101180000D01*
X90915000Y-126700000D02*
G75*
G02*
X92915000Y-126700000I1000000J0D01*
G01*
%TO.C,U7*%
X70282500Y-54245000D02*
X70282500Y-55895000D01*
X70282500Y-57895000D02*
X70282500Y-59545000D01*
X70282500Y-59545000D02*
X88182500Y-59545000D01*
X88182500Y-54245000D02*
X70282500Y-54245000D01*
X88182500Y-59545000D02*
X88182500Y-54245000D01*
X70282500Y-55895000D02*
G75*
G02*
X70282500Y-57895000I0J-1000000D01*
G01*
%TO.C,C1*%
X71330000Y-127330000D02*
X76570000Y-127330000D01*
X71330000Y-130070000D02*
X71330000Y-127330000D01*
X76570000Y-127330000D02*
X76570000Y-130070000D01*
X76570000Y-130070000D02*
X71330000Y-130070000D01*
%TO.C,J1*%
X56240000Y-56315000D02*
X57570000Y-56315000D01*
X56240000Y-57645000D02*
X56240000Y-56315000D01*
X56240000Y-58915000D02*
X56240000Y-137715000D01*
X56240000Y-58915000D02*
X58840000Y-58915000D01*
X56240000Y-137715000D02*
X61440000Y-137715000D01*
X58840000Y-56315000D02*
X61440000Y-56315000D01*
X58840000Y-58915000D02*
X58840000Y-56315000D01*
X61440000Y-56315000D02*
X61440000Y-137715000D01*
%TO.C,U6*%
X106260000Y-101170000D02*
X106260000Y-126690000D01*
X106260000Y-126690000D02*
X111560000Y-126690000D01*
X107910000Y-101170000D02*
X106260000Y-101170000D01*
X111560000Y-101170000D02*
X109910000Y-101170000D01*
X111560000Y-126690000D02*
X111560000Y-101170000D01*
X109910000Y-101170000D02*
G75*
G02*
X107910000Y-101170000I-1000000J0D01*
G01*
%TO.C,C5*%
X100930000Y-101520000D02*
X100930000Y-96280000D01*
X103670000Y-101520000D02*
X100930000Y-101520000D01*
X100930000Y-96280000D02*
X103670000Y-96280000D01*
X103670000Y-96280000D02*
X103670000Y-101520000D01*
%TO.C,C8*%
X88930000Y-54430000D02*
X91670000Y-54430000D01*
X88930000Y-59670000D02*
X88930000Y-54430000D01*
X91670000Y-54430000D02*
X91670000Y-59670000D01*
X91670000Y-59670000D02*
X88930000Y-59670000D01*
%TO.C,U2*%
X71260000Y-71130000D02*
X71260000Y-96650000D01*
X71260000Y-96650000D02*
X72910000Y-96650000D01*
X74910000Y-96650000D02*
X76560000Y-96650000D01*
X76560000Y-71130000D02*
X71260000Y-71130000D01*
X76560000Y-96650000D02*
X76560000Y-71130000D01*
X72910000Y-96650000D02*
G75*
G02*
X74910000Y-96650000I1000000J0D01*
G01*
%TO.C,C4*%
X89230000Y-97230000D02*
X94470000Y-97230000D01*
X89230000Y-99970000D02*
X89230000Y-97230000D01*
X94470000Y-97230000D02*
X94470000Y-99970000D01*
X94470000Y-99970000D02*
X89230000Y-99970000D01*
%TO.C,J3*%
X102315000Y-136400000D02*
X112685000Y-136400000D01*
X102315000Y-145530000D02*
X102315000Y-136400000D01*
X103315000Y-146530000D02*
X102315000Y-145530000D01*
X111685000Y-146530000D02*
X103315000Y-146530000D01*
X112685000Y-136400000D02*
X112685000Y-145530000D01*
X112685000Y-145530000D02*
X111685000Y-146530000D01*
%TO.C,C7*%
X66930000Y-54230000D02*
X69670000Y-54230000D01*
X66930000Y-59470000D02*
X66930000Y-54230000D01*
X69670000Y-54230000D02*
X69670000Y-59470000D01*
X69670000Y-59470000D02*
X66930000Y-59470000D01*
%TO.C,U1*%
X71260000Y-101170000D02*
X71260000Y-126690000D01*
X71260000Y-126690000D02*
X72910000Y-126690000D01*
X74910000Y-126690000D02*
X76560000Y-126690000D01*
X76560000Y-101170000D02*
X71260000Y-101170000D01*
X76560000Y-126690000D02*
X76560000Y-101170000D01*
X72910000Y-126690000D02*
G75*
G02*
X74910000Y-126690000I1000000J0D01*
G01*
%TD*%
M02*
