M48
; DRILL file {KiCad 9.0.4} date 2025-09-17T01:42:22-0400
; FORMAT={-:-/ absolute / metric / decimal}
; #@! TF.CreationDate,2025-09-17T01:42:22-04:00
; #@! TF.GenerationSoftware,Kicad,Pcbnew,9.0.4
; #@! TF.FileFunction,Plated,1,2,PTH
FMAT,2
METRIC
; #@! TA.AperFunction,Plated,PTH,ViaDrill
T1C0.300
; #@! TA.AperFunction,Plated,PTH,ComponentDrill
T2C0.800
; #@! TA.AperFunction,Plated,PTH,ComponentDrill
T3C1.000
; #@! TA.AperFunction,Plated,PTH,ComponentDrill
T4C1.020
; #@! TA.AperFunction,Plated,PTH,ComponentDrill
T5C3.200
%
G90
G05
T1
X72.9Y-95.3
X73.4Y-105.7
X92.3Y-94.1
X110.9Y-98.6
T2
X70.1Y-72.46
X70.1Y-75.0
X70.1Y-77.54
X70.1Y-80.08
X70.1Y-82.62
X70.1Y-85.16
X70.1Y-87.7
X70.1Y-90.24
X70.1Y-92.78
X70.1Y-95.32
X70.1Y-102.5
X70.1Y-105.04
X70.1Y-107.58
X70.1Y-110.12
X70.1Y-112.66
X70.1Y-115.2
X70.1Y-117.74
X70.1Y-120.28
X70.1Y-122.82
X70.1Y-125.36
X71.612Y-53.085
X71.612Y-60.705
X74.153Y-53.085
X74.153Y-60.705
X76.692Y-53.085
X76.692Y-60.705
X77.72Y-72.46
X77.72Y-75.0
X77.72Y-77.54
X77.72Y-80.08
X77.72Y-82.62
X77.72Y-85.16
X77.72Y-87.7
X77.72Y-90.24
X77.72Y-92.78
X77.72Y-95.32
X77.72Y-102.5
X77.72Y-105.04
X77.72Y-107.58
X77.72Y-110.12
X77.72Y-112.66
X77.72Y-115.2
X77.72Y-117.74
X77.72Y-120.28
X77.72Y-122.82
X77.72Y-125.36
X79.233Y-53.085
X79.233Y-60.705
X81.772Y-53.085
X81.772Y-60.705
X84.312Y-53.085
X84.312Y-60.705
X86.852Y-53.085
X86.852Y-60.705
X88.08Y-72.5
X88.08Y-75.04
X88.08Y-77.58
X88.08Y-80.12
X88.08Y-82.66
X88.08Y-85.2
X88.08Y-87.74
X88.08Y-90.28
X88.08Y-92.82
X88.08Y-95.36
X88.105Y-102.51
X88.105Y-105.05
X88.105Y-107.59
X88.105Y-110.13
X88.105Y-112.67
X88.105Y-115.21
X88.105Y-117.75
X88.105Y-120.29
X88.105Y-122.83
X88.105Y-125.37
X93.6Y-53.1
X93.6Y-60.72
X95.7Y-72.5
X95.7Y-75.04
X95.7Y-77.58
X95.7Y-80.12
X95.7Y-82.66
X95.7Y-85.2
X95.7Y-87.74
X95.7Y-90.28
X95.7Y-92.82
X95.7Y-95.36
X95.725Y-102.51
X95.725Y-105.05
X95.725Y-107.59
X95.725Y-110.13
X95.725Y-112.67
X95.725Y-115.21
X95.725Y-117.75
X95.725Y-120.29
X95.725Y-122.83
X95.725Y-125.37
X96.14Y-53.1
X96.14Y-60.72
X98.68Y-53.1
X98.68Y-60.72
X101.22Y-53.1
X101.22Y-60.72
X103.76Y-53.1
X103.76Y-60.72
X105.1Y-72.52
X105.1Y-75.06
X105.1Y-77.6
X105.1Y-80.14
X105.1Y-82.68
X105.1Y-85.22
X105.1Y-87.76
X105.1Y-90.3
X105.1Y-92.84
X105.1Y-95.38
X105.1Y-102.5
X105.1Y-105.04
X105.1Y-107.58
X105.1Y-110.12
X105.1Y-112.66
X105.1Y-115.2
X105.1Y-117.74
X105.1Y-120.28
X105.1Y-122.82
X105.1Y-125.36
X106.3Y-53.1
X106.3Y-60.72
X108.84Y-53.1
X108.84Y-60.72
X112.72Y-72.52
X112.72Y-75.06
X112.72Y-77.6
X112.72Y-80.14
X112.72Y-82.68
X112.72Y-85.22
X112.72Y-87.76
X112.72Y-90.3
X112.72Y-92.84
X112.72Y-95.38
X112.72Y-102.5
X112.72Y-105.04
X112.72Y-107.58
X112.72Y-110.12
X112.72Y-112.66
X112.72Y-115.2
X112.72Y-117.74
X112.72Y-120.28
X112.72Y-122.82
X112.72Y-125.36
T3
X57.57Y-57.645
X57.57Y-60.185
X57.57Y-62.725
X57.57Y-65.265
X57.57Y-67.805
X57.57Y-70.345
X57.57Y-72.885
X57.57Y-75.425
X57.57Y-77.965
X57.57Y-80.505
X57.57Y-83.045
X57.57Y-85.585
X57.57Y-88.125
X57.57Y-90.665
X57.57Y-93.205
X57.57Y-95.745
X57.57Y-98.285
X57.57Y-100.825
X57.57Y-103.365
X57.57Y-105.905
X57.57Y-108.445
X57.57Y-110.985
X57.57Y-113.525
X57.57Y-116.065
X57.57Y-118.605
X57.57Y-121.145
X57.57Y-123.685
X57.57Y-126.225
X57.57Y-128.765
X57.57Y-131.305
X57.57Y-133.845
X57.57Y-136.385
X60.11Y-57.645
X60.11Y-60.185
X60.11Y-62.725
X60.11Y-65.265
X60.11Y-67.805
X60.11Y-70.345
X60.11Y-72.885
X60.11Y-75.425
X60.11Y-77.965
X60.11Y-80.505
X60.11Y-83.045
X60.11Y-85.585
X60.11Y-88.125
X60.11Y-90.665
X60.11Y-93.205
X60.11Y-95.745
X60.11Y-98.285
X60.11Y-100.825
X60.11Y-103.365
X60.11Y-105.905
X60.11Y-108.445
X60.11Y-110.985
X60.11Y-113.525
X60.11Y-116.065
X60.11Y-118.605
X60.11Y-121.145
X60.11Y-123.685
X60.11Y-126.225
X60.11Y-128.765
X60.11Y-131.305
X60.11Y-133.845
X60.11Y-136.385
X62.65Y-57.645
X62.65Y-60.185
X62.65Y-62.725
X62.65Y-65.265
X62.65Y-67.805
X62.65Y-70.345
T4
X106.0Y-134.5
X106.0Y-137.5
X109.0Y-134.5
X109.0Y-137.5
T5
X59.0Y-51.0
X59.0Y-143.0
X143.0Y-51.0
X143.0Y-143.0
M30
