%TF.GenerationSoftware,KiCad,Pcbnew,9.0.4*%
%TF.CreationDate,2025-09-17T01:15:47-04:00*%
%TF.ProjectId,tta8_lsu,74746138-5f6c-4737-952e-6b696361645f,0*%
%TF.SameCoordinates,Original*%
%TF.FileFunction,Soldermask,Top*%
%TF.FilePolarity,Negative*%
%FSLAX46Y46*%
G04 Gerber Fmt 4.6, Leading zero omitted, Abs format (unit mm)*
G04 Created by KiCad (PCBNEW 9.0.4) date 2025-09-17 01:15:47*
%MOMM*%
%LPD*%
G01*
G04 APERTURE LIST*
G04 Aperture macros list*
%AMRoundRect*
0 Rectangle with rounded corners*
0 $1 Rounding radius*
0 $2 $3 $4 $5 $6 $7 $8 $9 X,Y pos of 4 corners*
0 Add a 4 corners polygon primitive as box body*
4,1,4,$2,$3,$4,$5,$6,$7,$8,$9,$2,$3,0*
0 Add four circle primitives for the rounded corners*
1,1,$1+$1,$2,$3*
1,1,$1+$1,$4,$5*
1,1,$1+$1,$6,$7*
1,1,$1+$1,$8,$9*
0 Add four rect primitives between the rounded corners*
20,1,$1+$1,$2,$3,$4,$5,0*
20,1,$1+$1,$4,$5,$6,$7,0*
20,1,$1+$1,$6,$7,$8,$9,0*
20,1,$1+$1,$8,$9,$2,$3,0*%
G04 Aperture macros list end*
%ADD10R,1.700000X1.700000*%
%ADD11C,1.700000*%
%ADD12RoundRect,0.250000X0.550000X-0.550000X0.550000X0.550000X-0.550000X0.550000X-0.550000X-0.550000X0*%
%ADD13C,1.600000*%
%ADD14RoundRect,0.250000X0.550000X0.550000X-0.550000X0.550000X-0.550000X-0.550000X0.550000X-0.550000X0*%
%ADD15C,6.400000*%
%ADD16O,1.700000X1.700000*%
%ADD17RoundRect,0.250000X-0.550000X-0.550000X0.550000X-0.550000X0.550000X0.550000X-0.550000X0.550000X0*%
%ADD18C,3.000000*%
%ADD19RoundRect,0.250001X0.499999X0.499999X-0.499999X0.499999X-0.499999X-0.499999X0.499999X-0.499999X0*%
%ADD20C,1.500000*%
G04 APERTURE END LIST*
D10*
%TO.C,J2*%
X62650000Y-57645000D03*
D11*
X62650000Y-60185000D03*
X62650000Y-62725000D03*
X62650000Y-65265000D03*
X62650000Y-67805000D03*
X62650000Y-70345000D03*
%TD*%
D12*
%TO.C,U8*%
X93600000Y-60720000D03*
D13*
X96140000Y-60720000D03*
X98680000Y-60720000D03*
X101220000Y-60720000D03*
X103760000Y-60720000D03*
X106300000Y-60720000D03*
X108840000Y-60720000D03*
X108840000Y-53100000D03*
X106300000Y-53100000D03*
X103760000Y-53100000D03*
X101220000Y-53100000D03*
X98680000Y-53100000D03*
X96140000Y-53100000D03*
X93600000Y-53100000D03*
%TD*%
D14*
%TO.C,U4*%
X95700000Y-95360000D03*
D13*
X95700000Y-92820000D03*
X95700000Y-90280000D03*
X95700000Y-87740000D03*
X95700000Y-85200000D03*
X95700000Y-82660000D03*
X95700000Y-80120000D03*
X95700000Y-77580000D03*
X95700000Y-75040000D03*
X95700000Y-72500000D03*
X88080000Y-72500000D03*
X88080000Y-75040000D03*
X88080000Y-77580000D03*
X88080000Y-80120000D03*
X88080000Y-82660000D03*
X88080000Y-85200000D03*
X88080000Y-87740000D03*
X88080000Y-90280000D03*
X88080000Y-92820000D03*
X88080000Y-95360000D03*
%TD*%
D14*
%TO.C,U3*%
X95725000Y-125370000D03*
D13*
X95725000Y-122830000D03*
X95725000Y-120290000D03*
X95725000Y-117750000D03*
X95725000Y-115210000D03*
X95725000Y-112670000D03*
X95725000Y-110130000D03*
X95725000Y-107590000D03*
X95725000Y-105050000D03*
X95725000Y-102510000D03*
X88105000Y-102510000D03*
X88105000Y-105050000D03*
X88105000Y-107590000D03*
X88105000Y-110130000D03*
X88105000Y-112670000D03*
X88105000Y-115210000D03*
X88105000Y-117750000D03*
X88105000Y-120290000D03*
X88105000Y-122830000D03*
X88105000Y-125370000D03*
%TD*%
D15*
%TO.C,H3*%
X59000000Y-143000000D03*
%TD*%
D14*
%TO.C,U5*%
X112720000Y-95380000D03*
D13*
X112720000Y-92840000D03*
X112720000Y-90300000D03*
X112720000Y-87760000D03*
X112720000Y-85220000D03*
X112720000Y-82680000D03*
X112720000Y-80140000D03*
X112720000Y-77600000D03*
X112720000Y-75060000D03*
X112720000Y-72520000D03*
X105100000Y-72520000D03*
X105100000Y-75060000D03*
X105100000Y-77600000D03*
X105100000Y-80140000D03*
X105100000Y-82680000D03*
X105100000Y-85220000D03*
X105100000Y-87760000D03*
X105100000Y-90300000D03*
X105100000Y-92840000D03*
X105100000Y-95380000D03*
%TD*%
D15*
%TO.C,H2*%
X143000000Y-51000000D03*
%TD*%
D12*
%TO.C,U7*%
X71612500Y-60705000D03*
D13*
X74152500Y-60705000D03*
X76692500Y-60705000D03*
X79232500Y-60705000D03*
X81772500Y-60705000D03*
X84312500Y-60705000D03*
X86852500Y-60705000D03*
X86852500Y-53085000D03*
X84312500Y-53085000D03*
X81772500Y-53085000D03*
X79232500Y-53085000D03*
X76692500Y-53085000D03*
X74152500Y-53085000D03*
X71612500Y-53085000D03*
%TD*%
D10*
%TO.C,J1*%
X57570000Y-57645000D03*
D16*
X60110000Y-57645000D03*
X57570000Y-60185000D03*
X60110000Y-60185000D03*
X57570000Y-62725000D03*
X60110000Y-62725000D03*
X57570000Y-65265000D03*
X60110000Y-65265000D03*
X57570000Y-67805000D03*
X60110000Y-67805000D03*
X57570000Y-70345000D03*
X60110000Y-70345000D03*
X57570000Y-72885000D03*
X60110000Y-72885000D03*
X57570000Y-75425000D03*
X60110000Y-75425000D03*
X57570000Y-77965000D03*
X60110000Y-77965000D03*
X57570000Y-80505000D03*
X60110000Y-80505000D03*
X57570000Y-83045000D03*
X60110000Y-83045000D03*
X57570000Y-85585000D03*
X60110000Y-85585000D03*
X57570000Y-88125000D03*
X60110000Y-88125000D03*
X57570000Y-90665000D03*
X60110000Y-90665000D03*
X57570000Y-93205000D03*
X60110000Y-93205000D03*
X57570000Y-95745000D03*
X60110000Y-95745000D03*
X57570000Y-98285000D03*
X60110000Y-98285000D03*
X57570000Y-100825000D03*
X60110000Y-100825000D03*
X57570000Y-103365000D03*
X60110000Y-103365000D03*
X57570000Y-105905000D03*
X60110000Y-105905000D03*
X57570000Y-108445000D03*
X60110000Y-108445000D03*
X57570000Y-110985000D03*
X60110000Y-110985000D03*
X57570000Y-113525000D03*
X60110000Y-113525000D03*
X57570000Y-116065000D03*
X60110000Y-116065000D03*
X57570000Y-118605000D03*
X60110000Y-118605000D03*
X57570000Y-121145000D03*
X60110000Y-121145000D03*
X57570000Y-123685000D03*
X60110000Y-123685000D03*
X57570000Y-126225000D03*
X60110000Y-126225000D03*
X57570000Y-128765000D03*
X60110000Y-128765000D03*
X57570000Y-131305000D03*
X60110000Y-131305000D03*
X57570000Y-133845000D03*
X60110000Y-133845000D03*
X57570000Y-136385000D03*
X60110000Y-136385000D03*
%TD*%
D15*
%TO.C,H1*%
X59000000Y-51000000D03*
%TD*%
D17*
%TO.C,U6*%
X105100000Y-102500000D03*
D13*
X105100000Y-105040000D03*
X105100000Y-107580000D03*
X105100000Y-110120000D03*
X105100000Y-112660000D03*
X105100000Y-115200000D03*
X105100000Y-117740000D03*
X105100000Y-120280000D03*
X105100000Y-122820000D03*
X105100000Y-125360000D03*
X112720000Y-125360000D03*
X112720000Y-122820000D03*
X112720000Y-120280000D03*
X112720000Y-117740000D03*
X112720000Y-115200000D03*
X112720000Y-112660000D03*
X112720000Y-110120000D03*
X112720000Y-107580000D03*
X112720000Y-105040000D03*
X112720000Y-102500000D03*
%TD*%
D14*
%TO.C,U2*%
X77720000Y-95320000D03*
D13*
X77720000Y-92780000D03*
X77720000Y-90240000D03*
X77720000Y-87700000D03*
X77720000Y-85160000D03*
X77720000Y-82620000D03*
X77720000Y-80080000D03*
X77720000Y-77540000D03*
X77720000Y-75000000D03*
X77720000Y-72460000D03*
X70100000Y-72460000D03*
X70100000Y-75000000D03*
X70100000Y-77540000D03*
X70100000Y-80080000D03*
X70100000Y-82620000D03*
X70100000Y-85160000D03*
X70100000Y-87700000D03*
X70100000Y-90240000D03*
X70100000Y-92780000D03*
X70100000Y-95320000D03*
%TD*%
D18*
%TO.C,J3*%
X107500000Y-141820000D03*
D19*
X109000000Y-137500000D03*
D20*
X106000000Y-137500000D03*
X109000000Y-134500000D03*
X106000000Y-134500000D03*
%TD*%
D15*
%TO.C,H4*%
X143000000Y-143000000D03*
%TD*%
D14*
%TO.C,U1*%
X77720000Y-125360000D03*
D13*
X77720000Y-122820000D03*
X77720000Y-120280000D03*
X77720000Y-117740000D03*
X77720000Y-115200000D03*
X77720000Y-112660000D03*
X77720000Y-110120000D03*
X77720000Y-107580000D03*
X77720000Y-105040000D03*
X77720000Y-102500000D03*
X70100000Y-102500000D03*
X70100000Y-105040000D03*
X70100000Y-107580000D03*
X70100000Y-110120000D03*
X70100000Y-112660000D03*
X70100000Y-115200000D03*
X70100000Y-117740000D03*
X70100000Y-120280000D03*
X70100000Y-122820000D03*
X70100000Y-125360000D03*
%TD*%
M02*
